<svg width="183" height="34" viewBox="0 0 183 34" fill="none" xmlns="http://www.w3.org/2000/svg">
<path d="M7.793 1.61V26.937H21.037V33H0.268V1.61H7.793ZM30.5323 19.842H39.3903C39.3616 16.5453 37.8996 14.897 35.0043 14.897C33.6856 14.897 32.6393 15.327 31.8653 16.187C31.0913 17.0183 30.6469 18.2367 30.5323 19.842ZM30.5753 24.099C30.7759 25.5037 31.3636 26.6073 32.3383 27.41C33.3416 28.184 34.6316 28.571 36.2083 28.571C38.3296 28.571 40.4079 28.055 42.4433 27.023L43.9483 31.71C41.3969 32.8567 38.6019 33.43 35.5633 33.43C32.0086 33.43 29.1419 32.3837 26.9633 30.291C24.8133 28.1983 23.7383 25.3747 23.7383 21.82C23.7383 18.2367 24.7416 15.413 26.7483 13.349C28.7549 11.2563 31.4496 10.21 34.8323 10.21C38.3009 10.21 40.9956 11.2133 42.9163 13.22C44.8369 15.198 45.7973 18.036 45.7973 21.734C45.7973 22.6227 45.7399 23.411 45.6253 24.099H30.5753ZM55.2328 10.64L59.6188 29.001H59.7048L64.1338 10.64H71.3578L64.3058 33H54.8458L47.8368 10.64H55.2328ZM79.9571 19.842H88.8151C88.7864 16.5453 87.3244 14.897 84.4291 14.897C83.1104 14.897 82.0641 15.327 81.2901 16.187C80.5161 17.0183 80.0717 18.2367 79.9571 19.842ZM80.0001 24.099C80.2007 25.5037 80.7884 26.6073 81.7631 27.41C82.7664 28.184 84.0564 28.571 85.6331 28.571C87.7544 28.571 89.8327 28.055 91.8681 27.023L93.3731 31.71C90.8217 32.8567 88.0267 33.43 84.9881 33.43C81.4334 33.43 78.5667 32.3837 76.3881 30.291C74.2381 28.1983 73.1631 25.3747 73.1631 21.82C73.1631 18.2367 74.1664 15.413 76.1731 13.349C78.1797 11.2563 80.8744 10.21 84.2571 10.21C87.7257 10.21 90.4204 11.2133 92.3411 13.22C94.2617 15.198 95.2221 18.036 95.2221 21.734C95.2221 22.6227 95.1647 23.411 95.0501 24.099H80.0001ZM100.686 33V0.749997H107.953V33H100.686ZM135.436 1.61V20.659C135.436 25.2457 137.185 27.539 140.682 27.539C144.151 27.539 145.885 25.2457 145.885 20.659V1.61H153.109V20.186C153.109 24.5433 152.034 27.84 149.884 30.076C147.734 32.312 144.638 33.43 140.596 33.43C136.554 33.43 133.444 32.312 131.265 30.076C129.115 27.84 128.04 24.5433 128.04 20.186V1.61H135.436ZM159.208 1.825C162.19 1.395 165.343 1.18 168.668 1.18C177.842 1.18 182.428 4.59133 182.428 11.414C182.428 15.112 181.353 17.9213 179.203 19.842C177.082 21.734 173.957 22.68 169.829 22.68C168.797 22.68 167.651 22.6227 166.389 22.508V33H159.208V1.825ZM166.389 17.09C167.307 17.2333 168.21 17.305 169.098 17.305C171.162 17.305 172.753 16.832 173.871 15.886C175.018 14.9113 175.591 13.564 175.591 11.844C175.591 8.43267 173.427 6.727 169.098 6.727C168.152 6.727 167.249 6.813 166.389 6.985V17.09Z" fill="#555555"/>
</svg>
