<svg width="35" height="35" viewBox="0 0 35 35" fill="none" xmlns="http://www.w3.org/2000/svg">
<path d="M17.5001 26.2499L10.6944 29.1666C9.8843 29.5149 9.11466 29.45 8.3855 28.9719C7.65633 28.4938 7.29175 27.8174 7.29175 26.9427V6.68385C7.29175 6.0276 7.53274 5.45849 8.01472 4.97651C8.49694 4.49453 9.06618 4.25354 9.72243 4.25354H25.2777C25.934 4.25354 26.5032 4.49453 26.9854 4.97651C27.4674 5.45849 27.7084 6.0276 27.7084 6.68385V26.9427C27.7084 27.8174 27.3438 28.4938 26.6147 28.9719C25.8855 29.45 25.1159 29.5149 24.3058 29.1666L17.5001 26.2499ZM17.5001 23.6249L25.2777 26.9306V6.68385H9.72243V26.9306L17.5001 23.6249ZM17.5001 6.68385H9.72243H25.2777H17.5001Z" fill="#7C7C7C"/>
</svg>
