<svg width="24" height="24" viewBox="0 0 24 24" fill="none" xmlns="http://www.w3.org/2000/svg">
<path d="M5 21V5C5 4.45 5.19583 3.97917 5.5875 3.5875C5.97917 3.19583 6.45 3 7 3H17C17.55 3 18.0208 3.19583 18.4125 3.5875C18.8042 3.97917 19 4.45 19 5V21L12 18L5 21Z" fill="#C0CEDB"/>
<path d="M6 19.4835V5C6 4.71732 6.08898 4.50023 6.29461 4.29461C6.50023 4.08898 6.71732 4 7 4H17C17.2827 4 17.4998 4.08898 17.7054 4.29461C17.911 4.50023 18 4.71732 18 5V19.4835L12.3939 17.0809L12 16.912L11.6061 17.0809L6 19.4835Z" stroke="black" stroke-opacity="0.0627451" stroke-width="2"/>
</svg>
