<svg width="35" height="35" viewBox="0 0 35 35" fill="none" xmlns="http://www.w3.org/2000/svg">
<path d="M6.80568 30.625C6.14943 30.625 5.58019 30.384 5.09797 29.902C4.61599 29.4198 4.375 28.8506 4.375 28.1943V6.80566C4.375 6.14941 4.61599 5.58018 5.09797 5.09796C5.58019 4.61598 6.14943 4.37499 6.80568 4.37499H18.0713C18.4762 4.37499 18.7801 4.50113 18.9828 4.75343C19.1852 5.00572 19.2865 5.28317 19.2865 5.58577C19.2865 5.88862 19.1817 6.16764 18.9722 6.42285C18.7627 6.67806 18.4582 6.80566 18.0589 6.80566H6.80568V28.1943H28.1943V16.8558C28.1943 16.4508 28.3205 16.147 28.5728 15.9443C28.8251 15.7418 29.1026 15.6406 29.4055 15.6406C29.7081 15.6406 29.987 15.7418 30.2422 15.9443C30.4974 16.147 30.625 16.4508 30.625 16.8558V28.1943C30.625 28.8506 30.384 29.4198 29.902 29.902C29.4198 30.384 28.8506 30.625 28.1943 30.625H6.80568ZM13.125 20.6598V16.6859C13.125 16.3546 13.1898 16.0389 13.3193 15.7387C13.4491 15.4383 13.6234 15.1787 13.8421 14.9599L26.8698 1.93228C27.1128 1.68922 27.3842 1.51094 27.6839 1.39744C27.9838 1.28417 28.2836 1.22754 28.5833 1.22754C28.8913 1.22754 29.1956 1.2883 29.4963 1.40983C29.7972 1.53136 30.0722 1.71365 30.3213 1.95671L33.0192 4.69108C33.2477 4.93341 33.4243 5.20101 33.549 5.49389C33.6736 5.78678 33.736 6.08464 33.736 6.38749C33.736 6.69058 33.6773 6.99403 33.5599 7.29785C33.4425 7.60167 33.2623 7.87511 33.0192 8.11816L20.0401 21.1458C19.8213 21.3646 19.5617 21.5408 19.2613 21.6745C18.9611 21.8081 18.6454 21.875 18.3141 21.875H14.3402C13.996 21.875 13.7074 21.7586 13.4743 21.5257C13.2414 21.2926 13.125 21.004 13.125 20.6598ZM15.5557 19.4443H18.3021L27.2708 10.4756L25.8854 9.11457L24.488 7.75358L15.5557 16.6614V19.4443Z" fill="#7C7C7C"/>
</svg>
