<svg width="24" height="24" viewBox="0 0 24 24" fill="none" xmlns="http://www.w3.org/2000/svg">
<path d="M12 20.9999L10.55 19.6999C8.86667 18.1832 7.475 16.8749 6.375 15.7749C5.275 14.6749 4.4 13.6874 3.75 12.8124C3.1 11.9374 2.64583 11.1332 2.3875 10.3999C2.12917 9.66657 2 8.91657 2 8.1499C2 6.58324 2.525 5.2749 3.575 4.2249C4.625 3.1749 5.93333 2.6499 7.5 2.6499C8.36667 2.6499 9.19167 2.83324 9.975 3.1999C10.7583 3.56657 11.4333 4.08324 12 4.7499C12.5667 4.08324 13.2417 3.56657 14.025 3.1999C14.8083 2.83324 15.6333 2.6499 16.5 2.6499C18.0667 2.6499 19.375 3.1749 20.425 4.2249C21.475 5.2749 22 6.58324 22 8.1499C22 8.91657 21.8708 9.66657 21.6125 10.3999C21.3542 11.1332 20.9 11.9374 20.25 12.8124C19.6 13.6874 18.725 14.6749 17.625 15.7749C16.525 16.8749 15.1333 18.1832 13.45 19.6999L12 20.9999Z" fill="#DBC0C0"/>
<path d="M16.9179 15.0678C15.8346 16.1511 14.457 17.4465 12.7819 18.9558C12.7815 18.9562 12.7811 18.9566 12.7806 18.957L12 19.6568L11.2194 18.957C11.2189 18.9566 11.2185 18.9562 11.2181 18.9558C9.54298 17.4465 8.16543 16.1511 7.08211 15.0678C6.00337 13.9891 5.16423 13.0392 4.55274 12.2161C3.94048 11.3919 3.54532 10.6769 3.33069 10.0676C3.10942 9.43951 3 8.80178 3 8.1499C3 6.83223 3.43081 5.7833 4.28211 4.93201C5.1334 4.08072 6.18232 3.6499 7.5 3.6499C8.22046 3.6499 8.9007 3.80117 9.55106 4.10559C10.203 4.41075 10.7631 4.83882 11.2381 5.39755L12 6.29395L12.7619 5.39755C13.2369 4.83882 13.797 4.41075 14.4489 4.10559C15.0993 3.80117 15.7795 3.6499 16.5 3.6499C17.8177 3.6499 18.8666 4.08072 19.7179 4.93201C20.5692 5.7833 21 6.83223 21 8.1499C21 8.80178 20.8906 9.43951 20.6693 10.0676C20.4547 10.6769 20.0595 11.3919 19.4473 12.2161C18.8358 13.0392 17.9966 13.9891 16.9179 15.0678Z" stroke="black" stroke-opacity="0.0627451" stroke-width="2"/>
</svg>
