<svg width="35" height="35" viewBox="0 0 35 35" fill="none" xmlns="http://www.w3.org/2000/svg">
<path d="M8.26393 28.1944H13.3681V20.4167C13.3681 20.0723 13.4845 19.7837 13.7174 19.5508C13.9502 19.318 14.2388 19.2015 14.5833 19.2015H20.4166C20.761 19.2015 21.0496 19.318 21.2825 19.5508C21.5153 19.7837 21.6317 20.0723 21.6317 20.4167V28.1944H26.7359V14.3402L17.4999 7.4131L8.26393 14.3402V28.1944ZM5.83325 28.1944V14.3402C5.83325 13.9554 5.91929 13.5908 6.09138 13.2464C6.2637 12.9023 6.50178 12.6187 6.8056 12.3959L16.0416 5.46878C16.4657 5.14479 16.9505 4.98279 17.4959 4.98279C18.0413 4.98279 18.5288 5.14479 18.9583 5.46878L28.1942 12.3959C28.4981 12.6187 28.7361 12.9023 28.9085 13.2464C29.0805 13.5908 29.1666 13.9554 29.1666 14.3402V28.1944C29.1666 28.8628 28.9286 29.435 28.4527 29.9112C27.9766 30.3871 27.4043 30.625 26.7359 30.625H20.4166C20.0722 30.625 19.7835 30.5086 19.5507 30.2758C19.3179 30.0427 19.2014 29.754 19.2014 29.4099V21.6318H15.7984V29.4099C15.7984 29.754 15.682 30.0427 15.4491 30.2758C15.2163 30.5086 14.9277 30.625 14.5833 30.625H8.26393C7.59553 30.625 7.02325 30.3871 6.54711 29.9112C6.0712 29.435 5.83325 28.8628 5.83325 28.1944Z" fill="#7C7C7C"/>
</svg>
