<svg width="35" height="35" viewBox="0 0 35 35" fill="none" xmlns="http://www.w3.org/2000/svg">
<path d="M8.50455 29.1667C7.76883 29.1667 7.13968 28.9049 6.61711 28.3814C6.09454 27.8579 5.83325 27.2285 5.83325 26.4932V20.1735C5.83325 19.4383 6.09527 18.8089 6.61929 18.2854C7.14332 17.7618 7.7732 17.5 8.50893 17.5C9.2449 17.5 9.87417 17.7618 10.3967 18.2854C10.9193 18.8089 11.1806 19.4383 11.1806 20.1735V26.4932C11.1806 27.2285 10.9186 27.8579 10.3946 28.3814C9.87053 28.9049 9.24053 29.1667 8.50455 29.1667ZM17.4977 29.1667C16.762 29.1667 16.1329 28.9049 15.6103 28.3814C15.0877 27.8579 14.8264 27.2285 14.8264 26.4932V8.50686C14.8264 7.77162 15.0884 7.14223 15.6125 6.61869C16.1363 6.09514 16.7661 5.83337 17.5021 5.83337C18.2378 5.83337 18.867 6.09514 19.3896 6.61869C19.9121 7.14223 20.1734 7.77162 20.1734 8.50686V26.4932C20.1734 27.2285 19.9114 27.8579 19.3874 28.3814C18.8636 28.9049 18.2337 29.1667 17.4977 29.1667ZM26.4909 29.1667C25.7549 29.1667 25.1257 28.9049 24.6031 28.3814C24.0805 27.8579 23.8192 27.2285 23.8192 26.4932V15.7985C23.8192 15.0633 24.0813 14.4339 24.6053 13.9104C25.1293 13.3868 25.7593 13.125 26.4953 13.125C27.231 13.125 27.8602 13.3868 28.3827 13.9104C28.9053 14.4339 29.1666 15.0633 29.1666 15.7985V26.4932C29.1666 27.2285 28.9046 27.8579 28.3805 28.3814C27.8565 28.9049 27.2266 29.1667 26.4909 29.1667Z" fill="#7C7C7C"/>
</svg>
