<svg width="35" height="35" viewBox="0 0 35 35" fill="none" xmlns="http://www.w3.org/2000/svg">
<path d="M7.04841 27.7083C6.70424 27.7083 6.41561 27.5914 6.18252 27.3576C5.94968 27.124 5.83325 26.8344 5.83325 26.4888C5.83325 26.1431 5.94968 25.8549 6.18252 25.624C6.41561 25.3931 6.70424 25.2776 7.04841 25.2776H8.74992V14.486C8.74992 12.4525 9.35355 10.6357 10.5608 9.03543C11.7678 7.43539 13.3517 6.41663 15.3124 5.97913V5.10413C15.3124 4.49649 15.5251 3.97999 15.9504 3.55465C16.3758 3.1293 16.8923 2.91663 17.4999 2.91663C18.1076 2.91663 18.6241 3.1293 19.0494 3.55465C19.4747 3.97999 19.6874 4.49649 19.6874 5.10413V5.97913C21.6481 6.41663 23.232 7.43539 24.439 9.03543C25.6463 10.6357 26.2499 12.4525 26.2499 14.486V25.2776H27.9514C28.2956 25.2776 28.5842 25.3945 28.8173 25.6283C29.0502 25.8622 29.1666 26.1518 29.1666 26.4972C29.1666 26.8428 29.0502 27.131 28.8173 27.3619C28.5842 27.5928 28.2956 27.7083 27.9514 27.7083H7.04841ZM17.4999 32.0833C16.6978 32.0833 16.0112 31.7977 15.44 31.2265C14.8688 30.6553 14.5833 29.9687 14.5833 29.1666H20.4166C20.4166 29.9687 20.131 30.6553 19.5598 31.2265C18.9886 31.7977 18.302 32.0833 17.4999 32.0833ZM11.1806 25.2776H23.8192V14.486C23.8192 12.736 23.2036 11.2453 21.9723 10.014C20.7407 8.78241 19.2499 8.16663 17.4999 8.16663C15.7499 8.16663 14.2591 8.78241 13.0276 10.014C11.7963 11.2453 11.1806 12.736 11.1806 14.486V25.2776Z" fill="#7C7C7C"/>
</svg>
