<svg width="25" height="25" viewBox="0 0 25 25" fill="none" xmlns="http://www.w3.org/2000/svg">
<path fill-rule="evenodd" clip-rule="evenodd" d="M18.1818 10.2273C18.1818 14.6205 14.6205 18.1818 10.2273 18.1818C5.83409 18.1818 2.27273 14.6205 2.27273 10.2273C2.27273 5.83409 5.83409 2.27273 10.2273 2.27273C14.6205 2.27273 18.1818 5.83409 18.1818 10.2273ZM16.611 18.218C14.8614 19.6177 12.6421 20.4545 10.2273 20.4545C4.57891 20.4545 0 15.8756 0 10.2273C0 4.57891 4.57891 0 10.2273 0C15.8756 0 20.4545 4.57891 20.4545 10.2273C20.4545 12.6421 19.6177 14.8614 18.218 16.611L24.6673 23.06C25.1109 23.5039 25.1109 24.2234 24.6673 24.6673C24.2234 25.1109 23.5039 25.1109 23.06 24.6673L16.611 18.218Z" fill="#ACACAC"/>
</svg>
