<svg width="35" height="35" viewBox="0 0 35 35" fill="none" xmlns="http://www.w3.org/2000/svg">
<path d="M15.4949 32.0833C15.0494 32.0833 14.6584 31.9375 14.322 31.6458C13.9859 31.3541 13.7854 30.9895 13.7205 30.552L13.2465 27.4651C12.8333 27.3113 12.41 27.1088 11.9767 26.8577C11.5433 26.6064 11.1523 26.3431 10.8038 26.0677L7.96005 27.3557C7.53082 27.5422 7.10146 27.5625 6.67198 27.4166C6.2425 27.2708 5.90624 26.9994 5.66318 26.6025L3.6824 23.0781C3.43934 22.6812 3.37044 22.264 3.47568 21.8265C3.58117 21.389 3.8162 21.0284 4.18078 20.7448L6.76933 18.8245C6.72873 18.622 6.70443 18.4013 6.69641 18.1624C6.68814 17.9232 6.68401 17.7024 6.68401 17.5C6.68401 17.2975 6.68814 17.0767 6.69641 16.8375C6.70443 16.5986 6.72873 16.3779 6.76933 16.1754L4.18078 14.2552C3.8162 13.9715 3.58117 13.611 3.47568 13.1735C3.37044 12.736 3.43934 12.3187 3.6824 11.9218L5.66318 8.39741C5.90624 8.0005 6.2425 7.72913 6.67198 7.58329C7.10146 7.43746 7.53082 7.45775 7.96005 7.64418L10.8038 8.93225C11.1523 8.65687 11.5454 8.39352 11.9829 8.1422C12.4204 7.89112 12.8416 7.69668 13.2465 7.55887L13.7205 4.44788C13.7854 4.01038 13.9859 3.64579 14.322 3.35413C14.6584 3.06246 15.0494 2.91663 15.4949 2.91663H19.5053C19.9508 2.91663 20.3418 3.06246 20.6782 3.35413C21.0143 3.64579 21.2148 4.01038 21.2797 4.44788L21.7537 7.5348C22.1669 7.68866 22.5942 7.88711 23.0356 8.13017C23.4772 8.37322 23.8642 8.64058 24.1964 8.93225L27.0402 7.64418C27.4694 7.45775 27.8947 7.43746 28.3162 7.58329C28.7374 7.72913 29.0696 8.0005 29.3126 8.39741L31.3178 11.9218C31.5609 12.3187 31.6298 12.7401 31.5245 13.1858C31.4191 13.6314 31.184 13.9878 30.8194 14.2552L28.2309 16.1266C28.2715 16.3453 28.2958 16.5743 28.3038 16.8134C28.3121 17.0524 28.3162 17.2812 28.3162 17.5C28.3162 17.7187 28.3121 17.9435 28.3038 18.1744C28.2958 18.4053 28.2675 18.6302 28.2189 18.8489L30.8074 20.7448C31.172 21.0121 31.4069 21.3686 31.5121 21.8141C31.6176 22.2598 31.5488 22.6812 31.3058 23.0781L29.3126 26.6025C29.0696 26.9994 28.7333 27.2708 28.3038 27.4166C27.8746 27.5625 27.4452 27.5422 27.0157 27.3557L24.1964 26.0677C23.8479 26.3431 23.459 26.6104 23.0297 26.8698C22.6003 27.1291 22.1749 27.3275 21.7537 27.4651L21.2797 30.552C21.2148 30.9895 21.0143 31.3541 20.6782 31.6458C20.3418 31.9375 19.9508 32.0833 19.5053 32.0833H15.4949ZM15.9444 29.6526H19.0434L19.5538 25.6422C20.3398 25.4478 21.0792 25.15 21.7719 24.749C22.4646 24.3479 23.0945 23.8639 23.6616 23.2968L27.4412 24.913L28.8871 22.3369L25.5574 19.8698C25.6626 19.4809 25.7437 19.0899 25.8006 18.6969C25.8572 18.3041 25.8855 17.9051 25.8855 17.5C25.8855 17.0948 25.8612 16.6958 25.8126 16.303C25.764 15.91 25.6789 15.5191 25.5574 15.1302L28.8871 12.663L27.4412 10.0869L23.6616 11.7151C23.1106 11.1075 22.4928 10.5991 21.8084 10.1901C21.1237 9.781 20.3722 9.50355 19.5538 9.35772L19.0558 5.3473H15.9568L15.4464 9.35772C14.6443 9.53588 13.8969 9.82548 13.2042 10.2265C12.5115 10.6276 11.8897 11.1198 11.3386 11.7031L7.55901 10.0869L6.11308 12.663L9.44282 15.1181C9.33757 15.515 9.25651 15.9079 9.19964 16.2968C9.14301 16.6857 9.11469 17.0868 9.11469 17.5C9.11469 17.9051 9.14301 18.3022 9.19964 18.6911C9.25651 19.0799 9.33757 19.4728 9.44282 19.8698L6.11308 22.3369L7.55901 24.913L11.3386 23.2848C11.9057 23.8599 12.5356 24.3479 13.2283 24.749C13.921 25.15 14.6604 25.4478 15.4464 25.6422L15.9444 29.6526ZM17.5245 22.3609C18.8694 22.3609 20.0157 21.887 20.9636 20.9391C21.9116 19.9912 22.3855 18.8448 22.3855 17.5C22.3855 16.1551 21.9116 15.0088 20.9636 14.0608C20.0157 13.1129 18.8694 12.639 17.5245 12.639C16.1714 12.639 15.023 13.1129 14.0792 14.0608C13.1352 15.0088 12.6632 16.1551 12.6632 17.5C12.6632 18.8448 13.1352 19.9912 14.0792 20.9391C15.023 21.887 16.1714 22.3609 17.5245 22.3609Z" fill="#7C7C7C"/>
</svg>
