<svg width="35" height="35" viewBox="0 0 35 35" fill="none" xmlns="http://www.w3.org/2000/svg">
<path d="M6.80568 16.2848C6.13727 16.2848 5.565 16.0468 5.08885 15.5706C4.61295 15.0947 4.375 14.5226 4.375 13.8542V6.80568C4.375 6.13727 4.61295 5.565 5.08885 5.08885C5.565 4.61295 6.13727 4.375 6.80568 4.375H13.8542C14.5226 4.375 15.0947 4.61295 15.5706 5.08885C16.0468 5.565 16.2848 6.13727 16.2848 6.80568V13.8542C16.2848 14.5226 16.0468 15.0947 15.5706 15.5706C15.0947 16.0468 14.5226 16.2848 13.8542 16.2848H6.80568ZM6.80568 30.625C6.13727 30.625 5.565 30.387 5.08885 29.9111C4.61295 29.435 4.375 28.8627 4.375 28.1943V21.1458C4.375 20.4774 4.61295 19.9053 5.08885 19.4294C5.565 18.9532 6.13727 18.7152 6.80568 18.7152H13.8542C14.5226 18.7152 15.0947 18.9532 15.5706 19.4294C16.0468 19.9053 16.2848 20.4774 16.2848 21.1458V28.1943C16.2848 28.8627 16.0468 29.435 15.5706 29.9111C15.0947 30.387 14.5226 30.625 13.8542 30.625H6.80568ZM21.1458 16.2848C20.4774 16.2848 19.9053 16.0468 19.4294 15.5706C18.9532 15.0947 18.7152 14.5226 18.7152 13.8542V6.80568C18.7152 6.13727 18.9532 5.565 19.4294 5.08885C19.9053 4.61295 20.4774 4.375 21.1458 4.375H28.1943C28.8627 4.375 29.435 4.61295 29.9111 5.08885C30.387 5.565 30.625 6.13727 30.625 6.80568V13.8542C30.625 14.5226 30.387 15.0947 29.9111 15.5706C29.435 16.0468 28.8627 16.2848 28.1943 16.2848H21.1458ZM21.1458 30.625C20.4774 30.625 19.9053 30.387 19.4294 29.9111C18.9532 29.435 18.7152 28.8627 18.7152 28.1943V21.1458C18.7152 20.4774 18.9532 19.9053 19.4294 19.4294C19.9053 18.9532 20.4774 18.7152 21.1458 18.7152H28.1943C28.8627 18.7152 29.435 18.9532 29.9111 19.4294C30.387 19.9053 30.625 20.4774 30.625 21.1458V28.1943C30.625 28.8627 30.387 29.435 29.9111 29.9111C29.435 30.387 28.8627 30.625 28.1943 30.625H21.1458ZM6.80568 13.8542H13.8542V6.80568H6.80568V13.8542ZM21.1458 13.8542H28.1943V6.80568H21.1458V13.8542ZM21.1458 28.1943H28.1943V21.1458H21.1458V28.1943ZM6.80568 28.1943H13.8542V21.1458H6.80568V28.1943Z" fill="#7C7C7C"/>
</svg>
