<svg width="35" height="35" viewBox="0 0 35 35" fill="none" xmlns="http://www.w3.org/2000/svg">
<g clip-path="url(#clip0_232_65)">
<circle cx="17.6088" cy="17.6087" r="16.3043" fill="#C4DDD1"/>
<mask id="mask0_232_65" style="mask-type:alpha" maskUnits="userSpaceOnUse" x="1" y="1" width="33" height="33">
<path d="M17.6088 33.913C26.6134 33.913 33.9131 26.6133 33.9131 17.6087C33.9131 8.60403 26.6134 1.30432 17.6088 1.30432C8.60415 1.30432 1.30444 8.60403 1.30444 17.6087C1.30444 26.6133 8.60415 33.913 17.6088 33.913Z" fill="white"/>
</mask>
<g mask="url(#mask0_232_65)">
<mask id="mask1_232_65" style="mask-type:luminance" maskUnits="userSpaceOnUse" x="1" y="1" width="33" height="33">
<path d="M33.9131 1.30432H1.30444V33.913H33.9131V1.30432Z" fill="white"/>
</mask>
<g mask="url(#mask1_232_65)">
<path fill-rule="evenodd" clip-rule="evenodd" d="M31.6482 51.0612C31.463 50.0153 31.2932 48.9666 31.1391 47.9157C31.0658 47.4168 30.9945 46.9173 30.9302 46.417C30.8852 46.0666 30.8167 45.6657 31.0552 45.4062C31.3906 45.041 31.6952 44.7281 31.7363 44.2049C31.775 43.7125 31.6084 43.1757 31.5045 42.6977C31.2863 41.6953 31.0145 40.7053 30.7143 39.7249C30.4093 38.7286 30.0747 37.7416 29.7356 36.7566C29.4184 35.8357 29.1134 34.9066 28.7004 34.0229C27.9163 32.3462 26.59 31.1044 24.9506 30.2753C24.543 30.069 23.7115 29.3329 23.2854 29.1681C22.8939 29.0166 22.8953 29.459 22.5099 29.2923C22.2018 29.159 21.9149 28.9814 21.7424 28.6838C21.5551 28.3607 21.0855 27.9088 21.0139 27.5327C20.8624 26.7355 21.0265 26.0568 20.4578 25.4568C19.9529 24.924 19.2742 24.559 18.5719 24.3631C17.0271 23.932 14.9669 24.2333 14.0348 25.6694C13.5897 26.3553 13.4341 27.1842 12.8334 27.7438C12.3089 28.2325 12.4263 28.5666 11.7469 28.8186C11.7084 28.8329 10.6655 28.609 10.627 28.6233C9.88381 28.4642 9.17348 28.9097 8.49163 29.1681C7.47511 29.5533 6.50733 30.0546 5.59809 30.6507C3.7647 31.8525 2.19444 33.4129 0.899873 35.1788C-0.405393 36.959 -1.41815 38.9547 -2.13926 41.0403C-2.31439 41.5468 -2.47169 42.0597 -2.61043 42.5775C-2.6881 42.867 -2.77108 43.1677 -2.67652 43.4644C-2.59917 43.707 -2.42713 43.8877 -2.2251 44.0333C-1.95123 44.2307 -1.40189 44.3592 -1.41258 44.7562C-1.42076 45.0581 -1.52315 45.3757 -1.5731 45.674C-1.63258 46.0294 -1.68145 46.3868 -1.73032 46.7436C-1.9526 48.3677 -2.12563 50.001 -2.20213 51.639C-2.27745 53.2518 -2.33995 54.8975 -2.22813 56.5099C-2.22073 56.6162 -2.18904 56.7138 -2.13793 56.7962C-2.18565 56.8144 -2.18932 56.9036 -2.12993 56.9162C-2.08832 56.9249 -2.0468 56.9338 -2.00519 56.9425C-1.91876 57.0079 -1.81097 57.0481 -1.68691 57.052C-1.60282 57.0546 -1.51878 57.0586 -1.43478 57.0627C-0.548321 57.2481 0.337992 57.4233 1.23602 57.556C2.32763 57.717 3.42245 57.8483 4.52068 57.9553C6.77733 58.1746 9.01622 58.1018 11.2759 57.9836C13.532 57.8655 15.7869 57.8379 18.0454 57.8966C20.3058 57.9555 22.5655 58.0538 24.8265 58.094C27.3524 58.139 29.8745 58.0701 32.3932 57.8692C32.7387 57.8416 32.9521 57.5668 32.8841 57.2236C32.4761 55.1679 32.0137 53.126 31.6482 51.0612Z" fill="#F9F9F9"/>
<path fill-rule="evenodd" clip-rule="evenodd" d="M9.92213 28.5726C10.1557 28.5626 10.3939 28.6004 10.6269 28.6233C10.6472 28.6252 10.655 28.6565 10.6321 28.6613C10.215 28.7485 9.80254 28.8678 9.39294 28.9889L9.21757 29.0409C8.75567 29.1774 8.30733 29.3185 7.86018 29.5009C6.96898 29.8641 6.12259 30.3546 5.34361 30.918C2.34397 33.0876 0.172963 36.3724 -1.19707 39.7735C-1.56913 40.697 -1.88437 41.6435 -2.13972 42.6061C-2.20183 42.8402 -2.26024 43.0754 -2.31563 43.3113C-2.33189 43.3804 -2.40276 43.5574 -2.36389 43.6283C-2.32954 43.6907 -2.19598 43.7293 -2.13394 43.762L-1.92446 43.8707C-1.51585 44.0813 -0.835202 44.4276 -0.766948 44.4613L-0.660496 44.5137C1.08065 45.3676 2.94106 46.0917 4.90039 46.1417L4.91574 45.9743C5.00309 45.0491 5.11772 44.1187 5.36794 43.2217C5.38139 43.1737 5.44272 43.1898 5.44833 43.2326C5.5877 44.2946 5.54315 45.3646 5.49452 46.4315C5.40841 48.3209 5.29404 50.2091 5.19241 52.0978C5.14152 53.0426 5.07576 53.9867 5.01637 54.9309C4.95689 55.8772 4.93765 56.8461 4.80183 57.7844C4.77157 57.9935 4.52667 58.1072 4.34122 58.0852C4.13602 58.0609 3.97817 57.88 3.9772 57.6728C3.97472 57.1261 4.04339 56.573 4.08154 56.0276C4.11778 55.5096 4.1567 54.9917 4.19657 54.4739C4.34224 52.5841 4.50983 50.6965 4.66483 48.8076C4.71976 48.1376 4.77911 47.4683 4.8402 46.7989C2.76457 46.732 0.825459 45.9628 -1.02441 45.0644C-1.0512 45.6724 -1.11587 46.2796 -1.17846 46.8852C-1.35322 48.5754 -1.5073 50.265 -1.62263 51.9602C-1.68087 52.8165 -1.72326 53.6739 -1.76017 54.5313C-1.77833 54.9528 -1.79311 55.3744 -1.80446 55.7959C-1.80826 55.9365 -1.81167 56.077 -1.81472 56.2176L-1.82102 56.5396C-1.8262 56.7437 -1.84691 56.9326 -2.01852 57.0811C-2.19283 57.232 -2.42824 57.24 -2.60076 57.0811C-2.83167 56.8685 -2.79085 56.5785 -2.784 56.2928C-2.7783 56.052 -2.77146 55.8109 -2.76352 55.57C-2.74759 55.0883 -2.72724 54.6065 -2.70248 54.125C-2.61585 52.4417 -2.44278 50.7652 -2.21659 49.0954L-2.12828 48.4509C-1.96339 47.2526 -1.78235 46.0272 -1.41374 44.8728C-1.55728 44.8013 -1.70039 44.7296 -1.84293 44.6572C-2.09583 44.5291 -2.35728 44.4089 -2.60309 44.2676C-2.79811 44.1554 -2.96628 44.0015 -3.02057 43.7746C-3.08111 43.5217 -2.98854 43.245 -2.92704 42.9983L-2.9217 42.9765C-2.86139 42.728 -2.79646 42.4809 -2.72794 42.2346C-2.45007 41.2357 -2.10648 40.2563 -1.70437 39.3009C-0.899261 37.388 0.139941 35.5709 1.40934 33.9278C2.55197 32.4489 3.90178 31.1076 5.48383 30.1015C6.25724 29.6098 7.08146 29.2061 7.95313 28.9204C8.36054 28.7872 8.80385 28.6711 9.23041 28.6233C9.46052 28.5974 9.69094 28.5828 9.92213 28.5726ZM14.0608 25.5417C14.3384 25.2435 14.8899 25.552 14.7567 25.947C14.4432 26.8759 13.9439 27.7233 13.1648 28.3337C12.4324 28.9076 11.5591 29.2802 10.6186 29.2007C10.6113 29.2 10.6051 29.1983 10.5995 29.1957L10.6806 29.3057C11.3169 30.1667 11.9882 31.0159 12.7972 31.7196C14.4457 33.1537 16.6902 33.9272 18.8575 33.377C20.5628 32.9441 22.065 31.595 22.5069 29.8761C22.4435 29.9043 22.3683 29.9141 22.2856 29.8961C21.9321 29.8194 21.5822 29.4474 21.3542 29.1807C21.1075 28.8922 20.9149 28.5807 20.7737 28.2287C20.5154 27.5841 20.4325 26.7543 20.7853 26.1302C20.8288 26.0533 20.9293 26.0963 20.9378 26.1715L20.9512 26.2887C21.0192 26.8737 21.104 27.4398 21.3797 27.973C21.5147 28.2341 21.6764 28.4887 21.8733 28.7074C21.9787 28.8243 22.0929 28.9361 22.2162 29.0341C22.3364 29.1296 22.4818 29.1987 22.5895 29.3083L22.6092 29.3293L22.6098 29.3254C22.637 29.0939 22.7994 28.992 22.9582 28.9983C23.1121 29.0043 23.2925 29.0722 23.3625 29.1046L23.369 29.1076C24.4416 29.6226 25.4295 30.2941 26.359 31.0389C28.2814 32.5791 29.7216 34.5926 30.4195 36.9639C30.7621 38.1276 30.9586 39.3267 31.166 40.5202L31.2938 41.2515C31.4875 42.3535 31.7038 43.477 32.141 44.502C32.254 44.7672 32.1668 45.0157 31.8895 45.12C31.5434 45.2502 31.1958 45.3763 30.8477 45.5009C31.0188 46.2341 31.1229 46.993 31.251 47.7302C31.5232 49.2967 31.8566 50.8535 32.1425 52.4183C32.2888 53.2183 32.4205 54.0209 32.5666 54.8209C32.6371 55.2063 32.7103 55.5911 32.7819 55.9761C32.8203 56.1837 32.8551 56.3922 32.8918 56.6L32.8982 56.6346C32.9192 56.7444 32.9455 56.8578 32.9153 56.9676C32.881 57.0928 32.7834 57.1811 32.6962 57.2709C32.6242 57.3448 32.5205 57.3454 32.4327 57.305L32.4038 57.2915C32.2466 57.218 32.1236 57.1448 32.0679 56.9676C32.0325 56.8552 32.0199 56.7289 31.9968 56.6133C31.9525 56.3915 31.9105 56.1696 31.871 55.947C31.7919 55.5015 31.7145 55.0559 31.639 54.6098L31.5686 54.1922C31.3264 52.7528 31.0966 51.3046 30.9803 49.85C30.9288 49.2046 30.8742 48.5598 30.819 47.915L30.7777 47.4313C30.7253 46.8189 30.6612 46.1913 30.6523 45.5709L30.4442 45.6448L29.4286 46.0039C29.1768 46.0928 28.8562 46.2752 28.5853 46.242C28.4527 46.2259 28.3516 46.1839 28.2734 46.108C28.3671 47.4283 28.4936 48.7461 28.6623 50.0574C28.8158 51.2502 28.986 52.4417 29.1869 53.6278C29.2864 54.215 29.3886 54.8017 29.4999 55.387C29.5553 55.6796 29.6127 55.9717 29.6716 56.2637C29.7012 56.4094 29.7362 56.5552 29.7592 56.702C29.7853 56.8702 29.739 56.9735 29.6451 57.112C29.5682 57.2257 29.4138 57.2839 29.2888 57.2054C29.1232 57.1015 29.0368 57.0115 28.9879 56.8222C28.9438 56.6502 28.9169 56.4707 28.8825 56.2963C28.8192 55.9748 28.7582 55.653 28.6992 55.3307C28.5758 54.6565 28.4621 53.9807 28.3603 53.303C28.0025 50.9152 27.7753 48.5074 27.6605 46.0959C27.6038 44.9059 27.5864 43.715 27.5964 42.5239C27.6016 41.9135 27.6216 41.3011 27.6647 40.6922C27.7084 40.0757 27.7995 39.4715 27.8805 38.8611C27.8834 38.8396 27.9138 38.8383 27.9151 38.8611C27.9534 39.5454 28.0138 40.2291 28.0432 40.9154C28.0714 41.5704 28.0838 42.2263 28.1062 42.8813C28.1355 43.7424 28.1764 44.6041 28.2305 45.465C28.3284 45.358 28.476 45.2963 28.6236 45.3204C28.8373 45.2754 29.0675 45.1633 29.2714 45.095L30.0399 44.8383C30.444 44.7033 30.8479 44.5691 31.2536 44.4391C30.891 43.2191 30.6427 41.9809 30.4305 40.7248L30.336 40.1598C30.1488 39.0476 29.9471 37.935 29.6079 36.8583C29.2516 35.7261 28.7182 34.6735 28.0105 33.7202C27.3129 32.7807 26.4645 31.9535 25.5908 31.1798C24.8427 30.5174 24.0425 29.9193 23.2795 29.2752C23.2875 29.3178 23.2892 29.365 23.2823 29.4165C23.1199 30.6041 22.5006 31.7102 21.6375 32.533C19.9035 34.1857 17.3367 34.5285 15.1174 33.7535C12.9706 33.0039 11.0726 31.2285 10.402 29.0315C10.3905 28.9939 10.4408 28.9789 10.461 29.0065C10.4982 29.0576 10.5356 29.1085 10.573 29.1596C10.5705 29.1393 10.581 29.1172 10.606 29.1076C11.3885 28.8054 12.1568 28.3767 12.7433 27.7704C13.0291 27.4748 13.2786 27.14 13.4755 26.7789C13.5699 26.6059 13.6546 26.4267 13.7222 26.2415L13.7394 26.1937C13.8213 25.9617 13.8898 25.7254 14.0608 25.5417Z" fill="#4F4F4F"/>
<path fill-rule="evenodd" clip-rule="evenodd" d="M18.5231 6.35607C21.1309 6.35607 24.3972 9.33203 25.353 10.5984C26.1567 11.6631 26.043 17.1482 26.043 20.4019C26.043 21.0824 25.7354 22.3703 25.6239 23.0212C25.2148 25.4065 23.4328 27.407 19.9055 27.407C17.0336 27.407 14.8234 26.497 12.6861 24.1694C12.1986 23.6383 9.81727 25.5394 9.33027 24.8548C8.05821 24.8548 6.99458 12.965 9.49208 9.39879C11.9896 5.83255 15.9153 6.35607 18.5231 6.35607Z" fill="#F9F9F9"/>
<path fill-rule="evenodd" clip-rule="evenodd" d="M10.6853 7.19357C12.1922 5.82209 14.1997 5.16231 16.2251 5.21101C17.274 5.23629 18.3194 5.43616 19.31 5.77844C19.8056 5.95029 20.2856 6.17448 20.7444 6.42811C20.9097 6.51931 21.0621 6.62614 21.2089 6.73961L21.2454 6.76811H21.2459C21.6395 6.90964 21.9908 7.1637 22.3096 7.46098C22.9484 7.40998 23.5924 7.4674 24.21 7.66451C25.0698 7.93927 25.8659 8.44238 26.4248 9.15683C27.0759 9.98859 27.2922 10.9975 27.215 12.039L27.2006 12.216C27.1243 13.136 26.9876 14.3194 26.2328 14.9239C26.1754 14.9699 26.1119 15.0048 26.0463 15.0259C26.5326 15.8594 26.9317 16.7847 27.1706 17.7193C28.0822 21.2888 27.3813 25.0113 26.285 28.4518C26.195 28.7352 25.7665 28.9235 25.5485 28.6465C25.1589 28.1513 24.593 27.7735 23.9565 27.7029C23.5639 27.6592 23.173 27.7383 22.8019 27.56C22.6563 27.4896 22.5158 27.3748 22.4147 27.235C21.7883 27.4726 21.1136 27.5848 20.4444 27.5572C19.3463 27.5122 18.1724 27.1318 17.4169 26.2974C17.2956 26.1635 17.2649 26.0131 17.2929 25.8774C17.3876 25.8437 17.4849 25.8185 17.5851 25.8026C18.5431 26.3676 19.5992 26.745 20.7342 26.7687C21.39 26.7824 22.0297 26.6907 22.5614 26.2811C22.6764 26.1924 22.7823 26.0942 22.8801 25.9887C23.9919 25.2733 24.7756 24.0581 25.1485 22.7563C25.4956 21.5424 25.4528 20.2785 25.3335 19.0333L25.2704 18.3763C25.1787 17.4119 25.0935 16.4447 25.0695 15.4762L25.0767 15.4758C25.3115 15.4607 25.3132 15.093 25.0767 15.1083C24.465 15.1479 23.858 15.0475 23.2482 15.0912C23.243 14.8028 23.2224 14.5157 23.1376 14.2375C23.0891 14.0786 22.8126 14.0473 22.7833 14.2375C22.744 14.4921 22.7297 14.7452 22.7255 15.0009C21.8128 14.9888 20.9011 14.9119 19.9883 14.9435C19.8199 14.7639 19.7663 14.4453 19.6876 14.2237C19.6761 14.1911 19.6646 14.1589 19.6527 14.1263C19.5834 14.443 19.4853 14.7527 19.3563 15.0559L19.1324 15.0567C17.8623 15.0626 16.5663 15.1006 15.3261 15.3645C15.2399 15.2983 15.1886 15.1827 15.1747 15.0779C15.0847 14.3953 14.9563 13.7309 14.7288 13.0804L14.6962 12.9887C14.6936 12.981 14.6908 12.973 14.6878 12.9644C14.5201 13.2352 14.3201 13.4876 14.1019 13.7226C13.9733 13.8611 13.8384 13.9936 13.7 14.1223C13.5656 14.2716 13.4267 14.4187 13.292 14.5685C13.2973 14.5957 13.3019 14.6234 13.3056 14.6515C13.3468 14.9624 13.3511 15.2776 13.3209 15.5896C13.2664 16.1537 13.1072 16.6972 12.8514 17.2L12.8434 17.2504C12.8045 17.486 12.7493 17.7296 12.6202 17.907C12.7813 18.0875 12.9053 18.3031 12.9772 18.5426C13.0413 18.7558 12.7464 18.9406 12.5934 18.7661C12.4719 18.6275 12.337 18.5128 12.1887 18.4212C12.1793 18.434 12.1624 18.4402 12.1435 18.4296C11.7306 18.2003 11.0293 18.2697 10.6168 18.4857C10.1038 18.754 9.90357 19.3049 9.96053 19.8631C10.0152 20.3965 10.2485 21.02 10.7009 21.2934C10.9085 21.4188 11.0701 21.4294 11.2906 21.3692C11.3611 21.35 11.4485 21.2913 11.486 21.2621L11.5229 21.2325C11.6674 21.1183 11.802 21.04 11.9726 21.037C12.1471 20.9826 12.3225 21.0581 12.3892 21.2411L12.3933 21.253C12.4246 21.3462 12.4815 21.4634 12.4691 21.6058C12.4562 21.7584 12.3864 21.8971 12.2822 22.0088C12.2643 22.0281 12.245 22.0474 12.2252 22.0653C14.021 24.0102 14.2516 27.0407 13.3307 29.4702C13.2907 29.577 13.248 29.6822 13.2035 29.7866C13.0496 30.1439 12.4572 30.0333 12.3818 29.6789C12.3593 29.5729 12.3345 29.4672 12.3074 29.3624C12.2576 29.1687 12.2006 28.977 12.1362 28.7881L12.1118 28.7172C12.0571 28.5611 12.0062 28.4035 11.951 28.2472L11.9455 28.2294C11.9435 28.2224 11.9412 28.2142 11.9386 28.205L11.8454 28.4085L11.562 29.0229C11.4294 29.3096 11.0081 29.1537 10.9924 28.8774L10.9921 28.8681C10.9907 28.817 10.9889 28.7665 10.9856 28.7163C10.9654 28.3409 10.9007 27.9761 10.7978 27.6192L10.7607 27.6652C10.208 28.3489 9.55933 28.9896 8.66951 29.1474C8.44629 29.1868 8.19368 28.9535 8.34709 28.7279C8.41046 28.6346 8.47155 28.5389 8.52942 28.442C8.47935 28.4187 8.43205 28.3944 8.38842 28.3696C8.05085 28.1798 7.76977 27.9096 7.53738 27.6031C7.04457 26.9535 6.8682 26.1357 6.82505 25.3352C6.77912 24.4894 6.85351 23.5976 7.08453 22.7816C7.18466 22.4287 7.32014 22.0901 7.47675 21.7616C7.46572 21.7322 7.45516 21.7028 7.44462 21.6734C7.27559 21.202 7.1369 20.72 7.02162 20.2325C6.78922 19.2484 6.66429 18.2329 6.64914 17.2217C6.62157 15.41 6.9339 13.5695 7.59203 11.88C8.27177 10.1378 9.29412 8.45938 10.6853 7.19357ZM9.83881 23.0329C9.71401 22.8363 9.4017 23.0135 9.51759 23.2113L9.52192 23.2185C9.71988 23.5305 9.81264 23.8852 9.92655 24.2331C9.99957 24.4568 10.3546 24.3611 10.2806 24.135L10.2562 24.0596C10.1428 23.707 10.0394 23.3485 9.83881 23.0329ZM10.9259 19.28L11.0089 19.2399C11.2704 19.115 11.4996 19.03 11.8087 19.139C12.2225 19.2846 12.6657 19.7482 12.386 20.198C12.2831 20.3639 12.1003 20.4301 11.912 20.391C11.5946 20.3252 11.5126 20.0392 11.3515 19.8044L11.3238 19.7647C11.2256 19.6226 11.1014 19.4262 10.9379 19.3705C10.9007 19.3577 10.8851 19.2998 10.9259 19.28ZM11.1592 9.72983L11.1859 9.70588C11.3636 9.54875 11.1027 9.28961 10.9259 9.44583C10.1167 10.1612 9.83559 11.2809 9.41583 12.2352C9.32168 12.4498 9.63812 12.6372 9.73318 12.4208C10.1336 11.5102 10.3994 10.4209 11.1592 9.72983ZM20.884 9.41688C20.6725 9.32157 20.4875 9.6294 20.6908 9.73074L20.6984 9.73438C21.4131 10.0574 21.7171 10.7888 22.0083 11.4679C22.1011 11.6848 22.4175 11.4978 22.3257 11.2827L22.2731 11.1609C21.9693 10.4611 21.6149 9.74775 20.884 9.41688ZM22.0042 8.97488C21.78 8.89725 21.684 9.25194 21.9063 9.32959C22.5121 9.54048 22.9278 9.99533 23.2782 10.5154C23.4095 10.7103 23.7278 10.5265 23.5952 10.3298C23.1882 9.72609 22.705 9.21931 22.0042 8.97488Z" fill="#4F4F4F"/>
</g>
</g>
<circle cx="17.6088" cy="17.6087" r="16.8043" stroke="#555555"/>
<g clip-path="url(#clip1_232_65)">
<mask id="mask2_232_65" style="mask-type:alpha" maskUnits="userSpaceOnUse" x="1" y="1" width="33" height="33">
<path d="M17.5296 33.7547C26.4905 33.7547 33.7548 26.4904 33.7548 17.5295C33.7548 8.56857 26.4905 1.30432 17.5296 1.30432C8.5687 1.30432 1.30444 8.56857 1.30444 17.5295C1.30444 26.4904 8.5687 33.7547 17.5296 33.7547Z" fill="white"/>
</mask>
<g mask="url(#mask2_232_65)">
<mask id="mask3_232_65" style="mask-type:luminance" maskUnits="userSpaceOnUse" x="1" y="1" width="33" height="33">
<path d="M33.7548 1.30432H1.30444V33.7547H33.7548V1.30432Z" fill="white"/>
</mask>
<g mask="url(#mask3_232_65)">
<path fill-rule="evenodd" clip-rule="evenodd" d="M19.4012 22.3941C19.6569 21.9734 20.2018 23.0041 20.2597 23.1812C20.311 23.3383 20.3449 23.499 20.3621 23.6617C20.5603 23.7063 20.7661 23.7063 20.9692 23.6673C21.2711 23.6094 21.4556 23.4471 21.718 23.3076C21.8992 23.2113 22.1276 23.3242 22.2218 23.4841C22.3326 23.6721 22.262 23.8672 22.1162 24.0074C21.8398 24.2733 21.2958 24.3343 20.9349 24.2638C20.7282 24.2233 20.5387 24.1457 20.3713 24.033C20.3702 24.0539 20.3695 24.0751 20.3678 24.0961L20.3646 24.1325C20.3369 24.4273 20.2559 24.7981 20.027 24.9898C19.6516 25.3046 19.1882 24.6993 19.553 24.3851L19.5643 24.3756C19.7911 24.1924 19.8405 23.7007 19.8283 23.4298C19.8203 23.2528 19.7881 23.0739 19.7323 22.9055L19.7209 22.872C19.7041 22.8244 19.521 22.3733 19.4548 22.4308L19.4516 22.434C19.4243 22.4666 19.3802 22.4286 19.4012 22.3941ZM21.4426 20.02C21.7877 20.2298 22.3136 20.7192 21.9423 21.2395C21.5052 21.6983 20.876 21.1723 20.5659 20.9344C20.2784 20.75 19.9554 21.2242 20.2221 21.4395C22.4627 23.099 23.3721 20.0748 21.6171 19.7732C21.4239 19.74 21.3521 19.955 21.4426 20.02ZM17.7571 18.0801C18.0944 18.0203 18.44 18.1041 18.7191 18.3016L18.7402 18.3168C19.0091 18.5135 19.31 18.859 19.1557 19.1981C19.0938 19.3343 18.9083 19.3556 18.7906 19.2939C18.5947 19.1911 18.5592 18.9382 18.3843 18.7983C18.241 18.6835 18.0479 18.6139 17.8633 18.6307C17.4295 18.6701 17.1627 19.0981 17.0279 19.467C17.0107 19.5142 16.9414 19.5325 16.9144 19.4819C16.5967 18.8878 17.159 18.1863 17.7571 18.0801ZM23.1599 17.8559C23.8061 17.8026 24.5624 18.4728 24.3922 19.155C24.3106 19.4824 23.8251 19.473 23.7388 19.155C23.6914 18.98 23.6962 18.8252 23.5703 18.6799C23.4662 18.5599 23.3187 18.4903 23.1599 18.501C22.9849 18.5128 22.8236 18.6002 22.701 18.7232C22.5902 18.8342 22.524 18.9966 22.4093 19.0949C22.381 19.119 22.3432 19.1206 22.3153 19.0949C22.1179 18.9128 22.2364 18.5337 22.3616 18.3435C22.5408 18.0715 22.8325 17.8829 23.1599 17.8559ZM16.5267 16.87C16.9412 16.503 17.6944 16.1485 18.2533 16.3291C18.5747 16.433 18.7147 16.951 18.356 17.1152C17.9406 17.3053 17.4617 17.2279 17.0388 17.425C16.8613 17.5078 16.6943 17.6113 16.5707 17.763C16.4732 17.8826 16.3742 18.04 16.2333 18.1089C16.1963 18.1271 16.1461 18.1276 16.1165 18.0939C15.8077 17.7445 16.2571 17.1087 16.5267 16.87ZM22.4475 16.3109C22.7037 16.239 22.9879 16.2405 23.2482 16.2856C23.5082 16.3308 23.7724 16.4387 23.9848 16.596L24.0095 16.6144C24.2414 16.7892 24.5181 17.0435 24.5031 17.3532C24.4908 17.6117 24.2189 17.7866 23.9841 17.6511C23.7927 17.5406 23.7027 17.3192 23.5407 17.1718C23.407 17.0501 23.2499 16.9542 23.0825 16.887C22.8963 16.8123 22.7099 16.7773 22.5101 16.774C22.3564 16.7714 22.2016 16.8219 22.0507 16.838C22.0632 16.8636 21.9439 16.8517 21.8755 16.829C21.8248 16.8075 21.8246 16.7434 21.8421 16.7018C21.9292 16.496 22.246 16.3674 22.4475 16.3109Z" fill="#4F4F4F"/>
</g>
</g>
</g>
</g>
<defs>
<clipPath id="clip0_232_65">
<rect width="35" height="35" fill="white"/>
</clipPath>
<clipPath id="clip1_232_65">
<rect width="32.4503" height="32.4503" fill="white" transform="translate(1.30444 1.30432)"/>
</clipPath>
</defs>
</svg>
