<svg width="150" height="150" viewBox="0 0 150 150" fill="none" xmlns="http://www.w3.org/2000/svg">
<g clip-path="url(#clip0_133_1715)">
<mask id="mask0_133_1715" style="mask-type:alpha" maskUnits="userSpaceOnUse" x="0" y="0" width="150" height="150">
<path d="M75 150C116.421 150 150 116.421 150 75C150 33.5786 116.421 0 75 0C33.5786 0 0 33.5786 0 75C0 116.421 33.5786 150 75 150Z" fill="white"/>
</mask>
<g mask="url(#mask0_133_1715)">
<mask id="mask1_133_1715" style="mask-type:luminance" maskUnits="userSpaceOnUse" x="0" y="0" width="150" height="150">
<path d="M150 0H0V150H150V0Z" fill="white"/>
</mask>
<g mask="url(#mask1_133_1715)">
<path fill-rule="evenodd" clip-rule="evenodd" d="M139.581 228.881C138.729 224.07 137.948 219.246 137.239 214.412C136.902 212.117 136.574 209.819 136.278 207.518C136.071 205.906 135.756 204.062 136.853 202.868C138.396 201.188 139.797 199.749 139.986 197.342C140.164 195.077 139.398 192.608 138.92 190.409C137.916 185.798 136.666 181.244 135.285 176.734C133.882 172.151 132.343 167.611 130.783 163.08C129.324 158.844 127.921 154.57 126.021 150.505C122.414 142.792 116.313 137.08 108.772 133.266C106.897 132.317 103.072 128.931 101.112 128.173C99.3107 127.476 99.3171 129.511 97.5444 128.744C96.1273 128.131 94.8076 127.314 94.0141 125.945C93.1525 124.459 90.9921 122.38 90.663 120.65C89.966 116.983 90.7211 113.861 88.1048 111.101C85.7821 108.65 82.6601 106.971 79.4298 106.07C72.3237 104.087 62.8466 105.473 58.5592 112.079C56.5114 115.234 55.7959 119.047 53.0327 121.621C50.6198 123.869 51.1598 125.406 48.0347 126.565C47.8577 126.631 43.0602 125.601 42.8832 125.667C39.4644 124.935 36.1969 126.984 33.0604 128.173C28.3844 129.945 23.9326 132.251 19.7501 134.993C11.3165 140.521 4.09334 147.699 -1.86166 155.822C-7.86588 164.011 -12.5246 173.191 -15.8417 182.785C-16.6473 185.115 -17.3709 187.474 -18.0091 189.856C-18.3664 191.188 -18.748 192.571 -18.313 193.936C-17.9572 195.052 -17.1658 195.883 -16.2365 196.553C-14.9767 197.461 -12.4498 198.052 -12.499 199.878C-12.5366 201.267 -13.0075 202.728 -13.2373 204.1C-13.511 205.735 -13.7358 207.379 -13.9606 209.02C-14.9831 216.491 -15.779 224.004 -16.1309 231.539C-16.4774 238.958 -16.7649 246.528 -16.2505 253.945C-16.2165 254.434 -16.0707 254.883 -15.8356 255.262C-16.0551 255.346 -16.072 255.756 -15.7988 255.814C-15.6074 255.854 -15.4164 255.895 -15.225 255.935C-14.8274 256.236 -14.3316 256.421 -13.7609 256.439C-13.3741 256.451 -12.9875 256.469 -12.601 256.488C-8.52335 257.341 -4.44631 258.147 -0.31539 258.757C4.70602 259.498 9.74222 260.102 14.794 260.594C25.1746 261.603 35.4735 261.268 45.868 260.724C56.2462 260.181 66.6184 260.054 77.0075 260.324C87.4056 260.595 97.8 261.047 108.201 261.232C119.82 261.439 131.422 261.122 143.008 260.198C144.597 260.071 145.579 258.807 145.266 257.228C143.389 247.772 141.262 238.379 139.581 228.881Z" fill="#F9F9F9"/>
<path fill-rule="evenodd" clip-rule="evenodd" d="M39.6413 125.434C40.7158 125.388 41.8115 125.562 42.8834 125.667C42.9768 125.676 43.0123 125.82 42.9071 125.842C40.9886 126.243 39.0912 126.792 37.207 127.349L36.4003 127.588C34.2756 128.216 32.2132 128.865 30.1563 129.704C26.0568 131.375 22.1634 133.631 18.5801 136.223C4.78171 146.203 -5.20491 161.313 -11.507 176.958C-13.2185 181.206 -14.6686 185.56 -15.8432 189.988C-16.1289 191.065 -16.3976 192.147 -16.6524 193.232C-16.7272 193.55 -17.0532 194.364 -16.8744 194.69C-16.7164 194.977 -16.102 195.155 -15.8166 195.305L-14.853 195.805C-12.9734 196.774 -9.84247 198.367 -9.5285 198.522L-9.03882 198.763C-1.02953 202.691 7.52833 206.022 16.5413 206.252L16.6119 205.482C17.0137 201.226 17.541 196.946 18.692 192.82C18.7539 192.599 19.036 192.673 19.0618 192.87C19.7029 197.755 19.498 202.677 19.2743 207.585C18.8782 216.276 18.3521 224.962 17.8846 233.65C17.6505 237.996 17.348 242.339 17.0748 246.682C16.8012 251.035 16.7127 255.492 16.0879 259.808C15.9487 260.77 14.8222 261.293 13.9691 261.192C13.0252 261.08 12.2991 260.248 12.2946 259.295C12.2832 256.78 12.5991 254.236 12.7746 251.727C12.9413 249.344 13.1203 246.962 13.3037 244.58C13.9738 235.887 14.7447 227.204 15.4577 218.515C15.7104 215.433 15.9834 212.354 16.2644 209.275C6.7165 208.967 -2.20343 205.429 -10.7128 201.296C-10.836 204.093 -11.1335 206.886 -11.4214 209.672C-12.2253 217.447 -12.9341 225.219 -13.4646 233.017C-13.7325 236.956 -13.9275 240.9 -14.0973 244.844C-14.1808 246.783 -14.2488 248.722 -14.301 250.661C-14.3185 251.308 -14.3342 251.954 -14.3482 252.601L-14.3772 254.082C-14.401 255.021 -14.4963 255.89 -15.2857 256.573C-16.0875 257.267 -17.1704 257.304 -17.964 256.573C-19.0262 255.595 -18.8384 254.261 -18.8069 252.947C-18.7807 251.839 -18.7492 250.73 -18.7127 249.622C-18.6394 247.406 -18.5458 245.19 -18.4319 242.975C-18.0334 235.232 -17.2373 227.52 -16.1968 219.839L-15.7906 216.874C-15.0321 211.362 -14.1993 205.725 -12.5037 200.415C-13.164 200.086 -13.8223 199.756 -14.478 199.423C-15.6413 198.834 -16.844 198.281 -17.9747 197.631C-18.8718 197.115 -19.6454 196.407 -19.8951 195.363C-20.1736 194.2 -19.7478 192.927 -19.4649 191.792L-19.4403 191.692C-19.1629 190.549 -18.8642 189.412 -18.549 188.279C-17.2708 183.684 -15.6903 179.179 -13.8406 174.784C-10.1371 165.985 -5.35681 157.626 0.482418 150.068C5.73854 143.265 11.9477 137.095 19.2251 132.467C22.7828 130.205 26.5742 128.348 30.5839 127.034C32.458 126.421 34.4972 125.887 36.4594 125.667C37.5179 125.548 38.5778 125.481 39.6413 125.434ZM58.6794 111.492C59.9563 110.12 62.4932 111.539 61.8801 113.356C60.438 117.629 58.1415 121.527 54.5576 124.335C51.1887 126.975 47.1715 128.689 42.8451 128.323C42.8117 128.32 42.7828 128.312 42.7572 128.3L43.1301 128.806C46.0571 132.767 49.145 136.673 52.8668 139.91C60.4498 146.507 70.7745 150.065 80.7442 147.534C88.5882 145.543 95.4987 139.337 97.5311 131.43C97.2398 131.56 96.8935 131.605 96.5134 131.522C94.8873 131.169 93.2774 129.458 92.2287 128.231C91.0942 126.904 90.2082 125.471 89.5587 123.852C88.3701 120.887 87.989 117.07 89.612 114.199C89.8122 113.845 90.2741 114.043 90.3134 114.389L90.3752 114.928C90.688 117.619 91.0778 120.223 92.3462 122.676C92.9669 123.877 93.711 125.048 94.6167 126.054C95.1013 126.592 95.6267 127.106 96.194 127.557C96.7468 127.996 97.4158 128.314 97.9112 128.818L98.002 128.915L98.0046 128.897C98.1298 127.832 98.8767 127.363 99.6074 127.392C100.315 127.42 101.145 127.732 101.467 127.881L101.497 127.895C106.431 130.264 110.975 133.353 115.251 136.779C124.094 143.864 130.719 153.126 133.929 164.034C135.505 169.387 136.409 174.903 137.363 180.393L137.951 183.757C138.842 188.826 139.837 193.994 141.848 198.709C142.368 199.929 141.967 201.072 140.691 201.552C139.099 202.151 137.5 202.731 135.899 203.304C136.686 206.677 137.165 210.168 137.754 213.559C139.006 220.765 140.54 227.926 141.855 235.124C142.528 238.804 143.134 242.496 143.806 246.176C144.13 247.949 144.467 249.719 144.796 251.49C144.973 252.445 145.133 253.404 145.302 254.36L145.331 254.519C145.428 255.024 145.549 255.546 145.41 256.051C145.252 256.627 144.803 257.033 144.402 257.446C144.071 257.786 143.594 257.789 143.19 257.603L143.057 257.541C142.334 257.203 141.768 256.866 141.512 256.051C141.349 255.534 141.291 254.953 141.185 254.421C140.981 253.401 140.788 252.38 140.606 251.356C140.242 249.307 139.886 247.257 139.539 245.205L139.215 243.284C138.101 236.663 137.044 230.001 136.509 223.31C136.272 220.341 136.021 217.375 135.767 214.409L135.577 212.184C135.336 209.367 135.041 206.48 135 203.626L134.043 203.966L129.371 205.618C128.213 206.027 126.738 206.866 125.492 206.713C124.882 206.639 124.417 206.446 124.057 206.097C124.488 212.17 125.07 218.232 125.846 224.264C126.552 229.751 127.335 235.232 128.259 240.688C128.717 243.389 129.187 246.088 129.699 248.78C129.954 250.126 130.218 251.47 130.489 252.813C130.625 253.483 130.786 254.154 130.892 254.829C131.012 255.603 130.799 256.078 130.367 256.715C130.013 257.238 129.303 257.506 128.728 257.145C127.966 256.667 127.569 256.253 127.344 255.382C127.141 254.591 127.017 253.765 126.859 252.963C126.568 251.484 126.287 250.004 126.016 248.521C125.448 245.42 124.925 242.311 124.457 239.194C122.811 228.21 121.766 217.134 121.238 206.041C120.977 200.567 120.897 195.089 120.943 189.61C120.967 186.802 121.059 183.985 121.257 181.184C121.458 178.348 121.877 175.569 122.25 172.761C122.263 172.662 122.403 172.656 122.409 172.761C122.585 175.909 122.863 179.054 122.998 182.211C123.128 185.224 123.185 188.241 123.288 191.254C123.423 195.215 123.611 199.179 123.86 203.139C124.31 202.647 124.989 202.363 125.668 202.474C126.651 202.267 127.71 201.751 128.648 201.437L132.183 200.256C134.042 199.635 135.9 199.018 137.766 198.42C136.098 192.808 134.956 187.112 133.98 181.334L133.545 178.735C132.684 173.619 131.756 168.501 130.196 163.548C128.557 158.34 126.103 153.498 122.848 149.113C119.639 144.791 115.736 140.986 111.717 137.427C108.276 134.38 104.595 131.629 101.085 128.666C101.122 128.862 101.13 129.079 101.098 129.316C100.351 134.779 97.5024 139.867 93.532 143.652C85.5556 151.254 73.7485 152.831 63.5396 149.266C53.6643 145.818 44.9333 137.651 41.8486 127.545C41.7958 127.372 42.0273 127.303 42.1203 127.43C42.2914 127.665 42.4634 127.899 42.6355 128.134C42.6239 128.041 42.6723 127.939 42.7872 127.895C46.3864 126.505 49.9207 124.533 52.6186 121.744C53.9335 120.384 55.0811 118.844 55.987 117.183C56.421 116.387 56.8108 115.563 57.1217 114.711L57.2008 114.491C57.5777 113.424 57.8926 112.337 58.6794 111.492Z" fill="#4F4F4F"/>
<path fill-rule="evenodd" clip-rule="evenodd" d="M111.169 45.5324C110.7 44.3477 109.87 42.8588 108.483 42.7994C107.41 39.5182 104.743 36.1765 101.033 36.2653C90.1422 25.1242 76.4318 25.6494 62.0973 28.0078C54.5347 29.411 46.8558 32.1585 41.2154 37.5805C34.4599 43.9637 31.8294 55.1017 37.1195 63.1734C32.5475 65.6244 32.4587 71.4407 34.414 75.6379C32.0637 77.2639 31.9208 81.2102 34.5674 82.4504C34.4267 83.027 34.5262 83.623 34.7945 84.1353C33.4823 85.228 31.7744 86.035 30.3625 86.729C29.7385 87.0355 29.3785 87.5365 29.2289 88.1011C24.5928 91.1437 13.0327 98.5794 13.1704 104.497C13.1024 107.585 15.3917 109.617 18.1737 110.426C16.5184 113.736 15.262 117.603 16.8465 121.174C17.2844 122.253 20.5659 125.424 20.7311 125.482C21.0199 125.73 25.7275 123.568 28.0156 122.465C28.4592 125.352 31.5452 126.865 34.2053 125.875C36.7276 125.115 38.2781 122.978 39.8689 121.035C41.9806 125.643 48.1933 125.696 52.2087 123.71C55.8148 122.043 58.556 118.989 60.083 115.308C68.1919 119.279 77.6791 120.437 86.489 118.851C87.0543 119.851 88.3058 120.524 89.4207 120.137C94.1054 118.728 99.285 118.649 103.256 115.421C111.533 109.477 112.23 98.5202 111.653 89.18C111.141 79.8673 111.589 70.477 109.897 61.2649C110.631 58.5526 111.853 56.1548 112.983 53.6068C114.211 50.9349 114.185 46.9629 111.169 45.5324Z" fill="#F9F9F9"/>
<path fill-rule="evenodd" clip-rule="evenodd" d="M34.2129 85.0618C34.7007 84.9393 34.9627 85.5951 34.5486 85.8586C31.9196 87.5315 29.2038 89.0255 26.6641 90.8457C24.2486 92.5759 22.0175 94.547 19.937 96.6661L19.7064 96.9021C17.8255 98.8379 15.7424 101.301 15.7213 104.156C15.705 106.376 17.4157 108.798 19.8023 108.507C20.7015 108.397 21.528 109.538 21.2142 110.361L20.8841 111.228C19.5562 114.738 18.2051 118.714 19.2541 122.406L19.2926 122.538C19.5463 123.383 19.8138 124.13 20.7947 124.113C21.705 124.097 22.6523 123.79 23.5046 123.497C25.2731 122.889 26.8758 121.874 28.2361 120.598C29.4394 119.469 30.9767 120.616 30.8147 122.05L30.809 122.096C30.5873 123.706 33.1507 124.453 34.316 124.223C36.6169 123.768 38.2574 121.461 39.5641 119.703C40.1922 118.858 41.7178 118.526 42.2696 119.703C43.3631 122.035 45.6171 123.779 48.254 123.852C49.6236 123.89 50.9377 123.5 52.0978 122.776C52.5713 122.481 52.9947 122.13 53.3831 121.732L53.4795 121.631C54.0541 121.022 54.4507 120.698 55.1846 120.3C55.9078 119.908 56.8433 120.394 56.8388 121.249C56.8329 122.357 56.5084 123.094 55.7447 123.897C55.1128 124.563 54.3619 125.147 53.5726 125.614C51.9864 126.552 50.1007 127.079 48.254 127.018C45.3431 126.922 42.5647 125.47 40.7637 123.213C38.9248 125.413 36.6438 127.434 33.6795 127.379C31.4603 127.339 29.3922 126.183 28.4014 124.392C27.0026 125.357 25.4673 126.112 23.8249 126.604L23.6785 126.647C21.3537 127.324 18.6784 127.593 17.182 125.285C15.7771 123.117 15.6723 120.115 15.9942 117.637C16.2818 115.424 16.9625 113.322 17.7442 111.249C15.5191 110.585 13.792 108.494 13.1988 106.24C12.3013 102.832 14.0423 99.5262 16.1947 96.9938C18.5328 94.2429 21.4756 91.9161 24.4403 89.8796C27.3972 87.8487 30.7097 85.9402 34.2129 85.0618ZM110.242 58.4037C110.248 58.3091 110.403 58.2759 110.417 58.3799C111.438 65.7936 112.03 73.1923 112.519 80.657C112.767 84.4387 113.049 88.2166 113.358 91.9936C113.654 95.6156 114.146 99.3338 114.035 102.971C113.861 108.665 111.096 113.295 106.564 116.628C102.221 119.821 96.8328 121.4 91.5467 122.067C88.4767 122.454 85.3641 122.473 82.2908 122.109C80.6946 121.92 79.1005 121.668 77.5371 121.29L76.8611 121.121C75.6299 120.807 74.2552 120.38 74.0797 118.921C73.9946 118.214 74.3698 117.693 74.9757 117.338C75.7656 116.876 76.6713 117.148 77.4853 117.359C78.8571 117.714 80.2434 118.019 81.6454 118.229C84.6566 118.683 87.7521 118.709 90.7787 118.396C95.8698 117.868 101.241 116.216 105.166 112.804C106.872 111.322 108.355 109.515 109.135 107.369C110.139 104.61 109.99 101.601 109.956 98.7114C109.878 91.9936 109.947 85.2759 109.854 78.5575C109.76 71.8186 109.842 65.1327 110.242 58.4037ZM59.0444 27.0088C64.9933 25.474 71.0307 25.0752 77.1414 25.5372C82.9042 25.9726 89.4689 27.2624 94.1755 30.8082C94.4039 30.9803 94.2672 31.306 93.9845 31.261C90.8379 30.7592 87.7707 29.8466 84.6376 29.2428C81.6241 28.662 78.5563 28.226 75.4878 28.1249C65.1099 27.7828 53.5623 30.1353 45.1939 36.6079C41.2701 39.6427 38.2756 43.7234 37.0838 48.5788C35.8616 53.5588 36.5229 58.9445 38.9772 63.4494C39.3306 64.098 39.1849 65.1241 38.4475 65.4695C36.2102 66.5174 34.6166 68.8388 34.6513 71.344C34.668 72.559 35.0867 73.7242 35.7596 74.7285C36.4711 75.7906 37.5543 76.5337 38.3501 77.5255C38.6634 77.9161 38.6755 78.454 38.4273 78.8137C38.8927 79.0177 39.3946 79.1271 39.8527 79.3681C40.241 79.5725 40.252 80.2105 39.8527 80.4117C38.8428 80.9205 37.751 80.3805 37.0694 79.5602C36.9477 79.4137 36.8425 79.2614 36.7466 79.1058C35.9303 78.9327 35.1989 78.5229 34.5602 77.9624C33.3433 78.6913 33.1766 80.3141 34.222 81.5541C34.7558 82.1871 35.5143 82.5779 36.2809 82.8587L36.3729 82.8919C37.1189 83.157 37.8021 83.3049 38.2868 83.902C38.6064 83.2354 38.9734 82.607 39.3824 82.0345C40.8695 79.9533 43.1554 78.107 45.8679 78.3413C47.9926 78.5246 49.8334 80.0463 50.2688 82.1459C50.3009 82.3012 50.0668 82.4225 49.9971 82.2604C48.9777 79.8825 45.7523 79.7952 43.8311 81.0344C41.5715 82.4918 40.3367 85.2383 39.8413 87.7963C39.3537 90.316 39.6355 93.3806 41.5206 95.2971C42.292 96.0815 43.3413 96.6238 44.4365 96.7667C44.9719 96.8368 45.4441 96.7678 45.9561 96.6647L46.2954 96.5938C46.5308 96.5451 46.7648 96.5057 47.0117 96.5276L47.3795 96.5771L47.5885 96.6749C47.7698 96.7564 47.7534 96.734 47.5394 96.6077C48.1644 96.5566 48.4874 97.0186 48.5216 97.5252C48.5415 97.5379 48.5607 97.5516 48.5768 97.5713C50.9484 100.475 52.7094 103.812 55.2262 106.621L55.963 107.443C57.857 109.551 60.0193 111.836 62.5924 112.93L62.8986 113.056C63.6471 113.373 64.3989 113.806 64.4943 114.708C64.5799 115.517 63.9427 116.125 63.2081 116.314C61.5353 116.743 59.6284 115.256 58.4032 114.28C55.7687 112.183 53.5546 109.509 51.7261 106.695L51.5454 106.415C50.0423 104.067 48.6296 101.388 48.1906 98.6012L48.1114 98.7296C48.1055 98.7387 48.1008 98.7456 48.0978 98.7498C48.0082 98.8715 47.9096 98.9742 47.7951 99.0727C47.4875 99.3384 47.1123 99.4935 46.7225 99.5987C45.9908 99.7964 45.1887 99.8352 44.4365 99.7583C42.9089 99.6021 41.4809 99.0205 40.2733 98.0732C36.5964 95.1885 36.1623 89.8206 37.6494 85.4658C36.4291 85.7572 35.0392 84.9357 34.0863 84.2317C32.9937 83.4239 32.0926 82.2579 31.8773 80.8862C31.6635 79.5251 32.531 77.7227 33.8176 77.1975C32.4826 75.594 31.7053 73.3184 31.6251 71.4963C31.4856 68.3269 33.1688 65.3313 35.753 63.602C33.3228 58.392 32.8546 52.3476 34.4909 46.8157C37.7379 35.8384 48.6148 29.6997 59.0444 27.0088ZM49.7865 110.413L49.8169 110.316C50.0757 109.467 50.4099 107.779 51.6778 108.421C52.889 109.035 52.1157 110.853 51.6922 111.738C51.1853 112.796 50.31 113.645 49.1345 113.872C48.1784 114.057 47.1284 113.82 46.4595 113.081C46.2645 112.865 46.1544 112.629 46.0388 112.368C45.9938 112.267 45.9736 112.197 45.9651 112.152C45.9541 112.202 45.9229 112.276 45.843 112.363C45.3093 112.946 44.8053 113.625 44.418 114.315C44.3263 114.478 44.0373 114.364 44.1104 114.185C44.5614 113.082 44.4856 111.375 45.491 110.577C46.3772 109.873 47.2099 110.427 47.6787 111.246L47.7026 111.289C48.3877 112.533 49.4795 111.352 49.7865 110.413ZM40.1466 106.425L40.2391 106.296C41.1867 105.001 42.7847 103.442 44.3838 104.647C44.8923 105.03 44.9111 105.67 44.3838 106.05L44.1842 106.193C43.4857 106.688 42.7901 107.156 42.277 107.866C41.7195 108.639 41.2188 109.457 40.4692 110.063C39.1435 111.134 37.001 111.346 35.8507 109.901L35.7375 109.758C35.6413 109.634 35.5308 109.485 35.4412 109.336L35.3714 109.432C35.3646 109.442 35.3582 109.451 35.3523 109.46L35.3362 109.485C34.8634 110.24 34.2661 110.863 33.5223 111.354C32.1085 112.287 30.5153 112.417 28.9158 111.923C28.7592 111.874 28.8013 111.664 28.9528 111.65C30.848 111.473 32.6947 110.126 33.4657 108.392L33.5527 108.197C33.8647 107.507 34.2142 106.851 34.9849 106.581C35.7351 106.317 36.5227 106.595 37.0371 107.163C37.4673 107.638 37.578 108.581 38.354 108.373C39.2037 108.145 39.682 107.08 40.1466 106.425ZM34.718 94.9013C35.1378 94.5822 35.7953 94.9245 35.9109 95.387C36.4346 97.4806 34.2594 99.9477 32.1691 100.013C31.631 100.029 31.1134 99.8989 30.6368 99.6497C30.2671 99.4565 29.8295 98.9628 29.4237 98.881C28.8995 98.7756 28.4352 99.4739 28.0661 99.8323C27.6083 100.277 27.1553 100.69 26.6423 101.069C26.4374 101.221 26.1195 100.966 26.2061 100.734L26.3796 100.271C27.0077 98.6243 28.0895 96.2203 30.1139 96.9036C31.1058 97.2384 31.8524 98.3674 32.8969 97.4734C33.7333 96.7576 33.8113 95.5905 34.718 94.9013ZM43.6502 86.4728C45.5374 84.3056 49.9738 85.4503 50.8151 88.0869C51.001 88.6692 50.8071 89.426 50.3524 89.8381C49.7535 90.3811 48.8991 90.5455 48.1719 90.1197C47.5462 89.7534 47.2893 89.154 46.8293 88.6398C46.1547 87.8863 45.2372 87.4681 44.2918 87.1684C44.0554 87.2926 43.8354 87.456 43.6381 87.653C43.5371 87.7538 43.3464 87.6156 43.4359 87.4968C43.5576 87.3353 43.7064 87.1834 43.8756 87.0433L43.7942 87.0194C43.5454 86.95 43.4915 86.6554 43.6502 86.4728ZM55.9158 62.5449C56.3387 62.5456 56.8314 62.9429 56.7773 63.4068L56.761 63.5356C56.6393 64.4188 56.3556 64.9189 55.4719 65.3293C54.7221 65.6769 53.9345 65.8691 53.1127 65.9452C52.8017 65.9739 52.4726 65.9756 52.139 65.9509L52.0687 66.3563C51.9291 67.1671 51.8001 67.9785 51.7758 68.8049C51.7306 70.337 52.3021 71.5996 52.9149 72.9675C54.0915 75.595 54.2237 78.2178 52.9428 80.8415C52.7554 81.2251 52.2249 81.5379 51.7969 81.4991C51.2419 81.4488 50.9738 81.2881 50.651 80.8415C50.3798 80.4665 50.4419 79.9365 50.6296 79.5444L50.651 79.5014C51.2964 78.2504 51.4999 76.8371 51.1703 75.462C50.8606 74.1696 50.159 73.0081 49.8457 71.7197C49.3352 69.621 49.8788 67.5392 50.9411 65.7387C50.1393 65.5077 49.3978 65.0959 48.903 64.468L48.9051 64.4672C48.7162 64.2653 48.8193 63.8437 49.1508 63.8691L49.5257 63.8993C50.598 63.989 51.5851 64.0823 52.6695 63.7832C53.2253 63.6298 53.7052 63.3739 54.1824 63.0642L54.2846 62.997C54.8816 62.6001 55.2127 62.5441 55.9158 62.5449ZM58.4821 47.0334C61.1703 46.8805 63.4653 48.6553 64.581 51.0177C65.7929 53.5826 65.2844 56.5255 64.2148 59.049L63.9109 59.7553C63.379 60.9789 62.6806 62.4341 61.5912 63.0907C60.3675 63.8283 59.3097 62.973 59.6705 61.6134C59.8856 60.8037 60.4676 60.1791 60.9386 59.5108C61.378 58.8867 61.7881 58.2408 62.1476 57.5671C62.852 56.2457 63.3779 54.7734 63.3721 53.2595C63.3622 50.4963 61.5373 47.3297 58.4821 47.3702C58.2639 47.3728 58.2675 47.0454 58.4821 47.0334ZM72.0778 42.5748C71.9103 42.4476 72.0601 42.1646 72.2475 42.284C75.3647 44.2673 77.6923 47.9928 78.1609 51.6527C78.4209 53.6834 78.2223 55.8535 77.3578 57.7276C76.862 58.8029 76.011 59.8294 74.8211 60.1243C73.7272 60.395 72.5997 59.77 72.2602 58.7019C72.1285 58.2874 72.355 57.8539 72.6971 57.6276C73.8062 56.894 74.6992 55.9683 75.2217 54.723C75.7653 53.4283 75.9821 52.0543 75.9886 50.6577C76.0047 47.387 74.6999 44.5683 72.0778 42.5748ZM110.157 43.9923C110.013 43.8323 110.194 43.5965 110.385 43.6967C112.639 44.8823 114.071 47.1535 114.481 49.6409C114.883 52.0761 114.342 55.3913 112.458 57.1525C111.395 58.1467 109.49 56.8245 110.374 55.5439C110.997 54.6408 111.671 53.8971 112.028 52.83C112.346 51.8778 112.458 50.9177 112.441 49.9171C112.403 47.7343 111.624 45.6197 110.157 43.9923ZM82.6038 40.9429C86.4541 40.7595 88.7876 45.1566 89.3221 48.434C89.6521 50.459 89.4041 52.5446 88.2865 54.3009L88.2204 54.4032C87.2982 55.8062 85.6216 57.4216 83.8152 56.7572C83.0506 56.4763 82.8472 55.6569 83.3608 55.0354C84.1467 54.0839 85.3615 53.696 86.1005 52.6801C86.9295 51.5407 87.2012 50.1132 87.1532 48.7276L87.1467 48.5745C87.0183 46.0258 85.803 41.1339 82.6038 41.2204C82.4244 41.2251 82.4265 40.9512 82.6038 40.9429ZM94.6475 40.2123C98.3717 39.7362 100.64 44.1192 101.339 47.1385C101.776 49.0261 101.872 51.1318 101.313 53.0052L101.271 53.1386C100.817 54.5368 99.4742 56.9324 97.7223 56.2179C97.2423 56.0222 96.7523 55.489 96.9822 54.9141C97.2757 54.1792 97.6992 53.9886 98.2638 53.5183C98.6985 53.1563 99.0021 52.6366 99.2257 52.1247C99.821 50.7604 99.9537 49.1666 99.8723 47.6965L99.8611 47.5225C99.6507 44.6509 98.0943 40.3714 94.6475 40.4501C94.4901 40.4537 94.5009 40.2309 94.6475 40.2123ZM101.466 36.0918C103.539 35.3022 105.237 37.2849 106.428 38.6999C107.921 40.4729 109.275 42.3829 110.041 44.59C110.722 46.5566 110.842 48.7432 110.228 50.7452C109.924 51.7364 109.45 52.6555 108.804 53.4646L108.721 53.5666C108.049 54.3874 107.399 54.8917 106.297 54.5979C105.848 54.478 105.659 54.0344 105.736 53.6104C105.902 52.7046 106.369 52.4693 106.974 51.837C107.507 51.2792 107.902 50.5923 108.168 49.8702C108.717 48.3804 108.745 46.7663 108.377 45.2314C107.965 43.5132 107.154 41.9266 106.216 40.4397L106.013 40.1213C105.02 38.5493 103.602 36.1286 101.506 36.3837C101.326 36.4057 101.324 36.1459 101.466 36.0918Z" fill="#4F4F4F"/>
</g>
</g>
</g>
<defs>
<clipPath id="clip0_133_1715">
<rect width="150" height="150" fill="white"/>
</clipPath>
</defs>
</svg>
