<svg width="150" height="150" viewBox="0 0 150 150" fill="none" xmlns="http://www.w3.org/2000/svg">
<g clip-path="url(#clip0_133_1544)">
<mask id="mask0_133_1544" style="mask-type:alpha" maskUnits="userSpaceOnUse" x="0" y="0" width="150" height="150">
<path d="M75 150C116.421 150 150 116.421 150 75C150 33.5786 116.421 0 75 0C33.5786 0 0 33.5786 0 75C0 116.421 33.5786 150 75 150Z" fill="white"/>
</mask>
<g mask="url(#mask0_133_1544)">
<mask id="mask1_133_1544" style="mask-type:luminance" maskUnits="userSpaceOnUse" x="0" y="0" width="150" height="150">
<path d="M150 0H0V150H150V0Z" fill="white"/>
</mask>
<g mask="url(#mask1_133_1544)">
<path fill-rule="evenodd" clip-rule="evenodd" d="M139.581 228.881C138.729 224.07 137.948 219.246 137.239 214.412C136.902 212.117 136.574 209.819 136.278 207.518C136.071 205.906 135.756 204.062 136.853 202.868C138.396 201.188 139.797 199.749 139.986 197.342C140.164 195.077 139.398 192.608 138.92 190.409C137.916 185.798 136.666 181.244 135.285 176.734C133.882 172.151 132.343 167.611 130.783 163.08C129.324 158.844 127.921 154.57 126.021 150.505C122.414 142.792 116.313 137.08 108.772 133.266C106.897 132.317 103.072 128.931 101.112 128.173C99.3107 127.476 99.3171 129.511 97.5444 128.744C96.1273 128.131 94.8076 127.314 94.0141 125.945C93.1525 124.459 90.9921 122.38 90.663 120.65C89.966 116.983 90.7211 113.861 88.1048 111.101C85.7821 108.65 82.6601 106.971 79.4298 106.07C72.3237 104.087 62.8466 105.473 58.5592 112.079C56.5114 115.234 55.7959 119.047 53.0327 121.621C50.6198 123.869 51.1598 125.406 48.0347 126.565C47.8577 126.631 43.0602 125.601 42.8832 125.667C39.4644 124.935 36.1969 126.984 33.0604 128.173C28.3844 129.945 23.9326 132.251 19.7501 134.993C11.3165 140.521 4.09334 147.699 -1.86166 155.822C-7.86588 164.011 -12.5246 173.191 -15.8417 182.785C-16.6473 185.115 -17.3709 187.474 -18.0091 189.856C-18.3664 191.188 -18.748 192.571 -18.313 193.936C-17.9572 195.052 -17.1658 195.883 -16.2365 196.553C-14.9767 197.461 -12.4498 198.052 -12.499 199.878C-12.5366 201.267 -13.0075 202.728 -13.2373 204.1C-13.511 205.735 -13.7358 207.379 -13.9606 209.02C-14.9831 216.491 -15.779 224.004 -16.1309 231.539C-16.4774 238.958 -16.7649 246.528 -16.2505 253.945C-16.2165 254.434 -16.0707 254.883 -15.8356 255.262C-16.0551 255.346 -16.072 255.756 -15.7988 255.814C-15.6074 255.854 -15.4164 255.895 -15.225 255.935C-14.8274 256.236 -14.3316 256.421 -13.7609 256.439C-13.3741 256.451 -12.9875 256.469 -12.601 256.488C-8.52335 257.341 -4.44631 258.147 -0.31539 258.757C4.70602 259.498 9.74222 260.102 14.794 260.594C25.1746 261.603 35.4735 261.268 45.868 260.724C56.2462 260.181 66.6184 260.054 77.0075 260.324C87.4056 260.595 97.8 261.047 108.201 261.232C119.82 261.439 131.422 261.122 143.008 260.198C144.597 260.071 145.579 258.807 145.266 257.228C143.389 247.772 141.262 238.379 139.581 228.881Z" fill="#F9F9F9"/>
<path fill-rule="evenodd" clip-rule="evenodd" d="M39.6413 125.434C40.7158 125.388 41.8115 125.562 42.8834 125.667C42.9768 125.676 43.0123 125.82 42.9071 125.842C40.9886 126.243 39.0912 126.792 37.207 127.349L36.4003 127.588C34.2756 128.216 32.2132 128.865 30.1563 129.704C26.0568 131.375 22.1634 133.631 18.5801 136.223C4.78171 146.203 -5.20491 161.313 -11.507 176.958C-13.2185 181.206 -14.6686 185.56 -15.8432 189.988C-16.1289 191.065 -16.3976 192.147 -16.6524 193.232C-16.7272 193.55 -17.0532 194.364 -16.8744 194.69C-16.7164 194.977 -16.102 195.155 -15.8166 195.305L-14.853 195.805C-12.9734 196.774 -9.84247 198.367 -9.5285 198.522L-9.03882 198.763C-1.02953 202.691 7.52833 206.022 16.5413 206.252L16.6119 205.482C17.0137 201.226 17.541 196.946 18.692 192.82C18.7539 192.599 19.036 192.673 19.0618 192.87C19.7029 197.755 19.498 202.677 19.2743 207.585C18.8782 216.276 18.3521 224.962 17.8846 233.65C17.6505 237.996 17.348 242.339 17.0748 246.682C16.8012 251.035 16.7127 255.492 16.0879 259.808C15.9487 260.77 14.8222 261.293 13.9691 261.192C13.0252 261.08 12.2991 260.248 12.2946 259.295C12.2832 256.78 12.5991 254.236 12.7746 251.727C12.9413 249.344 13.1203 246.962 13.3037 244.58C13.9738 235.887 14.7447 227.204 15.4577 218.515C15.7104 215.433 15.9834 212.354 16.2644 209.275C6.7165 208.967 -2.20343 205.429 -10.7128 201.296C-10.836 204.093 -11.1335 206.886 -11.4214 209.672C-12.2253 217.447 -12.9341 225.219 -13.4646 233.017C-13.7325 236.956 -13.9275 240.9 -14.0973 244.844C-14.1808 246.783 -14.2488 248.722 -14.301 250.661C-14.3185 251.308 -14.3342 251.954 -14.3482 252.601L-14.3772 254.082C-14.401 255.021 -14.4963 255.89 -15.2857 256.573C-16.0875 257.267 -17.1704 257.304 -17.964 256.573C-19.0262 255.595 -18.8384 254.261 -18.8069 252.947C-18.7807 251.839 -18.7492 250.73 -18.7127 249.622C-18.6394 247.406 -18.5458 245.19 -18.4319 242.975C-18.0334 235.232 -17.2373 227.52 -16.1968 219.839L-15.7906 216.874C-15.0321 211.362 -14.1993 205.725 -12.5037 200.415C-13.164 200.086 -13.8223 199.756 -14.478 199.423C-15.6413 198.834 -16.844 198.281 -17.9747 197.631C-18.8718 197.115 -19.6454 196.407 -19.8951 195.363C-20.1736 194.2 -19.7478 192.927 -19.4649 191.792L-19.4403 191.692C-19.1629 190.549 -18.8642 189.412 -18.549 188.279C-17.2708 183.684 -15.6903 179.179 -13.8406 174.784C-10.1371 165.985 -5.35681 157.626 0.482418 150.068C5.73854 143.265 11.9477 137.095 19.2251 132.467C22.7828 130.205 26.5742 128.348 30.5839 127.034C32.458 126.421 34.4972 125.887 36.4594 125.667C37.5179 125.548 38.5778 125.481 39.6413 125.434ZM58.6794 111.492C59.9563 110.12 62.4932 111.539 61.8801 113.356C60.438 117.629 58.1415 121.527 54.5576 124.335C51.1887 126.975 47.1715 128.689 42.8451 128.323C42.8117 128.32 42.7828 128.312 42.7572 128.3L43.1301 128.806C46.0571 132.767 49.145 136.673 52.8668 139.91C60.4498 146.507 70.7745 150.065 80.7442 147.534C88.5882 145.543 95.4987 139.337 97.5311 131.43C97.2398 131.56 96.8935 131.605 96.5134 131.522C94.8873 131.169 93.2774 129.458 92.2287 128.231C91.0942 126.904 90.2082 125.471 89.5587 123.852C88.3701 120.887 87.989 117.07 89.612 114.199C89.8122 113.845 90.2741 114.043 90.3134 114.389L90.3752 114.928C90.688 117.619 91.0778 120.223 92.3462 122.676C92.9669 123.877 93.711 125.048 94.6167 126.054C95.1013 126.592 95.6267 127.106 96.194 127.557C96.7468 127.996 97.4158 128.314 97.9112 128.818L98.002 128.915L98.0046 128.897C98.1298 127.832 98.8767 127.363 99.6074 127.392C100.315 127.42 101.145 127.732 101.467 127.881L101.497 127.895C106.431 130.264 110.975 133.353 115.251 136.779C124.094 143.864 130.719 153.126 133.929 164.034C135.505 169.387 136.409 174.903 137.363 180.393L137.951 183.757C138.842 188.826 139.837 193.994 141.848 198.709C142.368 199.929 141.967 201.072 140.691 201.552C139.099 202.151 137.5 202.731 135.899 203.304C136.686 206.677 137.165 210.168 137.754 213.559C139.006 220.765 140.54 227.926 141.855 235.124C142.528 238.804 143.134 242.496 143.806 246.176C144.13 247.949 144.467 249.719 144.796 251.49C144.973 252.445 145.133 253.404 145.302 254.36L145.331 254.519C145.428 255.024 145.549 255.546 145.41 256.051C145.252 256.627 144.803 257.033 144.402 257.446C144.071 257.786 143.594 257.789 143.19 257.603L143.057 257.541C142.334 257.203 141.768 256.866 141.512 256.051C141.349 255.534 141.291 254.953 141.185 254.421C140.981 253.401 140.788 252.38 140.606 251.356C140.242 249.307 139.886 247.257 139.539 245.205L139.215 243.284C138.101 236.663 137.044 230.001 136.509 223.31C136.272 220.341 136.021 217.375 135.767 214.409L135.577 212.184C135.336 209.367 135.041 206.48 135 203.626L134.043 203.966L129.371 205.618C128.213 206.027 126.738 206.866 125.492 206.713C124.882 206.639 124.417 206.446 124.057 206.097C124.488 212.17 125.07 218.232 125.846 224.264C126.552 229.751 127.335 235.232 128.259 240.688C128.717 243.389 129.187 246.088 129.699 248.78C129.954 250.126 130.218 251.47 130.489 252.813C130.625 253.483 130.786 254.154 130.892 254.829C131.012 255.603 130.799 256.078 130.367 256.715C130.013 257.238 129.303 257.506 128.728 257.145C127.966 256.667 127.569 256.253 127.344 255.382C127.141 254.591 127.017 253.765 126.859 252.963C126.568 251.484 126.287 250.004 126.016 248.521C125.448 245.42 124.925 242.311 124.457 239.194C122.811 228.21 121.766 217.134 121.238 206.041C120.977 200.567 120.897 195.089 120.943 189.61C120.967 186.802 121.059 183.985 121.257 181.184C121.458 178.348 121.877 175.569 122.25 172.761C122.263 172.662 122.403 172.656 122.409 172.761C122.585 175.909 122.863 179.054 122.998 182.211C123.128 185.224 123.185 188.241 123.288 191.254C123.423 195.215 123.611 199.179 123.86 203.139C124.31 202.647 124.989 202.363 125.668 202.474C126.651 202.267 127.71 201.751 128.648 201.437L132.183 200.256C134.042 199.635 135.9 199.018 137.766 198.42C136.098 192.808 134.956 187.112 133.98 181.334L133.545 178.735C132.684 173.619 131.756 168.501 130.196 163.548C128.557 158.34 126.103 153.498 122.848 149.113C119.639 144.791 115.736 140.986 111.717 137.427C108.276 134.38 104.595 131.629 101.085 128.666C101.122 128.862 101.13 129.079 101.098 129.316C100.351 134.779 97.5024 139.867 93.532 143.652C85.5556 151.254 73.7485 152.831 63.5396 149.266C53.6643 145.818 44.9333 137.651 41.8486 127.545C41.7958 127.372 42.0273 127.303 42.1203 127.43C42.2914 127.665 42.4634 127.899 42.6355 128.134C42.6239 128.041 42.6723 127.939 42.7872 127.895C46.3864 126.505 49.9207 124.533 52.6186 121.744C53.9335 120.384 55.0811 118.844 55.987 117.183C56.421 116.387 56.8108 115.563 57.1217 114.711L57.2008 114.491C57.5777 113.424 57.8926 112.337 58.6794 111.492Z" fill="#4F4F4F"/>
<path fill-rule="evenodd" clip-rule="evenodd" d="M107.295 49.1722C94.5912 40.7598 69.1402 41.6735 55.1556 46.8275C41.5102 51.1566 36.7328 63.2194 34.4672 76.2519C31.7133 90.8991 32.0835 112.014 51.8864 111.758C54.6705 113.105 57.7548 113.689 60.6354 114.805C64.5781 116.168 68.4439 117.751 72.4447 118.946C80.3245 121.484 89.093 121.264 96.5678 117.549C100.698 115.553 102.407 112.445 105.108 109.133C112.965 99.499 116.918 85.7109 116.564 73.4603C115.943 64.8341 114.517 54.8482 107.295 49.1722Z" fill="#F9F9F9"/>
<path fill-rule="evenodd" clip-rule="evenodd" d="M123.371 84.6812C122.068 76.5865 121.706 68.3544 119.999 60.3231C118.394 52.7654 115.392 45.6237 110.146 39.8623C105.451 34.7074 99.3818 30.9222 92.8663 28.5233C80.1733 23.8504 65.5747 24.9071 53.2958 30.3623C41.8029 35.4662 32.636 44.9093 27.293 56.2419C23.8219 63.6054 22.0768 71.4338 21.3015 79.5137C20.4416 88.4897 20.3487 97.5588 19.998 106.567C19.9557 107.678 19.8944 108.79 19.8796 109.902C19.8627 111.119 20.355 112.186 20.7564 113.319C20.7839 113.399 20.824 113.476 20.8726 113.548C20.5705 113.585 20.2684 113.63 19.9663 113.678C19.6282 113.731 19.643 114.281 19.9663 114.346C22.7022 114.904 25.5142 114.983 28.2965 115.12C31.1804 115.264 34.0684 115.342 36.9564 115.439C39.7726 115.534 42.5888 115.629 45.405 115.724C46.8839 115.775 48.3627 115.826 49.8416 115.874C50.5451 115.898 51.2487 115.923 51.9543 115.946C52.305 115.959 52.6578 115.969 53.0085 115.982C53.2937 115.991 53.7585 116.172 53.7881 115.963C53.8409 115.995 53.898 116.022 53.9592 116.041C54.0268 116.077 54.0923 116.12 54.1557 116.166C54.5001 116.403 55.0219 116.373 55.3705 116.166C55.4022 116.147 55.436 116.126 55.4698 116.105C55.7296 115.95 55.9113 115.726 56.0127 115.473C57.4578 117.219 60.0163 115.257 58.5374 113.41C57.743 112.417 49.8416 88.0628 53.112 69.5105L66.2275 67.7732C68.6254 67.5301 73.0874 67.0461 73.0874 67.0461C73.0874 67.0461 74.1796 63.4807 74.4923 62.333C74.5156 62.2485 74.5388 62.1618 74.5642 62.0773C74.8768 62.6291 75.1916 63.1784 75.5085 63.7279L77.1268 67.0187C77.1268 67.0187 101.013 66.6192 106.869 66.6573C106.968 66.6573 107.44 73.7798 107.226 76.9162C106.795 83.2144 106.337 89.5085 105.699 95.7898C105.291 99.8119 104.31 103.756 102.848 107.463C100.538 113.319 93.8319 118.885 87.293 118.885C83.2228 118.885 74.0254 115.587 72.686 114.921C71.3465 114.255 70.5484 116.073 71.7691 116.8C74.2417 118.273 81.0576 121.397 87.293 121.397C96.3486 121.397 103.185 112.801 104.023 111.569C112.269 111.117 120.703 111.326 128.938 112.144C129.629 112.212 130.225 111.379 130.003 110.743C127.045 102.274 124.795 93.5391 123.371 84.6812Z" fill="#4F4F4F"/>
</g>
</g>
</g>
<defs>
<clipPath id="clip0_133_1544">
<rect width="150" height="150" fill="white"/>
</clipPath>
</defs>
</svg>
