<svg width="150" height="150" viewBox="0 0 150 150" fill="none" xmlns="http://www.w3.org/2000/svg">
<g clip-path="url(#clip0_133_1518)">
<mask id="mask0_133_1518" style="mask-type:alpha" maskUnits="userSpaceOnUse" x="0" y="0" width="150" height="150">
<path d="M75 150C116.421 150 150 116.421 150 75C150 33.5786 116.421 0 75 0C33.5786 0 0 33.5786 0 75C0 116.421 33.5786 150 75 150Z" fill="white"/>
</mask>
<g mask="url(#mask0_133_1518)">
<mask id="mask1_133_1518" style="mask-type:luminance" maskUnits="userSpaceOnUse" x="0" y="0" width="150" height="150">
<path d="M150 0H0V150H150V0Z" fill="white"/>
</mask>
<g mask="url(#mask1_133_1518)">
<path fill-rule="evenodd" clip-rule="evenodd" d="M139.581 228.881C138.729 224.07 137.948 219.246 137.239 214.412C136.902 212.117 136.574 209.819 136.278 207.518C136.071 205.906 135.756 204.062 136.853 202.868C138.396 201.188 139.797 199.749 139.986 197.342C140.164 195.077 139.398 192.608 138.92 190.409C137.916 185.798 136.666 181.244 135.285 176.734C133.882 172.151 132.343 167.611 130.783 163.08C129.324 158.844 127.921 154.57 126.021 150.505C122.414 142.792 116.313 137.08 108.772 133.266C106.897 132.317 103.072 128.931 101.112 128.173C99.3107 127.476 99.3171 129.511 97.5444 128.744C96.1273 128.131 94.8076 127.314 94.0141 125.945C93.1525 124.459 90.9921 122.38 90.663 120.65C89.966 116.983 90.7211 113.861 88.1048 111.101C85.7821 108.65 82.6601 106.971 79.4298 106.07C72.3237 104.087 62.8466 105.473 58.5592 112.079C56.5114 115.234 55.7959 119.047 53.0327 121.621C50.6198 123.869 51.1598 125.406 48.0347 126.565C47.8577 126.631 43.0602 125.601 42.8832 125.667C39.4644 124.935 36.1969 126.984 33.0604 128.173C28.3844 129.945 23.9326 132.251 19.7501 134.993C11.3165 140.521 4.09334 147.699 -1.86166 155.822C-7.86588 164.011 -12.5246 173.191 -15.8417 182.785C-16.6473 185.115 -17.3709 187.474 -18.0091 189.856C-18.3664 191.188 -18.748 192.571 -18.313 193.936C-17.9572 195.052 -17.1658 195.883 -16.2365 196.553C-14.9767 197.461 -12.4498 198.052 -12.499 199.878C-12.5366 201.267 -13.0075 202.728 -13.2373 204.1C-13.511 205.735 -13.7358 207.379 -13.9606 209.02C-14.9831 216.491 -15.779 224.004 -16.1309 231.539C-16.4774 238.958 -16.7649 246.528 -16.2505 253.945C-16.2165 254.434 -16.0707 254.883 -15.8356 255.262C-16.0551 255.346 -16.072 255.756 -15.7988 255.814C-15.6074 255.854 -15.4164 255.895 -15.225 255.935C-14.8274 256.236 -14.3316 256.421 -13.7609 256.439C-13.3741 256.451 -12.9875 256.469 -12.601 256.488C-8.52335 257.341 -4.44631 258.147 -0.31539 258.757C4.70602 259.498 9.74222 260.102 14.794 260.594C25.1746 261.603 35.4735 261.268 45.868 260.724C56.2462 260.181 66.6184 260.054 77.0075 260.324C87.4056 260.595 97.8 261.047 108.201 261.232C119.82 261.439 131.422 261.122 143.008 260.198C144.597 260.071 145.579 258.807 145.266 257.228C143.389 247.772 141.262 238.379 139.581 228.881Z" fill="#F9F9F9"/>
<path fill-rule="evenodd" clip-rule="evenodd" d="M39.6413 125.434C40.7158 125.388 41.8115 125.562 42.8834 125.667C42.9768 125.676 43.0123 125.82 42.9071 125.842C40.9886 126.243 39.0912 126.792 37.207 127.349L36.4003 127.588C34.2756 128.216 32.2132 128.865 30.1563 129.704C26.0568 131.375 22.1634 133.631 18.5801 136.223C4.78171 146.203 -5.20491 161.313 -11.507 176.958C-13.2185 181.206 -14.6686 185.56 -15.8432 189.988C-16.1289 191.065 -16.3976 192.147 -16.6524 193.232C-16.7272 193.55 -17.0532 194.364 -16.8744 194.69C-16.7164 194.977 -16.102 195.155 -15.8166 195.305L-14.853 195.805C-12.9734 196.774 -9.84247 198.367 -9.5285 198.522L-9.03882 198.763C-1.02953 202.691 7.52833 206.022 16.5413 206.252L16.6119 205.482C17.0137 201.226 17.541 196.946 18.692 192.82C18.7539 192.599 19.036 192.673 19.0618 192.87C19.7029 197.755 19.498 202.677 19.2743 207.585C18.8782 216.276 18.3521 224.962 17.8846 233.65C17.6505 237.996 17.348 242.339 17.0748 246.682C16.8012 251.035 16.7127 255.492 16.0879 259.808C15.9487 260.77 14.8222 261.293 13.9691 261.192C13.0252 261.08 12.2991 260.248 12.2946 259.295C12.2832 256.78 12.5991 254.236 12.7746 251.727C12.9413 249.344 13.1203 246.962 13.3037 244.58C13.9738 235.887 14.7447 227.204 15.4577 218.515C15.7104 215.433 15.9834 212.354 16.2644 209.275C6.7165 208.967 -2.20343 205.429 -10.7128 201.296C-10.836 204.093 -11.1335 206.886 -11.4214 209.672C-12.2253 217.447 -12.9341 225.219 -13.4646 233.017C-13.7325 236.956 -13.9275 240.9 -14.0973 244.844C-14.1808 246.783 -14.2488 248.722 -14.301 250.661C-14.3185 251.308 -14.3342 251.954 -14.3482 252.601L-14.3772 254.082C-14.401 255.021 -14.4963 255.89 -15.2857 256.573C-16.0875 257.267 -17.1704 257.304 -17.964 256.573C-19.0262 255.595 -18.8384 254.261 -18.8069 252.947C-18.7807 251.839 -18.7492 250.73 -18.7127 249.622C-18.6394 247.406 -18.5458 245.19 -18.4319 242.975C-18.0334 235.232 -17.2373 227.52 -16.1968 219.839L-15.7906 216.874C-15.0321 211.362 -14.1993 205.725 -12.5037 200.415C-13.164 200.086 -13.8223 199.756 -14.478 199.423C-15.6413 198.834 -16.844 198.281 -17.9747 197.631C-18.8718 197.115 -19.6454 196.407 -19.8951 195.363C-20.1736 194.2 -19.7478 192.927 -19.4649 191.792L-19.4403 191.692C-19.1629 190.549 -18.8642 189.412 -18.549 188.279C-17.2708 183.684 -15.6903 179.179 -13.8406 174.784C-10.1371 165.985 -5.35681 157.626 0.482418 150.068C5.73854 143.265 11.9477 137.095 19.2251 132.467C22.7828 130.205 26.5742 128.348 30.5839 127.034C32.458 126.421 34.4972 125.887 36.4594 125.667C37.5179 125.548 38.5778 125.481 39.6413 125.434ZM58.6794 111.492C59.9563 110.12 62.4932 111.539 61.8801 113.356C60.438 117.629 58.1415 121.527 54.5576 124.335C51.1887 126.975 47.1715 128.689 42.8451 128.323C42.8117 128.32 42.7828 128.312 42.7572 128.3L43.1301 128.806C46.0571 132.767 49.145 136.673 52.8668 139.91C60.4498 146.507 70.7745 150.065 80.7442 147.534C88.5882 145.543 95.4987 139.337 97.5311 131.43C97.2398 131.56 96.8935 131.605 96.5134 131.522C94.8873 131.169 93.2774 129.458 92.2287 128.231C91.0942 126.904 90.2082 125.471 89.5587 123.852C88.3701 120.887 87.989 117.07 89.612 114.199C89.8122 113.845 90.2741 114.043 90.3134 114.389L90.3752 114.928C90.688 117.619 91.0778 120.223 92.3462 122.676C92.9669 123.877 93.711 125.048 94.6167 126.054C95.1013 126.592 95.6267 127.106 96.194 127.557C96.7468 127.996 97.4158 128.314 97.9112 128.818L98.002 128.915L98.0046 128.897C98.1298 127.832 98.8767 127.363 99.6074 127.392C100.315 127.42 101.145 127.732 101.467 127.881L101.497 127.895C106.431 130.264 110.975 133.353 115.251 136.779C124.094 143.864 130.719 153.126 133.929 164.034C135.505 169.387 136.409 174.903 137.363 180.393L137.951 183.757C138.842 188.826 139.837 193.994 141.848 198.709C142.368 199.929 141.967 201.072 140.691 201.552C139.099 202.151 137.5 202.731 135.899 203.304C136.686 206.677 137.165 210.168 137.754 213.559C139.006 220.765 140.54 227.926 141.855 235.124C142.528 238.804 143.134 242.496 143.806 246.176C144.13 247.949 144.467 249.719 144.796 251.49C144.973 252.445 145.133 253.404 145.302 254.36L145.331 254.519C145.428 255.024 145.549 255.546 145.41 256.051C145.252 256.627 144.803 257.033 144.402 257.446C144.071 257.786 143.594 257.789 143.19 257.603L143.057 257.541C142.334 257.203 141.768 256.866 141.512 256.051C141.349 255.534 141.291 254.953 141.185 254.421C140.981 253.401 140.788 252.38 140.606 251.356C140.242 249.307 139.886 247.257 139.539 245.205L139.215 243.284C138.101 236.663 137.044 230.001 136.509 223.31C136.272 220.341 136.021 217.375 135.767 214.409L135.577 212.184C135.336 209.367 135.041 206.48 135 203.626L134.043 203.966L129.371 205.618C128.213 206.027 126.738 206.866 125.492 206.713C124.882 206.639 124.417 206.446 124.057 206.097C124.488 212.17 125.07 218.232 125.846 224.264C126.552 229.751 127.335 235.232 128.259 240.688C128.717 243.389 129.187 246.088 129.699 248.78C129.954 250.126 130.218 251.47 130.489 252.813C130.625 253.483 130.786 254.154 130.892 254.829C131.012 255.603 130.799 256.078 130.367 256.715C130.013 257.238 129.303 257.506 128.728 257.145C127.966 256.667 127.569 256.253 127.344 255.382C127.141 254.591 127.017 253.765 126.859 252.963C126.568 251.484 126.287 250.004 126.016 248.521C125.448 245.42 124.925 242.311 124.457 239.194C122.811 228.21 121.766 217.134 121.238 206.041C120.977 200.567 120.897 195.089 120.943 189.61C120.967 186.802 121.059 183.985 121.257 181.184C121.458 178.348 121.877 175.569 122.25 172.761C122.263 172.662 122.403 172.656 122.409 172.761C122.585 175.909 122.863 179.054 122.998 182.211C123.128 185.224 123.185 188.241 123.288 191.254C123.423 195.215 123.611 199.179 123.86 203.139C124.31 202.647 124.989 202.363 125.668 202.474C126.651 202.267 127.71 201.751 128.648 201.437L132.183 200.256C134.042 199.635 135.9 199.018 137.766 198.42C136.098 192.808 134.956 187.112 133.98 181.334L133.545 178.735C132.684 173.619 131.756 168.501 130.196 163.548C128.557 158.34 126.103 153.498 122.848 149.113C119.639 144.791 115.736 140.986 111.717 137.427C108.276 134.38 104.595 131.629 101.085 128.666C101.122 128.862 101.13 129.079 101.098 129.316C100.351 134.779 97.5024 139.867 93.532 143.652C85.5556 151.254 73.7485 152.831 63.5396 149.266C53.6643 145.818 44.9333 137.651 41.8486 127.545C41.7958 127.372 42.0273 127.303 42.1203 127.43C42.2914 127.665 42.4634 127.899 42.6355 128.134C42.6239 128.041 42.6723 127.939 42.7872 127.895C46.3864 126.505 49.9207 124.533 52.6186 121.744C53.9335 120.384 55.0811 118.844 55.987 117.183C56.421 116.387 56.8108 115.563 57.1217 114.711L57.2008 114.491C57.5777 113.424 57.8926 112.337 58.6794 111.492Z" fill="#4F4F4F"/>
<path fill-rule="evenodd" clip-rule="evenodd" d="M79.206 23.2378C91.2019 23.2378 106.227 36.9272 110.624 42.7525C114.321 47.6502 113.798 72.8814 113.798 87.8486C113.798 90.9789 112.383 96.9033 111.87 99.8976C109.988 110.87 101.791 120.072 85.5653 120.072C72.3542 120.072 62.1875 115.886 52.3561 105.179C50.1132 102.736 39.1593 111.481 36.9191 108.332C31.0676 108.332 26.1749 53.6389 37.6634 37.2343C49.1518 20.8296 67.2101 23.2378 79.206 23.2378Z" fill="#F9F9F9"/>
<path fill-rule="evenodd" clip-rule="evenodd" d="M43.1511 27.0903C50.0828 20.7815 59.3173 17.7465 68.6342 17.9705C73.4595 18.0868 78.268 19.0062 82.825 20.5807C85.1046 21.3712 87.3124 22.4025 89.4229 23.5692C90.1835 23.9887 90.8846 24.4801 91.5596 25.0021L91.7279 25.1332H91.73C93.5405 25.7842 95.1567 26.9529 96.6229 28.3204C99.5617 28.0858 102.524 28.3499 105.365 29.2566C109.32 30.5205 112.982 32.8348 115.553 36.1213C118.548 39.9474 119.543 44.5884 119.188 49.3794L119.122 50.1933C118.771 54.4255 118.142 59.8691 114.67 62.65C114.406 62.8613 114.114 63.022 113.812 63.1192C116.049 66.9531 117.885 71.2097 118.984 75.5085C123.177 91.9283 119.953 109.052 114.91 124.878C114.496 126.182 112.525 127.048 111.522 125.774C109.73 123.496 107.127 121.758 104.199 121.433C102.393 121.232 100.595 121.596 98.8877 120.776C98.218 120.452 97.5715 119.924 97.1067 119.281C94.225 120.374 91.1215 120.89 88.0433 120.763C82.9919 120.556 77.5919 118.806 74.1166 114.968C73.5588 114.352 73.4175 113.66 73.546 113.036C73.9818 112.881 74.4293 112.765 74.8903 112.692C79.2973 115.291 84.1552 117.027 89.376 117.136C92.3927 117.199 95.3353 116.777 97.7813 114.893C98.3105 114.485 98.7973 114.033 99.2473 113.548C104.362 110.257 107.967 104.667 109.682 98.6789C111.279 93.095 111.082 87.2808 110.533 81.5532L110.243 78.5307C109.821 74.0947 109.429 69.6453 109.319 65.1904L109.352 65.1887C110.432 65.119 110.44 63.4275 109.352 63.4979C106.538 63.6801 103.746 63.2183 100.941 63.4195C100.917 62.0929 100.822 60.7721 100.432 59.4926C100.209 58.7616 98.9367 58.6174 98.8019 59.4926C98.6215 60.6635 98.5556 61.8278 98.536 63.004C94.3379 62.9482 90.1438 62.5948 85.945 62.74C85.1705 61.9136 84.924 60.4483 84.5617 59.429C84.5088 59.2789 84.456 59.131 84.4011 58.9809C84.0827 60.4376 83.6314 61.8623 83.0378 63.257L82.0081 63.2605C76.1655 63.2879 70.204 63.4626 64.4988 64.6764C64.1023 64.3719 63.8663 63.8405 63.8025 63.358C63.3887 60.2182 62.798 57.1619 61.7513 54.1698L61.6015 53.7477C61.5893 53.7127 61.5764 53.6755 61.5629 53.6363C60.7915 54.8818 59.8712 56.0428 58.8675 57.1238C58.276 57.761 57.6557 58.3704 57.0191 58.9623C56.4007 59.6492 55.7617 60.3258 55.1422 61.0148C55.1665 61.1401 55.1876 61.2673 55.2048 61.3969C55.3943 62.8267 55.4139 64.2767 55.2751 65.712C55.0241 68.3068 54.2919 70.8071 53.1155 73.1201L53.0783 73.3517C52.8997 74.4356 52.6455 75.5559 52.052 76.3721C52.7927 77.2023 53.3634 78.194 53.6942 79.2957C53.9887 80.2766 52.6322 81.1267 51.9286 80.3239C51.3698 79.6863 50.7489 79.1586 50.0669 78.7375C50.0238 78.7961 49.9461 78.8248 49.8588 78.776C47.9595 77.7214 44.7335 78.0405 42.8363 79.0339C40.4764 80.2681 39.5553 82.8022 39.8173 85.3701C40.0687 87.8239 41.1419 90.6919 43.2229 91.9495C44.1779 92.5265 44.9215 92.5751 45.9356 92.2982C46.2598 92.2101 46.6618 91.9399 46.8344 91.8057L47.0042 91.6695C47.669 91.1439 48.2881 90.7839 49.0729 90.7701C49.8756 90.5197 50.6823 90.8671 50.9892 91.7091L51.0081 91.7635C51.1518 92.1925 51.4138 92.7315 51.3567 93.3867C51.2976 94.0883 50.9764 94.7266 50.4969 95.2402C50.4145 95.329 50.3257 95.4177 50.2349 95.5002C58.4955 104.447 59.556 118.387 55.3201 129.563C55.1363 130.054 54.9398 130.538 54.7349 131.018C54.0272 132.662 51.3018 132.153 50.9553 130.523C50.8518 130.035 50.7377 129.549 50.6131 129.067C50.384 128.176 50.1215 127.294 49.8256 126.425L49.7131 126.099C49.4617 125.381 49.2272 124.656 48.9736 123.937L48.9483 123.855C48.9388 123.823 48.9282 123.785 48.9166 123.743L48.4877 124.679L47.1842 127.505C46.5742 128.824 44.6362 128.107 44.5641 126.836L44.5624 126.793C44.556 126.558 44.5476 126.326 44.5328 126.095C44.4398 124.368 44.1419 122.69 43.6687 121.048L43.498 121.26C40.9556 124.405 37.9718 127.352 33.8786 128.078C32.8518 128.259 31.6898 127.186 32.3955 126.148C32.687 125.719 32.968 125.279 33.2342 124.833C33.0039 124.726 32.7863 124.614 32.5856 124.5C31.0328 123.627 29.7398 122.384 28.6708 120.974C26.4039 117.986 25.5926 114.224 25.3941 110.542C25.1828 106.651 25.525 102.549 26.5877 98.7951C27.0483 97.1719 27.6715 95.6143 28.3919 94.1031C28.3412 93.9679 28.2926 93.8326 28.2441 93.6973C27.4666 91.5289 26.8286 89.3118 26.2983 87.0694C25.2293 82.5423 24.6546 77.8714 24.5849 73.2196C24.4581 64.8861 25.8948 56.4194 28.9222 48.648C32.049 40.6336 36.7518 32.913 43.1511 27.0903ZM39.2574 99.9512C38.6833 99.0468 37.2467 99.8618 37.7798 100.772L37.7997 100.805C38.7103 102.24 39.137 103.872 39.661 105.472C39.9969 106.501 41.63 106.061 41.2898 105.021L41.1772 104.674C40.6559 103.052 40.1803 101.403 39.2574 99.9512ZM44.2581 82.6881L44.6396 82.5034C45.8428 81.929 46.8971 81.5377 48.3187 82.0392C50.2222 82.7092 52.261 84.8417 50.9743 86.9109C50.5011 87.6738 49.6603 87.9782 48.7941 87.7985C47.3338 87.4956 46.9569 86.18 46.2159 85.1002L46.0884 84.9173C45.6366 84.2639 45.0652 83.3606 44.3131 83.1044C44.1419 83.0453 44.0701 82.779 44.2581 82.6881ZM45.3311 38.7571L45.4539 38.6469C46.2715 37.9241 45.0715 36.7321 44.2581 37.4507C40.5356 40.7414 39.2426 45.892 37.3117 50.2818C36.8786 51.2688 38.3342 52.1311 38.7715 51.1356C40.6135 46.9468 41.8361 41.9359 45.3311 38.7571ZM90.0652 37.3175C89.0925 36.8791 88.2416 38.2951 89.1766 38.7613L89.2117 38.778C92.499 40.2638 93.8976 43.6285 95.237 46.7522C95.6638 47.7498 97.1194 46.8896 96.6969 45.9005L96.4552 45.34C95.0575 42.1208 93.4274 38.8395 90.0652 37.3175ZM95.218 35.2843C94.187 34.9272 93.7455 36.5588 94.768 36.916C97.5546 37.8861 99.4666 39.9784 101.079 42.3709C101.683 43.2671 103.147 42.4216 102.537 41.5171C100.665 38.7399 98.4419 36.4087 95.218 35.2843Z" fill="#4F4F4F"/>
</g>
</g>
</g>
<defs>
<clipPath id="clip0_133_1518">
<rect width="150" height="150" fill="white"/>
</clipPath>
</defs>
</svg>
