<svg width="150" height="150" viewBox="0 0 150 150" fill="none" xmlns="http://www.w3.org/2000/svg">
<g clip-path="url(#clip0_133_1702)">
<mask id="mask0_133_1702" style="mask-type:alpha" maskUnits="userSpaceOnUse" x="0" y="0" width="150" height="150">
<path d="M75 150C116.421 150 150 116.421 150 75C150 33.5786 116.421 0 75 0C33.5786 0 0 33.5786 0 75C0 116.421 33.5786 150 75 150Z" fill="white"/>
</mask>
<g mask="url(#mask0_133_1702)">
<mask id="mask1_133_1702" style="mask-type:luminance" maskUnits="userSpaceOnUse" x="0" y="0" width="150" height="150">
<path d="M150 0H0V150H150V0Z" fill="white"/>
</mask>
<g mask="url(#mask1_133_1702)">
<path fill-rule="evenodd" clip-rule="evenodd" d="M139.581 228.881C138.729 224.07 137.948 219.246 137.239 214.412C136.902 212.117 136.574 209.819 136.278 207.518C136.071 205.906 135.756 204.062 136.853 202.868C138.396 201.188 139.797 199.749 139.986 197.342C140.164 195.077 139.398 192.608 138.92 190.409C137.916 185.798 136.666 181.244 135.285 176.734C133.882 172.151 132.343 167.611 130.783 163.08C129.324 158.844 127.921 154.57 126.021 150.505C122.414 142.792 116.313 137.08 108.772 133.266C106.897 132.317 103.072 128.931 101.112 128.173C99.3107 127.476 99.3171 129.511 97.5444 128.744C96.1273 128.131 94.8076 127.314 94.0141 125.945C93.1525 124.459 90.9921 122.38 90.663 120.65C89.966 116.983 90.7211 113.861 88.1048 111.101C85.7821 108.65 82.6601 106.971 79.4298 106.07C72.3237 104.087 62.8466 105.473 58.5592 112.079C56.5114 115.234 55.7959 119.047 53.0327 121.621C50.6198 123.869 51.1598 125.406 48.0347 126.565C47.8577 126.631 43.0602 125.601 42.8832 125.667C39.4644 124.935 36.1969 126.984 33.0604 128.173C28.3844 129.945 23.9326 132.251 19.7501 134.993C11.3165 140.521 4.09334 147.699 -1.86166 155.822C-7.86588 164.011 -12.5246 173.191 -15.8417 182.785C-16.6473 185.115 -17.3709 187.474 -18.0091 189.856C-18.3664 191.188 -18.748 192.571 -18.313 193.936C-17.9572 195.052 -17.1658 195.883 -16.2365 196.553C-14.9767 197.461 -12.4498 198.052 -12.499 199.878C-12.5366 201.267 -13.0075 202.728 -13.2373 204.1C-13.511 205.735 -13.7358 207.379 -13.9606 209.02C-14.9831 216.491 -15.779 224.004 -16.1309 231.539C-16.4774 238.958 -16.7649 246.528 -16.2505 253.945C-16.2165 254.434 -16.0707 254.883 -15.8356 255.262C-16.0551 255.346 -16.072 255.756 -15.7988 255.814C-15.6074 255.854 -15.4164 255.895 -15.225 255.935C-14.8274 256.236 -14.3316 256.421 -13.7609 256.439C-13.3741 256.451 -12.9875 256.469 -12.601 256.488C-8.52335 257.341 -4.44631 258.147 -0.31539 258.757C4.70602 259.498 9.74222 260.102 14.794 260.594C25.1746 261.603 35.4735 261.268 45.868 260.724C56.2462 260.181 66.6184 260.054 77.0075 260.324C87.4056 260.595 97.8 261.047 108.201 261.232C119.82 261.439 131.422 261.122 143.008 260.198C144.597 260.071 145.579 258.807 145.266 257.228C143.389 247.772 141.262 238.379 139.581 228.881Z" fill="#F9F9F9"/>
<path fill-rule="evenodd" clip-rule="evenodd" d="M39.6413 125.434C40.7158 125.388 41.8115 125.562 42.8834 125.667C42.9768 125.676 43.0123 125.82 42.9071 125.842C40.9886 126.243 39.0912 126.792 37.207 127.349L36.4003 127.588C34.2756 128.216 32.2132 128.865 30.1563 129.704C26.0568 131.375 22.1634 133.631 18.5801 136.223C4.78171 146.203 -5.20491 161.313 -11.507 176.958C-13.2185 181.206 -14.6686 185.56 -15.8432 189.988C-16.1289 191.065 -16.3976 192.147 -16.6524 193.232C-16.7272 193.55 -17.0532 194.364 -16.8744 194.69C-16.7164 194.977 -16.102 195.155 -15.8166 195.305L-14.853 195.805C-12.9734 196.774 -9.84247 198.367 -9.5285 198.522L-9.03882 198.763C-1.02953 202.691 7.52833 206.022 16.5413 206.252L16.6119 205.482C17.0137 201.226 17.541 196.946 18.692 192.82C18.7539 192.599 19.036 192.673 19.0618 192.87C19.7029 197.755 19.498 202.677 19.2743 207.585C18.8782 216.276 18.3521 224.962 17.8846 233.65C17.6505 237.996 17.348 242.339 17.0748 246.682C16.8012 251.035 16.7127 255.492 16.0879 259.808C15.9487 260.77 14.8222 261.293 13.9691 261.192C13.0252 261.08 12.2991 260.248 12.2946 259.295C12.2832 256.78 12.5991 254.236 12.7746 251.727C12.9413 249.344 13.1203 246.962 13.3037 244.58C13.9738 235.887 14.7447 227.204 15.4577 218.515C15.7104 215.433 15.9834 212.354 16.2644 209.275C6.7165 208.967 -2.20343 205.429 -10.7128 201.296C-10.836 204.093 -11.1335 206.886 -11.4214 209.672C-12.2253 217.447 -12.9341 225.219 -13.4646 233.017C-13.7325 236.956 -13.9275 240.9 -14.0973 244.844C-14.1808 246.783 -14.2488 248.722 -14.301 250.661C-14.3185 251.308 -14.3342 251.954 -14.3482 252.601L-14.3772 254.082C-14.401 255.021 -14.4963 255.89 -15.2857 256.573C-16.0875 257.267 -17.1704 257.304 -17.964 256.573C-19.0262 255.595 -18.8384 254.261 -18.8069 252.947C-18.7807 251.839 -18.7492 250.73 -18.7127 249.622C-18.6394 247.406 -18.5458 245.19 -18.4319 242.975C-18.0334 235.232 -17.2373 227.52 -16.1968 219.839L-15.7906 216.874C-15.0321 211.362 -14.1993 205.725 -12.5037 200.415C-13.164 200.086 -13.8223 199.756 -14.478 199.423C-15.6413 198.834 -16.844 198.281 -17.9747 197.631C-18.8718 197.115 -19.6454 196.407 -19.8951 195.363C-20.1736 194.2 -19.7478 192.927 -19.4649 191.792L-19.4403 191.692C-19.1629 190.549 -18.8642 189.412 -18.549 188.279C-17.2708 183.684 -15.6903 179.179 -13.8406 174.784C-10.1371 165.985 -5.35681 157.626 0.482418 150.068C5.73854 143.265 11.9477 137.095 19.2251 132.467C22.7828 130.205 26.5742 128.348 30.5839 127.034C32.458 126.421 34.4972 125.887 36.4594 125.667C37.5179 125.548 38.5778 125.481 39.6413 125.434ZM58.6794 111.492C59.9563 110.12 62.4932 111.539 61.8801 113.356C60.438 117.629 58.1415 121.527 54.5576 124.335C51.1887 126.975 47.1715 128.689 42.8451 128.323C42.8117 128.32 42.7828 128.312 42.7572 128.3L43.1301 128.806C46.0571 132.767 49.145 136.673 52.8668 139.91C60.4498 146.507 70.7745 150.065 80.7442 147.534C88.5882 145.543 95.4987 139.337 97.5311 131.43C97.2398 131.56 96.8935 131.605 96.5134 131.522C94.8873 131.169 93.2774 129.458 92.2287 128.231C91.0942 126.904 90.2082 125.471 89.5587 123.852C88.3701 120.887 87.989 117.07 89.612 114.199C89.8122 113.845 90.2741 114.043 90.3134 114.389L90.3752 114.928C90.688 117.619 91.0778 120.223 92.3462 122.676C92.9669 123.877 93.711 125.048 94.6167 126.054C95.1013 126.592 95.6267 127.106 96.194 127.557C96.7468 127.996 97.4158 128.314 97.9112 128.818L98.002 128.915L98.0046 128.897C98.1298 127.832 98.8767 127.363 99.6074 127.392C100.315 127.42 101.145 127.732 101.467 127.881L101.497 127.895C106.431 130.264 110.975 133.353 115.251 136.779C124.094 143.864 130.719 153.126 133.929 164.034C135.505 169.387 136.409 174.903 137.363 180.393L137.951 183.757C138.842 188.826 139.837 193.994 141.848 198.709C142.368 199.929 141.967 201.072 140.691 201.552C139.099 202.151 137.5 202.731 135.899 203.304C136.686 206.677 137.165 210.168 137.754 213.559C139.006 220.765 140.54 227.926 141.855 235.124C142.528 238.804 143.134 242.496 143.806 246.176C144.13 247.949 144.467 249.719 144.796 251.49C144.973 252.445 145.133 253.404 145.302 254.36L145.331 254.519C145.428 255.024 145.549 255.546 145.41 256.051C145.252 256.627 144.803 257.033 144.402 257.446C144.071 257.786 143.594 257.789 143.19 257.603L143.057 257.541C142.334 257.203 141.768 256.866 141.512 256.051C141.349 255.534 141.291 254.953 141.185 254.421C140.981 253.401 140.788 252.38 140.606 251.356C140.242 249.307 139.886 247.257 139.539 245.205L139.215 243.284C138.101 236.663 137.044 230.001 136.509 223.31C136.272 220.341 136.021 217.375 135.767 214.409L135.577 212.184C135.336 209.367 135.041 206.48 135 203.626L134.043 203.966L129.371 205.618C128.213 206.027 126.738 206.866 125.492 206.713C124.882 206.639 124.417 206.446 124.057 206.097C124.488 212.17 125.07 218.232 125.846 224.264C126.552 229.751 127.335 235.232 128.259 240.688C128.717 243.389 129.187 246.088 129.699 248.78C129.954 250.126 130.218 251.47 130.489 252.813C130.625 253.483 130.786 254.154 130.892 254.829C131.012 255.603 130.799 256.078 130.367 256.715C130.013 257.238 129.303 257.506 128.728 257.145C127.966 256.667 127.569 256.253 127.344 255.382C127.141 254.591 127.017 253.765 126.859 252.963C126.568 251.484 126.287 250.004 126.016 248.521C125.448 245.42 124.925 242.311 124.457 239.194C122.811 228.21 121.766 217.134 121.238 206.041C120.977 200.567 120.897 195.089 120.943 189.61C120.967 186.802 121.059 183.985 121.257 181.184C121.458 178.348 121.877 175.569 122.25 172.761C122.263 172.662 122.403 172.656 122.409 172.761C122.585 175.909 122.863 179.054 122.998 182.211C123.128 185.224 123.185 188.241 123.288 191.254C123.423 195.215 123.611 199.179 123.86 203.139C124.31 202.647 124.989 202.363 125.668 202.474C126.651 202.267 127.71 201.751 128.648 201.437L132.183 200.256C134.042 199.635 135.9 199.018 137.766 198.42C136.098 192.808 134.956 187.112 133.98 181.334L133.545 178.735C132.684 173.619 131.756 168.501 130.196 163.548C128.557 158.34 126.103 153.498 122.848 149.113C119.639 144.791 115.736 140.986 111.717 137.427C108.276 134.38 104.595 131.629 101.085 128.666C101.122 128.862 101.13 129.079 101.098 129.316C100.351 134.779 97.5024 139.867 93.532 143.652C85.5556 151.254 73.7485 152.831 63.5396 149.266C53.6643 145.818 44.9333 137.651 41.8486 127.545C41.7958 127.372 42.0273 127.303 42.1203 127.43C42.2914 127.665 42.4634 127.899 42.6355 128.134C42.6239 128.041 42.6723 127.939 42.7872 127.895C46.3864 126.505 49.9207 124.533 52.6186 121.744C53.9335 120.384 55.0811 118.844 55.987 117.183C56.421 116.387 56.8108 115.563 57.1217 114.711L57.2008 114.491C57.5777 113.424 57.8926 112.337 58.6794 111.492Z" fill="#4F4F4F"/>
<path fill-rule="evenodd" clip-rule="evenodd" d="M116.187 104.791C115.349 103.552 113.333 94.5612 112.045 93.1784C112.142 87.8671 113.609 69.4781 109.417 61.2118C110.299 60.3197 112.642 52.6362 112.045 49.7315C114.02 43.6484 101.332 33.9869 96.5037 31.3761C74.0627 19.3378 41.544 32.626 31.3382 54.9267C25.2054 68.3569 25.0923 83.3937 24.399 97.8448C24.317 100.938 24.0328 104.055 24.036 107.145C24.4794 109.86 26.6312 112.624 25 114.882C23.1981 116.129 19.5563 119.166 21.1778 120.889C22.128 121.68 23.646 121.221 24.6772 121.982C25.2022 122.276 25.5297 122.92 26.1436 123.018C31.7519 122.805 35.7095 122.786 41.3351 122.559C43.7979 122.478 47.5479 123.52 50.3747 121.446C60.2489 126.94 56.1187 118.969 58.1154 113.294C64.1957 115.35 76.3076 121.909 82.7887 122.121C88.0554 122.772 92.9802 119.703 98.158 120.402C104.59 122.793 112.129 123.324 118.021 119.279C119.491 118.22 121.127 119.447 122.981 118.303C126.582 116.58 118.004 106.703 116.187 104.791Z" fill="#F9F9F9"/>
<path fill-rule="evenodd" clip-rule="evenodd" d="M108.836 60.5063C108.756 60.0475 109.388 59.7053 109.632 60.1703C111.408 63.5479 112.119 67.4595 112.748 71.1903C113.384 74.9604 113.803 78.7461 113.827 82.5732C113.844 85.5171 113.577 88.495 113.075 91.441L113.136 91.6507C113.249 92.0358 113.363 92.4206 113.478 92.8051L113.651 93.3817C113.986 94.4887 114.303 95.6008 114.648 96.7051C115.366 99.0099 116.123 101.321 117.049 103.552C117.954 105.728 119.053 107.827 120.36 109.789C121.62 111.68 123.619 113.279 124.507 115.379C124.816 116.111 124.359 117.079 123.504 116.962C123.449 117.029 123.364 117.078 123.249 117.088C122.586 117.146 121.964 117.091 121.302 117.028C120.933 116.994 120.933 116.488 121.302 116.454C121.583 116.427 121.857 116.404 122.131 116.388C120.238 115.266 118.887 113.075 117.808 111.281C116.42 108.977 115.372 106.459 114.517 103.912C113.64 101.298 113.019 98.6291 112.52 95.9191C112.462 95.6072 112.408 95.295 112.355 94.9824C111.725 97.6651 110.912 100.299 109.949 102.83L109.815 103.182C107.595 108.938 104.589 114.749 99.5895 118.553C99.3626 118.726 99.1309 118.89 98.8972 119.05L99.1816 119.213C99.4647 119.375 99.7436 119.53 100.016 119.657C101.027 120.129 102.123 120.488 103.208 120.743C105.449 121.269 107.802 121.118 110.088 121.192C110.838 121.216 111.264 122.34 110.498 122.706C107.973 123.908 105.246 123.653 102.64 122.807C101.35 122.388 100.14 121.801 99.0204 121.036C98.5575 120.719 98.02 120.329 97.5662 119.877C92.5661 122.676 86.3515 122.989 80.7863 121.988C77.8942 121.468 75.0918 120.518 72.6261 118.893C70.2544 117.33 68.5638 115.351 67.3568 112.788C67.2497 112.561 67.5474 112.278 67.7302 112.5C71.5214 117.106 78.0457 119.028 83.7854 119.394C86.848 119.589 89.9809 119.427 92.9253 118.51C95.7185 117.64 98.1151 116.046 100.116 113.925C104.172 109.627 106.603 103.78 108.348 98.2152C110.247 92.1615 111.151 85.7923 111.338 79.4568C111.432 76.2471 111.313 73.0102 110.81 69.836C110.31 66.6879 109.382 63.6411 108.836 60.5063ZM51.9941 33.2357C52.2626 33.0991 52.4517 33.4544 52.224 33.6292C47.4964 37.2562 43.2626 41.8552 39.8359 46.7228C33.5162 55.7003 29.4633 66.089 27.5969 76.8839C26.495 83.2589 26.2072 89.7304 26.3173 96.1904C26.3609 98.7565 26.5074 101.315 26.6704 103.874L26.8543 106.711C26.9398 108.032 27.0111 109.343 26.956 110.671L26.941 110.977C26.8535 112.523 27.0054 114.081 26.6179 115.588C26.4191 116.361 25.3292 116.483 24.9345 115.808C24.8572 115.676 24.785 115.54 24.7148 115.402C23.7899 116.911 22.592 118.26 21.2629 119.466C21.8982 119.33 22.5396 119.244 23.1981 119.323C24.242 119.448 25.1783 119.851 25.8409 120.558C26.4986 120.261 27.1748 120.057 27.9525 120.053C28.5252 120.05 28.9548 120.727 28.6279 121.231C27.976 122.235 27.0662 122.798 26.0325 123.355C25.2999 123.749 24.4256 123.412 24.155 122.632L24.1395 122.584C23.8351 121.598 22.216 121.757 21.452 121.91L21.2272 121.956C19.8052 122.252 18.4165 122.631 16.9679 122.24C16.0334 121.988 15.7892 120.581 16.69 120.114C19.5358 118.638 21.9248 116.657 24.38 114.667C23.8379 113.337 23.53 111.852 23.1751 110.5C22.6755 108.597 22.5295 106.549 22.3491 104.594C22.0062 100.878 21.8754 97.1209 21.9122 93.3897C22.0366 80.7874 24.1911 68.1459 29.6944 56.734C32.1054 51.7349 35.2727 47.1091 39.0166 43.0146C42.7383 38.9442 47.0851 35.73 51.9941 33.2357ZM47.5881 94.9529C47.4421 94.7504 47.7271 94.4826 47.927 94.6138C52.254 97.4571 55.2567 101.775 57.1942 106.518C59.1121 111.213 60.2897 116.965 58.3983 121.861C58.0972 122.641 56.6553 122.931 56.5076 121.861C55.8483 117.085 55.7458 112.303 54.2959 107.66C52.8584 103.058 50.3988 98.8428 47.5881 94.9529ZM44.2331 110.457C44.2568 110.373 44.3945 110.387 44.3886 110.478C44.2802 112.162 44.2067 113.867 43.995 115.541C43.8921 116.355 43.7561 117.164 43.6403 117.976C43.5216 118.809 43.5395 119.649 43.0555 120.361C42.4141 121.303 40.71 121.038 40.7673 119.741C40.8068 118.846 41.2179 118.271 41.603 117.486C41.8501 116.982 42.0654 116.461 42.2729 115.938L42.5814 115.154C43.1945 113.598 43.7812 112.068 44.2331 110.457ZM36.4849 105.996C36.5111 105.863 36.7247 105.895 36.7184 106.027C36.6028 108.411 36.3341 110.768 35.9132 113.116C35.7213 114.187 35.4976 115.252 35.2609 116.313L35.1588 116.768C34.9057 117.886 34.7424 119.2 34.1753 120.199C33.6087 121.197 32.2634 120.472 32.4377 119.466C32.6413 118.292 33.3619 117.11 33.7809 115.982C34.1675 114.94 34.5055 113.88 34.8214 112.815C35.4862 110.573 36.0315 108.29 36.4849 105.996ZM50.9137 112.613L50.9641 112.561C51.161 112.347 51.4546 112.49 51.5486 112.716C51.9336 113.642 51.7409 114.734 51.7134 115.717L51.7083 115.931C51.6878 116.927 51.7021 117.86 51.2508 118.779C50.7027 119.895 49.2587 119.202 49.147 118.209C49.0248 117.125 49.5372 116.064 49.868 115.049C50.0782 114.404 50.2314 113.734 50.551 113.148C50.2777 113.195 50.0047 113.29 49.7548 113.358C49.6428 113.388 49.6005 113.224 49.7074 113.186C50.1207 113.039 50.5871 112.929 50.9137 112.613ZM108.518 115.899C108.386 115.751 108.55 115.555 108.722 115.634C110.779 116.596 112.704 117.221 114.974 117.426C115.958 117.515 115.964 119.061 114.974 118.971C112.605 118.758 110.121 117.695 108.518 115.899ZM36.1215 83.4159C37.9331 79.3392 43.6644 75.7227 47.5075 79.5139C47.5796 79.5847 47.5063 79.7392 47.4017 79.6959C45.0112 78.7049 42.0847 79.9654 40.4303 81.7682C39.1177 83.1982 38.329 85.0344 38.1725 86.9698C38.0159 88.9068 38.4788 90.9286 39.7648 92.4268C40.4394 93.2128 41.3504 93.9568 42.4223 94.0513C43.5047 94.1466 44.4068 93.384 45.4299 93.1769C46.2013 93.0209 46.7835 93.5051 46.8592 94.2658C47.0258 95.9445 45.3551 97.0712 43.9069 97.3449C42.349 97.6391 40.759 97.3177 39.4166 96.4731C35.081 93.7454 34.1457 87.8625 36.1215 83.4159ZM76.8001 43.4575C77.5879 42.7043 78.928 43.4531 78.6372 44.5276C78.0191 46.8144 76.7052 48.7472 75.2496 50.5817C73.8491 52.3467 72.3487 54.0428 70.7405 55.6214C69.1429 57.1896 67.4071 58.6407 65.5828 59.9369L65.0334 60.3263C63.7405 61.238 62.371 62.1601 60.9237 62.8168C60.5743 65.8285 59.8906 68.8001 58.8563 71.6451C57.8601 74.3846 56.5925 77.0322 55.0566 79.5099L54.8361 79.8647C53.4247 82.1275 51.7275 84.6564 49.3325 85.8969C49.2607 85.9343 49.1887 85.9571 49.1177 85.9704C49.6534 86.3278 50.1062 86.7774 50.3753 87.4232C50.6703 88.1304 50.0538 88.7977 49.4629 89.0312C48.2132 89.5251 46.9942 88.689 45.8709 87.7971C45.8234 87.9041 45.7786 88.0121 45.7401 88.1209C45.4889 88.8332 45.415 89.5611 44.7672 90.0336C44.4594 90.2583 44.0802 90.0573 43.8865 89.8028C43.2514 88.968 43.9089 87.8307 44.4672 87.1485C44.5446 87.0542 44.6244 86.9646 44.7066 86.8786C44.4706 86.7051 44.2403 86.5512 44.0172 86.4331C42.7055 85.7381 40.761 85.6149 40.0057 87.1533C39.9478 87.2715 39.7659 87.2104 39.7659 87.0883C39.7678 85.1986 41.7028 84.1723 43.382 84.0328C44.6088 83.9309 45.7954 84.3613 46.8997 84.8625L47.1058 84.9572C47.5167 85.1481 47.9401 85.3281 48.3453 85.5295C48.2794 85.3556 48.2804 85.151 48.3842 84.9481C49.6541 82.4671 51.8348 80.4495 53.4075 78.1517C54.967 75.8721 56.3061 73.4325 57.3749 70.8851C58.4122 68.4125 59.2249 65.8623 59.7932 63.2613C59.6061 63.2999 59.395 63.1332 59.4083 62.9377C59.44 62.4647 59.6713 62.0386 60.0776 61.857C60.5251 59.4105 60.7534 56.9224 60.7401 54.4143C60.7391 54.2199 61.0207 54.2269 61.0372 54.4143C61.2349 56.6443 61.251 58.896 61.0847 61.1347C62.1415 60.162 63.2559 59.2374 64.2734 58.2389C65.8044 56.7367 67.2856 55.1942 68.7144 53.5945C70.1722 51.9625 71.5501 50.2704 72.8101 48.4801L73.4695 47.5411C74.4833 46.1018 75.5247 44.6775 76.8001 43.4575ZM74.8121 27.3894C83.5071 26.8465 92.7931 27.9155 100.603 31.9985C104.893 34.2408 108.208 37.6298 110.577 41.8472C111.991 44.3657 113.064 47.1545 113.471 50.0216C113.888 52.9677 113.398 55.5945 111.518 57.9363C110.771 58.8662 109.513 57.8274 109.697 56.8759C110.823 51.0545 108.997 45.3028 105.759 40.4834C101.06 33.4898 92.8544 30.3832 84.8649 28.9974C80.9395 28.3168 76.9582 28.0323 72.9758 28.1708C69.9397 28.2764 66.8252 28.5594 63.9439 29.5813C63.8224 29.6244 63.774 29.4351 63.8911 29.3905C67.328 28.0774 71.1646 27.6172 74.8121 27.3894ZM87.7075 40.5529C88.1552 40.2691 88.7028 40.5603 88.8566 41.0208C89.3991 42.6444 88.2621 44.7894 87.5015 46.1945C86.6408 47.7845 85.534 49.2711 84.391 50.6675C82.1045 53.4603 79.0992 55.7906 75.8013 57.2553C75.5993 57.3451 75.364 57.1012 75.5493 56.9288C78.1009 54.5517 80.4145 52.0032 82.4174 49.1443C83.4014 47.7395 84.2222 46.2575 85.006 44.7351C85.7074 43.3728 86.367 41.403 87.7075 40.5529ZM102.331 42.4655C102.617 41.4663 104.246 41.6364 104.179 42.7158C104.005 45.5041 102.69 48.303 101.261 50.6661C99.7896 53.0994 97.9264 55.2679 95.7907 57.1406C95.6855 57.233 95.5414 57.0908 95.6367 56.9866C97.4794 54.9686 98.9678 52.6699 100.07 50.1684C101.171 47.6705 101.586 45.0641 102.331 42.4655ZM94.2332 42.0141C94.5448 41.1452 96.0364 41.2097 95.9449 42.2459C95.6935 45.0945 94.0224 48.0798 92.4746 50.4326C90.8322 52.9288 88.7358 55.1279 86.3928 56.9749C86.3052 57.044 86.1812 56.9295 86.2667 56.8487C88.3712 54.8652 90.0778 52.574 91.4288 50.0183C92.1184 48.7143 92.6969 47.3564 93.1536 45.9536C93.5762 44.6559 93.7745 43.2932 94.2332 42.0141Z" fill="#4F4F4F"/>
</g>
</g>
</g>
<defs>
<clipPath id="clip0_133_1702">
<rect width="150" height="150" fill="white"/>
</clipPath>
</defs>
</svg>
