<svg width="150" height="150" viewBox="0 0 150 150" fill="none" xmlns="http://www.w3.org/2000/svg">
<g clip-path="url(#clip0_133_1466)">
<mask id="mask0_133_1466" style="mask-type:alpha" maskUnits="userSpaceOnUse" x="0" y="0" width="150" height="150">
<path d="M75 150C116.421 150 150 116.421 150 75C150 33.5786 116.421 0 75 0C33.5786 0 0 33.5786 0 75C0 116.421 33.5786 150 75 150Z" fill="white"/>
</mask>
<g mask="url(#mask0_133_1466)">
<mask id="mask1_133_1466" style="mask-type:luminance" maskUnits="userSpaceOnUse" x="0" y="0" width="150" height="150">
<path d="M150 0H0V150H150V0Z" fill="white"/>
</mask>
<g mask="url(#mask1_133_1466)">
<path fill-rule="evenodd" clip-rule="evenodd" d="M139.581 228.881C138.729 224.07 137.948 219.246 137.239 214.412C136.902 212.117 136.574 209.819 136.278 207.518C136.071 205.906 135.756 204.062 136.853 202.868C138.396 201.188 139.797 199.749 139.986 197.342C140.164 195.077 139.398 192.608 138.92 190.409C137.916 185.798 136.666 181.244 135.285 176.734C133.882 172.151 132.343 167.611 130.783 163.08C129.324 158.844 127.921 154.57 126.021 150.505C122.414 142.792 116.313 137.08 108.772 133.266C106.897 132.317 103.072 128.931 101.112 128.173C99.311 127.476 99.3174 129.511 97.5447 128.744C96.1275 128.131 94.8079 127.314 94.0144 125.945C93.1528 124.459 90.9923 122.38 90.6633 120.65C89.9663 116.983 90.7213 113.861 88.105 111.101C85.7823 108.65 82.6604 106.971 79.4301 106.07C72.324 104.087 62.8469 105.473 58.5594 112.079C56.5116 115.234 55.7961 119.047 53.0329 121.621C50.62 123.869 51.16 125.406 48.0349 126.565C47.8579 126.631 43.0605 125.601 42.8835 125.667C39.4647 124.935 36.1972 126.984 33.0607 128.173C28.3847 129.945 23.9329 132.251 19.7504 134.993C11.3168 140.521 4.09358 147.699 -1.86142 155.822C-7.86564 164.011 -12.5243 173.191 -15.8414 182.785C-16.647 185.115 -17.3706 187.474 -18.0088 189.856C-18.3661 191.188 -18.7478 192.571 -18.3128 193.936C-17.957 195.052 -17.1656 195.883 -16.2363 196.553C-14.9765 197.461 -12.4495 198.052 -12.4987 199.878C-12.5363 201.267 -13.0073 202.728 -13.2371 204.1C-13.5107 205.735 -13.7355 207.379 -13.9603 209.02C-14.9828 216.491 -15.7787 224.004 -16.1306 231.539C-16.4771 238.958 -16.7646 246.528 -16.2502 253.945C-16.2162 254.434 -16.0704 254.883 -15.8353 255.262C-16.0548 255.346 -16.0717 255.756 -15.7985 255.814C-15.6071 255.854 -15.4161 255.895 -15.2247 255.935C-14.8271 256.236 -14.3313 256.421 -13.7606 256.439C-13.3738 256.451 -12.9872 256.469 -12.6008 256.488C-8.52311 257.341 -4.44607 258.147 -0.315145 258.757C4.70626 259.498 9.74246 260.102 14.7943 260.594C25.1749 261.603 35.4738 261.268 45.8682 260.724C56.2465 260.181 66.6187 260.054 77.0078 260.324C87.4059 260.595 97.8003 261.047 108.201 261.232C119.82 261.439 131.422 261.122 143.008 260.198C144.597 260.071 145.579 258.807 145.266 257.228C143.389 247.772 141.262 238.379 139.581 228.881Z" fill="#F9F9F9"/>
<path fill-rule="evenodd" clip-rule="evenodd" d="M39.6413 125.434C40.7158 125.388 41.8115 125.562 42.8834 125.667C42.9768 125.676 43.0123 125.82 42.9071 125.842C40.9886 126.243 39.0912 126.792 37.207 127.349L36.4003 127.588C34.2756 128.216 32.2132 128.865 30.1563 129.704C26.0568 131.375 22.1634 133.631 18.5801 136.223C4.78171 146.203 -5.20491 161.313 -11.507 176.958C-13.2185 181.206 -14.6686 185.56 -15.8432 189.988C-16.1289 191.065 -16.3976 192.147 -16.6524 193.232C-16.7272 193.55 -17.0532 194.364 -16.8744 194.69C-16.7164 194.977 -16.102 195.155 -15.8166 195.305L-14.853 195.805C-12.9734 196.774 -9.84247 198.367 -9.5285 198.522L-9.03882 198.763C-1.02953 202.691 7.52833 206.022 16.5413 206.252L16.6119 205.482C17.0137 201.226 17.541 196.946 18.692 192.82C18.7539 192.599 19.036 192.673 19.0618 192.87C19.7029 197.755 19.498 202.677 19.2743 207.585C18.8782 216.276 18.3521 224.962 17.8846 233.65C17.6505 237.996 17.348 242.339 17.0748 246.682C16.8012 251.035 16.7127 255.492 16.0879 259.808C15.9487 260.77 14.8222 261.293 13.9691 261.192C13.0252 261.08 12.2991 260.248 12.2946 259.295C12.2832 256.78 12.5991 254.236 12.7746 251.727C12.9413 249.344 13.1203 246.962 13.3037 244.58C13.9738 235.887 14.7447 227.204 15.4577 218.515C15.7104 215.433 15.9834 212.354 16.2644 209.275C6.7165 208.967 -2.20343 205.429 -10.7128 201.296C-10.836 204.093 -11.1335 206.886 -11.4214 209.672C-12.2253 217.447 -12.9341 225.219 -13.4646 233.017C-13.7325 236.956 -13.9275 240.9 -14.0973 244.844C-14.1808 246.783 -14.2488 248.722 -14.301 250.661C-14.3185 251.308 -14.3342 251.954 -14.3482 252.601L-14.3772 254.082C-14.401 255.021 -14.4963 255.89 -15.2857 256.573C-16.0875 257.267 -17.1704 257.304 -17.964 256.573C-19.0262 255.595 -18.8384 254.261 -18.8069 252.947C-18.7807 251.839 -18.7492 250.73 -18.7127 249.622C-18.6394 247.406 -18.5458 245.19 -18.4319 242.975C-18.0334 235.232 -17.2373 227.52 -16.1968 219.839L-15.7906 216.874C-15.0321 211.362 -14.1993 205.725 -12.5037 200.415C-13.164 200.086 -13.8223 199.756 -14.478 199.423C-15.6413 198.834 -16.844 198.281 -17.9747 197.631C-18.8718 197.115 -19.6454 196.407 -19.8951 195.363C-20.1736 194.2 -19.7478 192.927 -19.4649 191.792L-19.4403 191.692C-19.1629 190.549 -18.8642 189.412 -18.549 188.279C-17.2708 183.684 -15.6903 179.179 -13.8406 174.784C-10.1371 165.985 -5.35681 157.626 0.482418 150.068C5.73854 143.265 11.9477 137.095 19.2251 132.467C22.7828 130.205 26.5742 128.348 30.5839 127.034C32.458 126.421 34.4972 125.887 36.4594 125.667C37.5179 125.548 38.5778 125.481 39.6413 125.434ZM58.6794 111.492C59.9563 110.12 62.4932 111.539 61.8801 113.356C60.438 117.629 58.1415 121.527 54.5576 124.335C51.1887 126.975 47.1715 128.689 42.8451 128.323C42.8117 128.32 42.7828 128.312 42.7572 128.3L43.1301 128.806C46.0571 132.767 49.145 136.673 52.8668 139.91C60.4498 146.507 70.7745 150.065 80.7442 147.534C88.5882 145.543 95.4987 139.337 97.5311 131.43C97.2398 131.56 96.8935 131.605 96.5134 131.522C94.8873 131.169 93.2774 129.458 92.2287 128.231C91.0942 126.904 90.2082 125.471 89.5587 123.852C88.3701 120.887 87.989 117.07 89.612 114.199C89.8122 113.845 90.2741 114.043 90.3134 114.389L90.3752 114.928C90.688 117.619 91.0778 120.223 92.3462 122.676C92.9669 123.877 93.711 125.048 94.6167 126.054C95.1013 126.592 95.6267 127.106 96.194 127.557C96.7468 127.996 97.4158 128.314 97.9112 128.818L98.002 128.915L98.0046 128.897C98.1298 127.832 98.8767 127.363 99.6074 127.392C100.315 127.42 101.145 127.732 101.467 127.881L101.497 127.895C106.431 130.264 110.975 133.353 115.251 136.779C124.094 143.864 130.719 153.126 133.929 164.034C135.505 169.387 136.409 174.903 137.363 180.393L137.951 183.757C138.842 188.826 139.837 193.994 141.848 198.709C142.368 199.929 141.967 201.072 140.691 201.552C139.099 202.151 137.5 202.731 135.899 203.304C136.686 206.677 137.165 210.168 137.754 213.559C139.006 220.765 140.54 227.926 141.855 235.124C142.528 238.804 143.134 242.496 143.806 246.176C144.13 247.949 144.467 249.719 144.796 251.49C144.973 252.445 145.133 253.404 145.302 254.36L145.331 254.519C145.428 255.024 145.549 255.546 145.41 256.051C145.252 256.627 144.803 257.033 144.402 257.446C144.071 257.786 143.594 257.789 143.19 257.603L143.057 257.541C142.334 257.203 141.768 256.866 141.512 256.051C141.349 255.534 141.291 254.953 141.185 254.421C140.981 253.401 140.788 252.38 140.606 251.356C140.242 249.307 139.886 247.257 139.539 245.205L139.215 243.284C138.101 236.663 137.044 230.001 136.509 223.31C136.272 220.341 136.021 217.375 135.767 214.409L135.577 212.184C135.336 209.367 135.041 206.48 135 203.626L134.043 203.966L129.371 205.618C128.213 206.027 126.738 206.866 125.492 206.713C124.882 206.639 124.417 206.446 124.057 206.097C124.488 212.17 125.07 218.232 125.846 224.264C126.552 229.751 127.335 235.232 128.259 240.688C128.717 243.389 129.187 246.088 129.699 248.78C129.954 250.126 130.218 251.47 130.489 252.813C130.625 253.483 130.786 254.154 130.892 254.829C131.012 255.603 130.799 256.078 130.367 256.715C130.013 257.238 129.303 257.506 128.728 257.145C127.966 256.667 127.569 256.253 127.344 255.382C127.141 254.591 127.017 253.765 126.859 252.963C126.568 251.484 126.287 250.004 126.016 248.521C125.448 245.42 124.925 242.311 124.457 239.194C122.811 228.21 121.766 217.134 121.238 206.041C120.977 200.567 120.897 195.089 120.943 189.61C120.967 186.802 121.059 183.985 121.257 181.184C121.458 178.348 121.877 175.569 122.25 172.761C122.263 172.662 122.403 172.656 122.409 172.761C122.585 175.909 122.863 179.054 122.998 182.211C123.128 185.224 123.185 188.241 123.288 191.254C123.423 195.215 123.611 199.179 123.86 203.139C124.31 202.647 124.989 202.363 125.668 202.474C126.651 202.267 127.71 201.751 128.648 201.437L132.183 200.256C134.042 199.635 135.9 199.018 137.766 198.42C136.098 192.808 134.956 187.112 133.98 181.334L133.545 178.735C132.684 173.619 131.756 168.501 130.196 163.548C128.557 158.34 126.103 153.498 122.848 149.113C119.639 144.791 115.736 140.986 111.717 137.427C108.276 134.38 104.595 131.629 101.085 128.666C101.122 128.862 101.13 129.079 101.098 129.316C100.351 134.779 97.5024 139.867 93.532 143.652C85.5556 151.254 73.7485 152.831 63.5396 149.266C53.6643 145.818 44.9333 137.651 41.8486 127.545C41.7958 127.372 42.0273 127.303 42.1203 127.43C42.2914 127.665 42.4634 127.899 42.6355 128.134C42.6239 128.041 42.6723 127.939 42.7872 127.895C46.3864 126.505 49.9207 124.533 52.6186 121.744C53.9335 120.384 55.0811 118.844 55.987 117.183C56.421 116.387 56.8108 115.563 57.1217 114.711L57.2008 114.491C57.5777 113.424 57.8926 112.337 58.6794 111.492Z" fill="#4F4F4F"/>
<path fill-rule="evenodd" clip-rule="evenodd" d="M115.961 81.9684C117.269 72.5205 114.475 63.4026 110.854 54.7677C110.655 54.2418 110.34 53.7864 109.935 53.4626C99.7168 32.8608 84.7035 30.9952 63.7586 32.414C63.1398 32.4002 63.1031 32.4112 62.6332 32.2009C62.5555 23.8319 53.0009 19.3988 45.7301 22.1601C13.4839 37.151 23.6235 79.3545 30.0403 106.907C32.3296 117.573 34.6196 128.238 36.9093 138.903C36.9862 139.26 37.1482 139.569 37.3637 139.829C37.0312 139.955 36.6984 140.073 36.372 140.184C35.6271 140.438 35.9231 141.549 36.6984 141.369C37.4584 141.192 38.1906 140.956 38.9151 140.698C40.0445 140.943 40.9914 140.205 41.8781 139.616C52.261 135.509 56.6199 122.01 59.2831 112.065C70.1108 119.708 87.4122 125.431 99.7922 118.559C111.393 111.571 115.57 96.9927 114.746 84.1259C115.593 83.7362 115.934 82.8865 115.957 82.0008H115.962C115.961 81.99 115.961 81.9792 115.961 81.9684Z" fill="#F9F9F9"/>
<path fill-rule="evenodd" clip-rule="evenodd" d="M42.7547 22.9471C45.1486 21.3958 48.2211 20.8184 51.0415 20.9315C52.5457 20.9917 53.9501 21.3668 55.3368 21.9303C56.6222 22.4528 57.7554 23.2033 59.0069 23.7752C59.083 23.8098 59.0255 23.9166 58.9537 23.902C57.4716 23.6028 55.7315 23.7835 54.2288 23.9978L54.0793 24.0193C52.6025 24.2338 51.0994 24.3448 49.6435 24.6853C46.9617 25.3123 44.4673 26.6787 42.9954 29.0553C41.0735 32.1592 40.5808 36.177 40.7864 39.7581C40.8903 41.57 41.2474 43.3526 41.8034 45.0799C42.1372 46.1166 42.9128 47.1596 43.2751 48.2474C43.5508 47.7326 43.8354 47.2228 44.1301 46.7192C42.7875 46.0862 42.411 44.3269 42.3415 42.7392C42.1347 42.5393 42.0016 42.2499 41.9971 41.9843C41.9853 41.2701 42.1533 40.6236 42.4389 40.032C42.602 38.3564 42.9476 36.6859 43.5426 35.1158C45.8777 28.9514 52.0381 23.3954 59.024 23.9443C60.944 24.0952 62.8124 24.9108 63.805 26.6447C64.6026 28.0371 64.6078 29.7167 64.0577 31.1976C63.8946 31.6372 63.6825 32.0341 63.4332 32.3962C64.1881 32.2047 64.9443 32.021 65.6991 31.839C68.318 31.2075 70.9501 30.7128 73.6315 30.4376C77.2833 30.0631 81.0102 30.6297 84.3565 32.0878C85.2743 32.3239 86.1877 32.5775 87.0955 32.8484C91.0902 34.04 95.1889 35.5964 98.4156 38.3163C99.9001 39.5677 100.963 41.0235 101.825 42.6221C105.055 45.503 108.144 48.7688 110.324 52.5047C114.817 60.2018 115.889 69.7229 116.074 78.4735C116.244 86.512 115.538 94.6329 114.032 102.531C113.348 106.116 112.243 109.447 110.007 112.387C107.518 115.66 104.197 118.239 100.471 119.97C92.8857 123.493 83.4971 124.006 76.1238 119.641C73.9062 118.328 75.9031 114.906 78.1432 116.185C85.4224 120.34 94.7122 119.391 101.716 114.986C104.675 113.125 107.225 110.58 108.845 107.464C110.028 105.187 110.535 102.577 110.975 100.036L111.208 98.6762C112.565 90.8609 113.179 82.8446 112.853 74.9162C112.527 67.0075 111.273 58.4415 106.795 51.7178C104.433 48.1713 101.421 45.0645 98.257 42.2316C98.0347 42.0325 97.812 41.8342 97.5891 41.6366C96.3525 40.8933 95.071 40.2442 93.81 39.6903L93.5416 39.5742C92.8162 39.2649 91.8018 38.8653 90.8606 38.5458C89.5153 38.0891 88.1481 37.6833 86.7753 37.3177C86.0557 37.126 85.3328 36.9501 84.6079 36.7821C84.8606 37.0139 85.1118 37.2479 85.3587 37.4878C86.5277 38.6242 87.4553 39.9748 88.5638 41.1663C88.689 41.3008 88.531 41.4969 88.3717 41.4151C86.686 40.5498 84.8167 39.9898 83.0566 39.2887C81.3924 38.6259 79.7752 37.8629 78.1406 37.1317C77.7312 36.9482 77.323 36.7523 76.9159 36.5585C75.3083 36.575 73.7008 36.6128 72.0969 36.7043C74.0359 38.0851 75.8068 39.7169 77.2737 41.5064C77.3946 41.6537 77.2845 41.8898 77.0809 41.8376C74.0103 41.0511 71.0901 39.8951 68.1716 38.6837L66.7752 38.1022C65.7489 38.0502 64.7211 38.0259 63.6931 38.0411L63.1948 38.0494C62.1156 38.07 61.0385 38.1128 59.9688 38.2763C59.7146 38.315 59.4652 38.3518 59.2176 38.3856C57.7123 39.0002 56.2638 39.7412 54.9605 40.7179L55.3 40.6978C57.3607 40.5805 59.4618 40.758 61.4574 41.2902C65.335 42.3248 68.6437 44.8159 71.0513 47.9923C71.1233 48.0874 70.9833 48.2197 70.8888 48.1551C67.8599 46.0807 64.3467 45.0357 60.7474 44.4683C59.0076 44.1937 57.2158 44.0993 55.4593 44.236C54.005 44.3491 52.5005 44.8616 51.0535 44.6128C50.6591 45.1042 50.2803 45.6104 49.9157 46.1278C50.1073 46.1155 50.2997 46.1043 50.4935 46.0952C52.5715 45.9976 54.6878 46.131 56.7168 46.6095C60.7695 47.5658 64.1562 49.9997 67.2542 52.6718C67.3155 52.7247 67.2365 52.8189 67.1702 52.7809C63.8104 50.8411 59.9053 50.2614 56.0993 49.9114C54.1827 49.7351 52.2445 49.6552 50.3236 49.8082C49.4437 49.8782 48.5735 50.0234 47.6961 50.1136C47.6251 50.121 47.5514 50.1229 47.4783 50.1263C46.8424 51.326 46.2658 52.5471 45.7457 53.7647C47.3331 53.3386 49.0459 53.115 50.6849 53.2254C54.014 53.4496 57.3162 54.9766 59.9737 56.9297C60.0569 56.9908 60.0105 57.1535 59.8974 57.1108C57.0047 56.0175 54.1372 56.0086 51.1184 56.4305C49.7031 56.6283 48.3022 56.8967 46.9349 57.3177C46.2474 57.5295 45.5678 57.7605 44.9154 58.0646C44.6192 58.2024 44.3308 58.3631 44.0393 58.5146C43.806 59.3068 43.5975 60.1063 43.4095 60.9107C48.3438 61.189 52.9924 63.519 57.0379 66.193C57.1357 66.2576 57.0747 66.4377 56.9538 66.3921C54.5388 65.4805 51.9117 65.0591 49.3501 64.8137C47.1102 64.5992 44.9122 64.7158 42.6852 64.7784C42.5659 65.6249 42.4693 66.4738 42.3994 67.3245C42.7575 67.4249 43.1088 67.5331 43.4466 67.6348C44.5577 67.9687 45.6666 68.4183 46.7033 68.9395C48.8093 69.9981 50.5157 71.4292 52.2326 73.02C52.3222 73.1031 52.2288 73.2844 52.1074 73.2352C50.1145 72.4293 47.9369 71.9132 45.839 71.4564C44.7533 71.2201 43.6672 71.002 42.5739 70.8019C42.4681 70.7824 42.3605 70.7662 42.2532 70.7501C42.2429 72.6895 42.3525 74.6296 42.5942 76.5537L42.6411 76.9143C42.7721 77.8882 42.665 78.8302 42.0204 79.503C42.9119 78.9101 43.9319 78.4995 45.0624 78.342C48.0394 77.9276 50.796 79.1175 52.6693 81.4191C52.757 81.5266 52.6218 81.6678 52.5153 81.5731C50.6974 79.9548 47.8957 79.6684 45.6379 80.4304C43.5476 81.1356 41.9762 82.8195 41.3464 84.9264C40.6771 87.1655 40.9837 89.6374 42.2042 91.6334C42.8122 92.6278 43.6905 93.5167 44.7895 93.954C44.9251 94.0081 45.0633 94.0532 45.2029 94.0923C45.8663 93.8496 46.5802 93.9595 47.2624 94.267L47.3509 94.3087C47.7861 94.3061 48.2194 94.2928 48.6405 94.2966C49.46 94.3044 49.854 95.1748 49.51 95.8226C49.705 96.18 49.8478 96.5815 50.0192 96.9317C50.3287 97.5637 50.6528 98.1916 50.9785 98.8155C51.4393 99.3443 51.8794 99.8917 52.1781 100.53C52.3007 100.792 52.4165 101.075 52.5052 101.36C52.7612 101.745 53.0215 102.128 53.2881 102.51C54.1501 103.741 55.0579 104.908 56.0646 106.027C56.6697 106.699 57.3658 107.299 58.0064 107.943C58.2005 107.969 58.3909 108.101 58.4509 108.291L58.5033 108.473C58.7098 108.706 58.9072 108.946 59.0851 109.201C59.4797 109.767 59.3716 110.341 59.0249 110.756C59.574 114.183 59.2001 117.829 58.4655 121.152C57.9906 123.3 57.4359 125.445 56.6916 127.516C56.3133 128.569 55.855 129.581 55.2219 130.506C54.8747 131.013 54.4226 131.603 53.9156 132.085C53.8386 132.647 53.7383 133.203 53.5949 133.749C51.894 140.216 44.9314 142.184 39.1017 143.01C37.9765 143.169 36.8629 142.898 36.25 141.849C36.1085 141.607 36.0134 141.346 35.9623 141.078C35.7083 141.01 35.4641 140.891 35.245 140.72C35.2085 141.126 35.1662 141.532 35.1128 141.943C34.9795 142.971 33.5929 143.28 33.2454 142.196C31.7788 137.622 30.9821 132.799 29.9771 128.099C28.9742 123.409 27.8543 118.743 26.818 114.06L25.5059 108.15C22.3043 93.6774 19.3055 79.0199 20.0416 64.135C20.4434 56.0099 21.9337 47.9059 25.1234 40.3975C27.7805 34.1425 32.2649 27.1154 39.509 25.8365C39.5589 25.8278 39.6033 25.8329 39.6447 25.8435C40.505 24.7244 41.5328 23.7388 42.7547 22.9471ZM47.1259 101.617C47.71 103.556 48.1271 105.543 48.354 107.572C48.7319 110.952 48.5445 114.415 48.3804 117.805C48.2293 120.919 47.8708 124.06 47.2604 127.118C46.6746 130.054 45.7564 132.932 44.3914 135.603C44.1707 136.035 43.9334 136.456 43.6841 136.868C44.439 136.617 45.1205 136.324 45.8304 135.917C46.7238 135.406 47.5414 134.747 47.9887 134.051C48.7066 132.935 48.9474 131.696 49.0524 130.366C49.3224 126.946 49.4473 123.516 49.6195 120.09L49.6577 119.344C49.9362 113.991 50.3012 108.502 49.7559 103.144C48.9888 102.942 48.2967 102.546 47.6581 102.049C47.4819 101.912 47.304 101.767 47.1259 101.617ZM41.2917 95.1353C41.4529 96.7635 41.6071 98.392 41.7468 100.022C42.2422 105.807 42.5483 111.624 42.2667 117.429C42.1201 120.451 41.8256 123.483 41.3164 126.467C41.0869 127.813 40.8095 129.157 40.4996 130.488L40.3951 130.931C40.0805 132.249 39.88 133.896 38.8727 134.855L38.8803 135.054C39.5874 133.98 40.2415 132.773 40.7099 131.649C42.797 126.643 43.1783 121.192 43.5554 115.854C43.7878 112.564 43.96 109.269 44.229 105.982L44.3596 104.4C44.5094 102.559 44.6385 100.731 44.6209 98.892C44.2188 98.2924 43.8922 97.662 43.6894 97.0148C43.6569 96.9106 43.6345 96.8054 43.6188 96.7001C42.7687 96.2971 41.9682 95.7469 41.2917 95.1353ZM52.716 106.591C53.1354 107.987 53.4776 109.401 53.7214 110.82C54.1097 113.08 54.3428 115.354 54.4452 117.636L54.6594 116.83C55.1988 114.814 55.7721 112.795 56.4825 110.838C55.3588 110.051 54.4199 108.815 53.6031 107.782C53.2978 107.396 53.0019 106.998 52.716 106.591ZM36.6238 44.5093C36.1919 45.9038 35.8144 47.3141 35.4244 48.72C34.5079 52.0226 33.913 55.4156 33.5002 58.8149C31.8529 72.3874 33.2249 86.0149 35.0192 99.4986C35.7626 105.085 36.5709 110.664 37.2647 116.257C37.2831 115.709 37.2985 115.16 37.3085 114.611C37.5193 102.739 35.5218 91.0328 34.7219 79.2217L34.6739 78.5019C34.3114 72.9795 34.0896 67.3539 34.7458 61.8516C35.0834 59.0195 35.6783 56.248 36.4699 53.5113L36.9412 51.9039C37.2597 50.8231 37.5982 49.7134 38 48.6374C37.9463 48.5342 37.8952 48.4302 37.8476 48.3261C37.2918 47.1036 36.905 45.8186 36.6238 44.5093ZM38.0154 28.5103C33.869 33.8581 30.3897 39.539 28.2846 46.0731C23.4669 61.0274 24.5424 77.0183 27.3343 92.2613C28.6499 99.4434 30.3464 106.542 31.8943 113.674C30.2374 100.866 28.1006 88.087 27.7604 75.1561C27.5747 68.0987 27.9396 61.0083 29.2391 54.06L29.316 53.6514C29.873 50.7149 30.5629 47.6037 31.9752 44.9647C32.7421 43.5318 33.5887 42.1946 34.5926 40.9146C35.016 40.3748 35.4914 39.942 35.9957 39.5461C35.8478 35.8596 36.4051 31.8619 38.0154 28.5103ZM44.7802 85.4897C46.843 85.5709 48.9039 86.1462 50.5283 87.4874C51.7991 88.5364 49.9869 90.3092 48.7264 89.2898C47.3557 88.1815 46.1264 86.9225 44.6652 85.9143C44.4912 85.7941 44.5389 85.4802 44.7802 85.4897ZM41.3581 79.9914C40.8994 80.2279 40.4437 80.2757 39.9242 80.148C39.9052 80.1434 39.8869 80.1381 39.869 80.1325L39.7628 80.0979C39.8082 80.5899 39.8559 81.082 39.9033 81.574C40.3224 80.9835 40.8085 80.4488 41.3581 79.9914ZM39.3047 50.2986C39.1222 51.8245 39.0033 53.3579 38.9399 54.8935C38.8783 56.3896 38.8527 57.8903 38.8457 59.3915L38.8438 60.0349L38.8465 60.0226C39.5557 56.9956 40.5588 54.0167 41.84 51.166C41.6194 51.2027 41.3954 51.1968 41.1749 51.1702C40.6704 51.1091 40.1866 50.8853 39.7537 50.6234C39.5959 50.5279 39.4478 50.4165 39.3047 50.2986ZM60.3459 32.6117C59.4643 33.0103 58.6129 33.4685 57.7281 33.8581C55.9735 34.6308 54.2568 35.529 52.633 36.5488C50.9897 37.5808 49.4067 38.6673 47.9509 39.9545C47.7804 40.1054 47.6114 40.258 47.4426 40.4103C47.4085 40.7432 47.3838 41.0774 47.3726 41.4143C47.3665 41.5954 47.3663 41.7848 47.3686 41.9794C50.1157 38.5752 53.4371 35.8894 57.6507 34.1998C58.381 33.9069 59.1233 33.6461 59.8725 33.4047C60.0508 33.157 60.2107 32.8941 60.3459 32.6117ZM60.2676 29.3462C59.7776 28.6956 58.3694 28.7487 57.4814 28.8937C56.0457 29.1283 54.7809 29.6304 53.5503 30.3575C52.0957 31.2164 50.841 32.3801 49.8593 33.7488C50.3424 33.4762 50.8347 33.2189 51.3373 32.9801L51.6816 32.8174C53.5853 31.9247 55.6474 31.076 57.7296 30.7992C58.6931 30.6711 59.729 30.4858 60.7023 30.5902C60.6544 30.117 60.5137 29.6731 60.2676 29.3462Z" fill="#4F4F4F"/>
</g>
</g>
</g>
<defs>
<clipPath id="clip0_133_1466">
<rect width="150" height="150" fill="white"/>
</clipPath>
</defs>
</svg>
