<svg width="150" height="150" viewBox="0 0 150 150" fill="none" xmlns="http://www.w3.org/2000/svg">
<g clip-path="url(#clip0_133_1676)">
<mask id="mask0_133_1676" style="mask-type:alpha" maskUnits="userSpaceOnUse" x="0" y="0" width="150" height="150">
<path d="M75 150C116.421 150 150 116.421 150 75C150 33.5786 116.421 0 75 0C33.5786 0 0 33.5786 0 75C0 116.421 33.5786 150 75 150Z" fill="white"/>
</mask>
<g mask="url(#mask0_133_1676)">
<mask id="mask1_133_1676" style="mask-type:luminance" maskUnits="userSpaceOnUse" x="0" y="0" width="150" height="150">
<path d="M150 0H0V150H150V0Z" fill="white"/>
</mask>
<g mask="url(#mask1_133_1676)">
<path fill-rule="evenodd" clip-rule="evenodd" d="M139.581 228.881C138.729 224.07 137.948 219.246 137.239 214.412C136.902 212.117 136.574 209.819 136.278 207.518C136.071 205.906 135.756 204.062 136.853 202.868C138.396 201.188 139.797 199.749 139.986 197.342C140.164 195.077 139.398 192.608 138.92 190.409C137.916 185.798 136.666 181.244 135.285 176.734C133.882 172.151 132.343 167.611 130.783 163.08C129.324 158.844 127.921 154.57 126.021 150.505C122.414 142.792 116.313 137.08 108.772 133.266C106.897 132.317 103.072 128.931 101.112 128.173C99.3107 127.476 99.3171 129.511 97.5444 128.744C96.1273 128.131 94.8076 127.314 94.0141 125.945C93.1525 124.459 90.9921 122.38 90.663 120.65C89.966 116.983 90.7211 113.861 88.1048 111.101C85.7821 108.65 82.6601 106.971 79.4298 106.07C72.3237 104.087 62.8466 105.473 58.5592 112.079C56.5114 115.234 55.7959 119.047 53.0327 121.621C50.6198 123.869 51.1598 125.406 48.0347 126.565C47.8577 126.631 43.0602 125.601 42.8832 125.667C39.4644 124.935 36.1969 126.984 33.0604 128.173C28.3844 129.945 23.9326 132.251 19.7501 134.993C11.3165 140.521 4.09334 147.699 -1.86166 155.822C-7.86588 164.011 -12.5246 173.191 -15.8417 182.785C-16.6473 185.115 -17.3709 187.474 -18.0091 189.856C-18.3664 191.188 -18.748 192.571 -18.313 193.936C-17.9572 195.052 -17.1658 195.883 -16.2365 196.553C-14.9767 197.461 -12.4498 198.052 -12.499 199.878C-12.5366 201.267 -13.0075 202.728 -13.2373 204.1C-13.511 205.735 -13.7358 207.379 -13.9606 209.02C-14.9831 216.491 -15.779 224.004 -16.1309 231.539C-16.4774 238.958 -16.7649 246.528 -16.2505 253.945C-16.2165 254.434 -16.0707 254.883 -15.8356 255.262C-16.0551 255.346 -16.072 255.756 -15.7988 255.814C-15.6074 255.854 -15.4164 255.895 -15.225 255.935C-14.8274 256.236 -14.3316 256.421 -13.7609 256.439C-13.3741 256.451 -12.9875 256.469 -12.601 256.488C-8.52335 257.341 -4.44631 258.147 -0.31539 258.757C4.70602 259.498 9.74222 260.102 14.794 260.594C25.1746 261.603 35.4735 261.268 45.868 260.724C56.2462 260.181 66.6184 260.054 77.0075 260.324C87.4056 260.595 97.8 261.047 108.201 261.232C119.82 261.439 131.422 261.122 143.008 260.198C144.597 260.071 145.579 258.807 145.266 257.228C143.389 247.772 141.262 238.379 139.581 228.881Z" fill="#F9F9F9"/>
<path fill-rule="evenodd" clip-rule="evenodd" d="M39.6413 125.434C40.7158 125.388 41.8115 125.562 42.8834 125.667C42.9768 125.676 43.0123 125.82 42.9071 125.842C40.9886 126.243 39.0912 126.792 37.207 127.349L36.4003 127.588C34.2756 128.216 32.2132 128.865 30.1563 129.704C26.0568 131.375 22.1634 133.631 18.5801 136.223C4.78171 146.203 -5.20491 161.313 -11.507 176.958C-13.2185 181.206 -14.6686 185.56 -15.8432 189.988C-16.1289 191.065 -16.3976 192.147 -16.6524 193.232C-16.7272 193.55 -17.0532 194.364 -16.8744 194.69C-16.7164 194.977 -16.102 195.155 -15.8166 195.305L-14.853 195.805C-12.9734 196.774 -9.84247 198.367 -9.5285 198.522L-9.03882 198.763C-1.02953 202.691 7.52833 206.022 16.5413 206.252L16.6119 205.482C17.0137 201.226 17.541 196.946 18.692 192.82C18.7539 192.599 19.036 192.673 19.0618 192.87C19.7029 197.755 19.498 202.677 19.2743 207.585C18.8782 216.276 18.3521 224.962 17.8846 233.65C17.6505 237.996 17.348 242.339 17.0748 246.682C16.8012 251.035 16.7127 255.492 16.0879 259.808C15.9487 260.77 14.8222 261.293 13.9691 261.192C13.0252 261.08 12.2991 260.248 12.2946 259.295C12.2832 256.78 12.5991 254.236 12.7746 251.727C12.9413 249.344 13.1203 246.962 13.3037 244.58C13.9738 235.887 14.7447 227.204 15.4577 218.515C15.7104 215.433 15.9834 212.354 16.2644 209.275C6.7165 208.967 -2.20343 205.429 -10.7128 201.296C-10.836 204.093 -11.1335 206.886 -11.4214 209.672C-12.2253 217.447 -12.9341 225.219 -13.4646 233.017C-13.7325 236.956 -13.9275 240.9 -14.0973 244.844C-14.1808 246.783 -14.2488 248.722 -14.301 250.661C-14.3185 251.308 -14.3342 251.954 -14.3482 252.601L-14.3772 254.082C-14.401 255.021 -14.4963 255.89 -15.2857 256.573C-16.0875 257.267 -17.1704 257.304 -17.964 256.573C-19.0262 255.595 -18.8384 254.261 -18.8069 252.947C-18.7807 251.839 -18.7492 250.73 -18.7127 249.622C-18.6394 247.406 -18.5458 245.19 -18.4319 242.975C-18.0334 235.232 -17.2373 227.52 -16.1968 219.839L-15.7906 216.874C-15.0321 211.362 -14.1993 205.725 -12.5037 200.415C-13.164 200.086 -13.8223 199.756 -14.478 199.423C-15.6413 198.834 -16.844 198.281 -17.9747 197.631C-18.8718 197.115 -19.6454 196.407 -19.8951 195.363C-20.1736 194.2 -19.7478 192.927 -19.4649 191.792L-19.4403 191.692C-19.1629 190.549 -18.8642 189.412 -18.549 188.279C-17.2708 183.684 -15.6903 179.179 -13.8406 174.784C-10.1371 165.985 -5.35681 157.626 0.482418 150.068C5.73854 143.265 11.9477 137.095 19.2251 132.467C22.7828 130.205 26.5742 128.348 30.5839 127.034C32.458 126.421 34.4972 125.887 36.4594 125.667C37.5179 125.548 38.5778 125.481 39.6413 125.434ZM58.6794 111.492C59.9563 110.12 62.4932 111.539 61.8801 113.356C60.438 117.629 58.1415 121.527 54.5576 124.335C51.1887 126.975 47.1715 128.689 42.8451 128.323C42.8117 128.32 42.7828 128.312 42.7572 128.3L43.1301 128.806C46.0571 132.767 49.145 136.673 52.8668 139.91C60.4498 146.507 70.7745 150.065 80.7442 147.534C88.5882 145.543 95.4987 139.337 97.5311 131.43C97.2398 131.56 96.8935 131.605 96.5134 131.522C94.8873 131.169 93.2774 129.458 92.2287 128.231C91.0942 126.904 90.2082 125.471 89.5587 123.852C88.3701 120.887 87.989 117.07 89.612 114.199C89.8122 113.845 90.2741 114.043 90.3134 114.389L90.3752 114.928C90.688 117.619 91.0778 120.223 92.3462 122.676C92.9669 123.877 93.711 125.048 94.6167 126.054C95.1013 126.592 95.6267 127.106 96.194 127.557C96.7468 127.996 97.4158 128.314 97.9112 128.818L98.002 128.915L98.0046 128.897C98.1298 127.832 98.8767 127.363 99.6074 127.392C100.315 127.42 101.145 127.732 101.467 127.881L101.497 127.895C106.431 130.264 110.975 133.353 115.251 136.779C124.094 143.864 130.719 153.126 133.929 164.034C135.505 169.387 136.409 174.903 137.363 180.393L137.951 183.757C138.842 188.826 139.837 193.994 141.848 198.709C142.368 199.929 141.967 201.072 140.691 201.552C139.099 202.151 137.5 202.731 135.899 203.304C136.686 206.677 137.165 210.168 137.754 213.559C139.006 220.765 140.54 227.926 141.855 235.124C142.528 238.804 143.134 242.496 143.806 246.176C144.13 247.949 144.467 249.719 144.796 251.49C144.973 252.445 145.133 253.404 145.302 254.36L145.331 254.519C145.428 255.024 145.549 255.546 145.41 256.051C145.252 256.627 144.803 257.033 144.402 257.446C144.071 257.786 143.594 257.789 143.19 257.603L143.057 257.541C142.334 257.203 141.768 256.866 141.512 256.051C141.349 255.534 141.291 254.953 141.185 254.421C140.981 253.401 140.788 252.38 140.606 251.356C140.242 249.307 139.886 247.257 139.539 245.205L139.215 243.284C138.101 236.663 137.044 230.001 136.509 223.31C136.272 220.341 136.021 217.375 135.767 214.409L135.577 212.184C135.336 209.367 135.041 206.48 135 203.626L134.043 203.966L129.371 205.618C128.213 206.027 126.738 206.866 125.492 206.713C124.882 206.639 124.417 206.446 124.057 206.097C124.488 212.17 125.07 218.232 125.846 224.264C126.552 229.751 127.335 235.232 128.259 240.688C128.717 243.389 129.187 246.088 129.699 248.78C129.954 250.126 130.218 251.47 130.489 252.813C130.625 253.483 130.786 254.154 130.892 254.829C131.012 255.603 130.799 256.078 130.367 256.715C130.013 257.238 129.303 257.506 128.728 257.145C127.966 256.667 127.569 256.253 127.344 255.382C127.141 254.591 127.017 253.765 126.859 252.963C126.568 251.484 126.287 250.004 126.016 248.521C125.448 245.42 124.925 242.311 124.457 239.194C122.811 228.21 121.766 217.134 121.238 206.041C120.977 200.567 120.897 195.089 120.943 189.61C120.967 186.802 121.059 183.985 121.257 181.184C121.458 178.348 121.877 175.569 122.25 172.761C122.263 172.662 122.403 172.656 122.409 172.761C122.585 175.909 122.863 179.054 122.998 182.211C123.128 185.224 123.185 188.241 123.288 191.254C123.423 195.215 123.611 199.179 123.86 203.139C124.31 202.647 124.989 202.363 125.668 202.474C126.651 202.267 127.71 201.751 128.648 201.437L132.183 200.256C134.042 199.635 135.9 199.018 137.766 198.42C136.098 192.808 134.956 187.112 133.98 181.334L133.545 178.735C132.684 173.619 131.756 168.501 130.196 163.548C128.557 158.34 126.103 153.498 122.848 149.113C119.639 144.791 115.736 140.986 111.717 137.427C108.276 134.38 104.595 131.629 101.085 128.666C101.122 128.862 101.13 129.079 101.098 129.316C100.351 134.779 97.5024 139.867 93.532 143.652C85.5556 151.254 73.7485 152.831 63.5396 149.266C53.6643 145.818 44.9333 137.651 41.8486 127.545C41.7958 127.372 42.0273 127.303 42.1203 127.43C42.2914 127.665 42.4634 127.899 42.6355 128.134C42.6239 128.041 42.6723 127.939 42.7872 127.895C46.3864 126.505 49.9207 124.533 52.6186 121.744C53.9335 120.384 55.0811 118.844 55.987 117.183C56.421 116.387 56.8108 115.563 57.1217 114.711L57.2008 114.491C57.5777 113.424 57.8926 112.337 58.6794 111.492Z" fill="#4F4F4F"/>
<path fill-rule="evenodd" clip-rule="evenodd" d="M76.1353 31.9062C88.1313 31.9062 103.616 39.4342 104.936 47.1441C106.492 56.2301 114.825 91.0938 112.943 102.274C111.062 113.454 100.922 121.503 84.6971 121.503C68.4721 121.503 56.3619 112.651 53.5813 109.612C50.8007 106.573 45.6476 95.7218 45.6476 95.7218C45.6476 95.7218 36.9604 94.5659 36.9192 87.4817C36.878 80.3975 42.5673 77.8201 42.5673 77.8201C42.5673 77.8201 40.5388 49.8628 45.6476 42.5841C50.7564 35.3054 64.1394 31.9062 76.1353 31.9062Z" fill="#F9F9F9"/>
<path fill-rule="evenodd" clip-rule="evenodd" d="M104.202 45.8999C104.194 45.7374 104.43 45.7183 104.475 45.8621C107.063 54.4154 108.658 61.0812 110.337 69.8503L110.833 72.4299C112.159 79.31 113.498 86.2001 114.628 93.1137L114.695 93.5264C115.261 97.1051 115.588 100.719 114.878 104.305C114.214 107.657 112.402 110.73 110.048 113.177C105.499 117.907 99.1781 120.862 92.8192 122.183C89.6037 122.851 86.2868 123.108 83.01 122.876C81.3767 122.762 79.7459 122.531 78.1466 122.191L77.9701 122.153C76.358 121.805 74.9273 121.39 74.0711 119.872C73.8558 119.49 73.9424 118.835 74.3945 118.638C75.2481 118.27 75.8755 118.116 76.807 118.222C77.6964 118.323 78.565 118.592 79.4438 118.759C81.1234 119.078 82.8304 119.238 84.5396 119.277C87.8966 119.351 91.2621 118.93 94.4713 117.928C99.9852 116.206 105.588 112.911 108.81 107.982C112.6 102.184 111.091 95.1475 110.087 88.7444L110.056 88.5506C109.04 82.0059 108.034 75.4611 107.059 68.9122L106.642 66.1052C105.548 58.6889 104.515 53.3946 104.202 45.8999ZM48.2184 27.7472C50.9705 25.9326 54.3903 25.4867 57.6227 25.5117L58.0275 25.5168C62.1665 25.5799 83.001 26.0759 89.9766 26.2286L91.636 26.2635C93.8324 26.305 98.2622 26.3483 100.544 26.39L100.676 26.3925C101.796 26.4136 102.916 26.422 104.035 26.458L104.199 26.4639C105.038 26.4997 105.736 26.6253 106.393 27.2167C106.727 27.5165 106.857 27.9737 106.827 28.4091L106.822 28.4658L108.485 28.6116C109.614 28.7115 110.211 29.7245 109.762 30.7495L109.74 30.7991C108.943 32.4984 108.335 37.444 107.908 39.2721C107.684 40.2338 107.504 41.2102 107.399 42.193C107.314 42.9668 107.306 43.7422 106.875 44.4227C105.956 45.8747 103.37 45.862 103.323 43.8056C103.321 43.7401 103.323 43.6767 103.33 43.6154C96.8227 43.3301 87.9389 43.3575 81.4403 43.7464C75.3705 44.11 69.3283 44.9342 63.3811 46.196C61.8748 46.5151 60.3727 46.8638 58.8811 47.2422C57.6579 47.5507 56.1558 47.7346 55.0614 48.3961C53.836 49.1401 53.8593 50.4737 53.9924 51.7439C54.1352 53.0902 54.3735 52.3966 54.711 53.6235L54.7318 53.701C55.0804 55.0325 55.5114 56.3492 56.0818 57.6004C56.4072 58.3148 56.9313 59.0017 56.7325 59.8238C56.6205 60.2867 56.2548 60.7813 55.9191 61.1046C54.3893 62.5735 51.8036 61.6372 50.7642 63.6493C49.6764 65.7532 49.6494 68.6033 49.557 70.9313L49.5515 71.0677C49.4841 72.6718 49.5029 74.2802 49.6086 75.8801C49.7036 77.3382 50.0922 78.782 49.5938 80.1832C49.2302 81.2019 48.0431 81.297 47.4219 80.4685C47.3506 80.3734 47.2853 80.2759 47.2241 80.1779L47.1642 80.0797L47.1602 80.0818C47.2191 80.1748 47.2741 80.2701 47.3269 80.3671C47.3839 80.4749 47.2424 80.5932 47.1558 80.5002C45.6938 78.9088 43.5579 79.2258 41.9036 80.3396C40.2283 81.4725 39.567 83.624 39.4804 85.5538C39.3832 87.6944 39.5734 90.2035 40.4649 92.1816C40.841 93.0185 41.3774 93.7878 42.267 94.107C42.6708 94.2507 43.055 94.2317 43.4755 94.2655C43.9126 94.2991 44.4389 94.5191 44.8633 94.4895C45.4151 94.4502 45.9105 95.0804 45.7538 95.6084L45.7424 95.6435C45.7341 95.6689 45.7255 95.6942 45.7172 95.7175C45.7381 95.7365 45.7593 95.7597 45.7741 95.7935C47.3797 99.0758 49.5811 101.997 52.0149 104.706C53.2341 106.061 54.586 107.306 55.9994 108.458C56.6966 109.026 57.4318 109.595 58.2072 110.053C58.4649 110.203 58.7013 110.305 58.9912 110.387C59.1262 110.425 59.2804 110.444 59.4114 110.489L59.5474 110.535C59.5567 110.538 59.5656 110.541 59.5741 110.544C59.9628 110.588 60.2903 110.846 60.4191 111.25C60.755 112.302 60.1445 113.232 59.1008 113.522C57.9701 113.838 56.9045 113.283 56.0082 112.645L55.9487 112.602C54.1212 111.286 52.4374 109.808 50.9797 108.084C48.0959 104.679 46.2893 100.737 45.4531 96.3769C45.2459 96.8228 44.967 97.2117 44.4832 97.4822C43.7311 97.9049 42.8332 97.9049 42.0093 97.7633C40.3508 97.4822 38.9374 96.4699 37.9931 95.1003C37.0126 93.68 36.6473 91.9554 36.4255 90.2752C36.2058 88.5926 36.098 86.9042 36.3177 85.2176C36.6327 82.7955 37.6487 80.4009 39.6241 79.0736C38.1452 75.8505 37.8853 72.2364 37.991 68.7069C38.1198 64.3615 38.8698 59.9676 39.4466 55.6624L41.0862 43.4231L41.1533 42.9297C41.549 40.0503 42.0307 37.1558 43.1079 34.4428C44.1705 31.7692 45.7846 29.3514 48.2184 27.7472ZM41.3185 85.6487C44.0269 84.3341 46.953 85.5451 48.4107 88.0961C49.6782 90.314 45.9097 91.78 45.2809 89.4938L45.2628 89.4234C44.8488 87.6925 43.1626 86.1961 41.403 85.9636C41.2572 85.9427 41.1492 85.7313 41.3185 85.6487Z" fill="#4F4F4F"/>
</g>
</g>
</g>
<defs>
<clipPath id="clip0_133_1676">
<rect width="150" height="150" fill="white"/>
</clipPath>
</defs>
</svg>
