<svg width="150" height="150" viewBox="0 0 150 150" fill="none" xmlns="http://www.w3.org/2000/svg">
<g clip-path="url(#clip0_133_1624)">
<mask id="mask0_133_1624" style="mask-type:alpha" maskUnits="userSpaceOnUse" x="0" y="0" width="150" height="150">
<path d="M75 150C116.421 150 150 116.421 150 75C150 33.5786 116.421 0 75 0C33.5786 0 0 33.5786 0 75C0 116.421 33.5786 150 75 150Z" fill="white"/>
</mask>
<g mask="url(#mask0_133_1624)">
<mask id="mask1_133_1624" style="mask-type:luminance" maskUnits="userSpaceOnUse" x="0" y="0" width="150" height="150">
<path d="M150 0H0V150H150V0Z" fill="white"/>
</mask>
<g mask="url(#mask1_133_1624)">
<path fill-rule="evenodd" clip-rule="evenodd" d="M139.581 228.881C138.729 224.07 137.948 219.246 137.239 214.412C136.902 212.117 136.574 209.819 136.278 207.518C136.071 205.906 135.756 204.062 136.853 202.868C138.396 201.188 139.797 199.749 139.986 197.342C140.164 195.077 139.398 192.608 138.92 190.409C137.916 185.798 136.666 181.244 135.285 176.734C133.882 172.151 132.343 167.611 130.783 163.08C129.324 158.844 127.921 154.57 126.021 150.505C122.414 142.792 116.313 137.08 108.772 133.266C106.897 132.317 103.072 128.931 101.112 128.173C99.3107 127.476 99.3171 129.511 97.5444 128.744C96.1273 128.131 94.8076 127.314 94.0141 125.945C93.1525 124.459 90.9921 122.38 90.663 120.65C89.966 116.983 90.7211 113.861 88.1048 111.101C85.7821 108.65 82.6601 106.971 79.4298 106.07C72.3237 104.087 62.8466 105.473 58.5592 112.079C56.5114 115.234 55.7959 119.047 53.0327 121.621C50.6198 123.869 51.1598 125.406 48.0347 126.565C47.8577 126.631 43.0602 125.601 42.8832 125.667C39.4644 124.935 36.1969 126.984 33.0604 128.173C28.3844 129.945 23.9326 132.251 19.7501 134.993C11.3165 140.521 4.09334 147.699 -1.86166 155.822C-7.86588 164.011 -12.5246 173.191 -15.8417 182.785C-16.6473 185.115 -17.3709 187.474 -18.0091 189.856C-18.3664 191.188 -18.748 192.571 -18.313 193.936C-17.9572 195.052 -17.1658 195.883 -16.2365 196.553C-14.9767 197.461 -12.4498 198.052 -12.499 199.878C-12.5366 201.267 -13.0075 202.728 -13.2373 204.1C-13.511 205.735 -13.7358 207.379 -13.9606 209.02C-14.9831 216.491 -15.779 224.004 -16.1309 231.539C-16.4774 238.958 -16.7649 246.528 -16.2505 253.945C-16.2165 254.434 -16.0707 254.883 -15.8356 255.262C-16.0551 255.346 -16.072 255.756 -15.7988 255.814C-15.6074 255.854 -15.4164 255.895 -15.225 255.935C-14.8274 256.236 -14.3316 256.421 -13.7609 256.439C-13.3741 256.451 -12.9875 256.469 -12.601 256.488C-8.52335 257.341 -4.44631 258.147 -0.31539 258.757C4.70602 259.498 9.74222 260.102 14.794 260.594C25.1746 261.603 35.4735 261.268 45.868 260.724C56.2462 260.181 66.6184 260.054 77.0075 260.324C87.4056 260.595 97.8 261.047 108.201 261.232C119.82 261.439 131.422 261.122 143.008 260.198C144.597 260.071 145.579 258.807 145.266 257.228C143.389 247.772 141.262 238.379 139.581 228.881Z" fill="#F9F9F9"/>
<path fill-rule="evenodd" clip-rule="evenodd" d="M39.6413 125.434C40.7158 125.388 41.8115 125.562 42.8834 125.667C42.9768 125.676 43.0123 125.82 42.9071 125.842C40.9886 126.243 39.0912 126.792 37.207 127.349L36.4003 127.588C34.2756 128.216 32.2132 128.865 30.1563 129.704C26.0568 131.375 22.1634 133.631 18.5801 136.223C4.78171 146.203 -5.20491 161.313 -11.507 176.958C-13.2185 181.206 -14.6686 185.56 -15.8432 189.988C-16.1289 191.065 -16.3976 192.147 -16.6524 193.232C-16.7272 193.55 -17.0532 194.364 -16.8744 194.69C-16.7164 194.977 -16.102 195.155 -15.8166 195.305L-14.853 195.805C-12.9734 196.774 -9.84247 198.367 -9.5285 198.522L-9.03882 198.763C-1.02953 202.691 7.52833 206.022 16.5413 206.252L16.6119 205.482C17.0137 201.226 17.541 196.946 18.692 192.82C18.7539 192.599 19.036 192.673 19.0618 192.87C19.7029 197.755 19.498 202.677 19.2743 207.585C18.8782 216.276 18.3521 224.962 17.8846 233.65C17.6505 237.996 17.348 242.339 17.0748 246.682C16.8012 251.035 16.7127 255.492 16.0879 259.808C15.9487 260.77 14.8222 261.293 13.9691 261.192C13.0252 261.08 12.2991 260.248 12.2946 259.295C12.2832 256.78 12.5991 254.236 12.7746 251.727C12.9413 249.344 13.1203 246.962 13.3037 244.58C13.9738 235.887 14.7447 227.204 15.4577 218.515C15.7104 215.433 15.9834 212.354 16.2644 209.275C6.7165 208.967 -2.20343 205.429 -10.7128 201.296C-10.836 204.093 -11.1335 206.886 -11.4214 209.672C-12.2253 217.447 -12.9341 225.219 -13.4646 233.017C-13.7325 236.956 -13.9275 240.9 -14.0973 244.844C-14.1808 246.783 -14.2488 248.722 -14.301 250.661C-14.3185 251.308 -14.3342 251.954 -14.3482 252.601L-14.3772 254.082C-14.401 255.021 -14.4963 255.89 -15.2857 256.573C-16.0875 257.267 -17.1704 257.304 -17.964 256.573C-19.0262 255.595 -18.8384 254.261 -18.8069 252.947C-18.7807 251.839 -18.7492 250.73 -18.7127 249.622C-18.6394 247.406 -18.5458 245.19 -18.4319 242.975C-18.0334 235.232 -17.2373 227.52 -16.1968 219.839L-15.7906 216.874C-15.0321 211.362 -14.1993 205.725 -12.5037 200.415C-13.164 200.086 -13.8223 199.756 -14.478 199.423C-15.6413 198.834 -16.844 198.281 -17.9747 197.631C-18.8718 197.115 -19.6454 196.407 -19.8951 195.363C-20.1736 194.2 -19.7478 192.927 -19.4649 191.792L-19.4403 191.692C-19.1629 190.549 -18.8642 189.412 -18.549 188.279C-17.2708 183.684 -15.6903 179.179 -13.8406 174.784C-10.1371 165.985 -5.35681 157.626 0.482418 150.068C5.73854 143.265 11.9477 137.095 19.2251 132.467C22.7828 130.205 26.5742 128.348 30.5839 127.034C32.458 126.421 34.4972 125.887 36.4594 125.667C37.5179 125.548 38.5778 125.481 39.6413 125.434ZM58.6794 111.492C59.9563 110.12 62.4932 111.539 61.8801 113.356C60.438 117.629 58.1415 121.527 54.5576 124.335C51.1887 126.975 47.1715 128.689 42.8451 128.323C42.8117 128.32 42.7828 128.312 42.7572 128.3L43.1301 128.806C46.0571 132.767 49.145 136.673 52.8668 139.91C60.4498 146.507 70.7745 150.065 80.7442 147.534C88.5882 145.543 95.4987 139.337 97.5311 131.43C97.2398 131.56 96.8935 131.605 96.5134 131.522C94.8873 131.169 93.2774 129.458 92.2287 128.231C91.0942 126.904 90.2082 125.471 89.5587 123.852C88.3701 120.887 87.989 117.07 89.612 114.199C89.8122 113.845 90.2741 114.043 90.3134 114.389L90.3752 114.928C90.688 117.619 91.0778 120.223 92.3462 122.676C92.9669 123.877 93.711 125.048 94.6167 126.054C95.1013 126.592 95.6267 127.106 96.194 127.557C96.7468 127.996 97.4158 128.314 97.9112 128.818L98.002 128.915L98.0046 128.897C98.1298 127.832 98.8767 127.363 99.6074 127.392C100.315 127.42 101.145 127.732 101.467 127.881L101.497 127.895C106.431 130.264 110.975 133.353 115.251 136.779C124.094 143.864 130.719 153.126 133.929 164.034C135.505 169.387 136.409 174.903 137.363 180.393L137.951 183.757C138.842 188.826 139.837 193.994 141.848 198.709C142.368 199.929 141.967 201.072 140.691 201.552C139.099 202.151 137.5 202.731 135.899 203.304C136.686 206.677 137.165 210.168 137.754 213.559C139.006 220.765 140.54 227.926 141.855 235.124C142.528 238.804 143.134 242.496 143.806 246.176C144.13 247.949 144.467 249.719 144.796 251.49C144.973 252.445 145.133 253.404 145.302 254.36L145.331 254.519C145.428 255.024 145.549 255.546 145.41 256.051C145.252 256.627 144.803 257.033 144.402 257.446C144.071 257.786 143.594 257.789 143.19 257.603L143.057 257.541C142.334 257.203 141.768 256.866 141.512 256.051C141.349 255.534 141.291 254.953 141.185 254.421C140.981 253.401 140.788 252.38 140.606 251.356C140.242 249.307 139.886 247.257 139.539 245.205L139.215 243.284C138.101 236.663 137.044 230.001 136.509 223.31C136.272 220.341 136.021 217.375 135.767 214.409L135.577 212.184C135.336 209.367 135.041 206.48 135 203.626L134.043 203.966L129.371 205.618C128.213 206.027 126.738 206.866 125.492 206.713C124.882 206.639 124.417 206.446 124.057 206.097C124.488 212.17 125.07 218.232 125.846 224.264C126.552 229.751 127.335 235.232 128.259 240.688C128.717 243.389 129.187 246.088 129.699 248.78C129.954 250.126 130.218 251.47 130.489 252.813C130.625 253.483 130.786 254.154 130.892 254.829C131.012 255.603 130.799 256.078 130.367 256.715C130.013 257.238 129.303 257.506 128.728 257.145C127.966 256.667 127.569 256.253 127.344 255.382C127.141 254.591 127.017 253.765 126.859 252.963C126.568 251.484 126.287 250.004 126.016 248.521C125.448 245.42 124.925 242.311 124.457 239.194C122.811 228.21 121.766 217.134 121.238 206.041C120.977 200.567 120.897 195.089 120.943 189.61C120.967 186.802 121.059 183.985 121.257 181.184C121.458 178.348 121.877 175.569 122.25 172.761C122.263 172.662 122.403 172.656 122.409 172.761C122.585 175.909 122.863 179.054 122.998 182.211C123.128 185.224 123.185 188.241 123.288 191.254C123.423 195.215 123.611 199.179 123.86 203.139C124.31 202.647 124.989 202.363 125.668 202.474C126.651 202.267 127.71 201.751 128.648 201.437L132.183 200.256C134.042 199.635 135.9 199.018 137.766 198.42C136.098 192.808 134.956 187.112 133.98 181.334L133.545 178.735C132.684 173.619 131.756 168.501 130.196 163.548C128.557 158.34 126.103 153.498 122.848 149.113C119.639 144.791 115.736 140.986 111.717 137.427C108.276 134.38 104.595 131.629 101.085 128.666C101.122 128.862 101.13 129.079 101.098 129.316C100.351 134.779 97.5024 139.867 93.532 143.652C85.5556 151.254 73.7485 152.831 63.5396 149.266C53.6643 145.818 44.9333 137.651 41.8486 127.545C41.7958 127.372 42.0273 127.303 42.1203 127.43C42.2914 127.665 42.4634 127.899 42.6355 128.134C42.6239 128.041 42.6723 127.939 42.7872 127.895C46.3864 126.505 49.9207 124.533 52.6186 121.744C53.9335 120.384 55.0811 118.844 55.987 117.183C56.421 116.387 56.8108 115.563 57.1217 114.711L57.2008 114.491C57.5777 113.424 57.8926 112.337 58.6794 111.492Z" fill="#4F4F4F"/>
<path fill-rule="evenodd" clip-rule="evenodd" d="M76.7186 27.4075C86.1774 27.4075 97.5262 31.9947 98.4911 32.0865L98.5171 32.0879C99.0248 32.0879 101.008 33.5997 104.468 36.6234L100.721 43.9348L101.024 44.2245C102.475 45.6163 103.714 46.8849 104.692 47.885C112.676 56.0503 114.111 88.11 112.229 99.2902C110.348 110.47 106.863 121.411 90.6378 121.411C74.4128 121.411 56.362 111.651 53.5814 108.612C51.7277 106.586 49.6455 105.615 47.3348 105.7C47.2398 105.58 47.1456 105.46 47.0521 105.341L46.7122 105.293C43.5142 104.829 41.2227 104.206 39.8379 103.422C37.1331 101.891 34.1601 93.8431 34.1601 92.0702C34.1601 90.315 29.7207 77.5469 29.6319 76.1957L29.6306 76.1583C29.6306 75.0288 23.8311 69.8364 23.8311 68.1874C23.8311 66.5384 22.6621 66.6385 23.8311 60.8277L24.1707 59.1206C25.4147 52.9339 27.8495 42.6894 37.1331 38.2379C47.3348 33.3462 67.1643 27.4075 76.7186 27.4075Z" fill="#F9F9F9"/>
<path fill-rule="evenodd" clip-rule="evenodd" d="M35.5584 38.0083C40.6463 32.6058 69.5311 24.2494 84.1448 26.0208L84.5832 26.0775C85.7494 26.2255 86.8987 26.4495 88.033 26.7539C91.6993 27.6105 95.4865 28.9075 98.5159 31.0741C101.045 32.8465 109.023 35.7409 106.672 40.3775C107.544 42.0301 107.869 44.0717 107.28 45.6993C107.206 46.2615 107.032 46.7793 106.811 47.3161C108.673 50.066 110.148 53.1758 111.342 56.1337C113.428 63.5776 114.727 71.3245 114.917 78.9193C115.549 93.3486 113.968 110.584 101.405 119.915C93.8165 125.828 81.9288 126.026 73.4006 118.695C72.9166 118.122 70.6406 116.576 71.4001 116.305C71.6262 116.544 71.8586 116.776 72.0952 117.005C72.0844 116.979 72.0823 116.954 72.0867 116.926L71.8642 116.725C71.4451 116.337 70.9021 115.774 71.5205 115.885C71.5478 115.916 71.5776 115.944 71.6069 115.975C71.7379 116.054 71.8369 116.122 71.9138 116.182L71.9535 116.214L71.9412 116.201C71.585 115.821 71.3714 115.434 71.904 115.681L71.9745 115.715C72.2114 115.965 72.452 116.204 72.6971 116.436C72.6931 116.409 72.6971 116.381 72.7121 116.352L72.4836 116.131C72.2605 115.912 72.2946 115.911 72.4036 115.734C71.9296 115.07 72.8145 115.465 72.8767 115.724C73.4304 115.593 73.9165 116.633 74.2731 116.759C89.9067 128.783 112.594 118.114 112.227 84.6102L112.221 83.9546C112.114 73.2414 111.212 62.2302 106.783 52.5323C106.352 51.5981 105.87 50.6893 105.34 49.8101C104.975 49.1507 104.584 48.5081 104.163 47.8826C102.987 47.7874 101.825 47.5719 100.68 47.2379C100.287 47.1386 99.8978 47.0287 99.5093 46.8998C93.8304 47.2096 88.2781 47.5467 82.5834 47.8663L80.8046 47.9771C75.9805 48.2874 70.9914 48.7843 67.0985 51.7693C63.2788 54.4868 63.2615 59.8456 59.9917 62.8292C55.329 65.9951 55.295 68.8498 54.3971 73.5151C54.4636 77.032 56.9012 82.1418 52.4281 83.6219C53.1827 84.6983 52.1308 84.1811 52.048 83.8036C52.0395 83.8058 52.0311 83.8079 52.0248 83.8079C52.6972 85.0584 51.7087 84.2709 51.6212 83.8692C51.5684 83.8544 51.5156 83.8163 51.4628 83.7635C52.1403 84.8591 51.0451 84.0919 51.11 83.8924C49.8007 81.8793 47.1062 81.5667 45.2069 82.1002C45.1837 82.172 45.0994 82.1784 45.0466 82.1403C36.9705 83.8911 39.0542 100.617 47.3304 98.9997C47.6847 98.9274 47.6762 99.0976 47.7466 99.1139C47.5554 98.6117 48.0943 98.8161 48.0886 98.9215L48.1215 98.9199C48.1475 98.9176 48.1368 98.9148 48.1562 98.9215C47.9714 97.8946 49.0117 99.3825 48.9295 99.4436C48.9614 99.4245 48.9973 99.414 49.029 99.4097L48.9932 99.3123C48.8205 98.8521 48.8353 99.0434 48.8365 98.7799C48.7068 98.4542 48.6973 98.5967 48.7277 98.3845C49.1836 98.0311 49.3182 99.1031 49.4703 99.1815C49.2096 98.818 49.4169 98.521 49.6628 98.7184C51.5268 102.641 53.9346 106.326 57.0464 109.229C57.3867 109.498 57.7311 109.762 58.0879 110.011C59.4115 111.164 61.4418 111.906 62.6809 112.928C62.6809 112.945 62.6726 112.966 62.66 112.987L62.6883 113.013L62.717 113.04L63.148 113.247C63.2748 113.355 63.3888 113.475 63.49 113.608C63.598 113.733 63.6929 113.87 63.7734 114.016C63.8135 114.194 63.7248 114.268 63.5557 114.192C63.4816 114.166 63.4079 114.137 63.3339 114.109C63.3381 114.116 63.34 114.12 63.3445 114.124C63.3687 114.161 63.5328 114.541 63.3437 114.479L63.3212 114.471C63.2175 114.433 63.1142 114.39 63.0128 114.35C63.1332 114.5 63.2429 114.663 63.34 114.8C63.4438 114.908 63.5069 115.035 63.5325 115.179C63.5281 115.259 63.4839 115.293 63.4036 115.282C63.2811 115.242 63.1607 115.2 63.04 115.155L63.0743 115.221C63.1596 115.389 63.2807 115.67 63.0656 115.576C62.8816 115.519 62.7043 115.453 62.5269 115.381C62.5119 115.411 62.4825 115.422 62.4234 115.394C61.8593 115.193 61.3142 114.948 60.7924 114.659C60.3339 114.325 59.871 113.997 59.4107 113.665C58.9774 113.405 58.5591 113.116 58.16 112.79C55.4883 111.064 53.1493 108.871 51.2938 106.429C48.1905 109.117 41.9857 106.549 38.1476 104.444C34.7528 102.563 33.4184 99.0851 33.0734 95.3353C32.3562 90.287 28.2322 88.559 28.5191 77.4822C28.5128 77.4843 28.5062 77.4843 28.4978 77.4843C28.3478 77.4399 28.2022 77.3807 28.0649 77.3046C27.9233 77.237 27.7903 77.1567 27.6654 77.0595L27.5112 76.846C27.4311 76.8016 27.3593 76.7551 27.3043 76.7086L27.2758 76.7454C27.1857 76.8542 27.2463 76.6904 27.2515 76.6579L26.9836 76.2934C26.3483 75.4257 25.6514 74.4522 25.0837 73.6736L25.0658 73.7053C25.053 73.7291 25.0462 73.7464 25.0522 73.7539C23.7012 71.8121 22.4306 69.4665 22.0776 67.1957C21.6607 65.4466 21.8236 63.6442 22.1872 62.024C23.7462 56.3503 28.8529 43.5112 35.5584 38.0083ZM72.2234 116.473L72.1387 116.397L72.2132 116.491C72.2522 116.539 72.2921 116.582 72.3572 116.626C72.3529 116.612 72.3529 116.597 72.3548 116.58C72.3117 116.547 72.2676 116.511 72.2234 116.473ZM84.0802 28.8716C74.17 28.0192 64.4228 30.2033 54.966 32.8471L54.3137 33.0347C48.9364 34.5696 43.2506 35.9508 38.7064 39.2362C32.3576 44.1009 29.0792 51.8397 26.2182 58.9848C23.72 64.2935 24.9971 70.2796 28.7619 73.9864C29.1536 70.3028 29.8214 66.727 30.865 63.1799C31.0829 62.6257 30.9181 62.4442 31.3875 62.3719C32.0965 71.9308 28.6045 78.9933 35.515 90.3221C38.5136 95.6676 35.0424 99.5788 43.51 102.392L43.7392 102.479C45.5033 103.145 47.4298 103.671 49.1576 103.299L49.0028 103.047C48.845 102.787 48.7971 102.661 49.0267 102.55C49.0205 102.538 49.0121 102.525 49.0034 102.51C48.8177 102.159 48.6381 101.804 48.4668 101.445C48.3973 101.468 48.3276 101.485 48.2555 101.504C48.3022 101.591 48.3083 101.678 48.1776 101.707C47.712 101.867 47.234 101.931 46.7446 101.901L46.6395 101.893C46.0867 101.859 45.7383 101.758 45.4267 101.665C45.3233 101.648 45.2198 101.631 45.1182 101.61C44.1157 101.388 43.0545 100.822 42.3677 100.261C34.5386 95.813 35.3477 80.67 44.998 79.2385C45.196 69.704 49.7291 53.6186 57.2524 44.5333C64.0526 36.1763 82.6176 32.5542 95.5336 33.8314C95.7219 33.8937 95.9101 33.9567 96.0983 34.0203C98.091 34.1974 99.9901 35.0855 101.984 35.4981C100.553 34.4246 98.9283 33.7096 97.2553 33.102C93.9219 31.0622 90.1005 29.9586 86.4086 29.1802C85.6438 28.9921 84.8684 28.8885 84.0802 28.8716ZM44.5563 86.8978C45.0752 86.6158 45.0158 86.8881 45.1352 86.809C48.8674 86.5045 52.8919 89.7734 54.9781 92.4986C54.8133 92.6698 54.3676 92.1625 54.2894 92.0822C54.2788 92.0928 54.2662 92.1012 54.2535 92.1055L54.3116 92.1875C55.1572 93.4014 53.4809 91.973 53.3239 91.6785C53.2964 91.6933 53.269 91.7018 53.2373 91.6954C53.3702 91.8258 53.776 92.1659 53.8457 92.4077L53.9533 92.4973C54.9679 93.3664 54.8837 94.0203 53.7319 92.786C53.7591 92.8431 53.7697 92.8959 53.7507 92.9382L53.7903 92.9646C54.3567 93.3606 54.8226 94.4644 53.6387 93.3313C53.7619 94.1589 52.4655 92.5592 52.4239 92.5704C50.1807 90.8088 46.8779 89.0956 44.064 88.8655L43.9672 88.8543C43.4509 88.788 43.2067 88.6347 43.388 88.2969C42.7521 88.1456 42.901 87.8324 43.2021 87.8425C42.7536 87.5475 43.1573 87.2653 43.4176 87.3754C43.2386 86.8798 43.9563 87.21 44.0218 87.1408C44.3943 86.5662 44.4946 87.0455 44.5563 86.8978ZM36.7331 56.178C38.5257 55.5212 43.8207 57.4876 43.3971 60.0918C43.1448 60.6897 42.3137 61.0323 41.7296 60.6948L40.9671 60.1825C39.6403 59.2936 38.4437 58.5141 37.0191 57.7389C36.2438 57.354 35.91 56.5369 36.7331 56.178ZM46.932 52.308L46.2397 51.8572C42.5037 49.4112 37.2221 45.7048 46.5887 49.5395C47.6562 49.9975 49.0747 50.2684 49.6571 51.2854C50.5721 53.1599 48.1641 53.2859 46.932 52.308ZM47.3518 41.3327C47.052 40.1946 50.7824 41.5301 51.8683 41.8823L52.0337 41.9447C53.0901 42.3385 54.3009 42.7038 54.9328 43.6158C55.673 44.8758 54.1747 45.1368 53.2466 44.5677C51.3437 43.3237 49.2575 42.3851 47.3518 41.3327ZM56.8378 36.031C54.7381 33.7372 60.3575 35.9346 61.1993 36.5446L61.2233 36.5626C61.8514 37.0049 61.724 37.9577 61.1339 38.2375C59.455 38.2695 58.2195 36.8695 56.8378 36.031ZM66.3926 33.5178C63.0546 31.118 67.4517 32.2595 68.9789 33.2C70.0199 34.1183 68.9477 35.6685 66.3926 33.5178Z" fill="#4F4F4F"/>
</g>
</g>
</g>
<defs>
<clipPath id="clip0_133_1624">
<rect width="150" height="150" fill="white"/>
</clipPath>
</defs>
</svg>
