<svg width="150" height="150" viewBox="0 0 150 150" fill="none" xmlns="http://www.w3.org/2000/svg">
<g clip-path="url(#clip0_133_1505)">
<mask id="mask0_133_1505" style="mask-type:alpha" maskUnits="userSpaceOnUse" x="0" y="0" width="150" height="150">
<path d="M75 150C116.421 150 150 116.421 150 75C150 33.5786 116.421 0 75 0C33.5786 0 0 33.5786 0 75C0 116.421 33.5786 150 75 150Z" fill="white"/>
</mask>
<g mask="url(#mask0_133_1505)">
<mask id="mask1_133_1505" style="mask-type:luminance" maskUnits="userSpaceOnUse" x="0" y="0" width="150" height="150">
<path d="M150 0H0V150H150V0Z" fill="white"/>
</mask>
<g mask="url(#mask1_133_1505)">
<path fill-rule="evenodd" clip-rule="evenodd" d="M139.581 228.881C138.729 224.07 137.948 219.246 137.239 214.412C136.902 212.117 136.574 209.819 136.278 207.518C136.071 205.906 135.756 204.062 136.853 202.868C138.396 201.188 139.797 199.749 139.986 197.342C140.164 195.077 139.398 192.608 138.92 190.409C137.916 185.798 136.666 181.244 135.285 176.734C133.882 172.151 132.343 167.611 130.783 163.08C129.324 158.844 127.921 154.57 126.021 150.505C122.414 142.792 116.313 137.08 108.772 133.266C106.897 132.317 103.072 128.931 101.112 128.173C99.3107 127.476 99.3171 129.511 97.5444 128.744C96.1273 128.131 94.8076 127.314 94.0141 125.945C93.1525 124.459 90.9921 122.38 90.663 120.65C89.966 116.983 90.7211 113.861 88.1048 111.101C85.7821 108.65 82.6601 106.971 79.4298 106.07C72.3237 104.087 62.8466 105.473 58.5592 112.079C56.5114 115.234 55.7959 119.047 53.0327 121.621C50.6198 123.869 51.1598 125.406 48.0347 126.565C47.8577 126.631 43.0602 125.601 42.8832 125.667C39.4644 124.935 36.1969 126.984 33.0604 128.173C28.3844 129.945 23.9326 132.251 19.7501 134.993C11.3165 140.521 4.09334 147.699 -1.86166 155.822C-7.86588 164.011 -12.5246 173.191 -15.8417 182.785C-16.6473 185.115 -17.3709 187.474 -18.0091 189.856C-18.3664 191.188 -18.748 192.571 -18.313 193.936C-17.9572 195.052 -17.1658 195.883 -16.2365 196.553C-14.9767 197.461 -12.4498 198.052 -12.499 199.878C-12.5366 201.267 -13.0075 202.728 -13.2373 204.1C-13.511 205.735 -13.7358 207.379 -13.9606 209.02C-14.9831 216.491 -15.779 224.004 -16.1309 231.539C-16.4774 238.958 -16.7649 246.528 -16.2505 253.945C-16.2165 254.434 -16.0707 254.883 -15.8356 255.262C-16.0551 255.346 -16.072 255.756 -15.7988 255.814C-15.6074 255.854 -15.4164 255.895 -15.225 255.935C-14.8274 256.236 -14.3316 256.421 -13.7609 256.439C-13.3741 256.451 -12.9875 256.469 -12.601 256.488C-8.52335 257.341 -4.44631 258.147 -0.31539 258.757C4.70602 259.498 9.74222 260.102 14.794 260.594C25.1746 261.603 35.4735 261.268 45.868 260.724C56.2462 260.181 66.6184 260.054 77.0075 260.324C87.4056 260.595 97.8 261.047 108.201 261.232C119.82 261.439 131.422 261.122 143.008 260.198C144.597 260.071 145.579 258.807 145.266 257.228C143.389 247.772 141.262 238.379 139.581 228.881Z" fill="#F9F9F9"/>
<path fill-rule="evenodd" clip-rule="evenodd" d="M39.6413 125.434C40.7158 125.388 41.8115 125.562 42.8834 125.667C42.9768 125.676 43.0123 125.82 42.9071 125.842C40.9886 126.243 39.0912 126.792 37.207 127.349L36.4003 127.588C34.2756 128.216 32.2132 128.865 30.1563 129.704C26.0568 131.375 22.1634 133.631 18.5801 136.223C4.78171 146.203 -5.20491 161.313 -11.507 176.958C-13.2185 181.206 -14.6686 185.56 -15.8432 189.988C-16.1289 191.065 -16.3976 192.147 -16.6524 193.232C-16.7272 193.55 -17.0532 194.364 -16.8744 194.69C-16.7164 194.977 -16.102 195.155 -15.8166 195.305L-14.853 195.805C-12.9734 196.774 -9.84247 198.367 -9.5285 198.522L-9.03882 198.763C-1.02953 202.691 7.52833 206.022 16.5413 206.252L16.6119 205.482C17.0137 201.226 17.541 196.946 18.692 192.82C18.7539 192.599 19.036 192.673 19.0618 192.87C19.7029 197.755 19.498 202.677 19.2743 207.585C18.8782 216.276 18.3521 224.962 17.8846 233.65C17.6505 237.996 17.348 242.339 17.0748 246.682C16.8012 251.035 16.7127 255.492 16.0879 259.808C15.9487 260.77 14.8222 261.293 13.9691 261.192C13.0252 261.08 12.2991 260.248 12.2946 259.295C12.2832 256.78 12.5991 254.236 12.7746 251.727C12.9413 249.344 13.1203 246.962 13.3037 244.58C13.9738 235.887 14.7447 227.204 15.4577 218.515C15.7104 215.433 15.9834 212.354 16.2644 209.275C6.7165 208.967 -2.20343 205.429 -10.7128 201.296C-10.836 204.093 -11.1335 206.886 -11.4214 209.672C-12.2253 217.447 -12.9341 225.219 -13.4646 233.017C-13.7325 236.956 -13.9275 240.9 -14.0973 244.844C-14.1808 246.783 -14.2488 248.722 -14.301 250.661C-14.3185 251.308 -14.3342 251.954 -14.3482 252.601L-14.3772 254.082C-14.401 255.021 -14.4963 255.89 -15.2857 256.573C-16.0875 257.267 -17.1704 257.304 -17.964 256.573C-19.0262 255.595 -18.8384 254.261 -18.8069 252.947C-18.7807 251.839 -18.7492 250.73 -18.7127 249.622C-18.6394 247.406 -18.5458 245.19 -18.4319 242.975C-18.0334 235.232 -17.2373 227.52 -16.1968 219.839L-15.7906 216.874C-15.0321 211.362 -14.1993 205.725 -12.5037 200.415C-13.164 200.086 -13.8223 199.756 -14.478 199.423C-15.6413 198.834 -16.844 198.281 -17.9747 197.631C-18.8718 197.115 -19.6454 196.407 -19.8951 195.363C-20.1736 194.2 -19.7478 192.927 -19.4649 191.792L-19.4403 191.692C-19.1629 190.549 -18.8642 189.412 -18.549 188.279C-17.2708 183.684 -15.6903 179.179 -13.8406 174.784C-10.1371 165.985 -5.35681 157.626 0.482418 150.068C5.73854 143.265 11.9477 137.095 19.2251 132.467C22.7828 130.205 26.5742 128.348 30.5839 127.034C32.458 126.421 34.4972 125.887 36.4594 125.667C37.5179 125.548 38.5778 125.481 39.6413 125.434ZM58.6794 111.492C59.9563 110.12 62.4932 111.539 61.8801 113.356C60.438 117.629 58.1415 121.527 54.5576 124.335C51.1887 126.975 47.1715 128.689 42.8451 128.323C42.8117 128.32 42.7828 128.312 42.7572 128.3L43.1301 128.806C46.0571 132.767 49.145 136.673 52.8668 139.91C60.4498 146.507 70.7745 150.065 80.7442 147.534C88.5882 145.543 95.4987 139.337 97.5311 131.43C97.2398 131.56 96.8935 131.605 96.5134 131.522C94.8873 131.169 93.2774 129.458 92.2287 128.231C91.0942 126.904 90.2082 125.471 89.5587 123.852C88.3701 120.887 87.989 117.07 89.612 114.199C89.8122 113.845 90.2741 114.043 90.3134 114.389L90.3752 114.928C90.688 117.619 91.0778 120.223 92.3462 122.676C92.9669 123.877 93.711 125.048 94.6167 126.054C95.1013 126.592 95.6267 127.106 96.194 127.557C96.7468 127.996 97.4158 128.314 97.9112 128.818L98.002 128.915L98.0046 128.897C98.1298 127.832 98.8767 127.363 99.6074 127.392C100.315 127.42 101.145 127.732 101.467 127.881L101.497 127.895C106.431 130.264 110.975 133.353 115.251 136.779C124.094 143.864 130.719 153.126 133.929 164.034C135.505 169.387 136.409 174.903 137.363 180.393L137.951 183.757C138.842 188.826 139.837 193.994 141.848 198.709C142.368 199.929 141.967 201.072 140.691 201.552C139.099 202.151 137.5 202.731 135.899 203.304C136.686 206.677 137.165 210.168 137.754 213.559C139.006 220.765 140.54 227.926 141.855 235.124C142.528 238.804 143.134 242.496 143.806 246.176C144.13 247.949 144.467 249.719 144.796 251.49C144.973 252.445 145.133 253.404 145.302 254.36L145.331 254.519C145.428 255.024 145.549 255.546 145.41 256.051C145.252 256.627 144.803 257.033 144.402 257.446C144.071 257.786 143.594 257.789 143.19 257.603L143.057 257.541C142.334 257.203 141.768 256.866 141.512 256.051C141.349 255.534 141.291 254.953 141.185 254.421C140.981 253.401 140.788 252.38 140.606 251.356C140.242 249.307 139.886 247.257 139.539 245.205L139.215 243.284C138.101 236.663 137.044 230.001 136.509 223.31C136.272 220.341 136.021 217.375 135.767 214.409L135.577 212.184C135.336 209.367 135.041 206.48 135 203.626L134.043 203.966L129.371 205.618C128.213 206.027 126.738 206.866 125.492 206.713C124.882 206.639 124.417 206.446 124.057 206.097C124.488 212.17 125.07 218.232 125.846 224.264C126.552 229.751 127.335 235.232 128.259 240.688C128.717 243.389 129.187 246.088 129.699 248.78C129.954 250.126 130.218 251.47 130.489 252.813C130.625 253.483 130.786 254.154 130.892 254.829C131.012 255.603 130.799 256.078 130.367 256.715C130.013 257.238 129.303 257.506 128.728 257.145C127.966 256.667 127.569 256.253 127.344 255.382C127.141 254.591 127.017 253.765 126.859 252.963C126.568 251.484 126.287 250.004 126.016 248.521C125.448 245.42 124.925 242.311 124.457 239.194C122.811 228.21 121.766 217.134 121.238 206.041C120.977 200.567 120.897 195.089 120.943 189.61C120.967 186.802 121.059 183.985 121.257 181.184C121.458 178.348 121.877 175.569 122.25 172.761C122.263 172.662 122.403 172.656 122.409 172.761C122.585 175.909 122.863 179.054 122.998 182.211C123.128 185.224 123.185 188.241 123.288 191.254C123.423 195.215 123.611 199.179 123.86 203.139C124.31 202.647 124.989 202.363 125.668 202.474C126.651 202.267 127.71 201.751 128.648 201.437L132.183 200.256C134.042 199.635 135.9 199.018 137.766 198.42C136.098 192.808 134.956 187.112 133.98 181.334L133.545 178.735C132.684 173.619 131.756 168.501 130.196 163.548C128.557 158.34 126.103 153.498 122.848 149.113C119.639 144.791 115.736 140.986 111.717 137.427C108.276 134.38 104.595 131.629 101.085 128.666C101.122 128.862 101.13 129.079 101.098 129.316C100.351 134.779 97.5024 139.867 93.532 143.652C85.5556 151.254 73.7485 152.831 63.5396 149.266C53.6643 145.818 44.9333 137.651 41.8486 127.545C41.7958 127.372 42.0273 127.303 42.1203 127.43C42.2914 127.665 42.4634 127.899 42.6355 128.134C42.6239 128.041 42.6723 127.939 42.7872 127.895C46.3864 126.505 49.9207 124.533 52.6186 121.744C53.9335 120.384 55.0811 118.844 55.987 117.183C56.421 116.387 56.8108 115.563 57.1217 114.711L57.2008 114.491C57.5777 113.424 57.8926 112.337 58.6794 111.492Z" fill="#4F4F4F"/>
<path fill-rule="evenodd" clip-rule="evenodd" d="M107.78 50.4167C101.43 41.674 89.7388 39.1598 79.6001 41.2862C59.7791 44.9007 40.8422 60.0285 37.3399 80.6022C31.876 93.0488 35.3652 112.653 51.2558 114.118C53.5181 114.246 55.759 113.725 58.0254 114.006C71.8574 116.216 88.2023 125.678 100.447 114.52C101.06 114.96 101.869 115.172 102.557 114.906C107.768 112.891 108.013 107.063 108.458 102.272C109.032 96.0813 109.57 89.8872 110.072 83.6907C110.251 73.0044 114.485 59.6506 107.78 50.4167Z" fill="#F9F9F9"/>
<path fill-rule="evenodd" clip-rule="evenodd" d="M69.3512 28.1389C77.6963 27.6951 93.0724 31.5188 100.353 36.0018C112.215 43.3058 113.134 57.8759 112.651 60.3952C112.467 61.3566 111.88 62.2464 110.961 61.9507C111.74 68.57 111.679 72.3534 111.81 79.0109L111.9 83.4557C111.958 86.419 112.008 89.3825 112.021 92.3469C112.321 92.2351 112.617 92.3723 112.727 92.6599C112.754 92.7297 112.659 92.7677 112.613 92.7276C112.084 92.2666 112.461 93.317 112.642 93.5307C112.894 93.8245 113.312 94.1013 113.606 94.3528L114.403 95.0436L115.201 95.733C116.231 96.6222 117.228 97.5132 118.189 98.4712L118.45 98.7341C120.201 100.514 122.396 102.236 123.487 104.538C124.528 106.736 124.207 109.227 122.477 110.98C121.847 111.616 121.112 112.102 120.313 112.47C121.735 114.812 121.942 117.908 120.459 120.317C118.974 122.735 116.118 124.001 113.367 123.807C113.282 124.151 113.151 124.487 112.978 124.806C111.887 126.811 109.718 127.072 107.66 126.964L107.58 126.96C102.949 126.693 98.4935 125.533 94.4371 123.278C93.0301 123.373 91.7751 122.217 91.5005 120.949C90.7611 120.922 90.0174 120.86 89.2589 120.774C87.0089 120.514 84.7019 120.03 82.7181 118.886C82.4139 118.711 82.5554 118.248 82.8934 118.239C85.3103 118.184 87.7294 118.352 90.142 118.09C92.356 117.851 94.716 117.24 96.7801 116.409C100.49 114.913 103.672 112.375 105.427 108.858C107.701 104.305 107.494 98.8377 107.741 93.8921C108.015 88.4177 108.352 82.9484 108.712 77.4797L108.887 74.8583C109.237 69.7487 109.527 67.0153 110.413 61.7119C107.741 61.9507 96.6388 57.9534 93.1864 51.4147C86.6339 65.3247 53.4362 59.6319 51.9639 81.0462C51.9514 81.2278 51.6639 81.1773 51.6533 81.0037L51.6259 80.5157C51.6127 80.2745 51.6006 80.0372 51.5925 79.8017L51.5857 79.5668L51.0639 79.5731C51.0639 79.6384 50.9709 79.6619 50.9477 79.5921C50.4554 78.1949 48.1103 78.6451 47.0899 78.9771C46.1709 79.277 45.3047 79.7378 44.5272 80.3065C42.966 81.4478 41.7554 82.9843 41.354 84.9053C40.5913 88.5534 42.9132 92.2689 45.9956 94.0295C47.9392 95.1391 50.0688 95.8555 51.9322 97.1131C53.578 98.2227 55.1118 99.5225 56.4406 101C61.7054 106.852 64.8026 115.729 62.3118 123.454C62.1216 124.043 61.6188 124.717 60.9533 124.813C59.8526 124.971 58.7519 124.811 58.135 123.762C57.8942 123.352 57.7801 122.885 57.8054 122.424C57.3787 123.891 55.9949 125.341 54.7188 125.886C52.9801 126.63 51.0216 126.408 49.4878 125.449L49.294 125.592C46.7997 127.429 44.0133 129.103 40.8174 128.765C38.5019 128.52 36.2287 127.34 34.9484 125.481C33.2456 126.438 31.4265 127.201 29.5505 127.721L29.3508 127.775C26.7697 128.479 23.4773 129.123 21.0681 127.695C18.7547 126.324 17.9857 123.329 18.5287 120.828C18.5942 120.531 18.6765 120.241 18.778 119.96C17.0371 120.053 15.2984 119.886 13.6463 119.375C11.9582 118.852 10.3484 117.848 9.53918 116.221C8.6265 114.38 8.86946 112.288 9.54974 110.413C10.6378 107.406 12.3871 104.73 14.5653 102.399C16.6599 100.155 19.1865 98.2521 21.8124 96.6655L22.2551 96.4005C24.6189 94.9901 27.4694 93.3374 30.2625 93.4461C30.254 93.4102 30.2477 93.3762 30.2434 93.3405C29.8209 90.2273 29.8695 87.0528 29.7702 83.9142C29.6794 81.0272 29.5758 78.1402 29.5082 75.251C29.3984 70.339 29.4343 65.4063 30.0744 60.5283C30.6427 56.1999 31.6653 51.979 33.5308 48.0162C35.4892 43.8528 38.4385 40.3 42.0808 37.5059C49.7244 31.641 59.8209 28.6461 69.3512 28.1389ZM43.3885 85.8311C44.2209 84.2608 46.116 83.7662 47.7786 84.0494C50.1089 84.4468 51.6934 86.4844 53.054 88.2365C54.4822 90.0729 51.5033 91.8039 50.7364 90.0245L50.5547 89.6041C49.9392 88.193 49.2122 86.7049 47.9561 85.7846C46.6209 84.8082 44.7364 84.6645 43.5575 85.9621C43.473 86.0573 43.3315 85.9347 43.3885 85.8311Z" fill="#4F4F4F"/>
</g>
</g>
</g>
<defs>
<clipPath id="clip0_133_1505">
<rect width="150" height="150" fill="white"/>
</clipPath>
</defs>
</svg>
