<svg width="150" height="150" viewBox="0 0 150 150" fill="none" xmlns="http://www.w3.org/2000/svg">
<g clip-path="url(#clip0_133_1479)">
<mask id="mask0_133_1479" style="mask-type:alpha" maskUnits="userSpaceOnUse" x="0" y="0" width="150" height="150">
<path d="M75 150C116.421 150 150 116.421 150 75C150 33.5786 116.421 0 75 0C33.5786 0 0 33.5786 0 75C0 116.421 33.5786 150 75 150Z" fill="white"/>
</mask>
<g mask="url(#mask0_133_1479)">
<mask id="mask1_133_1479" style="mask-type:luminance" maskUnits="userSpaceOnUse" x="0" y="0" width="150" height="150">
<path d="M150 0H0V150H150V0Z" fill="white"/>
</mask>
<g mask="url(#mask1_133_1479)">
<path fill-rule="evenodd" clip-rule="evenodd" d="M139.581 228.881C138.729 224.07 137.948 219.246 137.239 214.412C136.902 212.117 136.574 209.819 136.278 207.518C136.071 205.906 135.756 204.062 136.853 202.868C138.396 201.188 139.797 199.749 139.986 197.342C140.164 195.077 139.398 192.608 138.92 190.409C137.916 185.798 136.666 181.244 135.285 176.734C133.882 172.151 132.343 167.611 130.783 163.08C129.324 158.844 127.921 154.57 126.021 150.505C122.414 142.792 116.313 137.08 108.772 133.266C106.897 132.317 103.072 128.931 101.112 128.173C99.3107 127.476 99.3171 129.511 97.5444 128.744C96.1273 128.131 94.8076 127.314 94.0141 125.945C93.1525 124.459 90.9921 122.38 90.663 120.65C89.966 116.983 90.7211 113.861 88.1048 111.101C85.7821 108.65 82.6601 106.971 79.4298 106.07C72.3237 104.087 62.8466 105.473 58.5592 112.079C56.5114 115.234 55.7959 119.047 53.0327 121.621C50.6198 123.869 51.1598 125.406 48.0347 126.565C47.8577 126.631 43.0602 125.601 42.8832 125.667C39.4644 124.935 36.1969 126.984 33.0604 128.173C28.3844 129.945 23.9326 132.251 19.7501 134.993C11.3165 140.521 4.09334 147.699 -1.86166 155.822C-7.86588 164.011 -12.5246 173.191 -15.8417 182.785C-16.6473 185.115 -17.3709 187.474 -18.0091 189.856C-18.3664 191.188 -18.748 192.571 -18.313 193.936C-17.9572 195.052 -17.1658 195.883 -16.2365 196.553C-14.9767 197.461 -12.4498 198.052 -12.499 199.878C-12.5366 201.267 -13.0075 202.728 -13.2373 204.1C-13.511 205.735 -13.7358 207.379 -13.9606 209.02C-14.9831 216.491 -15.779 224.004 -16.1309 231.539C-16.4774 238.958 -16.7649 246.528 -16.2505 253.945C-16.2165 254.434 -16.0707 254.883 -15.8356 255.262C-16.0551 255.346 -16.072 255.756 -15.7988 255.814C-15.6074 255.854 -15.4164 255.895 -15.225 255.935C-14.8274 256.236 -14.3316 256.421 -13.7609 256.439C-13.3741 256.451 -12.9875 256.469 -12.601 256.488C-8.52335 257.341 -4.44631 258.147 -0.31539 258.757C4.70602 259.498 9.74222 260.102 14.794 260.594C25.1746 261.603 35.4735 261.268 45.868 260.724C56.2462 260.181 66.6184 260.054 77.0075 260.324C87.4056 260.595 97.8 261.047 108.201 261.232C119.82 261.439 131.422 261.122 143.008 260.198C144.597 260.071 145.579 258.807 145.266 257.228C143.389 247.772 141.262 238.379 139.581 228.881Z" fill="#F9F9F9"/>
<path fill-rule="evenodd" clip-rule="evenodd" d="M39.6413 125.434C40.7158 125.388 41.8115 125.562 42.8834 125.667C42.9768 125.676 43.0123 125.82 42.9071 125.842C40.9886 126.243 39.0912 126.792 37.207 127.349L36.4003 127.588C34.2756 128.216 32.2132 128.865 30.1563 129.704C26.0568 131.375 22.1634 133.631 18.5801 136.223C4.78171 146.203 -5.20491 161.313 -11.507 176.958C-13.2185 181.206 -14.6686 185.56 -15.8432 189.988C-16.1289 191.065 -16.3976 192.147 -16.6524 193.232C-16.7272 193.55 -17.0532 194.364 -16.8744 194.69C-16.7164 194.977 -16.102 195.155 -15.8166 195.305L-14.853 195.805C-12.9734 196.774 -9.84247 198.367 -9.5285 198.522L-9.03882 198.763C-1.02953 202.691 7.52833 206.022 16.5413 206.252L16.6119 205.482C17.0137 201.226 17.541 196.946 18.692 192.82C18.7539 192.599 19.036 192.673 19.0618 192.87C19.7029 197.755 19.498 202.677 19.2743 207.585C18.8782 216.276 18.3521 224.962 17.8846 233.65C17.6505 237.996 17.348 242.339 17.0748 246.682C16.8012 251.035 16.7127 255.492 16.0879 259.808C15.9487 260.77 14.8222 261.293 13.9691 261.192C13.0252 261.08 12.2991 260.248 12.2946 259.295C12.2832 256.78 12.5991 254.236 12.7746 251.727C12.9413 249.344 13.1203 246.962 13.3037 244.58C13.9738 235.887 14.7447 227.204 15.4577 218.515C15.7104 215.433 15.9834 212.354 16.2644 209.275C6.7165 208.967 -2.20343 205.429 -10.7128 201.296C-10.836 204.093 -11.1335 206.886 -11.4214 209.672C-12.2253 217.447 -12.9341 225.219 -13.4646 233.017C-13.7325 236.956 -13.9275 240.9 -14.0973 244.844C-14.1808 246.783 -14.2488 248.722 -14.301 250.661C-14.3185 251.308 -14.3342 251.954 -14.3482 252.601L-14.3772 254.082C-14.401 255.021 -14.4963 255.89 -15.2857 256.573C-16.0875 257.267 -17.1704 257.304 -17.964 256.573C-19.0262 255.595 -18.8384 254.261 -18.8069 252.947C-18.7807 251.839 -18.7492 250.73 -18.7127 249.622C-18.6394 247.406 -18.5458 245.19 -18.4319 242.975C-18.0334 235.232 -17.2373 227.52 -16.1968 219.839L-15.7906 216.874C-15.0321 211.362 -14.1993 205.725 -12.5037 200.415C-13.164 200.086 -13.8223 199.756 -14.478 199.423C-15.6413 198.834 -16.844 198.281 -17.9747 197.631C-18.8718 197.115 -19.6454 196.407 -19.8951 195.363C-20.1736 194.2 -19.7478 192.927 -19.4649 191.792L-19.4403 191.692C-19.1629 190.549 -18.8642 189.412 -18.549 188.279C-17.2708 183.684 -15.6903 179.179 -13.8406 174.784C-10.1371 165.985 -5.35681 157.626 0.482418 150.068C5.73854 143.265 11.9477 137.095 19.2251 132.467C22.7828 130.205 26.5742 128.348 30.5839 127.034C32.458 126.421 34.4972 125.887 36.4594 125.667C37.5179 125.548 38.5778 125.481 39.6413 125.434ZM58.6794 111.492C59.9563 110.12 62.4932 111.539 61.8801 113.356C60.438 117.629 58.1415 121.527 54.5576 124.335C51.1887 126.975 47.1715 128.689 42.8451 128.323C42.8117 128.32 42.7828 128.312 42.7572 128.3L43.1301 128.806C46.0571 132.767 49.145 136.673 52.8668 139.91C60.4498 146.507 70.7745 150.065 80.7442 147.534C88.5882 145.543 95.4987 139.337 97.5311 131.43C97.2398 131.56 96.8935 131.605 96.5134 131.522C94.8873 131.169 93.2774 129.458 92.2287 128.231C91.0942 126.904 90.2082 125.471 89.5587 123.852C88.3701 120.887 87.989 117.07 89.612 114.199C89.8122 113.845 90.2741 114.043 90.3134 114.389L90.3752 114.928C90.688 117.619 91.0778 120.223 92.3462 122.676C92.9669 123.877 93.711 125.048 94.6167 126.054C95.1013 126.592 95.6267 127.106 96.194 127.557C96.7468 127.996 97.4158 128.314 97.9112 128.818L98.002 128.915L98.0046 128.897C98.1298 127.832 98.8767 127.363 99.6074 127.392C100.315 127.42 101.145 127.732 101.467 127.881L101.497 127.895C106.431 130.264 110.975 133.353 115.251 136.779C124.094 143.864 130.719 153.126 133.929 164.034C135.505 169.387 136.409 174.903 137.363 180.393L137.951 183.757C138.842 188.826 139.837 193.994 141.848 198.709C142.368 199.929 141.967 201.072 140.691 201.552C139.099 202.151 137.5 202.731 135.899 203.304C136.686 206.677 137.165 210.168 137.754 213.559C139.006 220.765 140.54 227.926 141.855 235.124C142.528 238.804 143.134 242.496 143.806 246.176C144.13 247.949 144.467 249.719 144.796 251.49C144.973 252.445 145.133 253.404 145.302 254.36L145.331 254.519C145.428 255.024 145.549 255.546 145.41 256.051C145.252 256.627 144.803 257.033 144.402 257.446C144.071 257.786 143.594 257.789 143.19 257.603L143.057 257.541C142.334 257.203 141.768 256.866 141.512 256.051C141.349 255.534 141.291 254.953 141.185 254.421C140.981 253.401 140.788 252.38 140.606 251.356C140.242 249.307 139.886 247.257 139.539 245.205L139.215 243.284C138.101 236.663 137.044 230.001 136.509 223.31C136.272 220.341 136.021 217.375 135.767 214.409L135.577 212.184C135.336 209.367 135.041 206.48 135 203.626L134.043 203.966L129.371 205.618C128.213 206.027 126.738 206.866 125.492 206.713C124.882 206.639 124.417 206.446 124.057 206.097C124.488 212.17 125.07 218.232 125.846 224.264C126.552 229.751 127.335 235.232 128.259 240.688C128.717 243.389 129.187 246.088 129.699 248.78C129.954 250.126 130.218 251.47 130.489 252.813C130.625 253.483 130.786 254.154 130.892 254.829C131.012 255.603 130.799 256.078 130.367 256.715C130.013 257.238 129.303 257.506 128.728 257.145C127.966 256.667 127.569 256.253 127.344 255.382C127.141 254.591 127.017 253.765 126.859 252.963C126.568 251.484 126.287 250.004 126.016 248.521C125.448 245.42 124.925 242.311 124.457 239.194C122.811 228.21 121.766 217.134 121.238 206.041C120.977 200.567 120.897 195.089 120.943 189.61C120.967 186.802 121.059 183.985 121.257 181.184C121.458 178.348 121.877 175.569 122.25 172.761C122.263 172.662 122.403 172.656 122.409 172.761C122.585 175.909 122.863 179.054 122.998 182.211C123.128 185.224 123.185 188.241 123.288 191.254C123.423 195.215 123.611 199.179 123.86 203.139C124.31 202.647 124.989 202.363 125.668 202.474C126.651 202.267 127.71 201.751 128.648 201.437L132.183 200.256C134.042 199.635 135.9 199.018 137.766 198.42C136.098 192.808 134.956 187.112 133.98 181.334L133.545 178.735C132.684 173.619 131.756 168.501 130.196 163.548C128.557 158.34 126.103 153.498 122.848 149.113C119.639 144.791 115.736 140.986 111.717 137.427C108.276 134.38 104.595 131.629 101.085 128.666C101.122 128.862 101.13 129.079 101.098 129.316C100.351 134.779 97.5024 139.867 93.532 143.652C85.5556 151.254 73.7485 152.831 63.5396 149.266C53.6643 145.818 44.9333 137.651 41.8486 127.545C41.7958 127.372 42.0273 127.303 42.1203 127.43C42.2914 127.665 42.4634 127.899 42.6355 128.134C42.6239 128.041 42.6723 127.939 42.7872 127.895C46.3864 126.505 49.9207 124.533 52.6186 121.744C53.9335 120.384 55.0811 118.844 55.987 117.183C56.421 116.387 56.8108 115.563 57.1217 114.711L57.2008 114.491C57.5777 113.424 57.8926 112.337 58.6794 111.492Z" fill="#4F4F4F"/>
<path fill-rule="evenodd" clip-rule="evenodd" d="M108.269 59.2014C108.5 57.0615 105.996 51.3526 106.056 52.5106C102.042 46.3183 94.2071 43.8831 87.4476 41.8389C73.0981 37.1 61.8928 42.8232 51.8107 52.9665C45.8585 58.5286 40.1948 64.7417 37.2069 72.4414C31.3288 87.1298 40.1397 103.878 53.5389 110.895C54.6202 111.481 55.7984 112.037 56.8281 112.744C62.3671 115.945 68.8714 117.053 75.0436 118.446C86.5907 121.086 101.093 119.828 107.898 108.83C112.513 101.025 111.287 91.5631 110.926 82.9011C110.383 75.3117 109.43 66.7352 108.269 59.2014Z" fill="#F9F9F9"/>
<path fill-rule="evenodd" clip-rule="evenodd" d="M46.5478 37.5412C54.0287 30.5451 65.0859 27.1542 75.1954 27.7473C80.6709 28.0685 85.9479 29.441 90.8962 31.7991C92.4437 32.5365 93.9518 33.3996 95.3423 34.416C96.2804 34.8539 97.1975 35.3278 98.0859 35.843C102.535 38.4215 105.975 42.3271 108.176 46.9599C109.227 49.1711 110.056 51.5028 110.526 53.9053L110.602 54.3008C110.841 55.5064 111.315 57.0948 110.716 58.2229C110.319 58.9709 109.486 59.4424 108.698 59.379C108.869 60.0722 109.074 60.7653 109.205 61.4629L109.562 63.3651C109.621 63.6821 109.68 63.9991 109.738 64.3162C110.082 66.2056 110.399 68.0928 110.652 69.997C111.183 73.9622 111.662 77.9356 112.085 81.9153C112.388 84.7615 112.671 87.6106 112.947 90.459L113.112 92.1679C113.395 95.1097 113.616 98.0773 113.424 101.032C113.134 105.464 111.772 109.508 109.127 112.798C109.379 113.404 109.464 114.087 109.653 114.841C109.916 115.884 110.258 116.905 110.622 117.918C110.792 118.316 110.963 118.714 111.132 119.113L111.576 120.17L111.922 120.863C112.297 121.617 112.66 122.382 112.891 123.162C114.385 123.96 115.606 125.263 115.666 127.047C115.719 128.66 114.882 130.367 113.469 131.189C112.074 132.002 110.638 131.682 109.303 131.062C108.138 131.401 106.892 131.444 105.739 131.082C104.851 131.885 103.706 132.441 102.436 132.591C100.522 132.818 98.7048 132.282 96.9491 131.577L96.8267 131.528C96.7718 131.506 96.7168 131.483 96.664 131.46C94.6443 131.363 92.633 130.564 91.2004 129.148C90.7337 128.689 90.3302 128.165 90.0049 127.578C88.8237 125.441 88.6401 122.818 89.8021 120.698C89.5528 120.709 89.3013 120.719 89.052 120.726C85.7278 120.82 82.3978 120.651 79.0821 120.432L78.3003 120.379C76.1547 120.224 72.9904 119.861 72.9302 117.2C72.9216 116.86 73.2725 116.604 73.5936 116.695C74.8126 117.039 76.0105 117.581 77.2739 117.775C78.926 118.031 80.6371 118.058 82.3063 118.151L82.7863 118.178C86.1521 118.362 89.6386 118.475 92.9499 117.807C95.4216 117.31 97.9971 116.405 100.262 115.285C102.436 114.208 104.412 112.798 106.004 110.957C109.514 106.907 109.978 101.195 109.807 96.0715C109.6 89.9527 108.882 83.8428 108.476 77.7327L108.293 74.9877C108.142 72.6987 108.003 70.4064 107.946 68.1162C107.904 66.4445 107.931 64.7684 107.939 63.0967C107.944 62.2618 107.933 61.4228 107.952 60.5879C107.963 60.1187 108.018 59.6601 108.058 59.2013C107.872 59.1043 107.699 58.9688 107.542 58.7893C107.42 58.6477 107.325 58.4977 107.259 58.3455C106.471 58.1149 106.106 57.8085 105.595 57.1133C105.164 56.5279 104.676 55.9868 104.154 55.4796C103.042 54.4017 101.773 53.5204 100.431 52.753C97.657 51.1659 94.619 50.105 91.5556 49.2342C86.8652 47.9027 81.9936 47.2179 77.2337 46.1483C75.9218 47.9786 74.5316 49.7541 73.0781 51.4724C68.542 56.8322 63.3408 61.6107 57.7673 65.8717C56.633 66.7403 55.4835 67.5963 54.3175 68.4267C52.7814 70.7698 51.229 73.1017 49.6534 75.4179L48.9767 76.4096L48.9661 76.4286C48.8732 76.5703 48.7842 76.7119 48.6957 76.8535C48.5077 77.1536 48.2964 77.4431 48.0725 77.7242C47.9267 77.9375 47.7788 78.1509 47.6288 78.3646C47.9161 78.5187 48.1781 78.6922 48.383 78.8845C48.8013 79.2795 48.7314 79.9075 48.383 80.309C47.2591 81.6067 45.4802 79.9159 44.1873 79.4657C42.7866 79.8925 41.6182 81.5602 41.0373 82.8345C40.2006 84.6713 39.8647 86.886 40.2429 88.8749C40.5892 90.6925 41.5232 92.263 43.076 93.2479C43.1309 93.2815 43.1899 93.3176 43.2471 93.3491C43.2492 93.3536 43.2492 93.3536 43.2513 93.3513C43.3042 93.3851 43.3591 93.417 43.414 93.4466C44.1429 93.8481 44.9436 94.0848 45.7737 94.1417C46.249 94.1757 46.7457 94.1502 47.2211 94.2074C47.7091 94.2643 48.1105 94.4885 48.5795 94.6069C49.0971 94.7398 49.4309 95.4354 49.1054 95.9023C48.945 96.1326 48.7929 96.3526 48.63 96.5492C49.1647 97.179 49.6293 97.8744 50.0499 98.5357C50.6244 99.4424 51.1337 100.404 51.5985 101.385C52.0274 101.949 52.4373 102.524 52.8344 103.112C55.0844 106.447 56.8063 110.162 57.8647 114.045C58.9126 117.885 59.5675 122.198 58.5978 126.119C57.7042 129.725 55.095 132.711 51.233 132.904C50.4271 132.943 49.6344 132.853 48.889 132.648C47.2517 133.66 45.2227 134.169 43.4068 134.229C41.9377 134.277 40.3295 133.967 39.1297 133.079C37.7064 133.698 36.1625 134.05 34.8199 134.13C33.3175 134.22 31.7453 133.81 30.5206 132.999C29.3552 133.998 28.0978 134.84 26.669 135.419C24.2119 136.412 21.288 136.289 19.038 134.804C16.7837 133.316 15.6366 130.644 16.3253 127.994C16.9591 125.551 18.9513 123.758 20.8232 122.215L21.193 121.912C23.0445 120.4 24.9144 118.937 26.1028 116.807C27.364 114.548 27.8246 111.923 27.9492 109.365C28.2197 103.735 27.0746 98.1555 26.726 92.5547C26.3668 86.77 26.5675 80.9682 27.3556 75.2259C28.8873 64.071 32.9182 53.1357 40.2112 44.4406C41.2663 43.1824 42.3957 41.9832 43.586 40.8466C44.4957 39.6562 45.479 38.5405 46.5478 37.5412ZM143.557 101.233C143.597 101.235 143.635 101.237 143.671 101.252C143.695 101.262 143.716 101.278 143.734 101.296L143.912 101.474C143.975 101.537 143.971 101.634 143.912 101.698C143.86 101.755 143.766 101.757 143.705 101.712L143.688 101.698L143.504 101.513C143.484 101.492 143.467 101.468 143.458 101.438C143.449 101.408 143.449 101.374 143.447 101.343C143.445 101.286 143.5 101.233 143.557 101.233ZM44.4344 83.9654C46.1287 83.4516 48.1611 84.6734 49.171 85.9627C49.678 86.6094 49.8217 87.4949 49.171 88.1311C48.6175 88.6722 47.5358 88.7713 47.0013 88.1311C46.3949 87.4019 45.9006 86.3915 45.0344 85.9246C44.0942 85.4174 42.8351 85.5442 42.6132 86.7804C42.5752 86.9898 42.2752 86.9199 42.2625 86.732C42.1801 85.4808 43.2766 84.3139 44.4344 83.9654Z" fill="#4F4F4F"/>
</g>
</g>
</g>
<defs>
<clipPath id="clip0_133_1479">
<rect width="150" height="150" fill="white"/>
</clipPath>
</defs>
</svg>
