<svg width="150" height="150" viewBox="0 0 150 150" fill="none" xmlns="http://www.w3.org/2000/svg">
<g clip-path="url(#clip0_133_1531)">
<mask id="mask0_133_1531" style="mask-type:alpha" maskUnits="userSpaceOnUse" x="0" y="0" width="150" height="150">
<path d="M75 150C116.421 150 150 116.421 150 75C150 33.5786 116.421 0 75 0C33.5786 0 0 33.5786 0 75C0 116.421 33.5786 150 75 150Z" fill="white"/>
</mask>
<g mask="url(#mask0_133_1531)">
<mask id="mask1_133_1531" style="mask-type:luminance" maskUnits="userSpaceOnUse" x="0" y="0" width="150" height="150">
<path d="M150 0H0V150H150V0Z" fill="white"/>
</mask>
<g mask="url(#mask1_133_1531)">
<path fill-rule="evenodd" clip-rule="evenodd" d="M139.581 228.881C138.729 224.07 137.948 219.246 137.239 214.412C136.902 212.117 136.574 209.819 136.278 207.518C136.071 205.906 135.756 204.062 136.853 202.868C138.396 201.188 139.797 199.749 139.986 197.342C140.164 195.077 139.398 192.608 138.92 190.409C137.916 185.798 136.666 181.244 135.285 176.734C133.882 172.151 132.343 167.611 130.783 163.08C129.324 158.844 127.921 154.57 126.021 150.505C122.414 142.792 116.313 137.08 108.772 133.266C106.897 132.317 103.072 128.931 101.112 128.173C99.311 127.476 99.3174 129.511 97.5447 128.744C96.1275 128.131 94.8079 127.314 94.0144 125.945C93.1528 124.459 90.9923 122.38 90.6633 120.65C89.9663 116.983 90.7213 113.861 88.105 111.101C85.7823 108.65 82.6604 106.971 79.4301 106.07C72.324 104.087 62.8469 105.473 58.5594 112.079C56.5116 115.234 55.7961 119.047 53.0329 121.621C50.62 123.869 51.16 125.406 48.0349 126.565C47.8579 126.631 43.0605 125.601 42.8835 125.667C39.4647 124.935 36.1972 126.984 33.0607 128.173C28.3847 129.945 23.9329 132.251 19.7504 134.993C11.3168 140.521 4.09358 147.699 -1.86142 155.822C-7.86564 164.011 -12.5243 173.191 -15.8414 182.785C-16.647 185.115 -17.3706 187.474 -18.0088 189.856C-18.3661 191.188 -18.7478 192.571 -18.3128 193.936C-17.957 195.052 -17.1656 195.883 -16.2363 196.553C-14.9765 197.461 -12.4495 198.052 -12.4987 199.878C-12.5363 201.267 -13.0073 202.728 -13.2371 204.1C-13.5107 205.735 -13.7355 207.379 -13.9603 209.02C-14.9828 216.491 -15.7787 224.004 -16.1306 231.539C-16.4771 238.958 -16.7646 246.528 -16.2502 253.945C-16.2162 254.434 -16.0704 254.883 -15.8353 255.262C-16.0548 255.346 -16.0717 255.756 -15.7985 255.814C-15.6071 255.854 -15.4161 255.895 -15.2247 255.935C-14.8271 256.236 -14.3313 256.421 -13.7606 256.439C-13.3738 256.451 -12.9872 256.469 -12.6008 256.488C-8.52311 257.341 -4.44607 258.147 -0.315145 258.757C4.70626 259.498 9.74246 260.102 14.7943 260.594C25.1749 261.603 35.4738 261.268 45.8682 260.724C56.2465 260.181 66.6187 260.054 77.0078 260.324C87.4059 260.595 97.8003 261.047 108.201 261.232C119.82 261.439 131.422 261.122 143.008 260.198C144.597 260.071 145.579 258.807 145.266 257.228C143.389 247.772 141.262 238.379 139.581 228.881Z" fill="#F9F9F9"/>
<path fill-rule="evenodd" clip-rule="evenodd" d="M39.6413 125.434C40.7158 125.388 41.8115 125.562 42.8834 125.667C42.9768 125.676 43.0123 125.82 42.9071 125.842C40.9886 126.243 39.0912 126.792 37.207 127.349L36.4003 127.588C34.2756 128.216 32.2132 128.865 30.1563 129.704C26.0568 131.375 22.1634 133.631 18.5801 136.223C4.78171 146.203 -5.20491 161.313 -11.507 176.958C-13.2185 181.206 -14.6686 185.56 -15.8432 189.988C-16.1289 191.065 -16.3976 192.147 -16.6524 193.232C-16.7272 193.55 -17.0532 194.364 -16.8744 194.69C-16.7164 194.977 -16.102 195.155 -15.8166 195.305L-14.853 195.805C-12.9734 196.774 -9.84247 198.367 -9.5285 198.522L-9.03882 198.763C-1.02953 202.691 7.52833 206.022 16.5413 206.252L16.6119 205.482C17.0137 201.226 17.541 196.946 18.692 192.82C18.7539 192.599 19.036 192.673 19.0618 192.87C19.7029 197.755 19.498 202.677 19.2743 207.585C18.8782 216.276 18.3521 224.962 17.8846 233.65C17.6505 237.996 17.348 242.339 17.0748 246.682C16.8012 251.035 16.7127 255.492 16.0879 259.808C15.9487 260.77 14.8222 261.293 13.9691 261.192C13.0252 261.08 12.2991 260.248 12.2946 259.295C12.2832 256.78 12.5991 254.236 12.7746 251.727C12.9413 249.344 13.1203 246.962 13.3037 244.58C13.9738 235.887 14.7447 227.204 15.4577 218.515C15.7104 215.433 15.9834 212.354 16.2644 209.275C6.7165 208.967 -2.20343 205.429 -10.7128 201.296C-10.836 204.093 -11.1335 206.886 -11.4214 209.672C-12.2253 217.447 -12.9341 225.219 -13.4646 233.017C-13.7325 236.956 -13.9275 240.9 -14.0973 244.844C-14.1808 246.783 -14.2488 248.722 -14.301 250.661C-14.3185 251.308 -14.3342 251.954 -14.3482 252.601L-14.3772 254.082C-14.401 255.021 -14.4963 255.89 -15.2857 256.573C-16.0875 257.267 -17.1704 257.304 -17.964 256.573C-19.0262 255.595 -18.8384 254.261 -18.8069 252.947C-18.7807 251.839 -18.7492 250.73 -18.7127 249.622C-18.6394 247.406 -18.5458 245.19 -18.4319 242.975C-18.0334 235.232 -17.2373 227.52 -16.1968 219.839L-15.7906 216.874C-15.0321 211.362 -14.1993 205.725 -12.5037 200.415C-13.164 200.086 -13.8223 199.756 -14.478 199.423C-15.6413 198.834 -16.844 198.281 -17.9747 197.631C-18.8718 197.115 -19.6454 196.407 -19.8951 195.363C-20.1736 194.2 -19.7478 192.927 -19.4649 191.792L-19.4403 191.692C-19.1629 190.549 -18.8642 189.412 -18.549 188.279C-17.2708 183.684 -15.6903 179.179 -13.8406 174.784C-10.1371 165.985 -5.35681 157.626 0.482418 150.068C5.73854 143.265 11.9477 137.095 19.2251 132.467C22.7828 130.205 26.5742 128.348 30.5839 127.034C32.458 126.421 34.4972 125.887 36.4594 125.667C37.5179 125.548 38.5778 125.481 39.6413 125.434ZM58.6794 111.492C59.9563 110.12 62.4932 111.539 61.8801 113.356C60.438 117.629 58.1415 121.527 54.5576 124.335C51.1887 126.975 47.1715 128.689 42.8451 128.323C42.8117 128.32 42.7828 128.312 42.7572 128.3L43.1301 128.806C46.0571 132.767 49.145 136.673 52.8668 139.91C60.4498 146.507 70.7745 150.065 80.7442 147.534C88.5882 145.543 95.4987 139.337 97.5311 131.43C97.2398 131.56 96.8935 131.605 96.5134 131.522C94.8873 131.169 93.2774 129.458 92.2287 128.231C91.0942 126.904 90.2082 125.471 89.5587 123.852C88.3701 120.887 87.989 117.07 89.612 114.199C89.8122 113.845 90.2741 114.043 90.3134 114.389L90.3752 114.928C90.688 117.619 91.0778 120.223 92.3462 122.676C92.9669 123.877 93.711 125.048 94.6167 126.054C95.1013 126.592 95.6267 127.106 96.194 127.557C96.7468 127.996 97.4158 128.314 97.9112 128.818L98.002 128.915L98.0046 128.897C98.1298 127.832 98.8767 127.363 99.6074 127.392C100.315 127.42 101.145 127.732 101.467 127.881L101.497 127.895C106.431 130.264 110.975 133.353 115.251 136.779C124.094 143.864 130.719 153.126 133.929 164.034C135.505 169.387 136.409 174.903 137.363 180.393L137.951 183.757C138.842 188.826 139.837 193.994 141.848 198.709C142.368 199.929 141.967 201.072 140.691 201.552C139.099 202.151 137.5 202.731 135.899 203.304C136.686 206.677 137.165 210.168 137.754 213.559C139.006 220.765 140.54 227.926 141.855 235.124C142.528 238.804 143.134 242.496 143.806 246.176C144.13 247.949 144.467 249.719 144.796 251.49C144.973 252.445 145.133 253.404 145.302 254.36L145.331 254.519C145.428 255.024 145.549 255.546 145.41 256.051C145.252 256.627 144.803 257.033 144.402 257.446C144.071 257.786 143.594 257.789 143.19 257.603L143.057 257.541C142.334 257.203 141.768 256.866 141.512 256.051C141.349 255.534 141.291 254.953 141.185 254.421C140.981 253.401 140.788 252.38 140.606 251.356C140.242 249.307 139.886 247.257 139.539 245.205L139.215 243.284C138.101 236.663 137.044 230.001 136.509 223.31C136.272 220.341 136.021 217.375 135.767 214.409L135.577 212.184C135.336 209.367 135.041 206.48 135 203.626L134.043 203.966L129.371 205.618C128.213 206.027 126.738 206.866 125.492 206.713C124.882 206.639 124.417 206.446 124.057 206.097C124.488 212.17 125.07 218.232 125.846 224.264C126.552 229.751 127.335 235.232 128.259 240.688C128.717 243.389 129.187 246.088 129.699 248.78C129.954 250.126 130.218 251.47 130.489 252.813C130.625 253.483 130.786 254.154 130.892 254.829C131.012 255.603 130.799 256.078 130.367 256.715C130.013 257.238 129.303 257.506 128.728 257.145C127.966 256.667 127.569 256.253 127.344 255.382C127.141 254.591 127.017 253.765 126.859 252.963C126.568 251.484 126.287 250.004 126.016 248.521C125.448 245.42 124.925 242.311 124.457 239.194C122.811 228.21 121.766 217.134 121.238 206.041C120.977 200.567 120.897 195.089 120.943 189.61C120.967 186.802 121.059 183.985 121.257 181.184C121.458 178.348 121.877 175.569 122.25 172.761C122.263 172.662 122.403 172.656 122.409 172.761C122.585 175.909 122.863 179.054 122.998 182.211C123.128 185.224 123.185 188.241 123.288 191.254C123.423 195.215 123.611 199.179 123.86 203.139C124.31 202.647 124.989 202.363 125.668 202.474C126.651 202.267 127.71 201.751 128.648 201.437L132.183 200.256C134.042 199.635 135.9 199.018 137.766 198.42C136.098 192.808 134.956 187.112 133.98 181.334L133.545 178.735C132.684 173.619 131.756 168.501 130.196 163.548C128.557 158.34 126.103 153.498 122.848 149.113C119.639 144.791 115.736 140.986 111.717 137.427C108.276 134.38 104.595 131.629 101.085 128.666C101.122 128.862 101.13 129.079 101.098 129.316C100.351 134.779 97.5024 139.867 93.532 143.652C85.5556 151.254 73.7485 152.831 63.5396 149.266C53.6643 145.818 44.9333 137.651 41.8486 127.545C41.7958 127.372 42.0273 127.303 42.1203 127.43C42.2914 127.665 42.4634 127.899 42.6355 128.134C42.6239 128.041 42.6723 127.939 42.7872 127.895C46.3864 126.505 49.9207 124.533 52.6186 121.744C53.9335 120.384 55.0811 118.844 55.987 117.183C56.421 116.387 56.8108 115.563 57.1217 114.711L57.2008 114.491C57.5777 113.424 57.8926 112.337 58.6794 111.492Z" fill="#4F4F4F"/>
<path fill-rule="evenodd" clip-rule="evenodd" d="M66.2808 32.4727C98.3027 30.8974 100.539 40.208 104.936 46.1438C107.119 49.0896 112.753 53.4522 113.687 63.5264C114.336 70.5195 110.206 78.5798 110.206 84.8287C110.206 88.0183 114.11 94.8662 112.293 99.5151C108.247 109.863 99.6826 121.346 88.7685 121.346C77.8543 121.346 57.7075 115.329 45.6478 98.0548C41.6977 92.3967 34.259 34.0481 66.2808 32.4727Z" fill="#F9F9F9"/>
<path fill-rule="evenodd" clip-rule="evenodd" d="M112.889 85.4526C112.19 84.6812 111.647 84.0471 111.465 82.9862C111.389 82.5442 111.355 82.09 111.341 81.6335C114.148 77.7066 116.878 68.4311 116.878 63.3578C116.878 56.2005 114.239 49.3138 109.908 43.6179C101.466 32.524 87.4125 26.8365 73.659 27.2827C60.4886 27.7073 46.4798 32.5641 38.2641 42.9461C11.0055 77.3909 33.8832 115.015 50.6393 122.842C52.0979 123.524 56.8087 123.287 56.1523 121.832C54.267 117.652 52.7815 109.952 52.4351 108.219C52.9717 108.581 53.5125 108.934 54.0555 109.299C55.0168 109.944 56.3055 110.681 57.5139 110.468C57.571 110.457 57.6069 110.396 57.609 110.343C57.6639 109.208 56.8527 108.042 56.1386 107.232C55.1477 106.108 54.2055 104.956 53.1386 103.901C52.6844 103.451 52.2238 103.005 51.7632 102.559C51.7041 99.8834 51.8837 97.1952 52.3632 94.5047C53.1935 89.8402 54.6259 85.2962 56.2717 80.824C57.647 79.8093 58.9822 78.7422 60.2182 77.5754C63.1949 74.7665 65.466 71.3302 67.4139 67.7161C67.4372 67.7053 67.4625 67.6926 67.4858 67.6823C71.2611 65.9258 75.0048 64.102 78.7189 62.221C80.6351 61.2507 82.5386 60.2573 84.4421 59.2642C85.4773 58.7229 86.5442 58.2305 87.6027 57.7211C87.3175 59.1837 86.9329 60.6251 86.466 62.0432C86.0815 63.208 87.2562 64.068 88.2956 63.8757C91.8344 63.2207 95.2548 61.904 98.333 60.0399C99.8583 59.1163 101.31 58.0489 102.655 56.8778C104.001 58.8836 105.636 60.7646 107.286 62.3837C108.4 63.4764 109.564 64.516 110.772 65.5011C110.225 69.2695 109.756 73.0461 109.163 76.8063C108.852 78.7718 108.478 80.7372 108.244 82.7133C107.988 84.867 108.7 86.4014 110.117 87.9759C112.099 90.1763 112.097 93.359 111.339 96.092C111.246 96.4299 111.129 96.7598 111.009 97.0872C110.984 97.1549 110.91 97.3387 110.882 97.4108C110.882 97.4129 110.882 97.415 110.88 97.4191C110.88 97.4212 110.878 97.4254 110.878 97.4254C110.876 97.4254 110.876 97.4275 110.874 97.4298V97.4338V97.436L110.872 97.4381C110.783 97.6452 110.688 97.8481 110.593 98.051C110.16 98.9661 109.676 99.8604 109.173 100.74C106.701 105.08 103.579 109.052 100.021 112.556C98.3646 114.188 96.6428 115.705 94.697 116.948C94.2872 117.208 93.8689 117.459 93.44 117.69C93.2097 117.814 92.9731 117.931 92.7365 118.049C92.39 118.22 92.5337 118.153 92.3224 118.237C91.94 118.387 91.5491 118.518 91.1499 118.622C90.9365 118.677 90.721 118.723 90.5034 118.763C90.5013 118.763 90.497 118.765 90.4907 118.765C90.4886 118.765 90.4865 118.768 90.4844 118.765C90.4822 118.768 90.478 118.768 90.4738 118.768C90.3935 118.774 90.2498 118.787 90.2224 118.787C87.1886 118.797 84.1801 118.389 81.2435 117.635C79.6527 117.225 78.0639 116.728 76.5682 116.046C75.8076 115.697 75.0639 115.31 74.352 114.872C74.0329 114.676 73.7308 114.439 73.3949 114.268C72.8921 114.01 72.3998 114.038 71.8569 114.014C71.0287 113.98 70.4414 114.847 70.6442 115.608C70.8914 116.536 71.2801 117.083 72.0787 117.635C72.7168 118.075 73.3928 118.463 74.0815 118.816C75.5815 119.588 77.1682 120.215 78.7738 120.729C81.7801 121.688 84.9449 122.278 88.0928 122.494C90.3851 122.65 92.371 122.344 94.4583 121.378C96.6618 120.357 98.6372 118.833 100.465 117.252C104.557 113.714 108.117 109.422 111.136 104.943C113.973 100.733 116.174 96.1488 115.45 90.9221C115.16 88.8256 114.307 87.0208 112.889 85.4526Z" fill="#4F4F4F"/>
</g>
</g>
</g>
<defs>
<clipPath id="clip0_133_1531">
<rect width="150" height="150" fill="white"/>
</clipPath>
</defs>
</svg>
