<svg width="150" height="150" viewBox="0 0 150 150" fill="none" xmlns="http://www.w3.org/2000/svg">
<g clip-path="url(#clip0_133_1570)">
<mask id="mask0_133_1570" style="mask-type:alpha" maskUnits="userSpaceOnUse" x="0" y="0" width="150" height="150">
<path d="M75 150C116.421 150 150 116.421 150 75C150 33.5786 116.421 0 75 0C33.5786 0 0 33.5786 0 75C0 116.421 33.5786 150 75 150Z" fill="white"/>
</mask>
<g mask="url(#mask0_133_1570)">
<mask id="mask1_133_1570" style="mask-type:luminance" maskUnits="userSpaceOnUse" x="0" y="0" width="150" height="150">
<path d="M150 0H0V150H150V0Z" fill="white"/>
</mask>
<g mask="url(#mask1_133_1570)">
<path fill-rule="evenodd" clip-rule="evenodd" d="M139.581 228.882C138.729 224.07 137.948 219.246 137.239 214.412C136.902 212.117 136.574 209.819 136.278 207.518C136.071 205.906 135.756 204.062 136.853 202.868C138.396 201.188 139.797 199.749 139.986 197.342C140.164 195.077 139.398 192.608 138.92 190.409C137.916 185.798 136.666 181.244 135.285 176.734C133.882 172.151 132.343 167.611 130.783 163.08C129.324 158.844 127.921 154.57 126.021 150.505C122.414 142.792 116.313 137.08 108.772 133.266C106.897 132.317 103.072 128.931 101.112 128.173C99.3107 127.476 99.3171 129.511 97.5444 128.744C96.1273 128.132 94.8076 127.314 94.0141 125.945C93.1525 124.459 90.9921 122.38 90.663 120.65C89.966 116.983 90.7211 113.862 88.1048 111.101C85.7821 108.65 82.6601 106.971 79.4298 106.07C72.3237 104.087 62.8466 105.473 58.5592 112.079C56.5114 115.234 55.7959 119.047 53.0327 121.621C50.6198 123.869 51.1598 125.406 48.0347 126.565C47.8577 126.631 43.0602 125.601 42.8832 125.667C39.4644 124.935 36.1969 126.984 33.0604 128.173C28.3844 129.945 23.9326 132.251 19.7501 134.993C11.3165 140.521 4.09334 147.699 -1.86166 155.822C-7.86588 164.011 -12.5246 173.191 -15.8417 182.785C-16.6473 185.115 -17.3709 187.474 -18.0091 189.856C-18.3664 191.189 -18.748 192.571 -18.313 193.936C-17.9572 195.052 -17.1658 195.884 -16.2365 196.553C-14.9767 197.461 -12.4498 198.052 -12.499 199.878C-12.5366 201.267 -13.0075 202.728 -13.2373 204.101C-13.511 205.735 -13.7358 207.379 -13.9606 209.02C-14.9831 216.491 -15.779 224.005 -16.1309 231.539C-16.4774 238.958 -16.7649 246.528 -16.2505 253.945C-16.2165 254.434 -16.0707 254.883 -15.8356 255.262C-16.0551 255.346 -16.072 255.756 -15.7988 255.814C-15.6074 255.854 -15.4164 255.895 -15.225 255.935C-14.8274 256.236 -14.3316 256.421 -13.7609 256.439C-13.3741 256.451 -12.9875 256.469 -12.601 256.488C-8.52335 257.341 -4.44631 258.147 -0.31539 258.757C4.70602 259.498 9.74222 260.102 14.794 260.594C25.1746 261.603 35.4735 261.269 45.868 260.724C56.2462 260.181 66.6184 260.054 77.0075 260.324C87.4056 260.595 97.8 261.047 108.201 261.233C119.82 261.439 131.422 261.122 143.008 260.198C144.597 260.071 145.579 258.807 145.266 257.228C143.389 247.772 141.262 238.379 139.581 228.882Z" fill="#F9F9F9"/>
<path fill-rule="evenodd" clip-rule="evenodd" d="M39.6413 125.434C40.7158 125.388 41.8115 125.562 42.8834 125.667C42.9768 125.676 43.0123 125.82 42.9071 125.842C40.9886 126.243 39.0912 126.792 37.207 127.349L36.4003 127.588C34.2756 128.216 32.2132 128.865 30.1563 129.704C26.0568 131.375 22.1634 133.631 18.5801 136.223C4.78171 146.203 -5.20491 161.313 -11.507 176.957C-13.2185 181.206 -14.6686 185.56 -15.8432 189.988C-16.1289 191.065 -16.3976 192.147 -16.6524 193.231C-16.7272 193.55 -17.0532 194.364 -16.8744 194.69C-16.7164 194.977 -16.102 195.155 -15.8166 195.305L-14.853 195.804C-12.9734 196.774 -9.84247 198.367 -9.5285 198.522L-9.03882 198.763C-1.02953 202.691 7.52833 206.022 16.5413 206.252L16.6119 205.482C17.0137 201.226 17.541 196.946 18.692 192.82C18.7539 192.598 19.036 192.673 19.0618 192.87C19.7029 197.755 19.498 202.677 19.2743 207.584C18.8782 216.276 18.3521 224.962 17.8846 233.65C17.6505 237.996 17.348 242.339 17.0748 246.682C16.8012 251.035 16.7127 255.492 16.0879 259.808C15.9487 260.77 14.8222 261.293 13.9691 261.192C13.0252 261.08 12.2991 260.248 12.2946 259.294C12.2832 256.78 12.5991 254.236 12.7746 251.727C12.9413 249.344 13.1203 246.962 13.3037 244.58C13.9738 235.887 14.7447 227.204 15.4577 218.515C15.7104 215.433 15.9834 212.354 16.2644 209.275C6.7165 208.967 -2.20343 205.429 -10.7128 201.296C-10.836 204.093 -11.1335 206.886 -11.4214 209.672C-12.2253 217.447 -12.9341 225.218 -13.4646 233.017C-13.7325 236.956 -13.9275 240.9 -14.0973 244.844C-14.1808 246.783 -14.2488 248.722 -14.301 250.661C-14.3185 251.308 -14.3342 251.954 -14.3482 252.601L-14.3772 254.082C-14.401 255.021 -14.4963 255.89 -15.2857 256.573C-16.0875 257.267 -17.1704 257.304 -17.964 256.573C-19.0262 255.595 -18.8384 254.261 -18.8069 252.947C-18.7807 251.839 -18.7492 250.73 -18.7127 249.622C-18.6394 247.406 -18.5458 245.19 -18.4319 242.975C-18.0334 235.232 -17.2373 227.52 -16.1968 219.839L-15.7906 216.874C-15.0321 211.362 -14.1993 205.725 -12.5037 200.415C-13.164 200.086 -13.8223 199.756 -14.478 199.423C-15.6413 198.834 -16.844 198.281 -17.9747 197.631C-18.8718 197.115 -19.6454 196.407 -19.8951 195.363C-20.1736 194.2 -19.7478 192.927 -19.4649 191.792L-19.4403 191.692C-19.1629 190.549 -18.8642 189.412 -18.549 188.278C-17.2708 183.684 -15.6903 179.179 -13.8406 174.784C-10.1371 165.985 -5.35681 157.626 0.482418 150.068C5.73854 143.264 11.9477 137.095 19.2251 132.467C22.7828 130.205 26.5742 128.348 30.5839 127.034C32.458 126.42 34.4972 125.887 36.4594 125.667C37.5179 125.548 38.5778 125.481 39.6413 125.434ZM58.6794 111.492C59.9563 110.12 62.4932 111.539 61.8801 113.356C60.438 117.629 58.1415 121.527 54.5576 124.335C51.1887 126.975 47.1715 128.689 42.8451 128.323C42.8117 128.32 42.7828 128.312 42.7572 128.3L43.1301 128.806C46.0571 132.766 49.145 136.673 52.8668 139.91C60.4498 146.507 70.7745 150.064 80.7442 147.534C88.5882 145.542 95.4987 139.337 97.5311 131.43C97.2398 131.56 96.8935 131.605 96.5134 131.522C94.8873 131.169 93.2774 129.458 92.2287 128.231C91.0942 126.904 90.2082 125.471 89.5587 123.852C88.3701 120.887 87.989 117.07 89.612 114.199C89.8122 113.845 90.2741 114.043 90.3134 114.389L90.3752 114.928C90.688 117.619 91.0778 120.223 92.3462 122.676C92.9669 123.877 93.711 125.048 94.6167 126.054C95.1013 126.592 95.6267 127.106 96.194 127.557C96.7468 127.996 97.4158 128.314 97.9112 128.818L98.002 128.915L98.0046 128.897C98.1298 127.832 98.8767 127.363 99.6074 127.392C100.315 127.42 101.145 127.732 101.467 127.881L101.497 127.895C106.431 130.264 110.975 133.353 115.251 136.779C124.094 143.864 130.719 153.126 133.929 164.034C135.505 169.387 136.409 174.903 137.363 180.393L137.951 183.757C138.842 188.826 139.837 193.994 141.848 198.709C142.368 199.929 141.967 201.072 140.691 201.552C139.099 202.151 137.5 202.731 135.899 203.304C136.686 206.677 137.165 210.168 137.754 213.559C139.006 220.765 140.54 227.926 141.855 235.123C142.528 238.803 143.134 242.496 143.806 246.176C144.13 247.949 144.467 249.718 144.796 251.49C144.973 252.445 145.133 253.404 145.302 254.36L145.331 254.519C145.428 255.024 145.549 255.546 145.41 256.051C145.252 256.626 144.803 257.033 144.402 257.446C144.071 257.786 143.594 257.788 143.19 257.603L143.057 257.541C142.334 257.203 141.768 256.866 141.512 256.051C141.349 255.534 141.291 254.953 141.185 254.421C140.981 253.401 140.788 252.38 140.606 251.356C140.242 249.307 139.886 247.257 139.539 245.205L139.215 243.284C138.101 236.663 137.044 230.001 136.509 223.31C136.272 220.341 136.021 217.375 135.767 214.409L135.577 212.184C135.336 209.367 135.041 206.48 135 203.626L134.043 203.966L129.371 205.617C128.213 206.027 126.738 206.866 125.492 206.713C124.882 206.639 124.417 206.446 124.057 206.097C124.488 212.17 125.07 218.232 125.846 224.263C126.552 229.751 127.335 235.232 128.259 240.687C128.717 243.389 129.187 246.088 129.699 248.78C129.954 250.126 130.218 251.47 130.489 252.813C130.625 253.483 130.786 254.153 130.892 254.829C131.012 255.602 130.799 256.078 130.367 256.715C130.013 257.237 129.303 257.506 128.728 257.145C127.966 256.667 127.569 256.253 127.344 255.382C127.141 254.591 127.017 253.765 126.859 252.963C126.568 251.484 126.287 250.004 126.016 248.521C125.448 245.42 124.925 242.311 124.457 239.193C122.811 228.21 121.766 217.134 121.238 206.041C120.977 200.567 120.897 195.089 120.943 189.61C120.967 186.802 121.059 183.985 121.257 181.184C121.458 178.348 121.877 175.569 122.25 172.761C122.263 172.662 122.403 172.656 122.409 172.761C122.585 175.909 122.863 179.054 122.998 182.211C123.128 185.224 123.185 188.241 123.288 191.254C123.423 195.215 123.611 199.179 123.86 203.139C124.31 202.647 124.989 202.363 125.668 202.474C126.651 202.267 127.71 201.751 128.648 201.437L132.183 200.256C134.042 199.635 135.9 199.018 137.766 198.42C136.098 192.808 134.956 187.112 133.98 181.334L133.545 178.735C132.684 173.619 131.756 168.501 130.196 163.548C128.557 158.339 126.103 153.497 122.848 149.113C119.639 144.791 115.736 140.986 111.717 137.427C108.276 134.38 104.595 131.629 101.085 128.666C101.122 128.862 101.13 129.078 101.098 129.316C100.351 134.779 97.5024 139.867 93.532 143.651C85.5556 151.254 73.7485 152.831 63.5396 149.266C53.6643 145.818 44.9333 137.651 41.8486 127.545C41.7958 127.372 42.0273 127.303 42.1203 127.43C42.2914 127.665 42.4634 127.899 42.6355 128.134C42.6239 128.041 42.6723 127.939 42.7872 127.895C46.3864 126.505 49.9207 124.533 52.6186 121.744C53.9335 120.384 55.0811 118.844 55.987 117.183C56.421 116.387 56.8108 115.563 57.1217 114.711L57.2008 114.491C57.5777 113.424 57.8926 112.337 58.6794 111.492Z" fill="#4F4F4F"/>
<path fill-rule="evenodd" clip-rule="evenodd" d="M109.264 55.597C101.832 36.035 88.4335 21.7125 65.8465 30.7084C65.1985 30.2671 64.353 30.1487 63.5428 30.6655C51.2388 38.3943 42.3784 50.7856 38.5387 64.7582C36.2018 65.2026 33.9311 65.9779 31.9029 67.2492C27.4951 70.0121 24.5295 74.4086 21.7496 78.6906C20.9137 79.9779 21.6877 82.1092 23.2587 82.4015C23.9411 82.5287 24.6174 82.6044 25.2899 82.6243C25.1261 83.2188 24.9106 83.7932 24.6362 84.3201C23.6426 86.2274 25.5197 88.2523 27.2789 87.7309C27.4741 87.8343 27.6787 87.9192 27.8906 87.983C27.9146 89.0635 28.4696 90.5097 29.568 90.7281C31.3444 91.1093 33.7051 89.7493 33.2859 87.7618C33.8225 87.8562 34.3572 87.8681 34.8784 87.8025C34.9368 88.8375 34.9186 89.9175 35.0614 90.8722C35.5283 95.3714 40.022 98.3937 44.3073 97.025C44.5701 98.4269 44.8788 100.397 46.259 101.157C47.8727 105.686 50.6591 110.854 55.2229 112.917C54.8166 113.959 55.037 115.225 56.2606 115.922C64.6144 120.687 74.6411 122.299 84.0856 120.528C87.8601 120.303 91.5377 119.45 95.0675 117.632C97.6416 116.306 100.008 114.623 102.318 112.887C104.629 111.151 107.101 109.461 108.945 107.207C110.949 104.759 111.882 101.878 112.487 98.8128C115.261 84.8977 114.303 71.2346 109.264 57.9791C103.027 41.5709 115.499 72.006 109.264 55.597Z" fill="#F9F9F9"/>
<path fill-rule="evenodd" clip-rule="evenodd" d="M73.3312 26.8964C77.1351 26.6278 81.0082 27.2692 84.6306 28.4166C90.4079 30.2461 95.7137 33.4747 100.073 37.6778C104.566 42.0094 107.888 47.35 109.909 53.2486C112.345 60.3622 112.71 67.9578 113.395 75.3835C113.742 79.1354 114.313 82.83 114.906 86.5455L115 87.1323C115.58 90.7523 115.906 94.4135 115.105 98.0278C113.774 104.035 109.782 109.134 105.045 112.902C95.312 120.642 80.161 125.36 68.8293 118.238C67.0762 117.136 68.7375 114.318 70.449 115.467C71.6534 116.275 72.9294 116.984 74.2977 117.473C80.0151 119.517 86.2942 118.789 91.9447 116.887C97.5131 115.014 102.857 111.848 106.965 107.624C111.281 103.186 113.673 97.7053 113.327 91.4688C113.121 87.7581 112.276 84.1161 111.807 80.4357C111.392 77.1759 111.143 73.8985 110.855 70.6256L110.75 69.4484C110.141 62.7801 109.267 55.929 106.234 49.8761C103.683 44.7838 99.9475 40.2535 95.456 36.7548C90.7536 33.0919 85.137 30.5302 79.2439 29.5746C72.3139 28.4511 65.6801 30.4942 59.8993 34.2977C54.7723 37.6708 50.3643 42.1785 46.9844 47.2932C45.3454 49.7732 43.9491 52.4216 42.7434 55.1377C41.6072 57.6967 40.8239 60.3787 39.9102 63.0164C40.6621 62.994 41.4265 63.0229 42.2027 63.1087C46.1838 63.55 49.893 65.6141 52.2544 68.8687C55.14 72.8457 54.36 77.7274 55.4871 82.2503C55.5744 82.6014 55.426 82.945 55.1255 83.1393C53.4165 84.2442 51.1294 84.281 49.4754 83.0367C48.0398 81.957 47.3659 80.0047 47.9471 78.2989C48.0229 78.0766 48.3465 78.1159 48.3556 78.3543C48.4648 81.2572 51.157 83.4926 53.7959 82.1112C52.6639 78.2112 53.2598 73.8555 50.9444 70.3327C46.8465 64.0979 38.3662 63.8402 32.4099 67.355C29.2752 69.2044 26.794 71.9854 24.9465 75.096L24.4142 75.999C23.706 77.2055 22.9561 78.5704 22.8092 79.899C22.7245 80.6658 23.0073 81.3863 23.8866 81C24.598 80.6876 25.1487 79.9586 25.5713 79.332C26.2919 78.2632 27.9479 79.1866 27.3526 80.3247L27.3323 80.3619C26.466 81.8972 25.9327 83.5891 25.8347 85.3519L25.8099 85.8401C25.7935 86.1959 25.7818 86.7015 25.857 86.7199C25.9472 86.7421 26.5741 86.0183 26.6784 85.9181C27.1813 85.4349 27.6991 85.0401 28.399 84.9114C29.3191 84.7427 30.2474 85.8816 29.4487 86.6282L29.4155 86.6582C28.7027 87.2781 28.7343 88.5143 29.5217 89.094C30.633 89.9122 32.0012 88.5768 32.1625 87.4773L32.1678 87.4366C32.3104 86.2486 33.9599 86.2066 34.0495 87.4366C34.244 90.106 31.0671 92.3433 28.65 90.9966C27.6942 90.4644 27.0867 89.4899 26.8964 88.4454C26.5913 88.6067 26.262 88.7185 25.9141 88.7493C24.7813 88.8497 23.9759 88.0529 23.7927 86.9835C23.5794 85.7376 23.7059 84.4035 24.034 83.1097C23.4188 83.258 22.7717 83.2014 22.1212 82.8258C20.1532 81.6898 20.7185 79.1629 21.4615 77.4569C24.6337 70.175 31.2058 63.5676 39.348 63.043C39.3926 61.7582 39.5667 60.5436 39.8514 59.2571C42.6364 46.6735 51.6583 35.0213 63.4037 29.5753C66.5423 28.1199 69.8708 27.1409 73.3312 26.8964ZM42.5297 77.1631L42.6414 77.1379C43.9104 76.8644 47.2498 76.5431 46.8472 78.6793C46.8283 78.7797 46.6823 78.7674 46.6563 78.6793C46.2621 77.3362 43.584 78.4102 42.802 78.7336C41.7242 79.1791 40.6608 79.8364 39.7807 80.6005C37.8537 82.2735 36.562 84.6313 36.3656 87.1921C36.1708 89.7323 36.9075 92.476 38.7392 94.3135C39.637 95.2141 40.7833 95.8255 42.0707 95.8705C43.2274 95.9107 44.5053 95.0099 45.5726 95.5374C45.783 95.6414 45.9497 95.927 45.9307 96.162C45.8948 96.6069 45.6958 96.9533 45.3996 97.2219C47.1865 100.479 48.649 103.927 50.9283 106.89C52.0721 108.376 53.3682 109.752 54.8358 110.924C55.5336 111.48 56.2919 111.97 57.074 112.399C57.9905 112.903 58.7836 113.219 59.4377 114.072C59.9954 114.801 59.4375 116.208 58.518 116.334C56.3527 116.629 54.2486 114.878 52.6589 113.566C51.0708 112.255 49.6983 110.638 48.564 108.923C46.3859 105.628 44.8958 101.742 44.3 97.8103C43.6083 98.0297 42.8295 98.0967 42.2437 98.0979C40.6849 98.1015 39.1967 97.5406 37.9717 96.5927C33.4874 93.123 32.989 85.999 36.1536 81.5065C37.6679 79.3569 39.9689 77.7686 42.5297 77.1631ZM42.5579 85.4256C43.5978 85.3343 44.6367 85.4985 45.614 85.8532L46.017 85.9993C46.8681 86.3106 47.774 86.6766 48.3887 87.3149C49.3278 88.2904 48.3926 89.9808 47.0549 89.607C45.5758 89.1936 44.3738 87.9474 42.8951 87.4248C41.5734 86.9577 40.0763 87.0238 38.9033 87.8282C38.7485 87.9345 38.5449 87.7249 38.6461 87.5706C39.5433 86.2038 40.9599 85.5657 42.5579 85.4256Z" fill="#4F4F4F"/>
</g>
</g>
</g>
<defs>
<clipPath id="clip0_133_1570">
<rect width="150" height="150" fill="white"/>
</clipPath>
</defs>
</svg>
