<svg width="150" height="150" viewBox="0 0 150 150" fill="none" xmlns="http://www.w3.org/2000/svg">
<g clip-path="url(#clip0_133_1689)">
<mask id="mask0_133_1689" style="mask-type:alpha" maskUnits="userSpaceOnUse" x="0" y="0" width="150" height="150">
<path d="M75 150C116.421 150 150 116.421 150 75C150 33.5786 116.421 0 75 0C33.5786 0 0 33.5786 0 75C0 116.421 33.5786 150 75 150Z" fill="white"/>
</mask>
<g mask="url(#mask0_133_1689)">
<mask id="mask1_133_1689" style="mask-type:luminance" maskUnits="userSpaceOnUse" x="0" y="0" width="150" height="150">
<path d="M150 0H0V150H150V0Z" fill="white"/>
</mask>
<g mask="url(#mask1_133_1689)">
<path fill-rule="evenodd" clip-rule="evenodd" d="M139.581 228.881C138.729 224.07 137.948 219.246 137.239 214.412C136.902 212.117 136.574 209.819 136.278 207.518C136.071 205.906 135.756 204.062 136.853 202.868C138.396 201.188 139.797 199.749 139.986 197.342C140.164 195.077 139.398 192.608 138.92 190.409C137.916 185.798 136.666 181.244 135.285 176.734C133.882 172.151 132.343 167.611 130.783 163.08C129.324 158.844 127.921 154.57 126.021 150.505C122.414 142.792 116.313 137.08 108.772 133.266C106.897 132.317 103.072 128.931 101.112 128.173C99.3107 127.476 99.3171 129.511 97.5444 128.744C96.1273 128.131 94.8076 127.314 94.0141 125.945C93.1525 124.459 90.9921 122.38 90.663 120.65C89.966 116.983 90.7211 113.861 88.1048 111.101C85.7821 108.65 82.6601 106.971 79.4298 106.07C72.3237 104.087 62.8466 105.473 58.5592 112.079C56.5114 115.234 55.7959 119.047 53.0327 121.621C50.6198 123.869 51.1598 125.406 48.0347 126.565C47.8577 126.631 43.0602 125.601 42.8832 125.667C39.4644 124.935 36.1969 126.984 33.0604 128.173C28.3844 129.945 23.9326 132.251 19.7501 134.993C11.3165 140.521 4.09334 147.699 -1.86166 155.822C-7.86588 164.011 -12.5246 173.191 -15.8417 182.785C-16.6473 185.115 -17.3709 187.474 -18.0091 189.856C-18.3664 191.188 -18.748 192.571 -18.313 193.936C-17.9572 195.052 -17.1658 195.883 -16.2365 196.553C-14.9767 197.461 -12.4498 198.052 -12.499 199.878C-12.5366 201.267 -13.0075 202.728 -13.2373 204.1C-13.511 205.735 -13.7358 207.379 -13.9606 209.02C-14.9831 216.491 -15.779 224.004 -16.1309 231.539C-16.4774 238.958 -16.7649 246.528 -16.2505 253.945C-16.2165 254.434 -16.0707 254.883 -15.8356 255.262C-16.0551 255.346 -16.072 255.756 -15.7988 255.814C-15.6074 255.854 -15.4164 255.895 -15.225 255.935C-14.8274 256.236 -14.3316 256.421 -13.7609 256.439C-13.3741 256.451 -12.9875 256.469 -12.601 256.488C-8.52335 257.341 -4.44631 258.147 -0.31539 258.757C4.70602 259.498 9.74222 260.102 14.794 260.594C25.1746 261.603 35.4735 261.268 45.868 260.724C56.2462 260.181 66.6184 260.054 77.0075 260.324C87.4056 260.595 97.8 261.047 108.201 261.232C119.82 261.439 131.422 261.122 143.008 260.198C144.597 260.071 145.579 258.807 145.266 257.228C143.389 247.772 141.262 238.379 139.581 228.881Z" fill="#F9F9F9"/>
<path fill-rule="evenodd" clip-rule="evenodd" d="M39.6413 125.434C40.7158 125.388 41.8115 125.562 42.8834 125.667C42.9768 125.676 43.0123 125.82 42.9071 125.842C40.9886 126.243 39.0912 126.792 37.207 127.349L36.4003 127.588C34.2756 128.216 32.2132 128.865 30.1563 129.704C26.0568 131.375 22.1634 133.631 18.5801 136.223C4.78171 146.203 -5.20491 161.313 -11.507 176.958C-13.2185 181.206 -14.6686 185.56 -15.8432 189.988C-16.1289 191.065 -16.3976 192.147 -16.6524 193.232C-16.7272 193.55 -17.0532 194.364 -16.8744 194.69C-16.7164 194.977 -16.102 195.155 -15.8166 195.305L-14.853 195.805C-12.9734 196.774 -9.84247 198.367 -9.5285 198.522L-9.03882 198.763C-1.02953 202.691 7.52833 206.022 16.5413 206.252L16.6119 205.482C17.0137 201.226 17.541 196.946 18.692 192.82C18.7539 192.599 19.036 192.673 19.0618 192.87C19.7029 197.755 19.498 202.677 19.2743 207.585C18.8782 216.276 18.3521 224.962 17.8846 233.65C17.6505 237.996 17.348 242.339 17.0748 246.682C16.8012 251.035 16.7127 255.492 16.0879 259.808C15.9487 260.77 14.8222 261.293 13.9691 261.192C13.0252 261.08 12.2991 260.248 12.2946 259.295C12.2832 256.78 12.5991 254.236 12.7746 251.727C12.9413 249.344 13.1203 246.962 13.3037 244.58C13.9738 235.887 14.7447 227.204 15.4577 218.515C15.7104 215.433 15.9834 212.354 16.2644 209.275C6.7165 208.967 -2.20343 205.429 -10.7128 201.296C-10.836 204.093 -11.1335 206.886 -11.4214 209.672C-12.2253 217.447 -12.9341 225.219 -13.4646 233.017C-13.7325 236.956 -13.9275 240.9 -14.0973 244.844C-14.1808 246.783 -14.2488 248.722 -14.301 250.661C-14.3185 251.308 -14.3342 251.954 -14.3482 252.601L-14.3772 254.082C-14.401 255.021 -14.4963 255.89 -15.2857 256.573C-16.0875 257.267 -17.1704 257.304 -17.964 256.573C-19.0262 255.595 -18.8384 254.261 -18.8069 252.947C-18.7807 251.839 -18.7492 250.73 -18.7127 249.622C-18.6394 247.406 -18.5458 245.19 -18.4319 242.975C-18.0334 235.232 -17.2373 227.52 -16.1968 219.839L-15.7906 216.874C-15.0321 211.362 -14.1993 205.725 -12.5037 200.415C-13.164 200.086 -13.8223 199.756 -14.478 199.423C-15.6413 198.834 -16.844 198.281 -17.9747 197.631C-18.8718 197.115 -19.6454 196.407 -19.8951 195.363C-20.1736 194.2 -19.7478 192.927 -19.4649 191.792L-19.4403 191.692C-19.1629 190.549 -18.8642 189.412 -18.549 188.279C-17.2708 183.684 -15.6903 179.179 -13.8406 174.784C-10.1371 165.985 -5.35681 157.626 0.482418 150.068C5.73854 143.265 11.9477 137.095 19.2251 132.467C22.7828 130.205 26.5742 128.348 30.5839 127.034C32.458 126.421 34.4972 125.887 36.4594 125.667C37.5179 125.548 38.5778 125.481 39.6413 125.434ZM58.6794 111.492C59.9563 110.12 62.4932 111.539 61.8801 113.356C60.438 117.629 58.1415 121.527 54.5576 124.335C51.1887 126.975 47.1715 128.689 42.8451 128.323C42.8117 128.32 42.7828 128.312 42.7572 128.3L43.1301 128.806C46.0571 132.767 49.145 136.673 52.8668 139.91C60.4498 146.507 70.7745 150.065 80.7442 147.534C88.5882 145.543 95.4987 139.337 97.5311 131.43C97.2398 131.56 96.8935 131.605 96.5134 131.522C94.8873 131.169 93.2774 129.458 92.2287 128.231C91.0942 126.904 90.2082 125.471 89.5587 123.852C88.3701 120.887 87.989 117.07 89.612 114.199C89.8122 113.845 90.2741 114.043 90.3134 114.389L90.3752 114.928C90.688 117.619 91.0778 120.223 92.3462 122.676C92.9669 123.877 93.711 125.048 94.6167 126.054C95.1013 126.592 95.6267 127.106 96.194 127.557C96.7468 127.996 97.4158 128.314 97.9112 128.818L98.002 128.915L98.0046 128.897C98.1298 127.832 98.8767 127.363 99.6074 127.392C100.315 127.42 101.145 127.732 101.467 127.881L101.497 127.895C106.431 130.264 110.975 133.353 115.251 136.779C124.094 143.864 130.719 153.126 133.929 164.034C135.505 169.387 136.409 174.903 137.363 180.393L137.951 183.757C138.842 188.826 139.837 193.994 141.848 198.709C142.368 199.929 141.967 201.072 140.691 201.552C139.099 202.151 137.5 202.731 135.899 203.304C136.686 206.677 137.165 210.168 137.754 213.559C139.006 220.765 140.54 227.926 141.855 235.124C142.528 238.804 143.134 242.496 143.806 246.176C144.13 247.949 144.467 249.719 144.796 251.49C144.973 252.445 145.133 253.404 145.302 254.36L145.331 254.519C145.428 255.024 145.549 255.546 145.41 256.051C145.252 256.627 144.803 257.033 144.402 257.446C144.071 257.786 143.594 257.789 143.19 257.603L143.057 257.541C142.334 257.203 141.768 256.866 141.512 256.051C141.349 255.534 141.291 254.953 141.185 254.421C140.981 253.401 140.788 252.38 140.606 251.356C140.242 249.307 139.886 247.257 139.539 245.205L139.215 243.284C138.101 236.663 137.044 230.001 136.509 223.31C136.272 220.341 136.021 217.375 135.767 214.409L135.577 212.184C135.336 209.367 135.041 206.48 135 203.626L134.043 203.966L129.371 205.618C128.213 206.027 126.738 206.866 125.492 206.713C124.882 206.639 124.417 206.446 124.057 206.097C124.488 212.17 125.07 218.232 125.846 224.264C126.552 229.751 127.335 235.232 128.259 240.688C128.717 243.389 129.187 246.088 129.699 248.78C129.954 250.126 130.218 251.47 130.489 252.813C130.625 253.483 130.786 254.154 130.892 254.829C131.012 255.603 130.799 256.078 130.367 256.715C130.013 257.238 129.303 257.506 128.728 257.145C127.966 256.667 127.569 256.253 127.344 255.382C127.141 254.591 127.017 253.765 126.859 252.963C126.568 251.484 126.287 250.004 126.016 248.521C125.448 245.42 124.925 242.311 124.457 239.194C122.811 228.21 121.766 217.134 121.238 206.041C120.977 200.567 120.897 195.089 120.943 189.61C120.967 186.802 121.059 183.985 121.257 181.184C121.458 178.348 121.877 175.569 122.25 172.761C122.263 172.662 122.403 172.656 122.409 172.761C122.585 175.909 122.863 179.054 122.998 182.211C123.128 185.224 123.185 188.241 123.288 191.254C123.423 195.215 123.611 199.179 123.86 203.139C124.31 202.647 124.989 202.363 125.668 202.474C126.651 202.267 127.71 201.751 128.648 201.437L132.183 200.256C134.042 199.635 135.9 199.018 137.766 198.42C136.098 192.808 134.956 187.112 133.98 181.334L133.545 178.735C132.684 173.619 131.756 168.501 130.196 163.548C128.557 158.34 126.103 153.498 122.848 149.113C119.639 144.791 115.736 140.986 111.717 137.427C108.276 134.38 104.595 131.629 101.085 128.666C101.122 128.862 101.13 129.079 101.098 129.316C100.351 134.779 97.5024 139.867 93.532 143.652C85.5556 151.254 73.7485 152.831 63.5396 149.266C53.6643 145.818 44.9333 137.651 41.8486 127.545C41.7958 127.372 42.0273 127.303 42.1203 127.43C42.2914 127.665 42.4634 127.899 42.6355 128.134C42.6239 128.041 42.6723 127.939 42.7872 127.895C46.3864 126.505 49.9207 124.533 52.6186 121.744C53.9335 120.384 55.0811 118.844 55.987 117.183C56.421 116.387 56.8108 115.563 57.1217 114.711L57.2008 114.491C57.5777 113.424 57.8926 112.337 58.6794 111.492Z" fill="#4F4F4F"/>
<path fill-rule="evenodd" clip-rule="evenodd" d="M109.944 62.3891C108.031 54.3254 103.851 46.8211 97.1584 40.7564C77.0186 20.8374 40.0335 31.6491 40.201 61.6655C39.4787 65.1713 39.1855 68.7761 39.4246 72.3515C39.5235 73.8771 40.1835 76.006 39.2968 77.3789C37.2967 79.9475 36.1343 81.8407 36.815 85.2574C37.3838 88.2406 39.4132 90.3541 42.1521 91.4777C43.7947 91.9492 45.3532 92.9764 45.9617 94.5421C49.6179 101.238 52.3265 106.808 58.0905 111.372C59.5779 112.547 74.8326 119.594 79.8589 119.594C94.574 119.594 113.12 114.261 113.428 97.8184C113.481 94.2069 112.848 90.5532 112.45 86.9702C111.483 78.7935 111.824 70.3206 109.944 62.3891Z" fill="#F9F9F9"/>
<path fill-rule="evenodd" clip-rule="evenodd" d="M109.613 58.3557C109.617 58.256 109.76 58.2336 109.788 58.3321C110.335 60.2733 110.645 62.2509 111.072 64.2224C111.484 66.1214 111.873 68.0259 112.197 69.9415C112.808 73.557 113.322 77.1818 113.801 80.8162L113.92 81.7249C114.752 88.1198 116.126 94.7817 114.925 101.214C113.899 106.703 110.462 111.126 106.032 114.369C101.837 117.44 96.751 119.411 91.7013 120.531C86.2814 121.734 79.8572 122.093 75.4474 118.117C73.6821 116.525 76.0886 113.366 78.0038 114.803C82.5008 118.175 88.2216 117.181 93.296 115.839L93.4495 115.798C97.9033 114.611 102.387 112.813 105.923 109.778C109.832 106.423 111.765 101.766 111.988 96.6594C112.113 93.7901 111.846 90.9241 111.557 88.0717L111.525 87.7548C111.194 84.4928 110.847 81.2323 110.526 77.969C110.234 74.9934 109.982 72.0004 109.848 69.0114L109.786 67.5039C109.656 64.4644 109.482 61.3806 109.613 58.3557ZM56.871 33.1011C64.1889 29.2898 72.599 27.9258 80.743 29.2048C88.5721 30.4345 95.7573 34.4759 101.128 40.2709C103.75 43.1003 106.078 46.373 107.565 49.9485C108.304 51.7246 108.882 53.5776 109.19 55.4805C109.349 56.4589 109.504 57.4725 109.534 58.4644C109.562 59.3827 109.292 60.244 109.324 61.1775C109.329 61.3235 109.105 61.3516 109.071 61.2117C108.817 60.1708 108.204 59.3838 107.819 58.3951C107.532 57.6568 107.206 56.9361 106.874 56.2176L106.589 55.6019C105.761 53.8124 104.772 52.0964 103.793 50.3866C101.822 46.9428 99.2929 43.8132 96.3318 41.1723C91.1327 36.5357 84.4627 33.5428 77.5013 33.0039C70.2757 32.4442 62.9468 34.1671 56.7761 37.9837C50.6058 41.8001 45.9402 47.7327 43.5178 54.5633C42.2956 58.0102 41.6206 61.6017 41.4637 65.2534C41.3842 67.1019 41.4584 68.9658 41.5879 70.8106L41.6522 71.6904C41.7276 72.7454 41.7793 73.7964 41.6217 74.8259C42.7346 74.4786 43.9013 74.3347 45.0721 74.5065C46.8119 74.7618 47.8513 75.4753 48.6318 77.0305C48.6725 77.1116 48.5908 77.1928 48.5099 77.1524C47.4981 76.6473 45.8612 76.9132 44.7896 77.178C43.6746 77.4536 42.6702 77.9329 41.7227 78.5809C39.9698 79.7791 38.5957 81.6358 38.2585 83.766C37.9325 85.8237 38.777 87.9072 40.1954 89.382C40.9256 90.1416 41.7983 90.7982 42.7754 91.2074C43.9613 91.7043 45.1351 91.6889 46.1842 92.5091C46.8328 93.0161 46.6761 93.8837 46.2362 94.4468C48.4496 96.8748 50.4125 99.531 52.6258 101.969C53.6517 103.098 54.6694 104.23 55.6524 105.396L56.0194 105.835C57.0009 107.02 58.5626 108.272 59.0111 109.762C59.2902 110.689 58.2977 111.902 57.2944 111.479C55.7554 110.831 54.6567 109.145 53.6168 107.851L53.549 107.767C52.4584 106.427 51.4902 105.011 50.605 103.528L50.3139 103.04C48.7132 100.347 47.1263 97.5535 46.1056 94.5949C46.0382 94.6643 45.9668 94.7275 45.8916 94.7809C44.4212 95.8269 42.2836 95.0227 40.8151 94.3434C39.4287 93.7024 38.1577 92.7378 37.1671 91.5752C35.0126 89.047 34.0194 85.7727 34.739 82.4915C35.3485 79.7121 37.2742 77.0085 39.7989 75.6026C38.6335 74.2605 38.151 72.4513 37.8299 70.6826C37.42 68.4247 37.3382 66.1108 37.4496 63.8213C37.6716 59.261 38.8448 54.7658 40.6583 50.5899C43.903 43.118 49.6393 36.868 56.871 33.1011ZM41.4693 82.9609C43.0052 82.6731 44.4365 82.6036 45.918 83.2537C47.5249 83.9594 48.6558 85.1243 49.707 86.4892C50.9032 88.0418 47.8376 89.7379 47.0646 87.6768L47.0419 87.6132C46.8349 87.003 46.4641 86.4131 45.9944 85.8702C45.8535 86.0862 45.6651 86.2764 45.4437 86.3852C45.1756 86.5171 44.7661 86.4258 44.7017 86.0832C44.6303 85.703 44.7093 85.2423 44.9286 84.9204L44.9586 84.8764C43.893 84.0185 42.6112 83.3919 41.4693 83.1903C41.3552 83.17 41.3565 82.9821 41.4693 82.9609Z" fill="#4F4F4F"/>
</g>
</g>
</g>
<defs>
<clipPath id="clip0_133_1689">
<rect width="150" height="150" fill="white"/>
</clipPath>
</defs>
</svg>
