<svg width="150" height="150" viewBox="0 0 150 150" fill="none" xmlns="http://www.w3.org/2000/svg">
<g clip-path="url(#clip0_133_1650)">
<mask id="mask0_133_1650" style="mask-type:alpha" maskUnits="userSpaceOnUse" x="0" y="0" width="150" height="150">
<path d="M75 150C116.421 150 150 116.421 150 75C150 33.5786 116.421 0 75 0C33.5786 0 0 33.5786 0 75C0 116.421 33.5786 150 75 150Z" fill="white"/>
</mask>
<g mask="url(#mask0_133_1650)">
<mask id="mask1_133_1650" style="mask-type:luminance" maskUnits="userSpaceOnUse" x="0" y="0" width="150" height="150">
<path d="M150 0H0V150H150V0Z" fill="white"/>
</mask>
<g mask="url(#mask1_133_1650)">
<path fill-rule="evenodd" clip-rule="evenodd" d="M139.581 228.881C138.729 224.07 137.948 219.246 137.239 214.412C136.902 212.117 136.574 209.819 136.278 207.518C136.071 205.906 135.756 204.062 136.853 202.868C138.396 201.188 139.797 199.749 139.986 197.342C140.164 195.077 139.398 192.608 138.92 190.409C137.916 185.798 136.666 181.244 135.285 176.734C133.882 172.151 132.343 167.611 130.783 163.08C129.324 158.844 127.921 154.57 126.021 150.505C122.414 142.792 116.313 137.08 108.772 133.266C106.897 132.317 103.072 128.931 101.112 128.173C99.3107 127.476 99.3171 129.511 97.5444 128.744C96.1273 128.131 94.8076 127.314 94.0141 125.945C93.1525 124.459 90.9921 122.38 90.663 120.65C89.966 116.983 90.7211 113.861 88.1048 111.101C85.7821 108.65 82.6601 106.971 79.4298 106.07C72.3237 104.087 62.8466 105.473 58.5592 112.079C56.5114 115.234 55.7959 119.047 53.0327 121.621C50.6198 123.869 51.1598 125.406 48.0347 126.565C47.8577 126.631 43.0602 125.601 42.8832 125.667C39.4644 124.935 36.1969 126.984 33.0604 128.173C28.3844 129.945 23.9326 132.251 19.7501 134.993C11.3165 140.521 4.09334 147.699 -1.86166 155.822C-7.86588 164.011 -12.5246 173.191 -15.8417 182.785C-16.6473 185.115 -17.3709 187.474 -18.0091 189.856C-18.3664 191.188 -18.748 192.571 -18.313 193.936C-17.9572 195.052 -17.1658 195.883 -16.2365 196.553C-14.9767 197.461 -12.4498 198.052 -12.499 199.878C-12.5366 201.267 -13.0075 202.728 -13.2373 204.1C-13.511 205.735 -13.7358 207.379 -13.9606 209.02C-14.9831 216.491 -15.779 224.004 -16.1309 231.539C-16.4774 238.958 -16.7649 246.528 -16.2505 253.945C-16.2165 254.434 -16.0707 254.883 -15.8356 255.262C-16.0551 255.346 -16.072 255.756 -15.7988 255.814C-15.6074 255.854 -15.4164 255.895 -15.225 255.935C-14.8274 256.236 -14.3316 256.421 -13.7609 256.439C-13.3741 256.451 -12.9875 256.469 -12.601 256.488C-8.52335 257.341 -4.44631 258.147 -0.31539 258.757C4.70602 259.498 9.74222 260.102 14.794 260.594C25.1746 261.603 35.4735 261.268 45.868 260.724C56.2462 260.181 66.6184 260.054 77.0075 260.324C87.4056 260.595 97.8 261.047 108.201 261.232C119.82 261.439 131.422 261.122 143.008 260.198C144.597 260.071 145.579 258.807 145.266 257.228C143.389 247.772 141.262 238.379 139.581 228.881Z" fill="#F9F9F9"/>
<path fill-rule="evenodd" clip-rule="evenodd" d="M39.6413 125.434C40.7158 125.388 41.8115 125.562 42.8834 125.667C42.9768 125.676 43.0123 125.82 42.9071 125.842C40.9886 126.243 39.0912 126.792 37.207 127.349L36.4003 127.588C34.2756 128.216 32.2132 128.865 30.1563 129.704C26.0568 131.375 22.1634 133.631 18.5801 136.223C4.78171 146.203 -5.20491 161.313 -11.507 176.958C-13.2185 181.206 -14.6686 185.56 -15.8432 189.988C-16.1289 191.065 -16.3976 192.147 -16.6524 193.232C-16.7272 193.55 -17.0532 194.364 -16.8744 194.69C-16.7164 194.977 -16.102 195.155 -15.8166 195.305L-14.853 195.805C-12.9734 196.774 -9.84247 198.367 -9.5285 198.522L-9.03882 198.763C-1.02953 202.691 7.52833 206.022 16.5413 206.252L16.6119 205.482C17.0137 201.226 17.541 196.946 18.692 192.82C18.7539 192.599 19.036 192.673 19.0618 192.87C19.7029 197.755 19.498 202.677 19.2743 207.585C18.8782 216.276 18.3521 224.962 17.8846 233.65C17.6505 237.996 17.348 242.339 17.0748 246.682C16.8012 251.035 16.7127 255.492 16.0879 259.808C15.9487 260.77 14.8222 261.293 13.9691 261.192C13.0252 261.08 12.2991 260.248 12.2946 259.295C12.2832 256.78 12.5991 254.236 12.7746 251.727C12.9413 249.344 13.1203 246.962 13.3037 244.58C13.9738 235.887 14.7447 227.204 15.4577 218.515C15.7104 215.433 15.9834 212.354 16.2644 209.275C6.7165 208.967 -2.20343 205.429 -10.7128 201.296C-10.836 204.093 -11.1335 206.886 -11.4214 209.672C-12.2253 217.447 -12.9341 225.219 -13.4646 233.017C-13.7325 236.956 -13.9275 240.9 -14.0973 244.844C-14.1808 246.783 -14.2488 248.722 -14.301 250.661C-14.3185 251.308 -14.3342 251.954 -14.3482 252.601L-14.3772 254.082C-14.401 255.021 -14.4963 255.89 -15.2857 256.573C-16.0875 257.267 -17.1704 257.304 -17.964 256.573C-19.0262 255.595 -18.8384 254.261 -18.8069 252.947C-18.7807 251.839 -18.7492 250.73 -18.7127 249.622C-18.6394 247.406 -18.5458 245.19 -18.4319 242.975C-18.0334 235.232 -17.2373 227.52 -16.1968 219.839L-15.7906 216.874C-15.0321 211.362 -14.1993 205.725 -12.5037 200.415C-13.164 200.086 -13.8223 199.756 -14.478 199.423C-15.6413 198.834 -16.844 198.281 -17.9747 197.631C-18.8718 197.115 -19.6454 196.407 -19.8951 195.363C-20.1736 194.2 -19.7478 192.927 -19.4649 191.792L-19.4403 191.692C-19.1629 190.549 -18.8642 189.412 -18.549 188.279C-17.2708 183.684 -15.6903 179.179 -13.8406 174.784C-10.1371 165.985 -5.35681 157.626 0.482418 150.068C5.73854 143.265 11.9477 137.095 19.2251 132.467C22.7828 130.205 26.5742 128.348 30.5839 127.034C32.458 126.421 34.4972 125.887 36.4594 125.667C37.5179 125.548 38.5778 125.481 39.6413 125.434ZM58.6794 111.492C59.9563 110.12 62.4932 111.539 61.8801 113.356C60.438 117.629 58.1415 121.527 54.5576 124.335C51.1887 126.975 47.1715 128.689 42.8451 128.323C42.8117 128.32 42.7828 128.312 42.7572 128.3L43.1301 128.806C46.0571 132.767 49.145 136.673 52.8668 139.91C60.4498 146.507 70.7745 150.065 80.7442 147.534C88.5882 145.543 95.4987 139.337 97.5311 131.43C97.2398 131.56 96.8935 131.605 96.5134 131.522C94.8873 131.169 93.2774 129.458 92.2287 128.231C91.0942 126.904 90.2082 125.471 89.5587 123.852C88.3701 120.887 87.989 117.07 89.612 114.199C89.8122 113.845 90.2741 114.043 90.3134 114.389L90.3752 114.928C90.688 117.619 91.0778 120.223 92.3462 122.676C92.9669 123.877 93.711 125.048 94.6167 126.054C95.1013 126.592 95.6267 127.106 96.194 127.557C96.7468 127.996 97.4158 128.314 97.9112 128.818L98.002 128.915L98.0046 128.897C98.1298 127.832 98.8767 127.363 99.6074 127.392C100.315 127.42 101.145 127.732 101.467 127.881L101.497 127.895C106.431 130.264 110.975 133.353 115.251 136.779C124.094 143.864 130.719 153.126 133.929 164.034C135.505 169.387 136.409 174.903 137.363 180.393L137.951 183.757C138.842 188.826 139.837 193.994 141.848 198.709C142.368 199.929 141.967 201.072 140.691 201.552C139.099 202.151 137.5 202.731 135.899 203.304C136.686 206.677 137.165 210.168 137.754 213.559C139.006 220.765 140.54 227.926 141.855 235.124C142.528 238.804 143.134 242.496 143.806 246.176C144.13 247.949 144.467 249.719 144.796 251.49C144.973 252.445 145.133 253.404 145.302 254.36L145.331 254.519C145.428 255.024 145.549 255.546 145.41 256.051C145.252 256.627 144.803 257.033 144.402 257.446C144.071 257.786 143.594 257.789 143.19 257.603L143.057 257.541C142.334 257.203 141.768 256.866 141.512 256.051C141.349 255.534 141.291 254.953 141.185 254.421C140.981 253.401 140.788 252.38 140.606 251.356C140.242 249.307 139.886 247.257 139.539 245.205L139.215 243.284C138.101 236.663 137.044 230.001 136.509 223.31C136.272 220.341 136.021 217.375 135.767 214.409L135.577 212.184C135.336 209.367 135.041 206.48 135 203.626L134.043 203.966L129.371 205.618C128.213 206.027 126.738 206.866 125.492 206.713C124.882 206.639 124.417 206.446 124.057 206.097C124.488 212.17 125.07 218.232 125.846 224.264C126.552 229.751 127.335 235.232 128.259 240.688C128.717 243.389 129.187 246.088 129.699 248.78C129.954 250.126 130.218 251.47 130.489 252.813C130.625 253.483 130.786 254.154 130.892 254.829C131.012 255.603 130.799 256.078 130.367 256.715C130.013 257.238 129.303 257.506 128.728 257.145C127.966 256.667 127.569 256.253 127.344 255.382C127.141 254.591 127.017 253.765 126.859 252.963C126.568 251.484 126.287 250.004 126.016 248.521C125.448 245.42 124.925 242.311 124.457 239.194C122.811 228.21 121.766 217.134 121.238 206.041C120.977 200.567 120.897 195.089 120.943 189.61C120.967 186.802 121.059 183.985 121.257 181.184C121.458 178.348 121.877 175.569 122.25 172.761C122.263 172.662 122.403 172.656 122.409 172.761C122.585 175.909 122.863 179.054 122.998 182.211C123.128 185.224 123.185 188.241 123.288 191.254C123.423 195.215 123.611 199.179 123.86 203.139C124.31 202.647 124.989 202.363 125.668 202.474C126.651 202.267 127.71 201.751 128.648 201.437L132.183 200.256C134.042 199.635 135.9 199.018 137.766 198.42C136.098 192.808 134.956 187.112 133.98 181.334L133.545 178.735C132.684 173.619 131.756 168.501 130.196 163.548C128.557 158.34 126.103 153.498 122.848 149.113C119.639 144.791 115.736 140.986 111.717 137.427C108.276 134.38 104.595 131.629 101.085 128.666C101.122 128.862 101.13 129.079 101.098 129.316C100.351 134.779 97.5024 139.867 93.532 143.652C85.5556 151.254 73.7485 152.831 63.5396 149.266C53.6643 145.818 44.9333 137.651 41.8486 127.545C41.7958 127.372 42.0273 127.303 42.1203 127.43C42.2914 127.665 42.4634 127.899 42.6355 128.134C42.6239 128.041 42.6723 127.939 42.7872 127.895C46.3864 126.505 49.9207 124.533 52.6186 121.744C53.9335 120.384 55.0811 118.844 55.987 117.183C56.421 116.387 56.8108 115.563 57.1217 114.711L57.2008 114.491C57.5777 113.424 57.8926 112.337 58.6794 111.492Z" fill="#4F4F4F"/>
<path fill-rule="evenodd" clip-rule="evenodd" d="M106.426 51.6104C105.61 46.6734 108.287 45.6491 106.426 40.9561C102.289 32.2603 91.0142 32.635 82.741 31.9664C73.5132 31.6126 64.1735 32.8313 55.6666 36.5312C53.6346 37.4149 51.6802 38.4542 49.8067 39.6349C48.1867 40.656 48.4094 42.5975 49.4308 43.6566C42.065 54.0913 46.2779 68.0979 40.4006 79.0817C39.3149 81.0451 37.8789 82.8056 36.9352 84.8485C35.5007 87.9539 35.4088 92.4033 38.6619 94.4656C43.2437 96.9258 45.8004 92.0548 48.0517 99.1158C59.2949 123.736 81.9004 125.123 103.36 112.287C105.217 111.253 107.112 110.086 108.514 108.463C111.696 104.88 111.321 99.8418 111.391 95.3678C111.431 92.746 111.437 90.1237 111.412 87.5014C111.312 76.8794 107.792 62.1449 106.426 51.6104Z" fill="#F9F9F9"/>
<path fill-rule="evenodd" clip-rule="evenodd" d="M60.718 22.0818C73.675 16.202 88.371 13.9723 102.505 15.4348C109.481 16.1556 116.366 17.7019 122.917 20.2137L123.491 20.4357C125.109 21.0584 126.852 21.6765 128.081 22.9441C129.512 24.4172 129.913 26.6448 128.89 28.4646C128.096 29.8785 126.668 30.8928 125.144 31.434C125.681 31.8736 126.19 32.364 126.668 32.9114C127.473 33.8286 127.534 35.1367 126.668 36.0415C124.999 37.7851 122.833 39.0467 120.501 39.6513C120.763 40.9173 120.621 42.3186 120.059 43.5803C118.447 47.2022 113.904 47.6339 110.409 47.4188L110.303 47.4121L110.109 49.6376C110.005 50.8233 109.295 51.7427 108.091 51.9244C108.049 51.9308 108.006 51.935 107.964 51.939C109.87 58.8335 111.021 65.941 112.084 73.0066C112.639 76.6949 113.136 80.3917 113.612 84.091L113.77 85.3241C114.277 89.3123 114.911 93.3407 115.13 97.3584C115.327 101.004 114.632 104.485 112.386 107.427C110.371 110.065 107.622 112.041 104.666 113.508C97.9879 116.824 90.9591 119.292 83.5731 120.438L83.0806 120.514C80.2296 120.949 77.2921 121.316 74.4717 120.527C71.9938 119.833 69.395 118.045 69.9548 115.173C70.1429 114.203 71.4992 114.161 71.964 114.911L72.0713 115.083C72.6286 115.968 73.2394 116.79 74.2121 117.246C75.3506 117.783 76.671 117.933 77.9154 117.948C81.3908 117.988 85.0098 117.122 88.3562 116.253C94.6055 114.63 101.024 111.984 106.143 107.975C108.321 106.271 110.071 104.141 110.687 101.399C111.45 98.0199 110.749 94.3255 110.402 90.9291C109.689 83.9209 108.841 76.9257 107.945 69.9382L107.766 68.5408C107.012 62.6991 106.219 56.8552 105.843 50.9797C105.687 50.7662 105.581 50.5232 105.539 50.2569L105.48 49.8744C105.429 49.5468 105.421 49.2466 105.456 48.9698C105.459 47.9088 105.488 46.8542 105.549 45.793C105.56 45.603 105.568 45.4127 105.575 45.2246C104.472 45.4677 103.361 45.6643 102.245 45.8312C94.4027 47.0127 86.4379 47.3086 78.5323 46.721C74.5879 46.427 70.6734 45.9221 66.771 45.2902C64.7849 44.9689 62.8055 44.6138 60.8323 44.2165C59.4062 43.9312 58.0098 43.5444 56.607 43.1809C55.1598 45.288 54.3781 47.8813 54.5302 50.4281C54.7013 53.3342 56.6365 55.9697 56.0936 58.9392C55.584 61.7182 53.204 62.5799 50.8543 63.2682L49.8549 63.557C49.0861 63.7816 48.5278 63.9982 48.3886 64.9225C48.1499 66.5097 48.4436 68.2956 48.5048 69.8913C48.5788 71.7787 48.6758 73.6661 48.7203 75.5534C48.7436 76.5298 48.7814 77.5105 48.7795 78.487C48.7774 79.1802 48.6739 79.6536 48.4055 80.1015C48.6126 80.3616 48.7983 80.6427 48.9633 80.9407C49.0161 81.0379 48.8851 81.1413 48.8072 81.0612C48.5978 80.8435 48.3758 80.647 48.1415 80.4713C48.0231 80.6174 47.8858 80.7653 47.7251 80.9238L47.7126 80.9069C47.2098 81.4078 46.4112 81.4564 45.7877 80.9238L45.6241 80.782C45.1678 80.3819 44.8543 80.0486 44.7274 79.3873C44.721 79.3535 44.7145 79.3197 44.7105 79.2859C43.5506 79.2457 42.3717 79.5202 41.3281 80.0974C39.6739 81.0126 38.5098 82.3166 37.8212 83.9271C38.0957 84.2484 38.4168 84.5358 38.7908 84.7767C38.8436 84.8127 38.7971 84.8909 38.7401 84.8634C38.3577 84.6837 38.0154 84.4618 37.7091 84.2019C37.4619 84.8359 37.2886 85.5165 37.183 86.2372C36.8112 88.7818 37.4746 91.8908 39.7731 93.3406C40.7682 93.9684 41.9048 94.3086 43.0837 94.3129C43.6581 94.3148 44.1548 94.2178 44.7126 94.0804C45.0908 93.9874 45.4668 93.8521 45.8619 93.8521C46.1999 93.8521 46.5126 93.9367 46.802 94.1057L46.7217 94.1128C46.5267 94.1311 46.5642 94.1393 46.8358 94.1393C47.6809 94.1755 48.1645 95.0336 47.776 95.7796L47.725 95.8949C47.7143 95.9182 47.7052 95.9374 47.698 95.9527L47.6673 96.1506C47.6642 96.1694 47.661 96.1888 47.6577 96.2087L47.6459 96.2487C47.6438 96.2552 47.6415 96.2615 47.6386 96.2679L48.906 98.2014C50.46 100.567 52.0486 102.923 53.8562 105.083C55.1239 106.599 56.4675 108.084 57.8872 109.46C59.1633 110.697 60.6929 111.293 62.1379 112.265C62.9093 112.781 63.1351 113.861 62.4339 114.556C60.376 116.6 57.4626 114.977 55.7746 113.315C54.1774 111.741 52.7978 109.847 51.6084 107.951C49.4978 104.58 47.8182 100.996 47.083 97.1048C46.7767 97.3859 46.3858 97.5613 45.9908 97.6987C45.1985 97.9734 44.326 98.0876 43.4893 98.1172C41.8858 98.17 40.2802 97.7811 38.8372 97.0921C32.9661 94.2917 32.1041 85.9053 35.6936 80.9597C35.2096 79.5556 34.9393 78.0321 34.6456 76.7329L34.512 76.1521C33.0274 69.6652 32.0311 62.8355 34.6626 56.479C35.0006 55.659 35.3809 54.8601 35.8309 54.095C36.1922 53.48 36.8133 52.8248 36.9844 52.1252C37.3647 50.5887 35.0175 48.974 34.333 47.7545C33.5281 46.3237 33.414 44.635 34.5105 43.3265C34.6499 43.1619 34.8018 43.0095 34.9668 42.8765C33.9274 40.9913 33.8788 38.6199 35.2478 36.7601C36.1478 35.5342 37.521 34.6762 39.021 34.4162C39.9379 34.2577 41.0408 34.3169 42.0485 34.6001C47.5666 29.4748 53.8626 25.1929 60.718 22.0818ZM39.528 86.2118C41.0007 84.912 42.6275 84.2315 44.6345 84.4027C46.6521 84.5758 49.0817 85.4108 50.2667 87.1418C51.2028 88.5092 49.2951 90.5149 47.9218 89.4878C46.6711 88.5515 45.8364 87.4947 44.2838 86.9917C42.8892 86.5415 41.1632 86.252 39.7033 86.5098C39.5428 86.5373 39.3824 86.3386 39.528 86.2118Z" fill="#4F4F4F"/>
</g>
</g>
</g>
<defs>
<clipPath id="clip0_133_1650">
<rect width="150" height="150" fill="white"/>
</clipPath>
</defs>
</svg>
