<svg width="150" height="150" viewBox="0 0 150 150" fill="none" xmlns="http://www.w3.org/2000/svg">
<g clip-path="url(#clip0_133_1598)">
<mask id="mask0_133_1598" style="mask-type:alpha" maskUnits="userSpaceOnUse" x="0" y="0" width="150" height="150">
<path d="M75 150C116.421 150 150 116.421 150 75C150 33.5786 116.421 0 75 0C33.5786 0 0 33.5786 0 75C0 116.421 33.5786 150 75 150Z" fill="white"/>
</mask>
<g mask="url(#mask0_133_1598)">
<mask id="mask1_133_1598" style="mask-type:luminance" maskUnits="userSpaceOnUse" x="0" y="0" width="150" height="150">
<path d="M150 0H0V150H150V0Z" fill="white"/>
</mask>
<g mask="url(#mask1_133_1598)">
<path fill-rule="evenodd" clip-rule="evenodd" d="M139.581 228.882C138.729 224.07 137.948 219.246 137.239 214.412C136.902 212.117 136.574 209.819 136.278 207.518C136.071 205.906 135.756 204.062 136.853 202.868C138.396 201.188 139.797 199.749 139.986 197.342C140.164 195.077 139.398 192.608 138.92 190.409C137.916 185.798 136.666 181.244 135.285 176.734C133.882 172.151 132.343 167.611 130.783 163.08C129.324 158.844 127.921 154.57 126.021 150.505C122.414 142.792 116.313 137.08 108.772 133.266C106.897 132.317 103.072 128.931 101.112 128.173C99.311 127.476 99.3174 129.511 97.5447 128.744C96.1275 128.132 94.8079 127.314 94.0144 125.945C93.1528 124.459 90.9923 122.38 90.6633 120.65C89.9663 116.983 90.7213 113.862 88.105 111.101C85.7823 108.65 82.6604 106.971 79.4301 106.07C72.324 104.087 62.8469 105.473 58.5594 112.079C56.5116 115.234 55.7961 119.047 53.0329 121.621C50.62 123.869 51.16 125.406 48.0349 126.565C47.8579 126.631 43.0605 125.601 42.8835 125.667C39.4647 124.935 36.1972 126.984 33.0607 128.173C28.3847 129.945 23.9329 132.251 19.7504 134.993C11.3168 140.521 4.09358 147.699 -1.86142 155.822C-7.86564 164.011 -12.5243 173.191 -15.8414 182.785C-16.647 185.115 -17.3706 187.474 -18.0088 189.856C-18.3661 191.189 -18.7478 192.571 -18.3128 193.936C-17.957 195.052 -17.1656 195.884 -16.2363 196.553C-14.9765 197.461 -12.4495 198.052 -12.4987 199.878C-12.5363 201.267 -13.0073 202.728 -13.2371 204.101C-13.5107 205.735 -13.7355 207.379 -13.9603 209.02C-14.9828 216.491 -15.7787 224.005 -16.1306 231.539C-16.4771 238.958 -16.7646 246.528 -16.2502 253.945C-16.2162 254.434 -16.0704 254.883 -15.8353 255.262C-16.0548 255.346 -16.0717 255.756 -15.7985 255.814C-15.6071 255.854 -15.4161 255.895 -15.2247 255.935C-14.8271 256.236 -14.3313 256.421 -13.7606 256.439C-13.3738 256.451 -12.9872 256.469 -12.6008 256.488C-8.52311 257.341 -4.44607 258.147 -0.315145 258.757C4.70626 259.498 9.74246 260.102 14.7943 260.594C25.1749 261.603 35.4738 261.269 45.8682 260.724C56.2465 260.181 66.6187 260.054 77.0078 260.324C87.4059 260.595 97.8003 261.047 108.201 261.233C119.82 261.439 131.422 261.122 143.008 260.198C144.597 260.071 145.579 258.807 145.266 257.228C143.389 247.772 141.262 238.379 139.581 228.882Z" fill="#F9F9F9"/>
<path fill-rule="evenodd" clip-rule="evenodd" d="M39.6413 125.434C40.7158 125.388 41.8115 125.562 42.8834 125.667C42.9768 125.676 43.0123 125.82 42.9071 125.842C40.9886 126.243 39.0912 126.792 37.207 127.349L36.4003 127.588C34.2756 128.216 32.2132 128.865 30.1563 129.704C26.0568 131.375 22.1634 133.631 18.5801 136.223C4.78171 146.203 -5.20491 161.313 -11.507 176.957C-13.2185 181.206 -14.6686 185.56 -15.8432 189.988C-16.1289 191.065 -16.3976 192.147 -16.6524 193.231C-16.7272 193.55 -17.0532 194.364 -16.8744 194.69C-16.7164 194.977 -16.102 195.155 -15.8166 195.305L-14.853 195.804C-12.9734 196.774 -9.84247 198.367 -9.5285 198.522L-9.03882 198.763C-1.02953 202.691 7.52833 206.022 16.5413 206.252L16.6119 205.482C17.0137 201.226 17.541 196.946 18.692 192.82C18.7539 192.598 19.036 192.673 19.0618 192.87C19.7029 197.755 19.498 202.677 19.2743 207.584C18.8782 216.276 18.3521 224.962 17.8846 233.65C17.6505 237.996 17.348 242.339 17.0748 246.682C16.8012 251.035 16.7127 255.492 16.0879 259.808C15.9487 260.77 14.8222 261.293 13.9691 261.192C13.0252 261.08 12.2991 260.248 12.2946 259.294C12.2832 256.78 12.5991 254.236 12.7746 251.727C12.9413 249.344 13.1203 246.962 13.3037 244.58C13.9738 235.887 14.7447 227.204 15.4577 218.515C15.7104 215.433 15.9834 212.354 16.2644 209.275C6.7165 208.967 -2.20343 205.429 -10.7128 201.296C-10.836 204.093 -11.1335 206.886 -11.4214 209.672C-12.2253 217.447 -12.9341 225.218 -13.4646 233.017C-13.7325 236.956 -13.9275 240.9 -14.0973 244.844C-14.1808 246.783 -14.2488 248.722 -14.301 250.661C-14.3185 251.308 -14.3342 251.954 -14.3482 252.601L-14.3772 254.082C-14.401 255.021 -14.4963 255.89 -15.2857 256.573C-16.0875 257.267 -17.1704 257.304 -17.964 256.573C-19.0262 255.595 -18.8384 254.261 -18.8069 252.947C-18.7807 251.839 -18.7492 250.73 -18.7127 249.622C-18.6394 247.406 -18.5458 245.19 -18.4319 242.975C-18.0334 235.232 -17.2373 227.52 -16.1968 219.839L-15.7906 216.874C-15.0321 211.362 -14.1993 205.725 -12.5037 200.415C-13.164 200.086 -13.8223 199.756 -14.478 199.423C-15.6413 198.834 -16.844 198.281 -17.9747 197.631C-18.8718 197.115 -19.6454 196.407 -19.8951 195.363C-20.1736 194.2 -19.7478 192.927 -19.4649 191.792L-19.4403 191.692C-19.1629 190.549 -18.8642 189.412 -18.549 188.278C-17.2708 183.684 -15.6903 179.179 -13.8406 174.784C-10.1371 165.985 -5.35681 157.626 0.482418 150.068C5.73854 143.264 11.9477 137.095 19.2251 132.467C22.7828 130.205 26.5742 128.348 30.5839 127.034C32.458 126.42 34.4972 125.887 36.4594 125.667C37.5179 125.548 38.5778 125.481 39.6413 125.434ZM58.6794 111.492C59.9563 110.12 62.4932 111.539 61.8801 113.356C60.438 117.629 58.1415 121.527 54.5576 124.335C51.1887 126.975 47.1715 128.689 42.8451 128.323C42.8117 128.32 42.7828 128.312 42.7572 128.3L43.1301 128.806C46.0571 132.766 49.145 136.673 52.8668 139.91C60.4498 146.507 70.7745 150.064 80.7442 147.534C88.5882 145.542 95.4987 139.337 97.5311 131.43C97.2398 131.56 96.8935 131.605 96.5134 131.522C94.8873 131.169 93.2774 129.458 92.2287 128.231C91.0942 126.904 90.2082 125.471 89.5587 123.852C88.3701 120.887 87.989 117.07 89.612 114.199C89.8122 113.845 90.2741 114.043 90.3134 114.389L90.3752 114.928C90.688 117.619 91.0778 120.223 92.3462 122.676C92.9669 123.877 93.711 125.048 94.6167 126.054C95.1013 126.592 95.6267 127.106 96.194 127.557C96.7468 127.996 97.4158 128.314 97.9112 128.818L98.002 128.915L98.0046 128.897C98.1298 127.832 98.8767 127.363 99.6074 127.392C100.315 127.42 101.145 127.732 101.467 127.881L101.497 127.895C106.431 130.264 110.975 133.353 115.251 136.779C124.094 143.864 130.719 153.126 133.929 164.034C135.505 169.387 136.409 174.903 137.363 180.393L137.951 183.757C138.842 188.826 139.837 193.994 141.848 198.709C142.368 199.929 141.967 201.072 140.691 201.552C139.099 202.151 137.5 202.731 135.899 203.304C136.686 206.677 137.165 210.168 137.754 213.559C139.006 220.765 140.54 227.926 141.855 235.123C142.528 238.803 143.134 242.496 143.806 246.176C144.13 247.949 144.467 249.718 144.796 251.49C144.973 252.445 145.133 253.404 145.302 254.36L145.331 254.519C145.428 255.024 145.549 255.546 145.41 256.051C145.252 256.626 144.803 257.033 144.402 257.446C144.071 257.786 143.594 257.788 143.19 257.603L143.057 257.541C142.334 257.203 141.768 256.866 141.512 256.051C141.349 255.534 141.291 254.953 141.185 254.421C140.981 253.401 140.788 252.38 140.606 251.356C140.242 249.307 139.886 247.257 139.539 245.205L139.215 243.284C138.101 236.663 137.044 230.001 136.509 223.31C136.272 220.341 136.021 217.375 135.767 214.409L135.577 212.184C135.336 209.367 135.041 206.48 135 203.626L134.043 203.966L129.371 205.617C128.213 206.027 126.738 206.866 125.492 206.713C124.882 206.639 124.417 206.446 124.057 206.097C124.488 212.17 125.07 218.232 125.846 224.263C126.552 229.751 127.335 235.232 128.259 240.687C128.717 243.389 129.187 246.088 129.699 248.78C129.954 250.126 130.218 251.47 130.489 252.813C130.625 253.483 130.786 254.153 130.892 254.829C131.012 255.602 130.799 256.078 130.367 256.715C130.013 257.237 129.303 257.506 128.728 257.145C127.966 256.667 127.569 256.253 127.344 255.382C127.141 254.591 127.017 253.765 126.859 252.963C126.568 251.484 126.287 250.004 126.016 248.521C125.448 245.42 124.925 242.311 124.457 239.193C122.811 228.21 121.766 217.134 121.238 206.041C120.977 200.567 120.897 195.089 120.943 189.61C120.967 186.802 121.059 183.985 121.257 181.184C121.458 178.348 121.877 175.569 122.25 172.761C122.263 172.662 122.403 172.656 122.409 172.761C122.585 175.909 122.863 179.054 122.998 182.211C123.128 185.224 123.185 188.241 123.288 191.254C123.423 195.215 123.611 199.179 123.86 203.139C124.31 202.647 124.989 202.363 125.668 202.474C126.651 202.267 127.71 201.751 128.648 201.437L132.183 200.256C134.042 199.635 135.9 199.018 137.766 198.42C136.098 192.808 134.956 187.112 133.98 181.334L133.545 178.735C132.684 173.619 131.756 168.501 130.196 163.548C128.557 158.339 126.103 153.497 122.848 149.113C119.639 144.791 115.736 140.986 111.717 137.427C108.276 134.38 104.595 131.629 101.085 128.666C101.122 128.862 101.13 129.078 101.098 129.316C100.351 134.779 97.5024 139.867 93.532 143.651C85.5556 151.254 73.7485 152.831 63.5396 149.266C53.6643 145.818 44.9333 137.651 41.8486 127.545C41.7958 127.372 42.0273 127.303 42.1203 127.43C42.2914 127.665 42.4634 127.899 42.6355 128.134C42.6239 128.041 42.6723 127.939 42.7872 127.895C46.3864 126.505 49.9207 124.533 52.6186 121.744C53.9335 120.384 55.0811 118.844 55.987 117.183C56.421 116.387 56.8108 115.563 57.1217 114.711L57.2008 114.491C57.5777 113.424 57.8926 112.337 58.6794 111.492Z" fill="#4F4F4F"/>
<path fill-rule="evenodd" clip-rule="evenodd" d="M85.7201 122.676C81.0308 122.704 77.0454 121.373 74.0044 119.171C70.2096 117.817 65.6323 115.729 62.852 113.537C61.7676 113.814 60.47 112.662 59.6401 112.054C54.4799 108.199 50.4295 102.556 49.2293 96.9044C47.3765 99.244 44.7399 99.3413 42.2142 98.1784C36.9198 95.1747 37.1177 88.85 39.0238 84.1247C35.0167 75.1302 32.2396 51.3859 38.3564 41.803C39.6075 40.3692 41.4437 39.5116 42.7656 38.0412C43.9419 36.7571 45.0608 35.4435 46.4294 34.4273C50.6053 31.2478 57.7977 29.5549 62.3011 28.7587C81.1001 24.6928 95.544 32.0008 112.573 38.1653C111.592 40.6169 110.237 42.8528 108.683 44.9376C112.911 46.5162 110.969 50.0654 107.689 51.8646L105.737 50.9152C108.78 61.8095 115.785 88.9008 112.763 97.6006C110.353 111.173 99.7753 122.775 85.7201 122.676Z" fill="#F9F9F9"/>
<path fill-rule="evenodd" clip-rule="evenodd" d="M88.4362 123.845C82.3475 124.47 75.1141 123.03 71.055 118.082C70.9336 117.934 70.8805 117.767 70.8773 117.605C70.8738 117.425 70.9342 117.251 71.0386 117.115C71.1483 116.973 71.3045 116.874 71.4836 116.842C71.6343 116.815 71.8062 116.832 71.9834 116.932L72.3566 117.139C75.1287 118.671 78.0077 119.977 81.1493 120.536C84.384 121.112 87.6777 121.048 90.8836 120.317C96.7232 118.986 101.449 115.59 104.928 111.113C108.81 106.117 111.141 99.7747 111.735 93.4321C112.455 85.7455 110.785 78.1058 109.057 70.6633C107.241 62.8432 105.256 55.0629 102.951 47.3729C102.881 47.1414 102.863 46.9247 102.883 46.7252C102.203 46.4586 101.479 46.5326 100.759 46.7759C99.4425 47.2205 98.1313 48.2229 97.0379 49.0504C96.6418 49.3501 96.2734 49.6286 95.9423 49.8553C94.5865 50.7834 93.1042 51.4513 91.4469 51.5563C89.7231 51.6653 88.0332 51.1294 86.4677 50.4587C85.6723 50.1179 84.8898 49.7644 84.1103 49.4124C81.891 48.4099 79.6978 47.4173 77.3011 46.7722C74.0897 45.9076 70.7741 45.4818 67.4482 45.5123C61.5125 45.5666 55.5587 47.0951 51.9207 52.1171C50.4471 54.1515 49.4864 56.4897 50.2356 59.0005C50.6433 60.3663 51.4125 61.6062 52.2521 62.7466L52.5402 63.1349C53.0007 63.7609 53.4007 64.3844 53.5214 65.0482C53.6224 65.6042 53.5436 66.1925 53.1467 66.8372C52.8969 67.2431 52.5789 67.6071 52.2592 67.9699C52.0286 68.2315 51.7974 68.4927 51.5984 68.774C51.1974 69.341 50.8424 69.9516 50.5639 70.5885C50.0187 71.8353 49.7874 73.1764 49.739 74.529C49.6805 76.1608 49.9098 77.7571 50.1373 79.3557C50.2986 80.4893 50.4595 81.6239 50.5245 82.7723C50.5359 82.9727 50.4746 83.122 50.3888 83.2325C50.2839 83.3677 50.1307 83.453 49.9564 83.4766C49.9034 83.4837 49.8486 83.4849 49.7936 83.48C49.8206 83.5905 49.8445 83.7014 49.8652 83.8128C49.755 83.6711 49.6378 83.5336 49.5141 83.4006C49.5062 83.3967 49.4983 83.3925 49.4906 83.3883C49.363 83.3182 49.2549 83.2113 49.1868 83.0738C49.0116 82.9109 48.826 82.7563 48.6314 82.6111C47.6186 81.8551 46.4359 81.407 45.2495 81.3921C44.1058 81.3778 42.9593 81.7674 42.0777 82.5902C40.3256 84.2255 39.8124 86.8949 39.7941 89.187C39.7755 91.5267 40.3168 94.3346 42.3559 95.7872C43.1739 96.3699 44.1729 96.72 45.1793 96.7301C46.0136 96.7385 46.8119 96.4432 47.5979 96.1619C47.8403 96.0752 48.0815 95.9889 48.3221 95.9105C48.5956 95.8215 48.8447 95.8272 49.0619 95.8923C49.3067 95.9656 49.5145 96.1171 49.6697 96.3191C49.8243 96.5203 49.9257 96.7723 49.9571 97.0361C49.9875 97.2916 49.9525 97.5568 49.8444 97.7959C49.8172 97.8562 49.7886 97.9146 49.7588 97.9717L50.2073 98.7095C51.9246 101.527 53.672 104.293 55.9633 106.715C57.2785 108.105 58.6726 109.417 60.2018 110.565L60.4224 110.729C60.5543 110.826 60.7007 110.945 60.8568 111.073C61.3028 111.438 61.8374 111.928 62.3365 111.947C62.4846 111.953 62.6139 111.934 62.7315 111.919C63.0157 111.881 63.2541 111.87 63.4884 111.966C63.6768 112.043 63.8724 112.186 64.0732 112.483C64.209 112.684 64.2788 112.936 64.2788 113.191C64.2788 113.448 64.2082 113.704 64.0826 113.907C63.8229 114.327 63.5085 114.587 63.1675 114.735C62.7874 114.9 62.3672 114.925 61.9305 114.844C60.8546 114.643 59.6636 113.751 58.9058 113.169L58.7592 113.057C57.0798 111.776 55.4883 110.358 54.0892 108.772C51.7065 106.072 49.5666 102.89 48.4674 99.4128C47.6927 99.922 46.7355 100.164 45.7348 100.202C44.2769 100.257 42.7337 99.8819 41.5966 99.3424C39.0906 98.1536 37.5685 95.905 36.8552 93.3192C36.0268 90.3163 36.296 86.8639 37.3447 84.1664C37.3751 84.088 37.4069 84.0098 37.4395 83.9305C34.2109 75.7476 33.2182 66.6611 33.4947 57.9285C33.6241 53.8409 33.9023 49.5523 34.8663 45.5657C35.2983 43.7789 36.049 42.0773 37.2476 40.6706C37.931 39.8685 38.7695 39.244 39.6118 38.6212C40.3414 38.0818 41.0737 37.5436 41.69 36.8701L41.9814 36.5503C42.0445 36.4808 42.1075 36.4113 42.1704 36.342C43.2346 35.1686 44.2706 34.0301 45.562 33.0678C47.0596 31.9521 48.7123 31.0788 50.4296 30.3535C54.1291 28.7916 58.1108 27.8551 62.0497 27.1305C70.5714 25.5634 79.3192 25.486 87.7364 27.689C91.6499 28.7131 95.4479 30.1148 99.2394 31.5149C99.5914 31.6449 99.9434 31.7749 100.296 31.9046C103.242 32.9899 106.19 34.0706 109.138 35.1513C110.508 35.6535 111.878 36.1558 113.248 36.6585C113.546 36.7676 113.837 37.0027 114.002 37.2947C114.164 37.5796 114.212 37.9119 114.082 38.2428C113.241 40.3734 112.18 42.3724 110.889 44.2391C111.338 44.5444 111.72 44.9504 112.009 45.4256C112.374 46.0266 112.59 46.7381 112.605 47.4929C112.654 50.0209 110.355 51.7346 108.447 52.974C108.269 53.0897 108.093 53.1579 107.923 53.1892C109.771 60.2604 111.541 67.3556 113.045 74.5069L113.148 75.0026C114.697 82.487 115.696 90.1248 114.232 97.7085C112.97 104.239 110.04 110.542 105.461 115.407C100.973 120.174 94.9514 123.176 88.4362 123.845ZM48.344 80.7907C47.5468 78.2597 47.1243 75.5059 47.4293 72.9402C47.6213 71.3274 48.106 69.7748 48.8952 68.3533C49.3472 67.5392 49.8981 66.7855 50.4993 66.0757L50.7067 65.8372C50.8117 65.7155 50.9162 65.6036 50.9485 65.4633C50.9674 65.3817 50.9482 65.2926 50.8987 65.186C50.7889 64.9501 50.5849 64.7227 50.394 64.5007C50.2726 64.3597 50.1541 64.2212 50.0546 64.0865C48.3072 61.7203 47.0042 58.9032 47.4277 55.9026C47.8409 52.975 49.7588 50.2462 51.8006 48.1896C56.2965 43.6612 63.2668 42.6206 69.3729 42.8704C72.9275 43.0157 76.4763 43.6424 79.8613 44.7371C81.5305 45.277 83.1625 45.9346 84.7486 46.6883L85.0998 46.857C85.2893 46.9488 85.4786 47.0417 85.668 47.1346C86.9077 47.7428 88.1522 48.3569 89.4979 48.6876C92.1261 49.3332 93.9089 47.9734 95.7828 46.6021C96.425 46.1322 97.077 45.6557 97.77 45.2375L97.9127 45.1532C99.1629 44.4281 100.658 43.9402 102.095 43.9621C103.343 43.9811 104.547 44.3797 105.527 45.3216C105.728 45.5151 105.844 45.7263 105.898 45.9364C106.007 46.0885 106.094 46.2698 106.151 46.4841C106.502 47.802 106.852 49.1209 107.2 50.4402L107.485 50.2566C108.329 49.7083 109.246 49.0817 109.66 48.1645C109.82 47.8114 109.797 47.2232 109.596 46.7908C109.526 46.6397 109.433 46.5054 109.305 46.4215C109.212 46.3605 109.099 46.3319 108.968 46.3424C108.65 46.3834 108.358 46.3368 108.111 46.2322C107.825 46.1114 107.597 45.9128 107.45 45.6734C107.298 45.4283 107.229 45.1401 107.266 44.8413C107.298 44.5843 107.409 44.3159 107.627 44.0638C109.067 42.4039 110.279 40.5729 111.201 38.5855L105.106 36.3298C102.933 35.526 100.76 34.7231 98.5855 33.9234L97.3951 33.4858C93.4413 32.0351 89.4648 30.6173 85.3531 29.6833C77.1818 27.8273 68.6609 28.2635 60.5121 30.0106L60.0199 30.117C56.6004 30.8629 53.135 31.7654 49.9964 33.3341C48.4558 34.1041 46.9914 35.0404 45.7339 36.2233C45.1785 36.7457 44.6764 37.3176 44.1741 37.8888C43.4702 38.6892 42.7654 39.4875 41.9285 40.1618L41.1517 40.7841C39.9959 41.7157 38.9535 42.6234 38.3014 44.0682C37.6196 45.5787 37.2941 47.2474 37.0285 48.8732C36.3588 52.9688 36.0945 57.13 36.1197 61.2786C36.1623 68.2443 37.2202 75.0681 38.5566 81.8679C39.6289 80.3328 41.1351 79.1427 43.0683 78.889C44.3286 78.7236 45.5782 78.9586 46.6617 79.5161C47.2879 79.8384 47.8587 80.2683 48.344 80.7907ZM46.3186 89.062C44.9069 88.5149 43.4247 88.3358 41.9311 88.5974C41.7746 88.6246 41.6254 88.5921 41.5 88.5191C41.3728 88.4452 41.2726 88.3283 41.2182 88.1992C41.1553 88.05 41.1521 87.8885 41.2076 87.7451C41.2557 87.6206 41.3475 87.4997 41.5163 87.419C43.1335 86.647 44.9311 86.3063 46.7152 86.5487L46.8916 86.5737C47.8037 86.7091 49.0863 86.9939 50.0482 87.5545C50.8039 87.9949 51.357 88.6021 51.4946 89.3953C51.5664 89.8086 51.4638 90.2401 51.2257 90.5529C50.9954 90.8553 50.6435 91.0569 50.1879 91.0439C49.3842 91.0211 48.9084 90.6813 48.3359 90.2413C48.2664 90.1879 48.1952 90.1331 48.1212 90.0777C47.568 89.6636 46.9635 89.312 46.3186 89.062Z" fill="#4F4F4F"/>
</g>
</g>
</g>
<defs>
<clipPath id="clip0_133_1598">
<rect width="150" height="150" fill="white"/>
</clipPath>
</defs>
</svg>
