<svg width="150" height="150" viewBox="0 0 150 150" fill="none" xmlns="http://www.w3.org/2000/svg">
<g clip-path="url(#clip0_133_1663)">
<mask id="mask0_133_1663" style="mask-type:alpha" maskUnits="userSpaceOnUse" x="0" y="0" width="150" height="150">
<path d="M75 150C116.421 150 150 116.421 150 75C150 33.5786 116.421 0 75 0C33.5786 0 0 33.5786 0 75C0 116.421 33.5786 150 75 150Z" fill="white"/>
</mask>
<g mask="url(#mask0_133_1663)">
<mask id="mask1_133_1663" style="mask-type:luminance" maskUnits="userSpaceOnUse" x="0" y="0" width="150" height="150">
<path d="M150 0H0V150H150V0Z" fill="white"/>
</mask>
<g mask="url(#mask1_133_1663)">
<path fill-rule="evenodd" clip-rule="evenodd" d="M139.581 228.881C138.729 224.07 137.948 219.246 137.239 214.412C136.902 212.117 136.574 209.819 136.278 207.518C136.071 205.906 135.756 204.062 136.853 202.868C138.396 201.188 139.797 199.749 139.986 197.342C140.164 195.077 139.398 192.608 138.92 190.409C137.916 185.798 136.666 181.244 135.285 176.734C133.882 172.151 132.343 167.611 130.783 163.08C129.324 158.844 127.921 154.57 126.021 150.505C122.414 142.792 116.313 137.08 108.772 133.266C106.897 132.317 103.072 128.931 101.112 128.173C99.311 127.476 99.3174 129.511 97.5447 128.744C96.1275 128.131 94.8079 127.314 94.0144 125.945C93.1528 124.459 90.9923 122.38 90.6633 120.65C89.9663 116.983 90.7213 113.861 88.105 111.101C85.7823 108.65 82.6604 106.971 79.4301 106.07C72.324 104.087 62.8469 105.473 58.5594 112.079C56.5116 115.234 55.7961 119.047 53.0329 121.621C50.62 123.869 51.16 125.406 48.0349 126.565C47.8579 126.631 43.0605 125.601 42.8835 125.667C39.4647 124.935 36.1972 126.984 33.0607 128.173C28.3847 129.945 23.9329 132.251 19.7504 134.993C11.3168 140.521 4.09358 147.699 -1.86142 155.822C-7.86564 164.011 -12.5243 173.191 -15.8414 182.785C-16.647 185.115 -17.3706 187.474 -18.0088 189.856C-18.3661 191.188 -18.7478 192.571 -18.3128 193.936C-17.957 195.052 -17.1656 195.883 -16.2363 196.553C-14.9765 197.461 -12.4495 198.052 -12.4987 199.878C-12.5363 201.267 -13.0073 202.728 -13.2371 204.1C-13.5107 205.735 -13.7355 207.379 -13.9603 209.02C-14.9828 216.491 -15.7787 224.004 -16.1306 231.539C-16.4771 238.958 -16.7646 246.528 -16.2502 253.945C-16.2162 254.434 -16.0704 254.883 -15.8353 255.262C-16.0548 255.346 -16.0717 255.756 -15.7985 255.814C-15.6071 255.854 -15.4161 255.895 -15.2247 255.935C-14.8271 256.236 -14.3313 256.421 -13.7606 256.439C-13.3738 256.451 -12.9872 256.469 -12.6008 256.488C-8.52311 257.341 -4.44607 258.147 -0.315145 258.757C4.70626 259.498 9.74246 260.102 14.7943 260.594C25.1749 261.603 35.4738 261.268 45.8682 260.724C56.2465 260.181 66.6187 260.054 77.0078 260.324C87.4059 260.595 97.8003 261.047 108.201 261.232C119.82 261.439 131.422 261.122 143.008 260.198C144.597 260.071 145.579 258.807 145.266 257.228C143.389 247.772 141.262 238.379 139.581 228.881Z" fill="#F9F9F9"/>
<path fill-rule="evenodd" clip-rule="evenodd" d="M39.6413 125.434C40.7158 125.388 41.8115 125.562 42.8834 125.667C42.9768 125.676 43.0123 125.82 42.9071 125.842C40.9886 126.243 39.0912 126.792 37.207 127.349L36.4003 127.588C34.2756 128.216 32.2132 128.865 30.1563 129.704C26.0568 131.375 22.1634 133.631 18.5801 136.223C4.78171 146.203 -5.20491 161.313 -11.507 176.958C-13.2185 181.206 -14.6686 185.56 -15.8432 189.988C-16.1289 191.065 -16.3976 192.147 -16.6524 193.232C-16.7272 193.55 -17.0532 194.364 -16.8744 194.69C-16.7164 194.977 -16.102 195.155 -15.8166 195.305L-14.853 195.805C-12.9734 196.774 -9.84247 198.367 -9.5285 198.522L-9.03882 198.763C-1.02953 202.691 7.52833 206.022 16.5413 206.252L16.6119 205.482C17.0137 201.226 17.541 196.946 18.692 192.82C18.7539 192.599 19.036 192.673 19.0618 192.87C19.7029 197.755 19.498 202.677 19.2743 207.585C18.8782 216.276 18.3521 224.962 17.8846 233.65C17.6505 237.996 17.348 242.339 17.0748 246.682C16.8012 251.035 16.7127 255.492 16.0879 259.808C15.9487 260.77 14.8222 261.293 13.9691 261.192C13.0252 261.08 12.2991 260.248 12.2946 259.295C12.2832 256.78 12.5991 254.236 12.7746 251.727C12.9413 249.344 13.1203 246.962 13.3037 244.58C13.9738 235.887 14.7447 227.204 15.4577 218.515C15.7104 215.433 15.9834 212.354 16.2644 209.275C6.7165 208.967 -2.20343 205.429 -10.7128 201.296C-10.836 204.093 -11.1335 206.886 -11.4214 209.672C-12.2253 217.447 -12.9341 225.219 -13.4646 233.017C-13.7325 236.956 -13.9275 240.9 -14.0973 244.844C-14.1808 246.783 -14.2488 248.722 -14.301 250.661C-14.3185 251.308 -14.3342 251.954 -14.3482 252.601L-14.3772 254.082C-14.401 255.021 -14.4963 255.89 -15.2857 256.573C-16.0875 257.267 -17.1704 257.304 -17.964 256.573C-19.0262 255.595 -18.8384 254.261 -18.8069 252.947C-18.7807 251.839 -18.7492 250.73 -18.7127 249.622C-18.6394 247.406 -18.5458 245.19 -18.4319 242.975C-18.0334 235.232 -17.2373 227.52 -16.1968 219.839L-15.7906 216.874C-15.0321 211.362 -14.1993 205.725 -12.5037 200.415C-13.164 200.086 -13.8223 199.756 -14.478 199.423C-15.6413 198.834 -16.844 198.281 -17.9747 197.631C-18.8718 197.115 -19.6454 196.407 -19.8951 195.363C-20.1736 194.2 -19.7478 192.927 -19.4649 191.792L-19.4403 191.692C-19.1629 190.549 -18.8642 189.412 -18.549 188.279C-17.2708 183.684 -15.6903 179.179 -13.8406 174.784C-10.1371 165.985 -5.35681 157.626 0.482418 150.068C5.73854 143.265 11.9477 137.095 19.2251 132.467C22.7828 130.205 26.5742 128.348 30.5839 127.034C32.458 126.421 34.4972 125.887 36.4594 125.667C37.5179 125.548 38.5778 125.481 39.6413 125.434ZM58.6794 111.492C59.9563 110.12 62.4932 111.539 61.8801 113.356C60.438 117.629 58.1415 121.527 54.5576 124.335C51.1887 126.975 47.1715 128.689 42.8451 128.323C42.8117 128.32 42.7828 128.312 42.7572 128.3L43.1301 128.806C46.0571 132.767 49.145 136.673 52.8668 139.91C60.4498 146.507 70.7745 150.065 80.7442 147.534C88.5882 145.543 95.4987 139.337 97.5311 131.43C97.2398 131.56 96.8935 131.605 96.5134 131.522C94.8873 131.169 93.2774 129.458 92.2287 128.231C91.0942 126.904 90.2082 125.471 89.5587 123.852C88.3701 120.887 87.989 117.07 89.612 114.199C89.8122 113.845 90.2741 114.043 90.3134 114.389L90.3752 114.928C90.688 117.619 91.0778 120.223 92.3462 122.676C92.9669 123.877 93.711 125.048 94.6167 126.054C95.1013 126.592 95.6267 127.106 96.194 127.557C96.7468 127.996 97.4158 128.314 97.9112 128.818L98.002 128.915L98.0046 128.897C98.1298 127.832 98.8767 127.363 99.6074 127.392C100.315 127.42 101.145 127.732 101.467 127.881L101.497 127.895C106.431 130.264 110.975 133.353 115.251 136.779C124.094 143.864 130.719 153.126 133.929 164.034C135.505 169.387 136.409 174.903 137.363 180.393L137.951 183.757C138.842 188.826 139.837 193.994 141.848 198.709C142.368 199.929 141.967 201.072 140.691 201.552C139.099 202.151 137.5 202.731 135.899 203.304C136.686 206.677 137.165 210.168 137.754 213.559C139.006 220.765 140.54 227.926 141.855 235.124C142.528 238.804 143.134 242.496 143.806 246.176C144.13 247.949 144.467 249.719 144.796 251.49C144.973 252.445 145.133 253.404 145.302 254.36L145.331 254.519C145.428 255.024 145.549 255.546 145.41 256.051C145.252 256.627 144.803 257.033 144.402 257.446C144.071 257.786 143.594 257.789 143.19 257.603L143.057 257.541C142.334 257.203 141.768 256.866 141.512 256.051C141.349 255.534 141.291 254.953 141.185 254.421C140.981 253.401 140.788 252.38 140.606 251.356C140.242 249.307 139.886 247.257 139.539 245.205L139.215 243.284C138.101 236.663 137.044 230.001 136.509 223.31C136.272 220.341 136.021 217.375 135.767 214.409L135.577 212.184C135.336 209.367 135.041 206.48 135 203.626L134.043 203.966L129.371 205.618C128.213 206.027 126.738 206.866 125.492 206.713C124.882 206.639 124.417 206.446 124.057 206.097C124.488 212.17 125.07 218.232 125.846 224.264C126.552 229.751 127.335 235.232 128.259 240.688C128.717 243.389 129.187 246.088 129.699 248.78C129.954 250.126 130.218 251.47 130.489 252.813C130.625 253.483 130.786 254.154 130.892 254.829C131.012 255.603 130.799 256.078 130.367 256.715C130.013 257.238 129.303 257.506 128.728 257.145C127.966 256.667 127.569 256.253 127.344 255.382C127.141 254.591 127.017 253.765 126.859 252.963C126.568 251.484 126.287 250.004 126.016 248.521C125.448 245.42 124.925 242.311 124.457 239.194C122.811 228.21 121.766 217.134 121.238 206.041C120.977 200.567 120.897 195.089 120.943 189.61C120.967 186.802 121.059 183.985 121.257 181.184C121.458 178.348 121.877 175.569 122.25 172.761C122.263 172.662 122.403 172.656 122.409 172.761C122.585 175.909 122.863 179.054 122.998 182.211C123.128 185.224 123.185 188.241 123.288 191.254C123.423 195.215 123.611 199.179 123.86 203.139C124.31 202.647 124.989 202.363 125.668 202.474C126.651 202.267 127.71 201.751 128.648 201.437L132.183 200.256C134.042 199.635 135.9 199.018 137.766 198.42C136.098 192.808 134.956 187.112 133.98 181.334L133.545 178.735C132.684 173.619 131.756 168.501 130.196 163.548C128.557 158.34 126.103 153.498 122.848 149.113C119.639 144.791 115.736 140.986 111.717 137.427C108.276 134.38 104.595 131.629 101.085 128.666C101.122 128.862 101.13 129.079 101.098 129.316C100.351 134.779 97.5024 139.867 93.532 143.652C85.5556 151.254 73.7485 152.831 63.5396 149.266C53.6643 145.818 44.9333 137.651 41.8486 127.545C41.7958 127.372 42.0273 127.303 42.1203 127.43C42.2914 127.665 42.4634 127.899 42.6355 128.134C42.6239 128.041 42.6723 127.939 42.7872 127.895C46.3864 126.505 49.9207 124.533 52.6186 121.744C53.9335 120.384 55.0811 118.844 55.987 117.183C56.421 116.387 56.8108 115.563 57.1217 114.711L57.2008 114.491C57.5777 113.424 57.8926 112.337 58.6794 111.492Z" fill="#4F4F4F"/>
<path fill-rule="evenodd" clip-rule="evenodd" d="M76.1353 31.9062C88.1313 31.9062 100.539 41.2082 104.936 47.144C108.633 52.1346 110.624 74.7016 110.624 89.9526C110.624 93.1423 112.383 99.155 111.87 102.206C109.988 113.386 101.791 122.763 85.5654 122.763C69.3404 122.763 57.7073 116.329 45.6476 99.055C39.7962 99.055 36.9604 94.5659 36.9192 87.4817C36.878 80.3975 42.5673 77.8201 42.5673 77.8201C42.5673 77.8201 40.5388 49.8628 45.6476 42.5841C50.7564 35.3054 64.1394 31.9062 76.1353 31.9062Z" fill="#F9F9F9"/>
<path fill-rule="evenodd" clip-rule="evenodd" d="M71.0873 27.9532C78.6613 27.186 86.0831 27.8306 93.5472 29.1645C94.1176 29.2678 94.4409 29.6421 94.5611 30.0921C98.0768 30.2527 101.596 30.5108 105.108 30.7031C106.382 30.7728 107.104 32.0323 106.523 33.1695C106.407 33.3955 106.286 33.6153 106.164 33.8351L106.318 33.7843C107.374 33.4453 108.515 33.2782 109.544 33.8163C110.854 34.501 111.368 36.012 111.078 37.4027C111.004 37.7577 110.88 38.098 110.738 38.4301C111.025 38.411 111.315 38.4174 111.602 38.4554C113.132 38.6583 114.268 39.8313 114.349 41.3932C114.467 43.7516 112.948 46.1443 111.158 47.8328C111.418 48.3677 111.518 48.9976 111.41 49.6358C111.194 50.8976 110.265 51.6532 109.188 52.146C109.637 53.5729 109.849 55.0646 109.724 56.5891C109.682 57.098 109.237 57.5184 108.768 57.6215C110.518 62.4432 111.404 67.6201 112.042 72.6644C112.496 76.2533 112.72 79.8632 112.747 83.4792C112.76 85.1117 112.733 86.7461 112.665 88.3789L112.637 88.9912C112.553 90.7561 112.549 92.6095 112.232 94.3554C113.313 96.1961 113.749 98.481 113.932 100.544C114.161 103.097 113.799 105.73 112.994 108.159C109.956 117.335 100.787 123.126 91.578 124.631C83.0535 126.024 73.1894 124.149 68.2078 116.403C68.1296 116.281 68.2965 116.179 68.3937 116.26C71.9578 119.159 76.0921 120.453 80.5838 121.083C88.35 122.169 97.0794 120.326 103.312 115.44C106.303 113.094 108.46 109.678 109.409 106.003C109.893 104.124 110.06 102.165 109.87 100.231C109.675 98.2697 108.807 96.5958 108.26 94.7422C108.076 94.1164 108.27 93.5352 108.653 93.1212C108.76 91.6161 109.014 90.0986 109.111 88.5983C109.219 86.8925 109.285 85.1869 109.308 83.4792C109.352 79.9369 109.204 76.3883 108.906 72.8611C108.361 66.402 106.914 60.0998 106.065 53.6957C105.75 53.9778 105.3 54.0937 104.827 53.8472L104.778 53.8204L104.52 53.6726C104.506 53.6726 104.489 53.6747 104.474 53.6766C102.71 53.8481 100.88 53.6029 99.1902 53.0764C97.4216 52.5271 95.7803 51.6817 94.3139 50.5552C94.0352 51.9689 93.9188 53.3977 93.9169 54.8391C93.9148 55.7394 92.962 56.2067 92.2056 55.8221C88.8528 54.1184 85.65 52.1551 82.6099 49.9486C82.2547 51.7684 81.9 53.5879 81.5428 55.4097C81.4056 56.1116 80.5118 56.3948 79.9392 56.0609C77.662 54.7355 75.6951 53.0005 74.0937 50.9375C73.774 51.5492 73.4533 52.1608 73.1304 52.771L72.6444 53.6851C72.1648 54.5833 71.5225 55.5769 70.4725 55.8641C69.3613 56.1685 68.4336 55.448 68.0599 54.4417C67.9458 54.1291 67.8402 53.8077 67.743 53.4843C66.7963 55.6466 65.7275 57.7601 64.519 59.7764C62.7063 62.8006 60.5301 65.4954 58.3606 68.2598C57.7014 69.0991 56.5733 68.2979 56.4824 67.4823C56.4296 67.0025 56.3852 66.5206 56.347 66.0406C55.0828 68.5929 53.7636 71.1213 52.3264 73.5763L52.5321 74.3831C53.1252 76.7667 53.6176 79.1672 54.153 81.5635C54.3258 82.3366 53.9151 83.442 53.0121 83.5736C51.9334 83.7309 50.9128 84.2823 49.8078 83.9029C48.603 83.4891 48.3649 82.4473 47.7961 81.4599C47.6827 81.2631 47.5506 81.0824 47.4087 80.9108L47.3725 80.9577C47.2838 81.0742 47.0725 80.9474 47.1254 80.8142L47.1873 80.6604C46.6986 80.1415 46.1138 79.7087 45.5761 79.2431C44.2984 79.0277 42.8611 79.2636 41.9808 79.7828C39.9759 80.9662 39.0549 83.4052 39.0359 85.6478C39.0127 88.2728 39.8259 91.2232 41.1991 93.4678C41.8035 94.4548 42.6317 95.3465 43.7259 95.7842C44.812 96.2193 45.9887 96.0843 47.0937 96.4941C47.8247 96.767 48.2747 97.5785 47.8331 98.3138C47.8035 98.3648 47.7697 98.4111 47.7378 98.4599L48.0665 98.8962C48.2925 99.1984 48.5282 99.522 48.7479 99.8588C49.3099 100.506 49.9014 101.129 50.474 101.765C51.5322 102.938 52.5592 104.143 53.6005 105.333C54.5831 106.455 55.6225 107.51 56.6937 108.547C57.7056 109.53 58.969 110.357 59.8986 111.405C60.8026 112.428 61.0479 114.214 59.5604 114.806C57.9147 115.462 56.4579 113.924 55.3501 112.898L55.3035 112.855C53.2728 110.985 51.439 108.849 49.9828 106.497C48.5402 107.479 46.4537 107.573 45.0173 106.591C44.2614 106.074 43.6815 105.206 43.3997 104.261C43.1339 104.321 42.8683 104.355 42.6093 104.351C42.476 104.429 42.3423 104.504 42.2071 104.574C41.1357 105.132 39.8197 104.883 39.3296 103.697C38.8833 102.62 39.3432 101.398 39.7452 100.361L39.8282 100.146C40.0563 99.5547 40.3078 98.91 40.6204 98.3035C39.75 97.6483 39.0061 96.8344 38.3768 95.9089C36.262 92.7915 35.2056 88.2324 35.6725 84.5129C35.9535 82.2683 37.0075 79.9435 38.7336 78.43L38.6704 78.2651C38.1866 77.0374 37.747 75.805 37.462 74.5075C37.1282 72.99 36.9653 71.4176 36.8176 69.8726C36.5049 66.6094 36.5894 63.2722 37.0056 60.0216C37.7873 53.903 39.769 47.8964 43.2866 42.805C42.2892 41.6107 41.4993 40.2052 41.9111 38.5886C42.0993 37.8465 42.528 37.1429 43.1747 36.7179C43.5315 36.4835 43.9563 36.4476 44.3134 36.2531L44.4207 36.194C44.5776 36.1025 44.4576 36.1122 44.3641 35.6867C43.9944 33.9873 44.3007 32.3453 46.1704 31.781C47.9303 31.2505 49.5951 32.377 50.6366 33.7191C53.362 31.785 56.9535 30.7728 60.112 29.9126C63.7035 28.9381 67.3878 28.3296 71.0873 27.9532ZM41.6494 84.9544C41.6365 83.5701 42.9485 82.7162 44.2395 82.9426C45.1064 83.0935 45.8296 83.6111 46.5087 84.1461L46.8398 84.4081C47.6667 85.0576 48.6161 85.7577 49.109 86.6772C49.8316 88.034 48.3043 89.8599 46.8783 88.9088C45.9 88.253 45.273 87.2022 44.6313 86.226L44.5649 86.1253C44.2733 85.6878 44.0177 85.2228 43.6182 84.872L43.5319 84.7964C43.4006 84.6844 43.2596 84.5823 43.09 84.5338C42.7629 84.4398 42.157 84.5715 42.0127 84.9611L41.9999 85.0009C41.9471 85.1977 41.6515 85.1552 41.6494 84.9544Z" fill="#4F4F4F"/>
</g>
</g>
</g>
<defs>
<clipPath id="clip0_133_1663">
<rect width="150" height="150" fill="white"/>
</clipPath>
</defs>
</svg>
