<svg width="150" height="150" viewBox="0 0 150 150" fill="none" xmlns="http://www.w3.org/2000/svg">
<g clip-path="url(#clip0_133_1583)">
<mask id="mask0_133_1583" style="mask-type:alpha" maskUnits="userSpaceOnUse" x="0" y="0" width="150" height="150">
<path d="M75 150C116.421 150 150 116.421 150 75C150 33.5786 116.421 0 75 0C33.5786 0 0 33.5786 0 75C0 116.421 33.5786 150 75 150Z" fill="white"/>
</mask>
<g mask="url(#mask0_133_1583)">
<mask id="mask1_133_1583" style="mask-type:luminance" maskUnits="userSpaceOnUse" x="0" y="0" width="150" height="150">
<path d="M150 0H0V150H150V0Z" fill="white"/>
</mask>
<g mask="url(#mask1_133_1583)">
<path fill-rule="evenodd" clip-rule="evenodd" d="M139.581 228.882C138.729 224.07 137.948 219.246 137.239 214.412C136.902 212.117 136.574 209.819 136.278 207.518C136.071 205.906 135.756 204.062 136.853 202.868C138.396 201.188 139.797 199.749 139.986 197.342C140.164 195.077 139.398 192.608 138.92 190.409C137.916 185.798 136.666 181.244 135.285 176.734C133.882 172.151 132.343 167.611 130.783 163.08C129.324 158.844 127.921 154.57 126.021 150.505C122.414 142.792 116.313 137.08 108.772 133.266C106.897 132.317 103.072 128.931 101.112 128.173C99.3107 127.476 99.3171 129.511 97.5444 128.744C96.1273 128.132 94.8076 127.314 94.0141 125.945C93.1525 124.459 90.9921 122.38 90.663 120.65C89.966 116.983 90.7211 113.862 88.1048 111.101C85.7821 108.65 82.6601 106.971 79.4298 106.07C72.3237 104.087 62.8466 105.473 58.5592 112.079C56.5114 115.234 55.7959 119.047 53.0327 121.621C50.6198 123.869 51.1598 125.406 48.0347 126.565C47.8577 126.631 43.0602 125.601 42.8832 125.667C39.4644 124.935 36.1969 126.984 33.0604 128.173C28.3844 129.945 23.9326 132.251 19.7501 134.993C11.3165 140.521 4.09334 147.699 -1.86166 155.822C-7.86588 164.011 -12.5246 173.191 -15.8417 182.785C-16.6473 185.115 -17.3709 187.474 -18.0091 189.856C-18.3664 191.189 -18.748 192.571 -18.313 193.936C-17.9572 195.052 -17.1658 195.884 -16.2365 196.553C-14.9767 197.461 -12.4498 198.052 -12.499 199.878C-12.5366 201.267 -13.0075 202.728 -13.2373 204.101C-13.511 205.735 -13.7358 207.379 -13.9606 209.02C-14.9831 216.491 -15.779 224.005 -16.1309 231.539C-16.4774 238.958 -16.7649 246.528 -16.2505 253.945C-16.2165 254.434 -16.0707 254.883 -15.8356 255.262C-16.0551 255.346 -16.072 255.756 -15.7988 255.814C-15.6074 255.854 -15.4164 255.895 -15.225 255.935C-14.8274 256.236 -14.3316 256.421 -13.7609 256.439C-13.3741 256.451 -12.9875 256.469 -12.601 256.488C-8.52335 257.341 -4.44631 258.147 -0.31539 258.757C4.70602 259.498 9.74222 260.102 14.794 260.594C25.1746 261.603 35.4735 261.269 45.868 260.724C56.2462 260.181 66.6184 260.054 77.0075 260.324C87.4056 260.595 97.8 261.047 108.201 261.233C119.82 261.439 131.422 261.122 143.008 260.198C144.597 260.071 145.579 258.807 145.266 257.228C143.389 247.772 141.262 238.379 139.581 228.882Z" fill="#F9F9F9"/>
<path fill-rule="evenodd" clip-rule="evenodd" d="M39.6413 125.434C40.7158 125.388 41.8115 125.562 42.8834 125.667C42.9768 125.676 43.0123 125.82 42.9071 125.842C40.9886 126.243 39.0912 126.792 37.207 127.349L36.4003 127.588C34.2756 128.216 32.2132 128.865 30.1563 129.704C26.0568 131.375 22.1634 133.631 18.5801 136.223C4.78171 146.203 -5.20491 161.313 -11.507 176.957C-13.2185 181.206 -14.6686 185.56 -15.8432 189.988C-16.1289 191.065 -16.3976 192.147 -16.6524 193.231C-16.7272 193.55 -17.0532 194.364 -16.8744 194.69C-16.7164 194.977 -16.102 195.155 -15.8166 195.305L-14.853 195.804C-12.9734 196.774 -9.84247 198.367 -9.5285 198.522L-9.03882 198.763C-1.02953 202.691 7.52833 206.022 16.5413 206.252L16.6119 205.482C17.0137 201.226 17.541 196.946 18.692 192.82C18.7539 192.598 19.036 192.673 19.0618 192.87C19.7029 197.755 19.498 202.677 19.2743 207.584C18.8782 216.276 18.3521 224.962 17.8846 233.65C17.6505 237.996 17.348 242.339 17.0748 246.682C16.8012 251.035 16.7127 255.492 16.0879 259.808C15.9487 260.77 14.8222 261.293 13.9691 261.192C13.0252 261.08 12.2991 260.248 12.2946 259.294C12.2832 256.78 12.5991 254.236 12.7746 251.727C12.9413 249.344 13.1203 246.962 13.3037 244.58C13.9738 235.887 14.7447 227.204 15.4577 218.515C15.7104 215.433 15.9834 212.354 16.2644 209.275C6.7165 208.967 -2.20343 205.429 -10.7128 201.296C-10.836 204.093 -11.1335 206.886 -11.4214 209.672C-12.2253 217.447 -12.9341 225.218 -13.4646 233.017C-13.7325 236.956 -13.9275 240.9 -14.0973 244.844C-14.1808 246.783 -14.2488 248.722 -14.301 250.661C-14.3185 251.308 -14.3342 251.954 -14.3482 252.601L-14.3772 254.082C-14.401 255.021 -14.4963 255.89 -15.2857 256.573C-16.0875 257.267 -17.1704 257.304 -17.964 256.573C-19.0262 255.595 -18.8384 254.261 -18.8069 252.947C-18.7807 251.839 -18.7492 250.73 -18.7127 249.622C-18.6394 247.406 -18.5458 245.19 -18.4319 242.975C-18.0334 235.232 -17.2373 227.52 -16.1968 219.839L-15.7906 216.874C-15.0321 211.362 -14.1993 205.725 -12.5037 200.415C-13.164 200.086 -13.8223 199.756 -14.478 199.423C-15.6413 198.834 -16.844 198.281 -17.9747 197.631C-18.8718 197.115 -19.6454 196.407 -19.8951 195.363C-20.1736 194.2 -19.7478 192.927 -19.4649 191.792L-19.4403 191.692C-19.1629 190.549 -18.8642 189.412 -18.549 188.278C-17.2708 183.684 -15.6903 179.179 -13.8406 174.784C-10.1371 165.985 -5.35681 157.626 0.482418 150.068C5.73854 143.264 11.9477 137.095 19.2251 132.467C22.7828 130.205 26.5742 128.348 30.5839 127.034C32.458 126.42 34.4972 125.887 36.4594 125.667C37.5179 125.548 38.5778 125.481 39.6413 125.434ZM58.6794 111.492C59.9563 110.12 62.4932 111.539 61.8801 113.356C60.438 117.629 58.1415 121.527 54.5576 124.335C51.1887 126.975 47.1715 128.689 42.8451 128.323C42.8117 128.32 42.7828 128.312 42.7572 128.3L43.1301 128.806C46.0571 132.766 49.145 136.673 52.8668 139.91C60.4498 146.507 70.7745 150.064 80.7442 147.534C88.5882 145.542 95.4987 139.337 97.5311 131.43C97.2398 131.56 96.8935 131.605 96.5134 131.522C94.8873 131.169 93.2774 129.458 92.2287 128.231C91.0942 126.904 90.2082 125.471 89.5587 123.852C88.3701 120.887 87.989 117.07 89.612 114.199C89.8122 113.845 90.2741 114.043 90.3134 114.389L90.3752 114.928C90.688 117.619 91.0778 120.223 92.3462 122.676C92.9669 123.877 93.711 125.048 94.6167 126.054C95.1013 126.592 95.6267 127.106 96.194 127.557C96.7468 127.996 97.4158 128.314 97.9112 128.818L98.002 128.915L98.0046 128.897C98.1298 127.832 98.8767 127.363 99.6074 127.392C100.315 127.42 101.145 127.732 101.467 127.881L101.497 127.895C106.431 130.264 110.975 133.353 115.251 136.779C124.094 143.864 130.719 153.126 133.929 164.034C135.505 169.387 136.409 174.903 137.363 180.393L137.951 183.757C138.842 188.826 139.837 193.994 141.848 198.709C142.368 199.929 141.967 201.072 140.691 201.552C139.099 202.151 137.5 202.731 135.899 203.304C136.686 206.677 137.165 210.168 137.754 213.559C139.006 220.765 140.54 227.926 141.855 235.123C142.528 238.803 143.134 242.496 143.806 246.176C144.13 247.949 144.467 249.718 144.796 251.49C144.973 252.445 145.133 253.404 145.302 254.36L145.331 254.519C145.428 255.024 145.549 255.546 145.41 256.051C145.252 256.626 144.803 257.033 144.402 257.446C144.071 257.786 143.594 257.788 143.19 257.603L143.057 257.541C142.334 257.203 141.768 256.866 141.512 256.051C141.349 255.534 141.291 254.953 141.185 254.421C140.981 253.401 140.788 252.38 140.606 251.356C140.242 249.307 139.886 247.257 139.539 245.205L139.215 243.284C138.101 236.663 137.044 230.001 136.509 223.31C136.272 220.341 136.021 217.375 135.767 214.409L135.577 212.184C135.336 209.367 135.041 206.48 135 203.626L134.043 203.966L129.371 205.617C128.213 206.027 126.738 206.866 125.492 206.713C124.882 206.639 124.417 206.446 124.057 206.097C124.488 212.17 125.07 218.232 125.846 224.263C126.552 229.751 127.335 235.232 128.259 240.687C128.717 243.389 129.187 246.088 129.699 248.78C129.954 250.126 130.218 251.47 130.489 252.813C130.625 253.483 130.786 254.153 130.892 254.829C131.012 255.602 130.799 256.078 130.367 256.715C130.013 257.237 129.303 257.506 128.728 257.145C127.966 256.667 127.569 256.253 127.344 255.382C127.141 254.591 127.017 253.765 126.859 252.963C126.568 251.484 126.287 250.004 126.016 248.521C125.448 245.42 124.925 242.311 124.457 239.193C122.811 228.21 121.766 217.134 121.238 206.041C120.977 200.567 120.897 195.089 120.943 189.61C120.967 186.802 121.059 183.985 121.257 181.184C121.458 178.348 121.877 175.569 122.25 172.761C122.263 172.662 122.403 172.656 122.409 172.761C122.585 175.909 122.863 179.054 122.998 182.211C123.128 185.224 123.185 188.241 123.288 191.254C123.423 195.215 123.611 199.179 123.86 203.139C124.31 202.647 124.989 202.363 125.668 202.474C126.651 202.267 127.71 201.751 128.648 201.437L132.183 200.256C134.042 199.635 135.9 199.018 137.766 198.42C136.098 192.808 134.956 187.112 133.98 181.334L133.545 178.735C132.684 173.619 131.756 168.501 130.196 163.548C128.557 158.339 126.103 153.497 122.848 149.113C119.639 144.791 115.736 140.986 111.717 137.427C108.276 134.38 104.595 131.629 101.085 128.666C101.122 128.862 101.13 129.078 101.098 129.316C100.351 134.779 97.5024 139.867 93.532 143.651C85.5556 151.254 73.7485 152.831 63.5396 149.266C53.6643 145.818 44.9333 137.651 41.8486 127.545C41.7958 127.372 42.0273 127.303 42.1203 127.43C42.2914 127.665 42.4634 127.899 42.6355 128.134C42.6239 128.041 42.6723 127.939 42.7872 127.895C46.3864 126.505 49.9207 124.533 52.6186 121.744C53.9335 120.384 55.0811 118.844 55.987 117.183C56.421 116.387 56.8108 115.563 57.1217 114.711L57.2008 114.491C57.5777 113.424 57.8926 112.337 58.6794 111.492Z" fill="#4F4F4F"/>
<path fill-rule="evenodd" clip-rule="evenodd" d="M115.931 45.4018C115.86 42.8744 112.185 41.8251 111.124 44.3281C111.058 44.3951 110.986 44.4596 110.919 44.5173C111.251 44.2322 110.556 44.7039 110.443 44.7622C110.346 44.8121 110.248 44.8571 110.149 44.9036C109.466 38.501 107.148 31.5987 101.158 28.3849C92.8037 24.332 83.1502 23.541 73.9848 23.9436C69.3418 24.2192 63.9802 24.9619 59.8552 22.6121C58.5699 21.88 57.5395 20.7275 56.0871 20.275C51.5019 19.0341 49.4222 23.7443 50.0467 27.6177C48.091 27.6331 46.1509 28.7163 45.3069 30.4997C44.8113 31.5552 44.8199 32.6941 44.3925 33.7534C43.0812 36.4397 41.2049 38.3706 42.2657 41.6275C40.4 43.7513 41.4637 46.9666 42.9692 49C43.7127 50.0576 44.5981 51.0729 45.1428 52.2567C45.6713 53.3902 44.8734 54.7344 44.4293 55.8089C41.1462 63.5969 41.3338 72.1737 43.1004 80.2972C39.5554 81.836 38.4914 86.6464 40.8031 89.6752C41.5985 90.7459 42.5689 91.1433 43.6694 91.802C45.0621 92.5688 43.9246 95.6402 44.3706 97.1234C44.9765 100.744 48.2723 102.974 51.5311 100.623C53.599 100.31 55.2669 106.329 56.7686 107.84C57.6937 109.057 58.7209 110.15 59.8377 111.159C63.1652 119.724 80.2157 124.067 88.6457 123.571C97.4735 122.647 103.429 115.147 108.388 108.49C110.934 104.944 112.591 100.974 113.193 96.6447C113.798 92.2934 113.533 87.9343 113.124 83.5778C112.265 74.3215 110.91 60.9861 110.034 51.6298C113.197 51.3692 116.027 48.6752 115.931 45.4018Z" fill="#F9F9F9"/>
<path fill-rule="evenodd" clip-rule="evenodd" d="M46.9756 39.8365C46.9727 39.8496 46.9771 39.8596 46.9801 39.8735C46.9807 39.8695 46.9813 39.8674 46.9824 39.8625C46.9799 39.852 46.978 39.845 46.9756 39.8365Z" fill="#4F66AF"/>
<path fill-rule="evenodd" clip-rule="evenodd" d="M46.9747 39.9712C46.963 39.959 46.9466 39.9499 46.9301 39.9376L46.9292 39.9389C46.9447 39.949 46.9594 39.9607 46.9747 39.9712Z" fill="#4F66AF"/>
<path fill-rule="evenodd" clip-rule="evenodd" d="M115.428 46.5978C116.467 45.7342 118.103 46.5293 117.751 47.9511C117.368 49.4994 115.709 50.5574 114.34 51.1936C112.93 51.8482 111.557 51.9743 110.02 51.9029L110.001 51.8987C110.428 53.6112 110.67 55.3914 110.996 57.1144C111.411 59.3002 111.819 61.487 112.22 63.6749C112.609 65.7897 113.1 67.9072 113.398 70.0325C113.699 72.1779 113.988 74.3248 114.284 76.4709C114.778 80.0552 115.176 83.6559 115.596 87.2505L115.797 88.952C116.217 92.5533 116.556 96.1591 115.759 99.7429C115.011 103.102 113.328 106.235 111.375 109.038C109.463 111.784 107.327 114.424 104.982 116.812C100.459 121.417 94.8817 125.106 88.3417 125.79C85.5257 126.085 82.5181 125.757 79.8707 124.733L79.6949 124.664C77.0151 123.606 73.7333 121.793 73.0358 118.819C72.6076 116.995 74.4868 115.571 76.1345 116.436C76.8979 116.838 77.4719 117.296 78.0986 117.871L78.2097 117.973C78.7219 118.449 78.919 118.595 79.5099 118.968C80.7219 119.73 81.6304 120.091 83.007 120.438C85.5452 121.077 88.2845 120.976 90.8611 120.22C96.3316 118.616 100.576 114.432 104.211 110.236C106.185 107.957 108.059 105.567 109.504 102.911C111.021 100.125 111.72 97.1999 111.678 94.0297C111.631 90.4526 111.137 86.8615 110.812 83.3013C110.482 79.6718 110.177 76.0435 109.907 72.4089C109.655 69.0005 109.631 65.5767 109.543 62.1576L109.525 61.5166C109.474 59.7015 109.438 57.8858 109.397 56.0703C109.356 54.2601 109.213 52.4268 109.399 50.6242C109.412 50.493 109.589 50.4598 109.632 50.5925C109.742 50.9303 109.838 51.2733 109.929 51.6182C109.943 51.6076 109.959 51.5981 109.978 51.5916C111.183 51.1773 112.292 50.3503 113.197 49.4584C114.059 48.6073 114.51 47.3606 115.428 46.5978ZM49.4958 21.2363C50.2527 18.1261 53.6592 17.4313 56.1782 18.9292C57.3898 19.6495 58.3599 20.6883 59.4917 21.5138C60.6169 22.3347 61.8604 22.9939 63.1726 23.4595C65.7794 24.3843 68.5293 24.7206 71.2844 24.7327C77.9901 24.762 84.5586 22.8768 91.2742 23.0871C96.4705 23.2498 101.986 24.7861 105.755 28.5439C107.786 30.5682 109.094 33.1708 109.796 35.9338C110.124 37.2251 110.368 38.5478 110.561 39.8673L110.608 40.1972C110.716 40.9684 110.89 41.7848 110.906 42.5643C110.92 43.2643 110.743 43.9968 110.647 44.6896C110.445 46.15 108.184 45.9837 107.859 44.6896C107.119 41.7432 107.429 38.7023 106.525 35.766C105.723 33.1621 104.169 30.8855 101.917 29.3285C92.419 22.7597 80.2384 28.2605 69.773 27.7495C67.2152 27.6246 64.6198 27.2291 62.2071 26.348C60.963 25.8936 59.738 25.3394 58.6101 24.6424C57.5766 24.0042 56.6812 23.2023 55.7245 22.4644L55.3025 22.1435C54.6466 21.6499 53.5301 20.8781 52.8684 21.5311C52.5805 21.8153 52.5631 22.458 52.5684 22.9488L52.5716 23.1706C52.6016 25.2541 53.0261 27.3337 52.2467 29.3466C51.8911 30.2648 50.9031 30.8436 49.9633 30.3237L49.9147 30.2958C47.9269 29.1128 45.3152 31.49 46.8422 33.4573L46.8898 33.5168C47.7489 34.5613 47.2909 36.4007 45.7532 36.3961L45.6978 36.3952C42.9581 36.3096 41.7426 39.7349 44.104 41.2316L44.1767 41.2763C46.0939 42.4241 44.4122 45.1838 42.4472 44.2363C42.6137 44.3166 42.3243 44.3155 42.1587 44.5379C41.9996 44.7513 41.9877 44.936 42.0256 45.2057C42.1403 46.0228 42.8586 46.7114 43.4404 47.2284C44.7621 48.4028 46.4005 49.2138 48.0887 49.7075C54.8514 51.6853 61.7894 49.266 68.3784 47.8049C75.2478 46.2817 83.0064 45.6682 88.9971 49.9905C89.0683 50.0416 89.006 50.156 88.9272 50.1103C84.6279 47.6126 79.3622 47.8343 74.6626 48.8583C68.4999 50.2012 62.3911 52.7008 56.0795 53.3594C57.8514 56.4887 58.593 60.1845 58.1197 63.7638C57.7939 66.2276 56.8137 68.3648 55.656 70.5306L55.4351 70.9433C54.4029 72.8873 53.6033 74.7238 53.5906 76.9759C53.5781 79.2135 50.253 79.6852 49.6893 77.5043C48.4096 72.5513 53.0715 68.65 54.9735 64.5656C56.5992 61.0741 56.6493 57.0033 55.3337 53.4283C53.8494 53.5477 52.3534 53.5602 50.8424 53.4254C49.5446 53.3093 48.2094 53.0754 46.908 52.7051L46.3873 54.8946C45.6976 57.8111 45.0585 60.7256 44.8648 63.7549C44.7222 65.9808 44.7298 68.2178 44.9468 70.4382C45.1344 72.356 45.5303 74.2055 45.9332 76.0779C46.2788 76.534 46.4554 77.2321 46.3582 77.7881C48.6019 78.4344 50.3666 80.2055 51.0114 82.5513C51.0507 82.6942 50.8508 82.7745 50.7761 82.6507C49.2463 80.1115 45.307 79.1771 42.8151 80.8546C40.4353 82.4562 39.4967 85.6899 40.8437 88.2498C41.5523 89.5957 42.6028 90.5416 43.9574 91.1929L44.2297 91.3209C44.9396 91.6569 45.5912 92.0231 46.0477 92.698C46.6399 93.5734 46.6598 94.4988 46.6039 95.4992L46.5797 95.9046C46.5422 96.5751 46.5338 97.2653 46.7334 97.9104L46.7788 98.0537C46.8315 98.2147 46.8868 98.3565 46.983 98.5102C47.0117 98.5558 47.2813 98.8204 47.3692 98.9162L47.4799 98.9496L47.6037 98.9546C47.741 98.9568 47.9215 98.8972 47.8623 98.9385L47.8784 98.9293C47.9305 98.8968 47.9784 98.8625 48.0188 98.8319L48.0955 98.772C48.2749 98.5127 48.4996 98.2984 48.7753 98.135L49.0388 98.0177C49.7231 97.2949 50.8956 97.6747 51.3862 98.3948C51.7392 98.9126 51.9292 99.4391 51.9448 99.9583C51.9999 99.8698 52.1225 99.8214 52.2004 99.9205L52.6655 100.513C54.4451 102.788 56.1941 105.077 58.2163 107.151C59.3303 108.293 60.5286 109.367 61.7812 110.356C62.8506 111.2 64.8792 112.012 64.9103 113.55C64.92 114.05 64.5657 114.403 64.1322 114.573C62.7212 115.124 60.9777 113.249 59.9586 112.336L59.8753 112.262C58.628 111.169 57.4897 109.97 56.4393 108.687C54.3991 106.195 52.6931 103.327 51.9412 100.171C51.9059 100.722 51.6697 101.262 51.21 101.771C50.598 102.448 49.7603 102.923 48.8656 103.119C46.8384 103.562 44.8593 102.832 43.6532 101.143C42.6337 99.7142 42.3336 97.8279 42.4651 96.1021L42.4813 95.895C42.4998 95.6182 42.5233 95.1103 42.5949 94.8942L41.9567 94.5435C41.1742 94.127 40.4489 93.5809 39.798 92.9806C37.1818 90.5678 35.8692 86.6467 37.0652 83.2154C37.8133 81.0689 39.3853 79.2012 41.3983 78.2305C41.0619 77.4526 40.9493 76.5289 40.8224 75.7115L40.8011 75.5763C40.5858 74.2355 40.4056 72.8778 40.3369 71.521C40.2084 68.9869 40.3646 66.4291 40.7626 63.9244C41.4091 59.8561 42.7475 55.5416 45.2007 52.1287C43.3291 51.3852 41.6064 50.3088 40.2767 48.8141C38.8872 47.2522 38.0013 45.0162 39.0758 43.0326C39.3496 42.5271 39.7065 42.1021 40.1165 41.7645C39.4054 40.4212 39.1753 38.8335 39.6142 37.316C40.1385 35.5018 41.5622 34.0868 43.2822 33.4261C42.8645 31.7072 43.2059 29.8583 44.4822 28.4258C45.7481 27.0047 47.7139 26.4871 49.5334 26.8119C49.632 24.9837 49.0568 23.0393 49.4958 21.2363ZM44.3926 85.4233C46.0608 84.6067 48.0378 84.7364 49.7041 85.5104L49.817 85.564C51.6362 86.4465 54.0456 88.5084 53.4674 90.7014C53.1289 91.9839 51.7046 92.4218 50.6001 91.8682C49.6775 91.4056 49.467 90.5786 49.0042 89.7478C48.6769 89.1602 48.2723 88.7009 47.7972 88.2286C46.7956 87.2333 45.6706 86.494 44.3926 85.9025C44.2084 85.8171 44.2147 85.5106 44.3926 85.4233ZM86.4252 41.097C86.2689 41.0255 86.3823 40.7806 86.5397 40.8254C90.7315 42.0229 94.6397 44.7109 96.9751 48.4418C97.1175 48.6694 97.1392 49.0442 96.9751 49.2695L96.8995 49.3717C96.7924 49.5116 96.6867 49.6148 96.4854 49.6461C96.1068 49.7049 95.7778 49.6061 95.5598 49.2695C93.2591 45.7133 90.3115 42.8753 86.4252 41.097ZM114.487 41.8012C114.842 41.1994 115.784 41.3205 115.971 41.9952L115.998 42.0539C116.1 42.2839 116.053 42.331 115.865 42.2008C116.332 42.5859 116.544 43.1595 116.401 43.7762C115.629 47.1071 111.858 49.4856 108.57 49.1583C108.283 49.1297 108.244 48.777 108.504 48.6717C109.769 48.1594 110.892 47.3273 111.794 46.3063C112.672 45.3138 113.041 44.1782 113.513 42.9796C113.69 42.5297 113.965 42.2057 114.354 42.0288C114.405 41.9578 114.45 41.8821 114.487 41.8012ZM95.7903 39.6606L95.8131 39.6621C97.5024 39.8804 98.9637 40.7144 100.15 41.9364C101.293 43.1132 102.735 45.0551 102.611 46.782C102.529 47.9269 100.902 48.5815 100.295 47.4097C99.9324 46.7106 99.8502 45.9442 99.5964 45.2049C99.3636 44.5273 99.0421 43.884 98.6572 43.2806C97.8647 42.0374 96.775 40.9843 95.6591 40.034C95.5285 39.9228 95.6195 39.6612 95.7903 39.6606ZM52.4625 39.1533C52.0879 38.7965 52.4775 38.1882 52.9539 38.3087C55.4665 38.9451 57.9548 39.7191 60.5672 39.796C61.872 39.8342 63.1694 39.7313 64.4619 39.5624L65.1163 39.4755C66.1242 39.3439 67.1495 39.2406 68.1458 39.4477C68.81 39.5857 68.9397 40.4417 68.5258 40.8882C66.5714 42.9973 62.8015 42.7957 60.2095 42.4402C57.3948 42.0538 54.5547 41.1472 52.4625 39.1533ZM97.8354 32.5794C97.6635 32.3408 97.9529 31.9641 98.2267 32.07C100.724 33.0355 103.341 35.5491 104.029 38.1789C104.21 38.8736 103.335 39.3982 102.82 38.8825C101.862 37.9215 101.186 36.7863 100.376 35.7061C99.5682 34.6293 98.6237 33.6729 97.8354 32.5794ZM56.9229 33.7538C56.7226 33.5537 56.9241 33.1551 57.2119 33.257C58.8376 33.8329 60.4755 34.3313 62.1834 34.5927C63.9327 34.8603 65.6985 34.6569 67.4569 34.7654C68.1682 34.8091 68.6527 35.9162 67.8619 36.2607C64.3481 37.7911 59.5755 36.4033 56.9229 33.7538ZM61.4116 30.3212C61.1323 30.1145 61.2912 29.5472 61.6712 29.7055C63.2194 30.3503 64.7851 30.5089 66.4465 30.4425C67.0603 30.4178 67.1893 31.3826 66.5913 31.5128C64.7547 31.9124 62.9124 31.4312 61.4116 30.3212Z" fill="#4F4F4F"/>
</g>
</g>
</g>
<defs>
<clipPath id="clip0_133_1583">
<rect width="150" height="150" fill="white"/>
</clipPath>
</defs>
</svg>
