<svg width="150" height="150" viewBox="0 0 150 150" fill="none" xmlns="http://www.w3.org/2000/svg">
<g clip-path="url(#clip0_133_1611)">
<mask id="mask0_133_1611" style="mask-type:alpha" maskUnits="userSpaceOnUse" x="0" y="0" width="150" height="150">
<path d="M75 150C116.421 150 150 116.421 150 75C150 33.5786 116.421 0 75 0C33.5786 0 0 33.5786 0 75C0 116.421 33.5786 150 75 150Z" fill="white"/>
</mask>
<g mask="url(#mask0_133_1611)">
<mask id="mask1_133_1611" style="mask-type:luminance" maskUnits="userSpaceOnUse" x="0" y="0" width="150" height="150">
<path d="M150 0H0V150H150V0Z" fill="white"/>
</mask>
<g mask="url(#mask1_133_1611)">
<path fill-rule="evenodd" clip-rule="evenodd" d="M139.581 228.882C138.729 224.07 137.948 219.246 137.239 214.412C136.902 212.117 136.574 209.819 136.278 207.518C136.071 205.906 135.756 204.062 136.853 202.868C138.396 201.188 139.797 199.749 139.986 197.342C140.164 195.077 139.398 192.608 138.92 190.409C137.916 185.798 136.666 181.244 135.285 176.734C133.882 172.151 132.343 167.611 130.783 163.08C129.324 158.844 127.921 154.57 126.021 150.505C122.414 142.792 116.313 137.08 108.772 133.266C106.897 132.317 103.072 128.931 101.112 128.173C99.3107 127.476 99.3171 129.511 97.5444 128.744C96.1273 128.132 94.8076 127.314 94.0141 125.945C93.1525 124.459 90.9921 122.38 90.663 120.65C89.966 116.983 90.7211 113.862 88.1048 111.101C85.7821 108.65 82.6601 106.971 79.4298 106.07C72.3237 104.087 62.8466 105.473 58.5592 112.079C56.5114 115.234 55.7959 119.047 53.0327 121.621C50.6198 123.869 51.1598 125.406 48.0347 126.565C47.8577 126.631 43.0602 125.601 42.8832 125.667C39.4644 124.935 36.1969 126.984 33.0604 128.173C28.3844 129.945 23.9326 132.251 19.7501 134.993C11.3165 140.521 4.09334 147.699 -1.86166 155.822C-7.86588 164.011 -12.5246 173.191 -15.8417 182.785C-16.6473 185.115 -17.3709 187.474 -18.0091 189.856C-18.3664 191.189 -18.748 192.571 -18.313 193.936C-17.9572 195.052 -17.1658 195.884 -16.2365 196.553C-14.9767 197.461 -12.4498 198.052 -12.499 199.878C-12.5366 201.267 -13.0075 202.728 -13.2373 204.101C-13.511 205.735 -13.7358 207.379 -13.9606 209.02C-14.9831 216.491 -15.779 224.005 -16.1309 231.539C-16.4774 238.958 -16.7649 246.528 -16.2505 253.945C-16.2165 254.434 -16.0707 254.883 -15.8356 255.262C-16.0551 255.346 -16.072 255.756 -15.7988 255.814C-15.6074 255.854 -15.4164 255.895 -15.225 255.935C-14.8274 256.236 -14.3316 256.421 -13.7609 256.439C-13.3741 256.451 -12.9875 256.469 -12.601 256.488C-8.52335 257.341 -4.44631 258.147 -0.31539 258.757C4.70602 259.498 9.74222 260.102 14.794 260.594C25.1746 261.603 35.4735 261.269 45.868 260.724C56.2462 260.181 66.6184 260.054 77.0075 260.324C87.4056 260.595 97.8 261.047 108.201 261.233C119.82 261.439 131.422 261.122 143.008 260.198C144.597 260.071 145.579 258.807 145.266 257.228C143.389 247.772 141.262 238.379 139.581 228.882Z" fill="#F9F9F9"/>
<path fill-rule="evenodd" clip-rule="evenodd" d="M39.6413 125.434C40.7158 125.388 41.8115 125.562 42.8834 125.667C42.9768 125.676 43.0123 125.82 42.9071 125.842C40.9886 126.243 39.0912 126.792 37.207 127.349L36.4003 127.588C34.2756 128.216 32.2132 128.865 30.1563 129.704C26.0568 131.375 22.1634 133.631 18.5801 136.223C4.78171 146.203 -5.20491 161.313 -11.507 176.957C-13.2185 181.206 -14.6686 185.56 -15.8432 189.988C-16.1289 191.065 -16.3976 192.147 -16.6524 193.231C-16.7272 193.55 -17.0532 194.364 -16.8744 194.69C-16.7164 194.977 -16.102 195.155 -15.8166 195.305L-14.853 195.804C-12.9734 196.774 -9.84247 198.367 -9.5285 198.522L-9.03882 198.763C-1.02953 202.691 7.52833 206.022 16.5413 206.252L16.6119 205.482C17.0137 201.226 17.541 196.946 18.692 192.82C18.7539 192.598 19.036 192.673 19.0618 192.87C19.7029 197.755 19.498 202.677 19.2743 207.584C18.8782 216.276 18.3521 224.962 17.8846 233.65C17.6505 237.996 17.348 242.339 17.0748 246.682C16.8012 251.035 16.7127 255.492 16.0879 259.808C15.9487 260.77 14.8222 261.293 13.9691 261.192C13.0252 261.08 12.2991 260.248 12.2946 259.294C12.2832 256.78 12.5991 254.236 12.7746 251.727C12.9413 249.344 13.1203 246.962 13.3037 244.58C13.9738 235.887 14.7447 227.204 15.4577 218.515C15.7104 215.433 15.9834 212.354 16.2644 209.275C6.7165 208.967 -2.20343 205.429 -10.7128 201.296C-10.836 204.093 -11.1335 206.886 -11.4214 209.672C-12.2253 217.447 -12.9341 225.218 -13.4646 233.017C-13.7325 236.956 -13.9275 240.9 -14.0973 244.844C-14.1808 246.783 -14.2488 248.722 -14.301 250.661C-14.3185 251.308 -14.3342 251.954 -14.3482 252.601L-14.3772 254.082C-14.401 255.021 -14.4963 255.89 -15.2857 256.573C-16.0875 257.267 -17.1704 257.304 -17.964 256.573C-19.0262 255.595 -18.8384 254.261 -18.8069 252.947C-18.7807 251.839 -18.7492 250.73 -18.7127 249.622C-18.6394 247.406 -18.5458 245.19 -18.4319 242.975C-18.0334 235.232 -17.2373 227.52 -16.1968 219.839L-15.7906 216.874C-15.0321 211.362 -14.1993 205.725 -12.5037 200.415C-13.164 200.086 -13.8223 199.756 -14.478 199.423C-15.6413 198.834 -16.844 198.281 -17.9747 197.631C-18.8718 197.115 -19.6454 196.407 -19.8951 195.363C-20.1736 194.2 -19.7478 192.927 -19.4649 191.792L-19.4403 191.692C-19.1629 190.549 -18.8642 189.412 -18.549 188.278C-17.2708 183.684 -15.6903 179.179 -13.8406 174.784C-10.1371 165.985 -5.35681 157.626 0.482418 150.068C5.73854 143.264 11.9477 137.095 19.2251 132.467C22.7828 130.205 26.5742 128.348 30.5839 127.034C32.458 126.42 34.4972 125.887 36.4594 125.667C37.5179 125.548 38.5778 125.481 39.6413 125.434ZM58.6794 111.492C59.9563 110.12 62.4932 111.539 61.8801 113.356C60.438 117.629 58.1415 121.527 54.5576 124.335C51.1887 126.975 47.1715 128.689 42.8451 128.323C42.8117 128.32 42.7828 128.312 42.7572 128.3L43.1301 128.806C46.0571 132.766 49.145 136.673 52.8668 139.91C60.4498 146.507 70.7745 150.064 80.7442 147.534C88.5882 145.542 95.4987 139.337 97.5311 131.43C97.2398 131.56 96.8935 131.605 96.5134 131.522C94.8873 131.169 93.2774 129.458 92.2287 128.231C91.0942 126.904 90.2082 125.471 89.5587 123.852C88.3701 120.887 87.989 117.07 89.612 114.199C89.8122 113.845 90.2741 114.043 90.3134 114.389L90.3752 114.928C90.688 117.619 91.0778 120.223 92.3462 122.676C92.9669 123.877 93.711 125.048 94.6167 126.054C95.1013 126.592 95.6267 127.106 96.194 127.557C96.7468 127.996 97.4158 128.314 97.9112 128.818L98.002 128.915L98.0046 128.897C98.1298 127.832 98.8767 127.363 99.6074 127.392C100.315 127.42 101.145 127.732 101.467 127.881L101.497 127.895C106.431 130.264 110.975 133.353 115.251 136.779C124.094 143.864 130.719 153.126 133.929 164.034C135.505 169.387 136.409 174.903 137.363 180.393L137.951 183.757C138.842 188.826 139.837 193.994 141.848 198.709C142.368 199.929 141.967 201.072 140.691 201.552C139.099 202.151 137.5 202.731 135.899 203.304C136.686 206.677 137.165 210.168 137.754 213.559C139.006 220.765 140.54 227.926 141.855 235.123C142.528 238.803 143.134 242.496 143.806 246.176C144.13 247.949 144.467 249.718 144.796 251.49C144.973 252.445 145.133 253.404 145.302 254.36L145.331 254.519C145.428 255.024 145.549 255.546 145.41 256.051C145.252 256.626 144.803 257.033 144.402 257.446C144.071 257.786 143.594 257.788 143.19 257.603L143.057 257.541C142.334 257.203 141.768 256.866 141.512 256.051C141.349 255.534 141.291 254.953 141.185 254.421C140.981 253.401 140.788 252.38 140.606 251.356C140.242 249.307 139.886 247.257 139.539 245.205L139.215 243.284C138.101 236.663 137.044 230.001 136.509 223.31C136.272 220.341 136.021 217.375 135.767 214.409L135.577 212.184C135.336 209.367 135.041 206.48 135 203.626L134.043 203.966L129.371 205.617C128.213 206.027 126.738 206.866 125.492 206.713C124.882 206.639 124.417 206.446 124.057 206.097C124.488 212.17 125.07 218.232 125.846 224.263C126.552 229.751 127.335 235.232 128.259 240.687C128.717 243.389 129.187 246.088 129.699 248.78C129.954 250.126 130.218 251.47 130.489 252.813C130.625 253.483 130.786 254.153 130.892 254.829C131.012 255.602 130.799 256.078 130.367 256.715C130.013 257.237 129.303 257.506 128.728 257.145C127.966 256.667 127.569 256.253 127.344 255.382C127.141 254.591 127.017 253.765 126.859 252.963C126.568 251.484 126.287 250.004 126.016 248.521C125.448 245.42 124.925 242.311 124.457 239.193C122.811 228.21 121.766 217.134 121.238 206.041C120.977 200.567 120.897 195.089 120.943 189.61C120.967 186.802 121.059 183.985 121.257 181.184C121.458 178.348 121.877 175.569 122.25 172.761C122.263 172.662 122.403 172.656 122.409 172.761C122.585 175.909 122.863 179.054 122.998 182.211C123.128 185.224 123.185 188.241 123.288 191.254C123.423 195.215 123.611 199.179 123.86 203.139C124.31 202.647 124.989 202.363 125.668 202.474C126.651 202.267 127.71 201.751 128.648 201.437L132.183 200.256C134.042 199.635 135.9 199.018 137.766 198.42C136.098 192.808 134.956 187.112 133.98 181.334L133.545 178.735C132.684 173.619 131.756 168.501 130.196 163.548C128.557 158.339 126.103 153.497 122.848 149.113C119.639 144.791 115.736 140.986 111.717 137.427C108.276 134.38 104.595 131.629 101.085 128.666C101.122 128.862 101.13 129.078 101.098 129.316C100.351 134.779 97.5024 139.867 93.532 143.651C85.5556 151.254 73.7485 152.831 63.5396 149.266C53.6643 145.818 44.9333 137.651 41.8486 127.545C41.7958 127.372 42.0273 127.303 42.1203 127.43C42.2914 127.665 42.4634 127.899 42.6355 128.134C42.6239 128.041 42.6723 127.939 42.7872 127.895C46.3864 126.505 49.9207 124.533 52.6186 121.744C53.9335 120.384 55.0811 118.844 55.987 117.183C56.421 116.387 56.8108 115.563 57.1217 114.711L57.2008 114.491C57.5777 113.424 57.8926 112.337 58.6794 111.492Z" fill="#4F4F4F"/>
<path fill-rule="evenodd" clip-rule="evenodd" d="M39.3604 36.6424C40.456 35.4662 41.8574 34.59 43.3893 34.3099C41.989 35.0097 40.6202 35.7391 39.3604 36.6424ZM37.2143 46.7838C37.0206 45.8875 36.8905 44.9825 36.8495 44.0777C37.0943 44.4501 37.4854 44.6988 37.9246 44.8273C37.6409 45.4629 37.3996 46.1176 37.2143 46.7838ZM110.529 60.8372C109.264 55.571 103.364 45.4416 101.969 43.4919C100.455 38.6645 108.714 34.7931 104.222 31.0181C102.189 29.3149 99.5007 28.7121 96.9794 28.1081C79.5224 23.914 60.7664 26.0292 44.5757 33.7416C42.113 33.2232 39.5471 34.2364 37.7562 36.0159C29.3425 44.4759 40.8088 59.74 43.3162 69.2774C47.618 79.9119 38.7566 81.7008 39.7069 90.6986C40.4452 95.347 45.1517 96.5756 49.1233 97.2781C49.7598 97.4271 50.6108 97.4495 50.8162 98.1227C51.4597 102.052 53.6657 105.796 56.6275 108.338C56.3685 109.105 56.5662 110.037 57.4795 110.711C65.7545 116.863 76.1884 119.942 86.5092 119.388C98.8088 118.729 105.17 111.676 106.704 109.86C115.191 98.3953 114.177 83.2682 112.446 69.6046C111.24 60.0862 112.769 70.1662 110.529 60.8372Z" fill="#F9F9F9"/>
<path fill-rule="evenodd" clip-rule="evenodd" d="M72.6032 17.0166C72.9898 15.8077 74.0841 15.0806 75.337 15.2307C76.4461 15.3617 77.6334 16.4629 77.4982 17.6781C77.4729 17.9127 77.4391 18.1325 77.3989 18.3397L77.4042 18.3415L77.4095 18.3418L77.382 18.4221C77.2996 18.8089 77.1856 19.1555 77.0165 19.4831C76.801 20.1108 76.594 20.7406 76.3891 21.3725C76.6848 21.3598 76.987 21.3768 77.2933 21.4338C77.6102 20.6222 77.9292 19.8128 78.2461 18.9991C78.5863 18.1304 78.825 17.0145 79.4968 16.3424C80.3567 15.4843 81.8482 15.3068 82.8961 15.9197C84.0032 16.5664 84.3982 17.7162 84.1574 18.9483C84.035 19.5769 83.6152 20.0143 83.0958 20.2891L83.0398 20.3179L82.6405 21.2647C82.763 21.2119 82.8898 21.1633 83.0271 21.1231C83.2426 21.0597 83.4539 21.0196 83.6609 21.0027C84.2313 19.9692 84.8588 18.9653 85.5074 17.9804C86.2532 16.8475 87.7109 16.3656 88.9341 17.0821C90.0285 17.7225 90.6158 19.4049 89.832 20.5102C89.2363 21.3493 88.6722 22.2053 88.1165 23.0697C88.2116 23.0866 88.3067 23.1077 88.3975 23.1352C88.4398 23.0781 88.4841 23.0211 88.5306 22.964C89.137 22.2116 89.8426 21.6473 90.5672 21.0217C91.2454 20.4341 91.5581 19.5105 92.4496 19.0646C93.5715 18.5045 94.9236 18.7729 95.5912 19.8889C97.0236 22.2792 94.6194 24.025 93.0813 25.4727C94.4186 24.6379 95.8109 23.8749 97.2391 23.2155C98.0419 22.8456 98.8574 22.4885 99.6856 22.1799C100.913 21.7234 101.906 21.8694 102.914 22.7188C103.364 23.0993 103.588 23.9301 103.381 24.4836C102.979 25.5446 102.345 26.1892 101.234 26.4957C100.452 26.7112 99.6517 26.8571 98.8701 27.0832C97.5602 27.4594 96.2884 27.918 95.0546 28.4908C95.1433 28.5458 95.2278 28.6049 95.306 28.6726C96.2271 28.3746 97.1651 28.1167 98.1074 27.8969C99.6701 27.5304 101.261 27.2827 102.858 27.1278L103.389 27.0783C105.304 26.8945 107.607 26.5551 108.783 28.3894C109.169 28.9938 109.212 29.9914 108.783 30.5895C107.963 31.7393 107.148 31.9675 105.791 31.9887C107.126 32.1303 108.459 32.3057 109.786 32.5107C110.701 32.6502 111.615 32.8083 112.526 32.9837L112.981 33.0729C114.09 33.2948 115.328 33.4237 116.281 34.0662C118.359 35.4696 117.383 38.2024 115.081 38.494C113.967 38.6335 112.731 38.1622 111.639 37.9424C110.579 37.7289 109.514 37.5408 108.445 37.376C107.891 37.2893 107.338 37.2132 106.782 37.1435C107.912 37.3062 109.034 37.5366 110.126 37.8621L110.43 37.9537C112.541 38.5975 115.392 39.6228 116.05 41.8798C116.45 43.2515 115.357 44.4478 114.035 44.5281C112.805 44.602 111.781 43.8687 110.737 43.3276C109.976 42.9345 109.203 42.6407 108.383 42.3892C107.536 42.1292 106.672 41.9137 105.802 41.7382C106.537 42.1437 107.254 42.5892 107.941 43.0877L108.257 43.3213C110.085 44.6837 112.872 46.793 112.229 49.3469C112.026 50.1521 111.128 50.9214 110.266 50.839C108.022 50.6297 106.784 48.2394 105.092 46.9586C104.65 46.6247 104.167 46.295 103.659 45.9737C106.224 49.0341 108.265 52.5721 109.818 56.2263C113.231 64.2656 114.278 71.7107 114.303 80.3547V80.6225C114.307 85.3905 114.2 90.2452 113.735 94.9922C113.304 99.3777 112.514 103.706 110.526 107.678C107.194 114.337 100.702 119.524 93.5419 121.498C85.575 123.696 76.6701 121.977 70.144 116.905C68.4792 115.612 70.687 112.803 72.3877 113.997C79.1799 118.763 87.9644 120.272 95.7602 117.047C101.944 114.489 106.924 108.988 109.034 102.654C110.378 98.6239 110.769 94.3273 111.248 90.1277L111.28 89.8479C111.787 85.456 112.081 81.0346 112.076 76.6132C112.07 68.4022 110.891 61.6432 107.281 54.1952C105.582 50.6868 103.379 47.4428 100.746 44.5957C99.9475 44.7584 99.0982 44.5302 98.2912 44.4435C97.8792 44.3991 97.4672 44.3569 97.0553 44.3188C97.4761 44.591 97.8888 44.8741 98.2946 45.1637L98.8267 45.5476C100.492 46.7406 102.604 48.0994 102.176 50.4057C102.06 51.0292 101.439 51.602 100.837 51.7436C98.6546 52.2635 97.1546 50.1415 95.6799 48.8819C94.3975 47.7871 93.056 46.8064 91.6891 45.8236C91.3785 45.6017 91.0658 45.3798 90.751 45.16C91.0468 45.5049 91.3345 45.8553 91.6151 46.2088L92.03 46.7349C93.2855 48.3064 95.0953 50.349 93.9771 52.3861C93.6602 52.9609 92.9841 53.3435 92.3292 53.3308C90.0771 53.2843 89.1813 50.727 88.125 49.1123C87.2165 47.7279 86.2299 46.4239 85.2095 45.1198C84.9285 44.7627 84.6454 44.4055 84.3581 44.0483C79.6278 44.2935 74.9144 44.9191 70.2834 45.9188C67.1018 46.6056 63.9729 47.4956 60.8672 48.4697L60.6091 48.5519C58.9284 49.0932 57.1966 49.7861 55.9848 50.9743C55.8119 51.7929 55.9447 52.6562 56.1101 53.4737L56.2391 54.0995C56.7705 56.7161 57.1326 59.2843 56.8616 61.9708C56.5806 64.7416 55.7461 67.2334 54.7278 69.8077C54.2461 71.0208 53.7475 70.801 53.5764 72.1029C53.4453 73.0946 53.5264 74.1183 53.6159 75.1183L53.6908 75.966C53.8786 78.1867 53.9729 80.6078 52.5179 82.4401C52.2919 82.7212 51.8081 82.6092 51.6475 82.3281C51.5841 82.216 51.5165 82.1083 51.4426 82.0047C50.7412 80.9881 49.6658 80.409 48.4363 80.185C48.2799 80.1575 48.3412 79.9483 48.4722 79.9314C49.5116 79.8088 50.4961 80.0687 51.3327 80.6056C50.936 79.2331 47.8645 79.9006 46.8548 80.1673L46.8201 80.1765C45.5609 80.5147 44.3694 81.0642 43.3194 81.842C41.2067 83.4059 39.9856 85.8449 40.0468 88.472C40.1081 91.0547 41.4412 93.4409 43.7313 94.6773C44.8363 95.2733 46.0933 95.5607 47.344 95.548C48.6496 95.5353 49.8116 94.9626 51.1194 95.0429C51.8757 95.0894 52.4546 95.901 52.0172 96.609C51.7257 97.0824 51.3454 97.4544 50.906 97.7397C51.9771 100.21 53.344 102.567 54.9201 104.742C55.7926 105.949 56.7813 107.062 57.8694 108.079C58.7187 108.874 60.5588 109.793 60.4553 111.118C60.4194 111.596 60.1722 111.888 59.737 112.065C58.3839 112.618 56.7386 110.713 55.8336 109.794L55.7609 109.721C54.6327 108.597 53.6039 107.354 52.7081 106.035C51.1194 103.693 50.1327 101.054 49.725 98.2808C47.5553 98.9339 44.682 98.3209 42.9116 97.5199C37.3468 95.0049 35.5278 87.5083 38.9102 82.5162C39.5651 81.5503 40.3848 80.7239 41.3187 80.056C41.1137 79.944 40.9215 79.8003 40.7503 79.6186C39.8037 78.6126 39.1344 77.2999 38.4702 76.09L38.3905 75.9453C37.8008 74.8801 37.2445 73.7982 36.7231 72.6996L36.5292 72.2868C35.3651 69.7823 34.3447 68.6875 33.5144 66.0541C32.7158 63.5137 32.0863 60.9246 31.6785 58.2912L31.5702 57.5941C31.3343 56.0661 31.1113 54.4321 31.2834 52.8806C30.0982 53.2674 28.9067 53.5062 27.7341 52.925C26.9609 52.5425 26.5341 51.4265 26.7982 50.6255C26.9905 50.0359 27.3116 49.573 27.7194 49.2095C27.4764 49.0869 27.2482 48.9305 27.0475 48.7572L26.8722 48.6052C26.1623 47.9879 26.1116 46.8149 26.5426 46.0413C26.5848 45.9674 26.6271 45.8913 26.6672 45.8173C27.0771 45.0839 27.9243 44.6042 28.7609 44.6168C28.8961 44.6189 29.0313 44.6189 29.1687 44.6168C28.7778 44.5302 28.3954 44.397 28.032 44.173C26.3926 43.1649 26.5996 40.4321 28.5834 39.9502C29.4158 39.7494 30.3348 39.8319 31.2517 40.0474C31.2179 40.0284 31.1841 40.0094 31.1503 39.9883C30.4574 39.5634 29.8764 38.7328 29.9419 37.8811C30.0137 36.9385 30.3179 36.2664 31.1503 35.7718C31.8729 35.3449 32.8954 35.3047 33.6137 35.7718C34.237 36.1797 34.8475 36.6299 35.4348 37.1139C34.8454 36.389 34.3341 35.6006 34.1271 34.7637C33.8715 33.7217 34.2982 32.5868 35.2363 32.0373C35.9841 31.5998 36.7743 31.6484 37.4799 31.9865C37.4419 31.4391 37.575 30.8812 37.9384 30.3866C38.682 29.3723 40.0341 28.7888 41.2109 29.5285C41.3651 29.6258 41.5722 29.7927 41.7729 29.9977C41.382 28.7529 41.7348 27.4467 43.0679 26.8845C43.8813 26.54 44.982 26.7134 45.6877 27.3072C45.2398 24.8831 48.8165 23.1014 50.2067 25.6059C50.5222 26.1732 50.8343 26.7707 51.1135 27.3818L51.2165 27.6116L51.2271 27.6074L51.1561 27.4393L51.0834 27.2713C50.6968 26.3731 50.2046 25.4389 50.0694 24.4646C49.8708 23.0232 50.513 21.6557 52.0806 21.4444C52.8898 21.3345 53.7898 21.7022 54.3327 22.345C54.0391 20.1087 56.5363 18.4834 58.3341 20.153C59.1856 20.9435 59.6398 22.0996 60.1806 23.1141C60.487 23.6868 60.7996 24.2575 61.106 24.8323C61.1841 24.7393 61.2687 24.6463 61.3574 24.5555C60.9032 23.1944 60.5503 21.7995 60.2525 20.3961C59.9694 19.073 60.6306 17.6993 61.9954 17.3254C63.2356 16.9828 64.7884 17.7481 65.0651 19.069C65.2595 19.9988 65.4898 20.9183 65.7433 21.8333C65.9165 21.791 66.0877 21.7614 66.2567 21.7403C66.2708 21.5684 66.2867 21.3955 66.3046 21.2236L66.3711 20.6123C66.5188 19.2154 66.6678 17.6207 67.3975 16.4333C68.6419 14.4043 71.832 15.2455 71.8658 17.6443C71.8848 18.8849 71.3799 20.115 71.2046 21.3429C71.1285 21.8777 71.0841 22.4187 71.0588 22.9598C71.3989 21.1633 71.8658 19.3901 72.4067 17.6443C72.4701 17.4351 72.5377 17.2258 72.6032 17.0166ZM45.0792 86.2931C47.8785 85.8598 50.4369 87.4217 52.0954 89.6091C52.3975 90.0086 52.1989 90.5729 51.9264 90.9089C51.7299 91.1562 51.4658 91.1858 51.1679 91.2239C50.8257 91.2682 50.3926 90.9914 50.2426 90.6934C49.1757 88.563 47.2722 87.2167 45.0792 86.3882C45.0391 86.3734 45.0264 86.3015 45.0792 86.2931ZM48.9597 48.1223L49.0445 48.0312C49.6109 47.4434 48.7158 46.5456 48.1481 47.1346C47.5504 47.7548 47.1532 48.508 46.7713 49.2714C46.4072 49.9993 47.5003 50.6422 47.8658 49.9116L48.0323 49.5795C48.2935 49.0631 48.572 48.553 48.9597 48.1223ZM41.0983 46.9159C41.9011 46.7806 41.5608 45.5584 40.7613 45.6932C39.7257 45.8678 38.6941 46.0663 37.6582 46.2411C36.8556 46.3763 37.196 47.5986 37.9954 47.4639C39.031 47.2891 40.0627 47.0907 41.0983 46.9159ZM88.9225 38.5716C88.147 38.3127 87.8142 39.537 88.5856 39.7945C89.6514 40.1502 90.7086 40.5147 91.7197 41.0087C92.4501 41.3654 93.0934 40.2721 92.3594 39.9137C91.2496 39.3715 90.0925 38.9622 88.9225 38.5716ZM40.9158 36.9281C40.1584 36.625 39.8294 37.8511 40.5788 38.151L43.3168 39.2464C44.0742 39.5495 44.4032 38.3237 43.6538 38.0238L40.9158 36.9281ZM98.4832 33.9507L98.3833 33.8876C97.6967 33.4425 97.0606 34.5399 97.7434 34.9826C98.1442 35.2424 98.6316 35.4186 98.9987 35.7281L99.0754 35.7966C99.6682 36.3566 100.566 35.4618 99.9718 34.8998C99.5369 34.489 98.9862 34.2603 98.4832 33.9507Z" fill="#4F4F4F"/>
</g>
</g>
</g>
<defs>
<clipPath id="clip0_133_1611">
<rect width="150" height="150" fill="white"/>
</clipPath>
</defs>
</svg>
