<svg width="150" height="150" viewBox="0 0 150 150" fill="none" xmlns="http://www.w3.org/2000/svg">
<g clip-path="url(#clip0_133_1637)">
<mask id="mask0_133_1637" style="mask-type:alpha" maskUnits="userSpaceOnUse" x="0" y="0" width="150" height="150">
<path d="M75 150C116.421 150 150 116.421 150 75C150 33.5786 116.421 0 75 0C33.5786 0 0 33.5786 0 75C0 116.421 33.5786 150 75 150Z" fill="white"/>
</mask>
<g mask="url(#mask0_133_1637)">
<mask id="mask1_133_1637" style="mask-type:luminance" maskUnits="userSpaceOnUse" x="0" y="0" width="150" height="150">
<path d="M150 0H0V150H150V0Z" fill="white"/>
</mask>
<g mask="url(#mask1_133_1637)">
<path fill-rule="evenodd" clip-rule="evenodd" d="M139.581 228.881C138.729 224.07 137.948 219.246 137.239 214.412C136.902 212.117 136.574 209.819 136.278 207.518C136.071 205.906 135.756 204.062 136.853 202.868C138.396 201.188 139.797 199.749 139.986 197.342C140.164 195.077 139.398 192.608 138.92 190.409C137.916 185.798 136.666 181.244 135.285 176.734C133.882 172.151 132.343 167.611 130.783 163.08C129.324 158.844 127.921 154.57 126.021 150.505C122.414 142.792 116.313 137.08 108.772 133.266C106.897 132.317 103.072 128.931 101.112 128.173C99.3107 127.476 99.3171 129.511 97.5444 128.744C96.1273 128.131 94.8076 127.314 94.0141 125.945C93.1525 124.459 90.9921 122.38 90.663 120.65C89.966 116.983 90.7211 113.861 88.1048 111.101C85.7821 108.65 82.6601 106.971 79.4298 106.07C72.3237 104.087 62.8466 105.473 58.5592 112.079C56.5114 115.234 55.7959 119.047 53.0327 121.621C50.6198 123.869 51.1598 125.406 48.0347 126.565C47.8577 126.631 43.0602 125.601 42.8832 125.667C39.4644 124.935 36.1969 126.984 33.0604 128.173C28.3844 129.945 23.9326 132.251 19.7501 134.993C11.3165 140.521 4.09334 147.699 -1.86166 155.822C-7.86588 164.011 -12.5246 173.191 -15.8417 182.785C-16.6473 185.115 -17.3709 187.474 -18.0091 189.856C-18.3664 191.188 -18.748 192.571 -18.313 193.936C-17.9572 195.052 -17.1658 195.883 -16.2365 196.553C-14.9767 197.461 -12.4498 198.052 -12.499 199.878C-12.5366 201.267 -13.0075 202.728 -13.2373 204.1C-13.511 205.735 -13.7358 207.379 -13.9606 209.02C-14.9831 216.491 -15.779 224.004 -16.1309 231.539C-16.4774 238.958 -16.7649 246.528 -16.2505 253.945C-16.2165 254.434 -16.0707 254.883 -15.8356 255.262C-16.0551 255.346 -16.072 255.756 -15.7988 255.814C-15.6074 255.854 -15.4164 255.895 -15.225 255.935C-14.8274 256.236 -14.3316 256.421 -13.7609 256.439C-13.3741 256.451 -12.9875 256.469 -12.601 256.488C-8.52335 257.341 -4.44631 258.147 -0.31539 258.757C4.70602 259.498 9.74222 260.102 14.794 260.594C25.1746 261.603 35.4735 261.268 45.868 260.724C56.2462 260.181 66.6184 260.054 77.0075 260.324C87.4056 260.595 97.8 261.047 108.201 261.232C119.82 261.439 131.422 261.122 143.008 260.198C144.597 260.071 145.579 258.807 145.266 257.228C143.389 247.772 141.262 238.379 139.581 228.881Z" fill="#F9F9F9"/>
<path fill-rule="evenodd" clip-rule="evenodd" d="M39.6413 125.434C40.7158 125.388 41.8115 125.562 42.8834 125.667C42.9768 125.676 43.0123 125.82 42.9071 125.842C40.9886 126.243 39.0912 126.792 37.207 127.349L36.4003 127.588C34.2756 128.216 32.2132 128.865 30.1563 129.704C26.0568 131.375 22.1634 133.631 18.5801 136.223C4.78171 146.203 -5.20491 161.313 -11.507 176.958C-13.2185 181.206 -14.6686 185.56 -15.8432 189.988C-16.1289 191.065 -16.3976 192.147 -16.6524 193.232C-16.7272 193.55 -17.0532 194.364 -16.8744 194.69C-16.7164 194.977 -16.102 195.155 -15.8166 195.305L-14.853 195.805C-12.9734 196.774 -9.84247 198.367 -9.5285 198.522L-9.03882 198.763C-1.02953 202.691 7.52833 206.022 16.5413 206.252L16.6119 205.482C17.0137 201.226 17.541 196.946 18.692 192.82C18.7539 192.599 19.036 192.673 19.0618 192.87C19.7029 197.755 19.498 202.677 19.2743 207.585C18.8782 216.276 18.3521 224.962 17.8846 233.65C17.6505 237.996 17.348 242.339 17.0748 246.682C16.8012 251.035 16.7127 255.492 16.0879 259.808C15.9487 260.77 14.8222 261.293 13.9691 261.192C13.0252 261.08 12.2991 260.248 12.2946 259.295C12.2832 256.78 12.5991 254.236 12.7746 251.727C12.9413 249.344 13.1203 246.962 13.3037 244.58C13.9738 235.887 14.7447 227.204 15.4577 218.515C15.7104 215.433 15.9834 212.354 16.2644 209.275C6.7165 208.967 -2.20343 205.429 -10.7128 201.296C-10.836 204.093 -11.1335 206.886 -11.4214 209.672C-12.2253 217.447 -12.9341 225.219 -13.4646 233.017C-13.7325 236.956 -13.9275 240.9 -14.0973 244.844C-14.1808 246.783 -14.2488 248.722 -14.301 250.661C-14.3185 251.308 -14.3342 251.954 -14.3482 252.601L-14.3772 254.082C-14.401 255.021 -14.4963 255.89 -15.2857 256.573C-16.0875 257.267 -17.1704 257.304 -17.964 256.573C-19.0262 255.595 -18.8384 254.261 -18.8069 252.947C-18.7807 251.839 -18.7492 250.73 -18.7127 249.622C-18.6394 247.406 -18.5458 245.19 -18.4319 242.975C-18.0334 235.232 -17.2373 227.52 -16.1968 219.839L-15.7906 216.874C-15.0321 211.362 -14.1993 205.725 -12.5037 200.415C-13.164 200.086 -13.8223 199.756 -14.478 199.423C-15.6413 198.834 -16.844 198.281 -17.9747 197.631C-18.8718 197.115 -19.6454 196.407 -19.8951 195.363C-20.1736 194.2 -19.7478 192.927 -19.4649 191.792L-19.4403 191.692C-19.1629 190.549 -18.8642 189.412 -18.549 188.279C-17.2708 183.684 -15.6903 179.179 -13.8406 174.784C-10.1371 165.985 -5.35681 157.626 0.482418 150.068C5.73854 143.265 11.9477 137.095 19.2251 132.467C22.7828 130.205 26.5742 128.348 30.5839 127.034C32.458 126.421 34.4972 125.887 36.4594 125.667C37.5179 125.548 38.5778 125.481 39.6413 125.434ZM58.6794 111.492C59.9563 110.12 62.4932 111.539 61.8801 113.356C60.438 117.629 58.1415 121.527 54.5576 124.335C51.1887 126.975 47.1715 128.689 42.8451 128.323C42.8117 128.32 42.7828 128.312 42.7572 128.3L43.1301 128.806C46.0571 132.767 49.145 136.673 52.8668 139.91C60.4498 146.507 70.7745 150.065 80.7442 147.534C88.5882 145.543 95.4987 139.337 97.5311 131.43C97.2398 131.56 96.8935 131.605 96.5134 131.522C94.8873 131.169 93.2774 129.458 92.2287 128.231C91.0942 126.904 90.2082 125.471 89.5587 123.852C88.3701 120.887 87.989 117.07 89.612 114.199C89.8122 113.845 90.2741 114.043 90.3134 114.389L90.3752 114.928C90.688 117.619 91.0778 120.223 92.3462 122.676C92.9669 123.877 93.711 125.048 94.6167 126.054C95.1013 126.592 95.6267 127.106 96.194 127.557C96.7468 127.996 97.4158 128.314 97.9112 128.818L98.002 128.915L98.0046 128.897C98.1298 127.832 98.8767 127.363 99.6074 127.392C100.315 127.42 101.145 127.732 101.467 127.881L101.497 127.895C106.431 130.264 110.975 133.353 115.251 136.779C124.094 143.864 130.719 153.126 133.929 164.034C135.505 169.387 136.409 174.903 137.363 180.393L137.951 183.757C138.842 188.826 139.837 193.994 141.848 198.709C142.368 199.929 141.967 201.072 140.691 201.552C139.099 202.151 137.5 202.731 135.899 203.304C136.686 206.677 137.165 210.168 137.754 213.559C139.006 220.765 140.54 227.926 141.855 235.124C142.528 238.804 143.134 242.496 143.806 246.176C144.13 247.949 144.467 249.719 144.796 251.49C144.973 252.445 145.133 253.404 145.302 254.36L145.331 254.519C145.428 255.024 145.549 255.546 145.41 256.051C145.252 256.627 144.803 257.033 144.402 257.446C144.071 257.786 143.594 257.789 143.19 257.603L143.057 257.541C142.334 257.203 141.768 256.866 141.512 256.051C141.349 255.534 141.291 254.953 141.185 254.421C140.981 253.401 140.788 252.38 140.606 251.356C140.242 249.307 139.886 247.257 139.539 245.205L139.215 243.284C138.101 236.663 137.044 230.001 136.509 223.31C136.272 220.341 136.021 217.375 135.767 214.409L135.577 212.184C135.336 209.367 135.041 206.48 135 203.626L134.043 203.966L129.371 205.618C128.213 206.027 126.738 206.866 125.492 206.713C124.882 206.639 124.417 206.446 124.057 206.097C124.488 212.17 125.07 218.232 125.846 224.264C126.552 229.751 127.335 235.232 128.259 240.688C128.717 243.389 129.187 246.088 129.699 248.78C129.954 250.126 130.218 251.47 130.489 252.813C130.625 253.483 130.786 254.154 130.892 254.829C131.012 255.603 130.799 256.078 130.367 256.715C130.013 257.238 129.303 257.506 128.728 257.145C127.966 256.667 127.569 256.253 127.344 255.382C127.141 254.591 127.017 253.765 126.859 252.963C126.568 251.484 126.287 250.004 126.016 248.521C125.448 245.42 124.925 242.311 124.457 239.194C122.811 228.21 121.766 217.134 121.238 206.041C120.977 200.567 120.897 195.089 120.943 189.61C120.967 186.802 121.059 183.985 121.257 181.184C121.458 178.348 121.877 175.569 122.25 172.761C122.263 172.662 122.403 172.656 122.409 172.761C122.585 175.909 122.863 179.054 122.998 182.211C123.128 185.224 123.185 188.241 123.288 191.254C123.423 195.215 123.611 199.179 123.86 203.139C124.31 202.647 124.989 202.363 125.668 202.474C126.651 202.267 127.71 201.751 128.648 201.437L132.183 200.256C134.042 199.635 135.9 199.018 137.766 198.42C136.098 192.808 134.956 187.112 133.98 181.334L133.545 178.735C132.684 173.619 131.756 168.501 130.196 163.548C128.557 158.34 126.103 153.498 122.848 149.113C119.639 144.791 115.736 140.986 111.717 137.427C108.276 134.38 104.595 131.629 101.085 128.666C101.122 128.862 101.13 129.079 101.098 129.316C100.351 134.779 97.5024 139.867 93.532 143.652C85.5556 151.254 73.7485 152.831 63.5396 149.266C53.6643 145.818 44.9333 137.651 41.8486 127.545C41.7958 127.372 42.0273 127.303 42.1203 127.43C42.2914 127.665 42.4634 127.899 42.6355 128.134C42.6239 128.041 42.6723 127.939 42.7872 127.895C46.3864 126.505 49.9207 124.533 52.6186 121.744C53.9335 120.384 55.0811 118.844 55.987 117.183C56.421 116.387 56.8108 115.563 57.1217 114.711L57.2008 114.491C57.5777 113.424 57.8926 112.337 58.6794 111.492Z" fill="#4F4F4F"/>
<path fill-rule="evenodd" clip-rule="evenodd" d="M111.213 68.274C110.428 62.0136 107.965 55.3667 105.374 49.5303C99.5488 37.1904 86.2121 35.4914 74.2562 32.9472C62.4582 31.2289 49.9649 29.6774 38.3448 33.1057C31.8122 34.7067 29.2607 42.4899 30.2917 48.6319C30.88 52.4593 32.6215 56.0816 34.1065 59.6287C37.0581 66.9131 38.9308 74.7117 38.934 82.5985C38.7314 87.7524 38.0042 93.6352 43.9248 95.8182C49.5586 98.6209 50.0346 106.219 57.0891 110.529C59.9416 116.309 67.7118 116.818 73.3043 118.159C76.839 118.836 80.4136 119.334 83.998 119.656C94.3767 120.986 102.68 117.977 108.113 108.728C111.748 103.099 114.456 96.6 113.787 89.778C113.121 82.5942 112.011 75.4481 111.213 68.274Z" fill="#F9F9F9"/>
<path fill-rule="evenodd" clip-rule="evenodd" d="M74.3459 17.9503C74.9383 17.2787 75.851 17.509 76.405 18.0402C76.7656 18.1465 77.115 18.3046 77.445 18.5138C78.1908 18.4181 78.9727 18.4181 79.7041 18.4449C79.8816 18.3453 80.0717 18.2568 80.2788 18.1807C81.7576 17.6399 83.0673 17.9146 84.1475 18.6387C84.6678 18.1463 85.3242 17.8373 86.1634 17.884C86.9123 17.9258 87.446 18.2784 87.9034 18.7427C88.3595 18.0848 89.0969 17.6153 90.0154 17.55C91.2993 17.4587 92.5335 17.9738 93.5565 18.7712C94.1525 18.0873 94.965 17.6942 95.8705 17.6904C96.4663 17.5822 97.095 17.6249 97.6631 17.7965C98.4879 18.0457 99.2121 18.5125 99.7889 19.1185C100.701 18.2443 101.818 17.6153 103.106 17.7071C104.773 17.8275 106.155 19.0536 106.797 20.5626C107.925 21.0147 108.967 21.6595 109.837 22.5789C109.884 22.6273 109.928 22.678 109.975 22.729C110.444 22.9021 110.885 23.1474 111.274 23.4706C112.506 24.4959 112.78 25.9795 112.372 27.4334C112.429 27.6661 112.478 27.9028 112.522 28.1393C113.676 28.3147 114.724 28.9807 115.32 30.0649C116.135 31.5528 115.975 33.514 115.091 34.9344C114.712 35.5455 114.23 36.0603 113.689 36.5105C114.301 37.9012 114.007 39.5607 113.02 40.6855C112.78 41.0733 112.485 41.4233 112.152 41.7401C112.519 43.1779 111.867 44.6614 110.566 45.4297L110.454 45.7084C110.436 45.7547 110.417 45.8008 110.397 45.8465C110.383 45.9056 110.365 45.9629 110.347 46.0206C110.316 46.5308 110.148 47.0315 109.815 47.5032C109.133 48.47 108.287 49.1004 107.838 50.229L107.793 50.3476C107.6 50.8817 106.977 51.2585 106.447 51.0936C109.393 57.1469 110.938 63.8825 111.998 70.4833C112.527 73.7764 112.935 77.0809 113.266 80.398L113.591 83.7013C113.877 86.6375 114.131 89.5834 114.132 92.5293C114.137 99.1934 112.231 105.603 108.141 110.906C104.272 115.919 98.7985 119.553 92.6147 120.983C86.2302 122.459 78.7407 121.877 73.0154 118.5C71.3274 117.507 72.8062 115.118 74.5238 115.918C77.7752 117.431 81.0795 118.555 84.6837 118.807C88.1971 119.054 91.7189 118.614 95.0506 117.464C100.563 115.56 105.253 111.572 108.267 106.605C109.753 104.158 110.828 101.501 111.401 98.6944C112.113 95.1959 112.006 91.5799 111.744 88.0367L111.726 87.7953C111.208 80.9684 110.526 74.0995 109.423 67.3408C108.448 61.364 106.949 55.5083 105.003 49.7822C104.241 49.111 103.388 48.5555 102.476 48.1337C95.7943 47.8545 89.1004 47.9361 82.4274 48.3972C76.7362 48.7931 71.0727 49.4629 65.4519 50.439L64.8499 50.5448C63.6055 50.7665 62.2238 50.8933 61.0513 51.3944C60.0457 51.8256 59.6379 52.654 59.3844 53.6725C58.7464 56.2489 58.6492 59.0685 58.5414 61.7104C58.4358 64.2929 58.6745 66.8969 58.4675 69.471C58.2921 71.6246 57.7407 73.829 56.1457 75.3869C55.3112 76.2025 54.2844 76.6484 53.321 77.2677C52.6978 77.6674 52.4337 78.0793 52.514 78.819C52.6872 80.4379 53.9907 82.4775 52.5266 83.8639C52.2689 84.107 51.8231 84.1387 51.5696 83.8639C50.9654 83.2068 50.1309 82.7057 49.4147 82.1752C49.1147 81.9557 49.364 81.5287 49.7041 81.6807C50.152 81.8817 50.6083 82.1184 51.0752 82.3255C50.0443 81.4759 48.5781 81.0593 47.3569 80.812C46.7421 80.6894 46.0957 80.6535 45.4555 80.7108C44.9823 80.9367 44.4985 81.1462 44.0147 81.351C43.3999 81.609 42.7788 81.8434 42.1534 82.0656C39.9837 83.8343 38.9485 86.711 39.4006 89.5241C39.6478 91.0773 40.364 92.7662 41.714 93.6729C43.3133 94.7466 45.4555 94.2856 47.1837 95.0826C48.802 95.8285 49.7865 97.3356 50.5238 98.8954L50.8312 99.5448C51.5156 100.983 52.219 102.382 53.1541 103.691C54.2358 105.206 55.5604 106.567 57.0055 107.736C57.7066 108.302 58.4538 108.811 59.226 109.274L59.4372 109.399C60.2189 109.858 60.7788 110.295 60.8316 111.265C60.8485 111.604 60.6351 111.912 60.3604 112.088C59.1774 112.838 58.0006 111.9 57.0161 111.244C55.9534 110.538 54.9372 109.744 53.9971 108.877C52.2097 107.233 50.6633 105.28 49.4738 103.16C48.5675 101.546 48.052 99.2737 46.6196 98.0225C45.745 97.2593 44.509 97.2532 43.4168 97.1135C42.4006 96.9827 41.4393 96.7713 40.5351 96.2704C36.8569 94.2266 35.8175 89.2789 36.69 85.4556C36.8379 84.8108 37.045 84.1831 37.3006 83.5786C35.9316 83.8069 34.3935 82.391 34.9492 80.9621C34.9914 80.8543 35.04 80.7531 35.0865 80.6493C34.1844 80.0554 33.4724 79.1553 33.1344 77.9778C32.9612 77.3691 32.9358 76.7541 33.0266 76.1602C32.5893 75.8666 32.2281 75.4628 31.9957 74.9661C31.2689 74.63 30.6245 74.1272 30.24 73.4086C29.7076 72.4172 29.7752 71.5042 30.1809 70.682C30.1238 70.5787 30.0689 70.473 30.0161 70.365C28.5266 69.4205 27.4872 67.7929 27.6055 65.9879C27.6435 65.3898 27.7914 64.8509 28.0196 64.365C28.0006 64.3037 27.9816 64.2401 27.9647 64.1788C26.7182 63.5447 25.6872 62.503 25.3196 61.1123C24.952 59.7129 25.3851 58.318 26.2513 57.2444C24.9837 56.3167 24.221 55.0212 24.6837 53.0617C24.8717 52.2652 25.2499 51.54 25.7612 50.9292C25.759 50.9104 25.7548 50.8914 25.7506 50.8722L25.632 50.7801C24.0671 49.5448 23.1676 47.9705 24.1281 46.0343C24.559 45.1638 25.1738 44.557 25.8964 44.1576L25.9323 44.0434C25.4147 42.9338 25.2393 41.7017 25.5964 40.4061C25.8879 39.339 26.5788 38.4891 27.4619 37.925C27.4027 37.4472 27.4112 36.938 27.5062 36.3862C27.6647 35.4544 28.1274 34.6407 28.8034 34.0637C28.8288 33.9409 28.8605 33.8206 28.8964 33.6999C29.1245 32.9625 29.5513 32.1615 30.0457 31.5674C30.4534 31.075 30.9097 30.8953 31.4675 30.8763C31.4337 30.4221 31.4569 29.9612 31.5499 29.4941C31.8351 28.0529 32.752 26.6979 34.1105 26.0829C34.6682 25.8314 35.2555 25.7576 35.8217 25.8187C36.3034 24.8042 37.2435 24.0689 38.3992 23.9104C38.8492 23.847 39.2675 23.851 39.652 23.9083C39.8696 23.8066 40.0957 23.716 40.3323 23.6333C40.4886 23.5784 40.6471 23.5277 40.8055 23.4771C41.34 22.8135 42.0435 22.2828 42.8654 21.9639C43.814 21.594 44.7795 21.6318 45.6351 21.9425L45.9076 21.8855C46.3344 21.1457 47.0147 20.573 48.0604 20.313C49.2478 20.0192 50.4668 20.4293 51.4006 21.1755C51.4048 21.1755 51.409 21.1755 51.4154 21.1732C51.9034 20.0805 52.7379 19.3197 54.1386 19.3725C55.0112 19.4063 55.7992 19.8398 56.4076 20.4569C56.7457 20.4145 57.0837 20.3764 57.4238 20.3386C57.783 19.9178 58.1823 19.5249 58.6238 19.1719C59.3464 18.5926 60.2865 18.6393 60.8189 19.4549C60.9351 19.6325 61.0428 19.8121 61.1506 19.9918L61.6386 19.958C62.2133 19.1823 62.9971 18.6581 64.0703 18.6161C65.0548 18.5757 65.7562 19.0578 66.2907 19.7318C66.7259 19.7212 67.1633 19.713 67.6006 19.7064C68.1097 19.1168 68.7097 18.5969 69.3943 18.1657C69.9182 17.836 70.6914 17.9482 71.1161 18.3878C71.403 18.6867 71.67 18.9986 71.9183 19.3216C72.5582 18.6038 73.4225 18.131 74.3459 17.9503ZM43.252 85.0645C44.2386 84.5023 45.5654 85.111 46.5203 85.5887C47.6844 86.1699 48.84 87.047 49.552 88.146C50.5217 89.6424 48.2421 90.8513 47.2217 89.5092C46.5943 88.6828 46.0936 87.8501 45.333 87.1273C44.6379 86.4637 43.6302 86.0198 43.2309 85.1448C43.2161 85.1152 43.2203 85.0814 43.252 85.0645ZM43.9451 48.7438L43.9636 48.691C44.2441 47.9232 43.0196 47.5922 42.7414 48.3537C42.3197 49.5079 42.8058 50.7627 43.9454 51.261C44.2612 51.3993 44.6221 51.3513 44.8124 51.0336C44.9724 50.7663 44.8982 50.303 44.5851 50.1663C43.9439 49.8858 43.7291 49.3907 43.9451 48.7438ZM33.3962 46.5968C34.009 46.0557 33.1097 45.1615 32.4997 45.7002C31.9306 46.2028 31.5085 46.8855 31.6181 47.6706C31.7299 48.4708 32.3331 49.0357 32.9933 49.435C33.693 49.8583 34.3308 48.7622 33.633 48.34L33.5546 48.292C33.2617 48.11 32.9188 47.8598 32.8693 47.5018C32.8166 47.1213 33.1384 46.8244 33.3962 46.5968ZM36.8752 37.0497L36.9186 37.0177C37.5769 36.5477 36.9446 35.4474 36.2787 35.9227C35.6681 36.3587 35.1784 36.9252 35.1269 37.7063C35.0768 38.4655 35.463 39.1236 35.9679 39.6577C36.5297 40.2518 37.425 39.354 36.8643 38.7612C36.318 38.1834 36.2112 37.5529 36.8752 37.0497Z" fill="#4F4F4F"/>
</g>
</g>
</g>
<defs>
<clipPath id="clip0_133_1637">
<rect width="150" height="150" fill="white"/>
</clipPath>
</defs>
</svg>
