<svg width="150" height="150" viewBox="0 0 150 150" fill="none" xmlns="http://www.w3.org/2000/svg">
<g clip-path="url(#clip0_133_1738)">
<mask id="mask0_133_1738" style="mask-type:alpha" maskUnits="userSpaceOnUse" x="0" y="0" width="150" height="150">
<path d="M75 150C116.421 150 150 116.421 150 75C150 33.5786 116.421 0 75 0C33.5786 0 0 33.5786 0 75C0 116.421 33.5786 150 75 150Z" fill="white"/>
</mask>
<g mask="url(#mask0_133_1738)">
<mask id="mask1_133_1738" style="mask-type:luminance" maskUnits="userSpaceOnUse" x="0" y="0" width="150" height="150">
<path d="M150 0H0V150H150V0Z" fill="white"/>
</mask>
<g mask="url(#mask1_133_1738)">
<path fill-rule="evenodd" clip-rule="evenodd" d="M97.5242 95.293C97.8367 94.8845 98.5973 96.6627 98.7524 96.8801L98.7599 96.8899C99.437 97.7093 99.989 98.9641 100.068 100.016C100.07 100.048 100.07 100.078 100.07 100.109C101.155 99.9596 102.24 99.8078 103.325 99.6413C103.745 99.3257 104.332 99.4236 104.9 99.7108C106.167 100.351 105.55 102.383 104.185 102.351C100.494 102.263 96.7247 102.737 93.0647 103.163C91.1819 103.383 89.3031 103.616 87.4304 103.914C85.6809 104.192 83.8921 104.584 82.1215 104.661C82.0249 104.665 81.9846 104.521 82.0716 104.476C83.6327 103.674 85.4158 103.188 87.1013 102.719C88.9252 102.21 90.7626 101.733 92.6128 101.33C94.2732 100.969 95.9422 100.698 97.615 100.454C97.6021 100.422 97.5897 100.388 97.5791 100.353C97.3669 99.641 97.3724 98.824 97.3271 98.0737L97.3009 97.6753C97.2597 96.989 97.2184 95.693 97.5242 95.293ZM92.0876 86.512C93.683 87.4822 96.1138 89.7443 94.3976 92.1493C92.3774 94.2699 89.4688 91.8385 88.0355 90.7388C86.7064 89.8866 85.2132 92.0785 86.4463 93.0736C96.8034 100.745 101.007 86.7657 92.8945 85.3714C92.0014 85.2178 91.6696 86.2119 92.0876 86.512ZM66.437 77.9735C69.0916 77.5683 71.8108 77.5218 74.4931 77.6558C75.8877 77.7253 77.2806 77.8289 78.6703 77.9667C79.3958 78.0388 80.1206 78.1195 80.844 78.2102C81.3629 78.2753 82.164 78.5724 82.6571 78.4372C84.1639 78.0244 85.5944 79.4508 85.1788 80.9601C84.7666 82.4577 83.0002 82.8527 81.864 81.9532C81.3253 81.7632 80.7834 81.5831 80.2383 81.4149C80.1967 81.5867 80.1356 81.7566 80.0494 81.9209C79.9527 82.1047 79.8595 82.2899 79.7712 82.4778C79.7902 82.4477 79.6442 82.798 79.6402 82.8081L79.5235 83.1131C79.3201 83.639 79.0922 84.1377 78.5397 84.4101C77.7802 84.7846 76.5887 84.5782 76.2817 83.6846C75.8022 82.7448 76.1195 81.4318 76.3943 80.4583L76.4156 80.3835C73.1027 79.5954 69.7349 79.0044 66.437 78.2028C66.3293 78.1766 66.3183 77.9916 66.437 77.9735ZM105.837 74.4383C106.009 74.0932 106.4 74.0917 106.633 74.4159C107.15 75.1357 105.992 76.1665 105.509 76.6455L105.46 76.6938C104.374 77.7962 103.05 78.6848 101.736 79.4881C101.461 79.6566 101.181 79.8172 100.9 79.9755C100.952 80.0801 101 80.1868 101.038 80.2957C101.237 80.8574 101.241 81.5285 101.062 82.0962C100.689 83.2799 99.696 84.2257 98.4085 84.2245C97.7295 84.2238 96.9256 83.5815 97.0175 82.8329C97.0503 82.5664 97.0771 82.2828 97.1179 81.9994C96.2124 82.3008 95.1005 81.9476 94.5246 81.2009C93.7236 80.1629 93.944 78.4618 95.1702 77.8172C96.0719 77.3433 97.0672 77.2237 98.0438 76.9732C99.013 76.7251 99.976 76.44 100.924 76.1215C101.86 75.8074 102.791 75.471 103.721 75.1385C104.181 74.9739 104.636 74.8221 105.104 74.6826C105.314 74.6205 105.615 74.4571 105.837 74.4383Z" fill="#4F4F4F"/>
</g>
</g>
</g>
<defs>
<clipPath id="clip0_133_1738">
<rect width="150" height="150" fill="white"/>
</clipPath>
</defs>
</svg>
