<svg width="150" height="150" viewBox="0 0 150 150" fill="none" xmlns="http://www.w3.org/2000/svg">
<g clip-path="url(#clip0_133_1778)">
<mask id="mask0_133_1778" style="mask-type:alpha" maskUnits="userSpaceOnUse" x="0" y="0" width="150" height="150">
<path d="M75 150C116.421 150 150 116.421 150 75C150 33.5786 116.421 0 75 0C33.5786 0 0 33.5786 0 75C0 116.421 33.5786 150 75 150Z" fill="white"/>
</mask>
<g mask="url(#mask0_133_1778)">
<mask id="mask1_133_1778" style="mask-type:luminance" maskUnits="userSpaceOnUse" x="0" y="0" width="150" height="150">
<path d="M150 0H0V150H150V0Z" fill="white"/>
</mask>
<g mask="url(#mask1_133_1778)">
<path fill-rule="evenodd" clip-rule="evenodd" d="M75.9289 95.9644C75.9733 95.9234 76.0434 95.9091 76.0969 95.9427C77.011 96.5209 77.1192 98.4656 77.1295 99.5887C77.5077 99.6872 77.8812 99.7992 78.2345 99.8774C78.9846 100.043 79.7388 100.188 80.4916 100.341L81.0557 100.457C82.9415 100.855 84.8626 101.149 86.7843 101.296C88.6493 101.439 90.5685 101.491 92.4283 101.251C93.2269 101.148 94.0208 100.975 94.7926 100.745C95.7048 100.473 96.4314 100.022 97.2798 99.6265C99.404 98.6367 101.184 101.537 99.14 102.81C97.385 103.902 94.991 104.296 92.9653 104.465C90.8949 104.637 88.8325 104.448 86.787 104.12C84.5757 103.766 82.4098 103.222 80.3125 102.432C79.4257 102.099 78.5675 101.694 77.7296 101.252L77.5016 101.13C77.3624 101.056 77.2172 100.98 77.0712 100.903C76.9143 102.303 76.4619 103.656 75.9154 104.957L75.9025 104.934C75.6036 105.96 74.5236 106.595 73.449 106.141C72.1878 105.61 72.092 104.215 72.8259 103.224L72.8609 103.178C73.7237 102.068 74.2643 100.69 74.7342 99.3769C74.9752 98.7037 75.1983 98.0143 75.3919 97.3257C75.5319 96.8276 75.537 96.3265 75.9289 95.9644ZM108.429 84.811C107.681 87.071 106.051 88.8115 103.78 89.5767C101.529 90.3352 99.025 90.0587 96.7245 89.6486C96.2212 89.5589 95.711 89.4599 95.2018 89.3443C95.6185 89.6026 95.9867 89.9661 96.339 90.3504C96.8598 90.9187 97.3322 91.5175 97.4755 92.2288C97.6177 92.9345 97.3937 93.4715 96.9851 93.8767C96.3566 94.5001 95.3429 94.8358 94.4842 95.0214C92.5613 95.4372 90.6351 95.3725 88.7216 94.9463C88.2331 94.8375 87.9018 94.5754 87.7158 94.2336C87.4899 93.8183 87.4714 93.302 87.601 92.8317C87.7306 92.3617 88.0105 91.9283 88.4168 91.6885C88.7512 91.491 89.1695 91.4369 89.6443 91.5949C90.5971 91.912 91.5432 92.1222 92.5496 92.1464C92.9756 92.1563 93.4044 92.1437 93.8298 92.1046C94.0703 92.0825 94.3103 92.0519 94.5489 92.0136C94.4084 91.8264 94.2719 91.6357 94.1384 91.443C93.9808 91.2153 93.8273 90.9846 93.6807 90.7501C93.2569 90.0711 92.9039 89.373 92.5938 88.6362C92.4943 88.4002 92.4021 88.1631 92.3135 87.9253C92.3008 87.891 92.2881 87.8567 92.2754 87.8223C92.2481 87.7995 92.2209 87.7764 92.194 87.7531C91.5875 87.2282 91.0789 86.5814 90.7192 85.7804C89.7453 83.6107 89.9038 80.9175 90.4948 78.6646C90.9684 76.8588 92.0138 75.1885 93.3948 74.0538C93.636 73.6569 93.7952 73.4161 93.9903 73.2134C94.784 72.3872 95.8916 71.8301 96.9725 71.4912C99.386 70.7339 102.016 71.2772 104.062 72.7191C105.951 74.0504 107.431 76.047 108.23 78.2677C108.987 80.3707 109.134 82.6774 108.429 84.811ZM75.5469 71.0759C78.4179 71.0514 81.3388 71.8993 83.6685 73.5963C85.8974 75.2201 87.6471 77.6174 87.645 80.473C87.6429 83.2533 86.1572 85.9869 84.5095 88.1395C82.6601 90.5561 80.2432 91.7212 77.2043 91.7481C75.6247 91.7622 74.0336 91.6222 72.4653 91.4301L71.6239 91.3239C70.4652 91.1744 69.2945 90.9975 68.1963 90.5992C62.9687 88.7023 62.8069 81.8571 64.7429 77.4815C66.2379 74.1033 70.0214 70.8088 73.7943 71.2042C74.3628 71.1245 74.9465 71.0812 75.5469 71.0759ZM80.3957 74.295C76.8006 72.6807 72.4324 73.164 68.945 74.8868C67.5636 76.3945 66.5539 78.2948 66.1453 80.0393C65.709 81.9015 65.7729 83.9074 66.4288 85.7123C67.2298 87.9157 69.2019 88.4614 71.3294 88.8L72.1554 88.9297L72.5019 88.9822C74.5923 89.2942 76.8777 89.5368 78.8867 89.1464C81.1255 88.7108 82.5474 86.9014 83.6665 85.0463L83.7188 84.9593C84.881 83.0155 85.8538 80.6516 84.8791 78.4243C84.0502 76.5313 82.2399 75.1231 80.3957 74.295ZM101.616 74.8575C100.382 74.1735 98.9746 74.0493 97.6423 74.5071C97.0691 74.704 96.5738 75.0232 96.0935 75.381L95.9021 75.526C95.3115 75.9795 94.7599 76.2092 94.3169 76.8217L94.2597 76.9038C94.0362 77.2377 93.6451 77.3713 93.2889 77.3269C92.8738 78.4718 92.7024 79.7099 92.699 80.9287L92.6993 81.0902L92.7014 81.255C92.7281 82.6957 92.9793 84.4581 94.1124 85.4237C95.146 86.3043 96.711 86.5157 98.1081 86.6383L99.185 86.7281L99.471 86.7497C100.944 86.8522 102.557 86.8173 103.792 85.9451C104.867 85.1855 105.374 83.8963 105.505 82.6233C105.816 79.616 104.294 76.3422 101.616 74.8575ZM74.7596 75.1353C76.7394 74.1242 79.1176 74.3776 80.7947 75.6449C80.6457 75.674 80.4991 75.7112 80.3529 75.7846C79.9724 75.9754 79.7362 76.3575 79.6462 76.7642C79.5448 77.2239 79.7829 77.659 80.2365 77.804C80.6311 77.93 81.0991 77.9877 81.4656 77.7478C81.6577 77.6223 81.7918 77.4568 81.8799 77.2484L81.8924 77.2177L81.9079 77.1952L81.9138 77.1847C81.9151 77.1807 81.9082 77.1883 81.8973 77.2055C81.9085 77.1795 81.9188 77.1535 81.9292 77.1271C81.9446 77.0956 81.9594 77.0639 81.9714 77.0311C81.9928 77.0127 82.0122 76.9922 82.0318 76.9717C82.3365 77.4407 82.5756 77.9703 82.7275 78.5596C83.7023 82.3417 79.7051 86.2667 76.1341 86.6594C74.7845 86.8077 73.5539 86.4863 72.5326 85.8527C72.5419 85.8402 72.5523 85.829 72.5607 85.8159C72.971 85.8896 73.4607 85.706 73.6097 85.2482C73.9897 84.0805 73.5999 82.7145 72.3281 82.333C71.5097 82.0874 70.6722 82.3588 70.0872 82.9185C69.6448 81.8353 69.4866 80.6158 69.6959 79.3944C69.9913 77.6713 71.0303 76.1185 72.6473 75.4016C73.4347 75.0522 74.1133 74.9789 74.7596 75.1353ZM95.6089 77.4688L95.6692 77.3738C96.281 76.432 97.4504 75.2766 98.6624 75.5943C98.8326 75.6389 98.9995 75.7108 99.15 75.804C99.816 75.7135 100.513 75.8648 101.086 76.2172L101.07 76.2567C101.068 76.2633 101.065 76.27 101.064 76.277C101.011 76.5061 101.042 76.7178 101.149 76.9283C101.265 77.1564 101.43 77.3726 101.654 77.5034C101.808 77.593 101.988 77.6402 102.165 77.6366C102.425 77.6319 102.654 77.5176 102.841 77.343C102.943 77.2483 103.014 77.1095 103.054 76.9666C103.146 77.0554 103.236 77.1543 103.322 77.2665C104.727 79.115 104.533 82.0853 102.884 83.733C102.818 83.7993 102.747 83.8594 102.677 83.9207C102.008 84.8424 100.976 85.468 99.737 85.5946C98.5897 85.7119 97.4425 85.3724 96.5628 84.6767C96.6336 84.639 96.6997 84.5902 96.7567 84.5255C96.9069 84.3554 97.0305 84.1876 97.1218 83.9798C97.1448 83.9276 97.1669 83.8749 97.1878 83.8218L97.2183 83.7416C97.2236 83.7269 97.2705 83.5917 97.258 83.6155L97.2552 83.621L97.2718 83.582C97.4292 83.1889 97.3656 82.7394 96.9919 82.4928L96.9507 82.4672C96.8286 82.396 96.6773 82.3624 96.5241 82.3619C96.1426 81.8947 95.5747 81.7875 95.0417 81.924L95.0229 81.7732C95.0201 81.748 95.0176 81.7228 95.0159 81.6975C94.6029 80.3277 94.8021 78.7711 95.6089 77.4688ZM77.2716 63.6782L77.4087 63.6568C78.4457 63.5069 79.1507 63.6795 79.825 64.566C80.1463 64.9885 80.0472 65.6266 79.825 66.0584C79.1071 67.4535 77.1321 67.165 75.802 67.4421C74.5033 67.7124 73.2078 68.0804 71.9926 68.6159C70.7527 69.1625 69.5888 69.809 68.4539 70.5473C67.4274 71.2153 66.4963 72.2195 65.3235 72.6081C65.2707 72.6257 65.2071 72.5783 65.2105 72.5223C65.294 71.1881 66.408 69.9633 67.2708 69.0131C68.2688 67.9143 69.4826 66.9387 70.7466 66.163C72.0509 65.3628 73.4609 64.7041 74.9208 64.2446C75.6896 64.0026 76.4762 63.8103 77.2716 63.6782ZM93.0694 65.4898C94.375 63.5798 97.6207 63.9461 99.536 64.4565C101.937 65.0961 104.539 66.3897 106.223 68.2623C107.731 69.9398 105.475 72.1192 103.779 70.7076L103.326 70.3321L103.036 70.0941C101.734 69.0303 100.445 68.0675 98.8581 67.3582C96.9977 66.5269 95.1126 66.122 93.1463 65.679C93.069 65.6616 93.0235 65.5568 93.0694 65.4898Z" fill="#4F4F4F"/>
</g>
</g>
</g>
<defs>
<clipPath id="clip0_133_1778">
<rect width="150" height="150" fill="white"/>
</clipPath>
</defs>
</svg>
