<svg width="150" height="150" viewBox="0 0 150 150" fill="none" xmlns="http://www.w3.org/2000/svg">
<g clip-path="url(#clip0_133_1456)">
<mask id="mask0_133_1456" style="mask-type:alpha" maskUnits="userSpaceOnUse" x="0" y="0" width="150" height="150">
<path d="M75 150C116.421 150 150 116.421 150 75C150 33.5786 116.421 0 75 0C33.5786 0 0 33.5786 0 75C0 116.421 33.5786 150 75 150Z" fill="white"/>
</mask>
<g mask="url(#mask0_133_1456)">
<mask id="mask1_133_1456" style="mask-type:luminance" maskUnits="userSpaceOnUse" x="0" y="0" width="150" height="150">
<path d="M150 0H0V150H150V0Z" fill="white"/>
</mask>
<g mask="url(#mask1_133_1456)">
<path fill-rule="evenodd" clip-rule="evenodd" d="M75.7212 95.4117C79.3428 94.972 82.8532 96.0812 86.3936 96.6403C88.2629 96.9354 90.1345 97.1556 92.0261 97.2376C92.4067 97.2542 92.7874 97.2639 93.1681 97.2717C93.2035 96.9364 93.3912 96.6285 93.7976 96.4441C94.6307 96.0663 95.2975 95.8959 96.2123 95.9323C97.0496 95.9654 97.8899 96.0515 98.7144 96.2025C100.212 96.4771 101.716 97.1003 102.811 98.1829C105.345 100.688 104.96 104.712 103.001 107.441C98.9549 113.079 91.5699 113.341 85.245 113.267L84.6614 113.259C78.9024 113.177 70.6629 114.036 68.0465 107.481C67.0844 105.071 67.218 102.277 68.3961 99.9651C69.8011 97.2077 72.7588 95.7714 75.7212 95.4117ZM93.7103 104.8L93.6587 104.802C91.0035 104.904 88.3487 104.976 85.692 105.023C85.7715 105.706 85.8527 106.388 85.9454 107.069C86.0182 107.605 86.0962 108.141 86.1773 108.675C86.2117 108.902 86.3378 109.253 86.3021 109.477L86.2893 109.566C86.4257 109.628 86.5494 109.727 86.6415 109.871C86.6736 109.921 86.6968 109.972 86.72 110.022C88.7826 110.038 91.0022 109.998 93.1049 109.623L93.1091 109.577C93.1472 109.309 93.259 109.128 93.4074 109.004C93.5552 108.147 93.5417 107.234 93.5988 106.383C93.6344 105.855 93.673 105.328 93.7103 104.8ZM83.663 105.059C81.7491 105.092 79.8345 105.117 77.9211 105.094L77.0525 105.08C77.2359 106.065 77.4355 107.046 77.6014 108.037C77.7745 109.07 76.8657 109.726 76.0792 109.7C76.1675 109.714 76.2556 109.729 76.3439 109.742C78.8014 110.089 81.3531 109.997 83.847 109.994C83.7128 109.211 83.7672 108.327 83.7471 107.673L83.7433 107.572C83.7051 106.734 83.6783 105.897 83.663 105.059ZM70.6634 104.879C70.7298 105.391 70.859 105.892 71.0523 106.358C71.8692 108.329 73.7421 109.248 75.7237 109.636C75.3799 109.517 75.1069 109.231 75.0379 108.743C74.8661 107.527 74.8044 106.292 74.7997 105.058C73.4187 105.045 72.0284 105.015 70.6634 104.879ZM100.912 104.458C99.929 104.69 98.7865 104.584 97.8218 104.627C96.9181 104.668 96.0139 104.704 95.1101 104.741C95.1527 105.358 95.1943 105.975 95.2394 106.592C95.2975 107.389 95.303 108.232 95.4557 109.026C97.2746 108.405 98.9044 107.409 100.127 105.816C100.432 105.42 100.704 104.954 100.912 104.458ZM75.3057 98.6451C73.6689 99.0328 72.1199 99.8518 71.2874 101.35C70.7932 102.239 70.5759 103.293 70.6176 104.331C72.001 104.17 73.4081 104.109 74.8086 104.059C74.8132 103.806 74.8192 103.554 74.8267 103.303L74.8483 102.658C74.8865 101.429 74.9057 99.8854 75.3057 98.6451ZM83.7774 98.7951L83.0569 98.7141C81.0556 98.486 79.0554 98.2465 77.054 98.3838C76.7643 98.4038 76.4702 98.4354 76.1755 98.4786C76.5292 99.7556 76.4995 101.255 76.6473 102.52C76.7044 103.008 76.7765 103.493 76.8564 103.976L77.2036 103.96C79.3512 103.843 81.5009 103.772 83.6501 103.686C83.6499 103.283 83.6522 102.879 83.6586 102.475L83.6665 102.071C83.691 101.038 83.6244 99.8758 83.7774 98.7951ZM93.8273 98.6312C91.7312 98.9697 89.5649 99.0417 87.5059 99.0442C86.6835 99.0453 85.8615 98.9947 85.04 98.9218C85.0935 99.3595 85.1214 99.8021 85.1616 100.234C85.2428 101.106 85.3355 101.976 85.4362 102.846L85.5261 103.607C88.1678 103.487 90.8093 103.358 93.4504 103.224L93.8231 103.204L93.9276 101.741C93.9987 100.766 94.0769 99.7905 94.1874 98.8195L94.1046 98.7896C94.0072 98.7496 93.9148 98.6944 93.8273 98.6312ZM94.7376 98.9943C94.8532 100.373 94.917 101.758 95.002 103.14L96.7431 103.047C97.0332 103.031 97.3234 103.015 97.6135 102.998C98.7418 102.933 100.192 102.591 101.307 102.91C101.392 101.896 101.102 100.907 100.187 100.226C98.5805 99.0288 96.5348 99.4551 94.7376 98.9943ZM88.789 86.6655C91.3817 85.1801 97.8868 83.662 98.2988 88.3297C98.4882 90.4776 96.892 92.2573 95.028 93.0515L94.958 93.0808C93.2098 93.7998 90.1111 94.6118 88.5982 93.0527C87.3391 91.755 89.0091 89.4283 90.5738 90.4913C91.3779 91.0375 93.0704 90.6351 93.9676 90.3752L94.0238 90.3588C94.992 90.0741 96.2829 89.163 95.8825 87.9704C95.5282 86.9153 94.0206 86.7225 93.0764 86.6883C91.6671 86.6378 90.2955 86.9652 88.8991 87.0717C88.6779 87.0886 88.6096 86.7682 88.789 86.6655ZM99.529 79.1599C103.048 78.995 105.237 82.8386 104.427 85.988C104.288 86.5313 103.68 87.0648 103.093 87.0037L102.946 86.9901C102.871 86.9829 102.795 86.9734 102.726 86.9543C102.169 86.8 101.67 86.2204 101.71 85.6198L101.721 85.4448C101.803 83.957 101.642 82.243 99.875 81.8827C98.3757 81.5771 97.5388 83.0204 97.5211 84.3489C97.5177 84.5848 97.2528 84.7494 97.0443 84.6226C95.9607 83.963 95.7731 82.6507 96.1869 81.5206C96.7115 80.0887 98.0243 79.2302 99.529 79.1599ZM73.4155 79.9842C75.9762 79.1295 78.739 80.495 79.9789 82.7599C80.4139 82.8858 80.8483 83.2213 80.7879 83.7348C80.7006 84.4737 80.5692 84.9395 80.0571 85.4998C79.2561 86.3763 77.7559 85.9282 77.423 84.8492L77.4088 84.8005C77.0307 83.4058 75.496 82.4855 74.0981 82.9738C72.465 83.544 72.5123 85.2695 71.3668 86.2746C71.2322 86.3928 71.0708 86.4116 70.9094 86.3336C69.6927 85.7454 69.9114 83.9751 70.3451 82.9619C70.914 81.6323 72.0198 80.4498 73.4155 79.9842ZM69.928 72.205C72.003 70.0868 77.414 68.0372 78.8335 71.9486C79.1039 72.6936 78.5282 73.6982 77.7529 73.8527C76.4832 74.1054 75.3567 73.554 74.0954 73.6529C73.0744 73.7335 72.0094 74.0748 71.193 74.7076C68.932 76.4601 68.4347 79.4243 66.8593 81.6549C66.7826 81.7635 66.6337 81.7179 66.6195 81.5898C66.2608 78.3424 67.6551 74.5248 69.928 72.205ZM96.9903 70.1198C98.3674 69.6333 99.927 69.6749 101.311 70.1065C102.705 70.5415 103.985 71.3674 104.972 72.4466C105.419 72.9365 105.833 73.4771 106.165 74.0526C106.342 74.3576 106.527 74.9876 106.728 75.3628C107.812 75.9893 108.276 77.417 107.305 78.4327L107.261 78.4772L107.131 78.6062C106.609 79.1231 105.822 79.3472 105.109 79.1407C103.515 78.6791 103.321 77.4226 102.769 76.089C102.404 75.2081 101.78 74.4286 101.022 73.8561C99.232 72.5034 96.2969 72.0725 94.1418 72.7099C94.0271 72.7439 93.8923 72.5977 93.9741 72.4916C94.3824 71.9624 94.6178 71.528 95.1645 71.1011C95.7195 70.6679 96.3253 70.3548 96.9903 70.1198Z" fill="#4F4F4F"/>
</g>
</g>
</g>
<defs>
<clipPath id="clip0_133_1456">
<rect width="150" height="150" fill="white"/>
</clipPath>
</defs>
</svg>
