<svg width="150" height="150" viewBox="0 0 150 150" fill="none" xmlns="http://www.w3.org/2000/svg">
<g clip-path="url(#clip0_133_1798)">
<mask id="mask0_133_1798" style="mask-type:alpha" maskUnits="userSpaceOnUse" x="0" y="0" width="150" height="150">
<path d="M75 150C116.421 150 150 116.421 150 75C150 33.5786 116.421 0 75 0C33.5786 0 0 33.5786 0 75C0 116.421 33.5786 150 75 150Z" fill="white"/>
</mask>
<g mask="url(#mask0_133_1798)">
<mask id="mask1_133_1798" style="mask-type:luminance" maskUnits="userSpaceOnUse" x="0" y="0" width="150" height="150">
<path d="M150 0H0V150H150V0Z" fill="white"/>
</mask>
<g mask="url(#mask1_133_1798)">
<path fill-rule="evenodd" clip-rule="evenodd" d="M94.5021 103.758L94.6483 103.724C95.8155 103.449 96.9386 103.074 98.0257 103.798C99.062 104.487 99.205 105.762 98.3983 106.692C97.5689 107.648 96.4669 107.594 95.304 107.607L95.2312 107.608C94.2655 107.622 93.2838 107.607 92.3219 107.522C91.4252 107.442 90.5226 107.314 89.6362 107.147L89.112 107.044C88.5764 106.935 88.0488 106.794 87.7729 106.276C87.2916 105.372 90.8688 104.663 91.3033 104.539C92.358 104.237 93.4325 104 94.5021 103.758ZM96.486 92.8584C95.9158 93.45 95.1626 93.854 94.3171 94.1055C92.1921 94.7376 89.4807 94.4009 87.7451 93.7568C87.385 93.6232 87.0485 93.3509 86.8552 93.0103C86.6786 92.6992 86.6188 92.3334 86.7532 91.9603C86.7915 91.8543 86.8381 91.7502 86.8848 91.6477C87.0122 91.3689 87.2716 91.1521 87.5764 91.028C87.8929 90.8992 88.2528 90.8729 88.5415 90.9637C88.5803 90.9759 88.6201 90.9885 88.6608 91.0013C89.7605 91.3481 91.5641 91.9224 93.0583 91.8111C93.955 91.7443 94.7436 91.4274 95.1515 90.6065C95.3665 90.1737 95.307 89.7457 95.1163 89.3538C94.8288 88.7629 94.253 88.2487 93.7679 87.8944C93.0841 87.3948 92.3547 87.1954 91.6003 86.9848C91.316 86.9055 91.0281 86.825 90.7375 86.7288C90.6418 86.6972 90.5578 86.635 90.495 86.5543C90.4329 86.4745 90.3921 86.3771 90.3794 86.2793C90.3661 86.1781 90.3825 86.0772 90.4294 85.9902C90.4729 85.9095 90.5424 85.8386 90.6464 85.7921C92.1223 85.1305 94.0313 85.5677 95.4721 86.6084C96.1922 87.1285 96.7928 87.7966 97.163 88.5433C97.5065 89.2362 97.6525 89.9964 97.5179 90.7716C97.3672 91.6395 97 92.3251 96.486 92.8584ZM72.2963 78.0977C72.711 77.9149 73.0518 78.7706 73.1371 79.004L73.3137 79.488C73.6016 80.2686 73.9322 81.0621 74.5376 81.6414C75.0445 82.1265 75.8566 82.5375 76.4445 81.9701C77.0023 81.4318 76.7304 80.8254 76.8126 80.1649C76.9609 78.9704 78.5891 77.7764 79.5681 79.023C81.7797 81.8394 78.358 85.7562 75.2063 85.0691C73.6034 84.7195 72.3132 83.4338 71.7831 81.9049L71.7559 81.8242C71.4385 80.8556 71.1176 78.6178 72.2963 78.0977ZM100.835 80.0592L100.82 80.0235C99.766 77.6266 103.524 76.5964 103.843 78.7486L103.863 78.8938C104.173 81.283 103.52 84.4959 100.595 84.7341C97.3111 85.0016 95.9438 81.3366 96.237 78.6472C96.2896 78.1657 96.8736 78.0991 97.054 78.5366L97.0924 78.6321C97.6225 79.9837 98.126 82.5831 99.994 82.5804C101.242 82.5785 101.182 80.8932 100.835 80.0592ZM103.217 73.1205C105.105 73.0535 105.102 76.0086 103.217 76.053C96.9212 76.2011 90.6202 76.3981 84.3221 76.4319L83.1773 76.4389C77.2614 76.4786 71.3253 76.5595 65.4267 76.0627C64.9233 76.0204 65.0169 75.3133 65.4375 75.3418C71.6215 74.4613 77.8809 74.2039 84.1121 73.8693C90.4748 73.5276 96.8498 73.3467 103.217 73.1205Z" fill="#4F4F4F"/>
</g>
</g>
</g>
<defs>
<clipPath id="clip0_133_1798">
<rect width="150" height="150" fill="white"/>
</clipPath>
</defs>
</svg>
