<svg width="150" height="150" viewBox="0 0 150 150" fill="none" xmlns="http://www.w3.org/2000/svg">
<g clip-path="url(#clip0_133_1748)">
<mask id="mask0_133_1748" style="mask-type:alpha" maskUnits="userSpaceOnUse" x="0" y="0" width="150" height="150">
<path d="M75 150C116.421 150 150 116.421 150 75C150 33.5786 116.421 0 75 0C33.5786 0 0 33.5786 0 75C0 116.421 33.5786 150 75 150Z" fill="white"/>
</mask>
<g mask="url(#mask0_133_1748)">
<mask id="mask1_133_1748" style="mask-type:luminance" maskUnits="userSpaceOnUse" x="0" y="0" width="150" height="150">
<path d="M150 0H0V150H150V0Z" fill="white"/>
</mask>
<g mask="url(#mask1_133_1748)">
<path fill-rule="evenodd" clip-rule="evenodd" d="M93.7899 104.804C92.3561 105.368 90.662 105.501 89.182 105.021C87.7669 104.561 86.4818 103.539 85.7043 102.253C85.0118 101.107 84.7225 99.7477 85.1318 98.3925C85.1514 98.3277 85.2149 98.2862 85.2762 98.27C85.6111 98.575 85.8179 98.8779 86.0246 99.1793C86.3731 99.6874 86.7224 100.19 87.2018 100.625C87.8993 101.257 88.8391 101.77 89.7718 101.94C90.685 102.106 91.6197 101.959 92.4374 101.522C92.9347 101.256 93.3368 100.9 93.7349 100.544C94.1685 100.155 94.5951 99.7603 95.1922 99.5408C95.6707 99.3649 96.1734 99.5133 96.5595 99.8076C96.9745 100.124 97.2729 100.619 97.2564 101.136C97.2307 101.938 96.8799 102.607 96.3708 103.159C95.6825 103.905 94.7093 104.443 93.7899 104.804ZM92.0876 84.8212C93.683 85.7913 96.1138 88.0534 94.3976 90.4584C92.3774 92.579 89.4688 90.1476 88.0355 89.048C86.7065 88.1958 85.2132 90.3876 86.4463 91.3827C96.8034 99.0537 101.007 85.0748 92.8945 83.6806C92.0014 83.5269 91.6696 84.5211 92.0876 84.8212ZM75.3074 71.3795C77.4818 71.2756 79.398 72.2524 81.4701 72.6963C83.385 73.1067 85.2716 72.8603 87.134 72.3382C90.1564 71.4909 91.4058 76.1195 88.4246 77.0215C86.2536 77.6784 83.9677 77.7241 81.7399 77.3855C79.7609 77.0845 78.1021 76.1208 76.2152 75.5596C74.596 75.0783 72.6911 75.2783 70.9811 75.5049L70.3173 75.5943C69.3307 75.7272 68.3388 75.8606 67.3618 76.0536C66.5142 76.2212 65.6681 76.5278 64.803 76.5633C64.7047 76.5676 64.6215 76.4399 64.6834 76.3547C65.6884 74.9745 67.6253 73.8854 69.166 73.159L69.2704 73.1101C71.1723 72.223 73.1899 71.4806 75.3074 71.3795ZM74.5108 81.5572L74.5105 81.5096C74.5135 80.1619 75.2981 77.0847 77.2376 77.0847C78.4492 77.0847 79.1848 79.1789 79.3122 81.3378L79.3166 81.4258C79.3728 82.768 79.0046 85.7018 77.2376 85.7018C75.4518 85.7018 74.5292 82.9231 74.5108 81.5572ZM103.065 81.5572V81.5096C103.062 80.1619 102.277 77.0847 100.338 77.0847C99.157 77.0847 98.4278 79.0755 98.2741 81.176L98.2634 81.3378C98.1869 82.6347 98.5312 85.7018 100.338 85.7018C102.124 85.7018 103.046 82.9231 103.065 81.5572ZM103.035 69.738L103.174 69.7411C105.44 69.8197 107.772 71.1628 108.377 73.419C108.408 73.5361 108.264 73.6149 108.178 73.5346C106.314 71.7891 103.808 73.457 101.942 74.3312L101.256 74.648C98.8507 75.7677 96.1145 77.0841 93.4434 76.2496C92.1747 75.8533 91.3689 74.5493 91.7308 73.2322C92.0528 72.0602 93.4668 71.0753 94.6916 71.4983L94.7471 71.5185C95.7422 71.8993 96.9657 71.5135 97.9934 71.1332L98.8376 70.816C100.195 70.3007 101.559 69.7242 103.035 69.738Z" fill="#4F4F4F"/>
</g>
</g>
</g>
<defs>
<clipPath id="clip0_133_1748">
<rect width="150" height="150" fill="white"/>
</clipPath>
</defs>
</svg>
