<svg width="150" height="150" viewBox="0 0 150 150" fill="none" xmlns="http://www.w3.org/2000/svg">
<g clip-path="url(#clip0_133_1768)">
<mask id="mask0_133_1768" style="mask-type:alpha" maskUnits="userSpaceOnUse" x="0" y="0" width="150" height="150">
<path d="M75 150C116.421 150 150 116.421 150 75C150 33.5786 116.421 0 75 0C33.5786 0 0 33.5786 0 75C0 116.421 33.5786 150 75 150Z" fill="white"/>
</mask>
<g mask="url(#mask0_133_1768)">
<mask id="mask1_133_1768" style="mask-type:luminance" maskUnits="userSpaceOnUse" x="0" y="0" width="150" height="150">
<path d="M150 0H0V150H150V0Z" fill="white"/>
</mask>
<g mask="url(#mask1_133_1768)">
<path fill-rule="evenodd" clip-rule="evenodd" d="M82.6515 97.4865C83.8333 95.5417 86.3525 100.306 86.6201 101.125C86.8572 101.851 87.0137 102.594 87.0932 103.346C88.0094 103.552 88.9609 103.552 89.8997 103.372C91.2951 103.104 92.1481 102.354 93.3608 101.709C94.1984 101.264 95.2541 101.786 95.6897 102.525C96.202 103.394 95.8756 104.296 95.2017 104.944C93.9238 106.173 91.4093 106.455 89.7412 106.129C88.7854 105.942 87.9094 105.583 87.1359 105.062C87.1307 105.159 87.1273 105.257 87.1196 105.354L87.1049 105.522C86.9767 106.885 86.6023 108.599 85.5442 109.485C83.8088 110.94 81.667 108.142 83.3533 106.69L83.4056 106.646C84.4537 105.799 84.6824 103.526 84.6259 102.274C84.5889 101.456 84.4401 100.629 84.1822 99.8506L84.1292 99.6956C84.0515 99.4757 83.2051 97.3903 82.8992 97.6559L82.8846 97.6708C82.7585 97.8215 82.5546 97.646 82.6515 97.4865ZM92.0876 86.5121C93.683 87.4823 96.1138 89.7444 94.3976 92.1494C92.3774 94.27 89.4688 91.8386 88.0355 90.7389C86.7065 89.8867 85.2132 92.0786 86.4463 93.0737C96.8034 100.745 101.007 86.7658 92.8945 85.3715C92.0014 85.2179 91.6697 86.212 92.0876 86.5121ZM75.0519 77.5452C76.6111 77.2686 78.2083 77.6564 79.4985 78.569L79.5963 78.6394C80.8393 79.5488 82.23 81.1456 81.5167 82.7132C81.2305 83.3426 80.3731 83.4413 79.8291 83.1559C78.9234 82.6808 78.7593 81.5118 77.9512 80.8649C77.2884 80.3346 76.396 80.0129 75.5425 80.0905C73.5374 80.2727 72.304 82.2511 71.6812 83.9561C71.6015 84.1742 71.2814 84.259 71.1564 84.0248C69.6879 81.2789 72.2873 78.036 75.0519 77.5452ZM100.026 76.509C103.013 76.2627 106.509 79.3603 105.722 82.5141C105.345 84.0273 103.101 83.984 102.702 82.5141C102.483 81.7052 102.505 80.9896 101.923 80.3179C101.442 79.7633 100.76 79.4412 100.026 79.4907C99.217 79.5452 98.4713 79.9495 97.9045 80.5179C97.3926 81.031 97.0864 81.7819 96.5562 82.2361C96.4256 82.3477 96.2509 82.3549 96.122 82.2361C95.2093 81.3943 95.7571 79.6418 96.3358 78.763C97.164 77.5055 98.5125 76.6339 100.026 76.509ZM69.3644 71.9518C71.2804 70.2551 74.7619 68.6165 77.3455 69.4515C78.8309 69.9315 79.4784 72.3259 77.8202 73.0848C75.9 73.9636 73.6861 73.606 71.7317 74.5169C70.9109 74.8997 70.1389 75.378 69.5675 76.0795C69.1172 76.6324 68.6592 77.3598 68.0081 77.6785C67.837 77.7624 67.6052 77.7646 67.4681 77.609C66.0408 75.9939 68.1182 73.0552 69.3644 71.9518ZM96.7328 69.3673C97.917 69.0348 99.231 69.0416 100.434 69.2504C101.636 69.4592 102.857 69.9578 103.839 70.6851L103.953 70.7702C105.025 71.5782 106.304 72.7537 106.235 74.185C106.178 75.3802 104.921 76.1886 103.836 75.5622C102.951 75.0513 102.535 74.028 101.786 73.3466C101.168 72.7842 100.442 72.3408 99.668 72.0301C98.8075 71.685 97.9457 71.5233 97.0225 71.5078C96.3116 71.496 95.5964 71.7293 94.8988 71.8039C94.9563 71.9219 94.4049 71.8669 94.0888 71.7623C93.8547 71.6626 93.8535 71.3665 93.9346 71.1743C94.3371 70.2226 95.8014 69.6285 96.7328 69.3673Z" fill="#4F4F4F"/>
</g>
</g>
</g>
<defs>
<clipPath id="clip0_133_1768">
<rect width="150" height="150" fill="white"/>
</clipPath>
</defs>
</svg>
