<svg width="150" height="150" viewBox="0 0 150 150" fill="none" xmlns="http://www.w3.org/2000/svg">
<g clip-path="url(#clip0_133_1728)">
<mask id="mask0_133_1728" style="mask-type:alpha" maskUnits="userSpaceOnUse" x="0" y="0" width="150" height="150">
<path d="M75 150C116.421 150 150 116.421 150 75C150 33.5786 116.421 0 75 0C33.5786 0 0 33.5786 0 75C0 116.421 33.5786 150 75 150Z" fill="white"/>
</mask>
<g mask="url(#mask0_133_1728)">
<mask id="mask1_133_1728" style="mask-type:luminance" maskUnits="userSpaceOnUse" x="0" y="0" width="150" height="150">
<path d="M150 0H0V150H150V0Z" fill="white"/>
</mask>
<g mask="url(#mask1_133_1728)">
<path fill-rule="evenodd" clip-rule="evenodd" d="M98.1948 99.5223L98.3692 99.5132C99.559 99.4456 100.714 99.2716 101.777 99.9384C103.189 100.825 103.196 102.84 101.777 103.725C100.66 104.421 99.447 104.192 98.1948 104.16C97.1634 104.133 96.1318 104.114 95.1002 104.103C93.0384 104.082 90.9779 104.077 88.916 104.087C87.0557 104.096 85.1939 104.074 83.3341 104.03L82.5372 104.009C80.6296 103.957 78.6323 104.023 76.7533 103.651L76.6726 103.637L76.6749 103.633C76.3494 103.524 76.1772 103.004 76.5663 102.824C78.4308 101.959 80.5622 101.597 82.5644 101.185C84.5917 100.769 86.6539 100.469 88.71 100.233C90.7633 99.9989 92.8316 99.8332 94.8942 99.7015C95.9936 99.6309 97.0941 99.5728 98.1948 99.5223ZM91.9554 72.9511L92.0914 72.86C93.5847 71.8736 95.7305 70.9238 97.4511 71.6726C97.5483 71.7149 97.6305 71.77 97.7019 71.8334C98.1242 71.8417 98.5493 71.8768 98.9756 71.941C102.344 72.4489 105.456 74.6603 106.978 77.7048C108.708 81.1652 107.886 84.8118 104.825 87.1654C103.322 88.3217 101.554 89.1542 99.652 89.3419C99.03 89.4032 98.3708 89.4153 97.7737 89.2267C98.0564 89.8287 98.2715 90.4578 98.3822 91.1215C98.761 93.3935 97.8601 95.2669 95.7447 96.248C93.8858 97.1105 91.313 97.4411 89.4745 96.3524C87.9204 95.4326 88.4294 92.3875 90.4742 92.6603C91.8546 92.8444 93.099 93.3054 94.4632 92.7165C95.5751 92.237 94.9005 90.6183 94.5654 89.7667C94.0049 88.3437 93.1799 87.0039 92.511 85.6222L92.3875 85.3626C91.9668 84.4616 91.4444 83.5097 91.0444 82.5388C90.8243 83.6792 90.4294 84.7983 89.9642 85.8343C88.8601 88.2928 86.723 89.797 84.1765 90.5014C81.5585 91.2253 78.486 91.3933 75.7869 91.3043C73.0417 91.2141 70.1515 90.4944 68.143 88.5039C64.4636 84.8575 65.5203 78.4777 69.3922 75.4298C71.8968 73.4581 75.4258 72.1069 78.6667 72.4569C80.2901 72.0915 82.1057 72.2991 83.7299 72.6672C85.9275 73.1654 88.0256 74.2316 89.4622 75.9298C89.5687 75.6627 89.6917 75.4067 89.8324 75.1624C89.769 75.1333 89.7297 75.0394 89.7922 74.9832C89.9068 74.8803 90.0244 74.7816 90.1421 74.6827C90.6101 74.0262 91.2145 73.4545 91.9554 72.9511ZM65.3319 90.0413C65.1996 89.8536 65.4582 89.6101 65.6437 89.7295C67.1636 90.71 68.7546 91.6012 70.4974 92.1207C72.1998 92.6282 73.9696 92.5758 75.6796 93.0095C76.3222 93.1724 76.2202 94.0083 75.6796 94.2131C73.7976 94.9266 71.6741 94.3279 69.8862 93.5706C68.0722 92.8025 66.4755 91.6602 65.3319 90.0413ZM75.5323 74.3789L75.5777 74.3242L75.4672 74.361C73.3372 75.0783 71.5833 76.261 70.1577 77.9875C67.7281 80.9298 67.6991 85.608 71.3321 87.5964C73.2908 88.6681 75.6029 88.7186 77.7777 88.6051L78.2175 88.5816C80.1267 88.4763 82.075 88.32 83.9173 87.8035C85.9267 87.24 87.3227 86.0252 88.0915 84.0675L88.1554 83.9024C88.9223 81.8873 89.3216 79.6463 87.8978 77.8225C85.486 74.7332 79.913 74.116 76.4684 75.5927C75.6434 75.9463 74.9813 75.0834 75.5323 74.3789ZM97.6377 73.55C97.5804 73.6058 97.5192 73.6568 97.4511 73.698C96.7596 74.1129 95.982 74.1171 95.2155 74.3073C94.5094 74.4825 93.8184 74.6964 93.1685 75.0272C92.1477 75.546 91.0949 76.1668 90.1299 76.8437C90.3367 77.1743 90.5218 77.5232 90.6804 77.8926C91.1186 78.9137 91.2663 79.9888 91.2202 81.0684C91.8927 81.6505 92.4549 82.3743 93.05 83.0285L93.575 83.6062C94.1872 84.2818 94.7954 84.965 95.3651 85.6741C95.7037 86.0956 96.0475 86.5272 96.3777 86.9714C96.421 86.8389 96.482 86.7091 96.5676 86.5859C96.8894 86.1218 97.3861 85.8874 97.9537 86.0216C98.4506 86.1395 98.7827 86.3644 99.302 86.3678C99.938 86.372 100.55 86.2351 101.152 86.0387C102.335 85.6528 103.494 84.9594 104.359 84.0611C106.311 82.0332 105.281 79.1755 103.758 77.2438C102.215 75.2869 100 74.0163 97.6377 73.55ZM80.252 78.4209C80.8786 78.2399 81.811 78.5253 82.0867 79.1678L82.2844 79.6355C82.2783 79.6215 82.2734 79.6108 82.2677 79.5981C82.3376 79.7638 82.4046 79.9238 82.4583 80.0937L82.6436 80.2374C82.8018 80.413 82.9482 80.5984 83.0826 80.7939C83.4003 81.3371 83.4924 82.0326 83.3298 82.6413C83.0612 83.6471 82.138 84.2928 81.1138 84.299C78.1157 84.3167 77.3809 79.2502 80.252 78.4209ZM98.3387 77.5105C99.724 77.4486 100.647 78.6725 100.757 79.9298C100.82 80.6454 100.675 81.4279 100.47 82.1122C100.164 83.1332 99.192 83.773 98.1428 83.6322C97.3081 83.52 96.5708 82.8851 96.3627 82.0691C96.0884 81.3962 95.9336 80.6558 95.9203 79.9298C95.8949 78.5742 97.0484 77.5682 98.3387 77.5105ZM80.058 66.197C81.463 65.9704 82.8051 66.6535 83.0094 68.164C83.2152 69.6877 82.0936 70.6945 80.6868 70.8442C78.0345 71.1261 75.3265 71.1931 72.6615 71.3096C71.55 71.3579 70.4371 71.3785 69.3246 71.3883L68.7683 71.3924C67.7335 71.3986 66.3842 71.6029 65.4491 71.0934C65.3882 71.0604 65.3906 70.9854 65.4292 70.938C66.0863 70.1286 67.4449 69.7837 68.416 69.4272L68.4983 69.3966C69.7277 68.9327 70.9708 68.4984 72.2304 68.1224L72.8704 67.9325C75.2237 67.2391 77.6452 66.5868 80.058 66.197ZM88.9762 65.456C89.8445 65.1294 90.7014 65.3329 91.2919 65.8852C93.2667 66.4352 95.299 66.8567 97.2866 67.3382L97.8275 67.4712C100.319 68.0932 103.057 68.5725 105.374 69.7128C105.62 69.8339 105.466 70.1479 105.249 70.1743C102.668 70.488 99.887 69.9894 97.3209 69.6893C94.6916 69.3818 92.0491 68.8745 89.4121 68.6759C87.5193 68.5332 87.2442 66.1075 88.9762 65.456Z" fill="#4F4F4F"/>
</g>
</g>
</g>
<defs>
<clipPath id="clip0_133_1728">
<rect width="150" height="150" fill="white"/>
</clipPath>
</defs>
</svg>
