<svg width="150" height="150" viewBox="0 0 150 150" fill="none" xmlns="http://www.w3.org/2000/svg">
<g clip-path="url(#clip0_133_1817)">
<mask id="mask0_133_1817" style="mask-type:alpha" maskUnits="userSpaceOnUse" x="0" y="0" width="150" height="150">
<path d="M75 150C116.421 150 150 116.421 150 75C150 33.5786 116.421 0 75 0C33.5786 0 0 33.5786 0 75C0 116.421 33.5786 150 75 150Z" fill="white"/>
</mask>
<g mask="url(#mask0_133_1817)">
<mask id="mask1_133_1817" style="mask-type:luminance" maskUnits="userSpaceOnUse" x="0" y="0" width="150" height="150">
<path d="M150 0H0V150H150V0Z" fill="white"/>
</mask>
<g mask="url(#mask1_133_1817)">
<path fill-rule="evenodd" clip-rule="evenodd" d="M86.9691 106.92C85.5489 106.34 84.2817 105.373 83.3553 104.138C83.0332 103.709 82.9497 103.256 83.0172 102.841C83.0932 102.375 83.369 101.952 83.745 101.669C84.1222 101.384 84.5941 101.244 85.0503 101.316C85.4467 101.378 85.8413 101.595 86.1536 102.045L86.2188 102.135C86.7696 102.881 87.4873 103.492 88.3051 103.886C89.0933 104.266 89.9748 104.444 90.8871 104.341C92.6245 104.144 93.822 103.204 95.0949 101.928C95.2527 101.767 95.4105 101.6 95.5692 101.432C95.6694 101.278 95.8084 101.18 95.9627 101.128C96.1341 101.071 96.328 101.074 96.5056 101.136C96.6769 101.196 96.83 101.309 96.9327 101.46C97.0302 101.604 97.0855 101.781 97.0676 101.984C96.9511 103.307 96.2598 104.488 95.2777 105.415C94.1871 106.444 92.7413 107.157 91.3802 107.406C89.8807 107.682 88.3527 107.485 86.9691 106.92ZM92.0876 86.512C93.683 87.4821 96.1138 89.7442 94.3976 92.1492C92.3774 94.2698 89.4688 91.8384 88.0355 90.7388C86.7064 89.8866 85.2132 92.0784 86.4463 93.0735C96.8034 100.745 101.007 86.7657 92.8945 85.3714C92.0014 85.2177 91.6696 86.2119 92.0876 86.512ZM73.5275 77.5886C73.7038 75.3998 77.0361 74.9028 77.3675 77.0687C77.6644 79.0089 77.3149 80.7912 76.4413 82.538C75.6066 84.2069 73.5086 83.4283 73.35 81.9087C73.1373 79.8717 73.4179 78.9502 73.5275 77.5886ZM98.8931 76.6196C99.358 76.0109 100.028 75.5954 100.832 75.8302C103.343 76.5642 102.603 80.1304 101.721 81.8662C101.242 82.8088 99.693 83.0478 98.9932 82.2179C97.8524 80.8644 97.3061 78.1614 98.7564 76.8282C98.7957 76.7593 98.8394 76.6898 98.8931 76.6196ZM76.406 68.0111L76.8026 67.9417C78.0296 67.7294 79.5552 67.5254 80.4232 68.5122C80.8836 69.0355 81.042 70.0082 80.4232 70.5091C79.3348 71.3904 78.1314 71.0488 76.827 71.1234C75.7521 71.1852 74.719 71.3631 73.6836 71.6592C71.412 72.3087 69.5611 73.4944 67.621 74.7963C67.3665 74.9671 67.1066 74.6414 67.2281 74.4032C68.348 72.2087 70.5184 70.4061 72.6923 69.3073C73.8526 68.7208 75.1223 68.2343 76.406 68.0111ZM96.6042 67.0281L96.9078 67.0902C100.211 67.7811 104.504 69.161 106.068 72.4073C106.128 72.8663 106.065 72.9647 106.013 73.0289L105.996 73.0503C105.954 73.1052 105.921 73.1809 105.722 73.2434C105.666 73.2302 105.611 73.2163 105.554 73.2015C104.837 73.0135 104.27 72.7545 103.721 72.4858L103.125 72.1922C102.434 71.8533 101.737 71.5267 100.998 71.2856C99.422 70.7712 97.8002 70.4088 96.1535 70.2153C95.7966 70.1734 95.453 70.0529 95.1818 69.8464C94.9245 69.6504 94.7278 69.379 94.6382 69.0182C94.522 68.5513 94.5554 68.1978 94.8058 67.7766C94.9941 67.4603 95.2635 67.2411 95.5729 67.1152C95.8882 66.9868 96.2473 66.9566 96.6042 67.0281Z" fill="#4F4F4F"/>
</g>
</g>
</g>
<defs>
<clipPath id="clip0_133_1817">
<rect width="150" height="150" fill="white"/>
</clipPath>
</defs>
</svg>
