<svg width="150" height="150" viewBox="0 0 150 150" fill="none" xmlns="http://www.w3.org/2000/svg">
<g clip-path="url(#clip0_133_1788)">
<mask id="mask0_133_1788" style="mask-type:alpha" maskUnits="userSpaceOnUse" x="0" y="0" width="150" height="150">
<path d="M75 150C116.421 150 150 116.421 150 75C150 33.5786 116.421 0 75 0C33.5786 0 0 33.5786 0 75C0 116.421 33.5786 150 75 150Z" fill="white"/>
</mask>
<g mask="url(#mask0_133_1788)">
<mask id="mask1_133_1788" style="mask-type:luminance" maskUnits="userSpaceOnUse" x="0" y="0" width="150" height="150">
<path d="M150 0H0V150H150V0Z" fill="white"/>
</mask>
<g mask="url(#mask1_133_1788)">
<path fill-rule="evenodd" clip-rule="evenodd" d="M93.1893 106.649C91.8389 106.66 90.3208 106.153 89.3058 105.756L89.0411 105.651C88.1625 105.299 87.2601 104.895 86.5871 104.217C86.3719 103.996 86.1427 103.747 86.0264 103.485C85.9582 103.331 85.9298 103.172 85.9957 103.014C86.2391 102.99 86.4697 102.959 86.6882 102.919C86.7922 102.9 86.8918 102.88 86.9682 102.88C87.2498 102.878 87.5283 102.914 87.8066 102.949C87.8469 102.954 87.8872 102.959 87.9275 102.964C88.1442 102.991 88.3599 103.02 88.5751 103.049C89.2012 103.133 89.824 103.217 90.4591 103.247C90.9177 103.269 91.3986 103.243 91.8837 103.217C93.1419 103.148 94.4427 103.055 95.4121 103.936C95.666 104.167 95.7722 104.458 95.7722 104.754C95.7722 105.114 95.6207 105.481 95.3896 105.768C94.8663 106.419 94.0609 106.642 93.1893 106.649ZM100.552 95.2952C99.965 96.1769 98.9863 96.7438 97.6452 96.6822C94.9797 96.5603 91.7985 95.5543 89.5661 94.0995C88.9847 93.7208 88.6078 93.1153 88.5402 92.4665L88.4199 91.3124L87.7699 92.2735C87.7022 92.3737 87.6339 92.4735 87.5656 92.5734C87.3774 92.8486 87.1893 93.1236 87.0119 93.4056C86.3308 94.4882 85.7065 95.5815 85.1396 96.7282C84.7382 97.5401 84.4448 98.4483 84.1505 99.3645C83.6537 100.912 83.1738 102.433 82.1123 103.52C81.9518 103.685 81.7051 103.743 81.4793 103.714C81.2802 103.689 81.0852 103.591 80.9896 103.397C79.7213 100.817 81.4271 97.7074 82.8109 95.5459L82.9573 95.3202C84.2404 93.3669 86.336 90.7818 88.736 90.4304L89.0108 90.8688L89.4103 90.6023C90.0636 90.1664 90.926 90.1866 91.6811 90.5277L92.4362 90.8686C93.8418 91.4996 95.2283 92.0819 96.7491 92.4008C96.8599 92.424 96.9706 92.4457 97.0812 92.4658C97.1855 92.4849 97.2905 92.5027 97.396 92.5192C97.3733 92.4155 97.349 92.3122 97.3246 92.2093C97.2989 92.1003 97.2729 91.9912 97.2451 91.8823C97.2164 91.7699 97.1857 91.6582 97.1551 91.5469C97.0333 91.1031 96.8956 90.6633 96.7324 90.2327C96.1184 88.614 95.138 87.1 94.1841 85.656L94.0718 85.4861C93.935 85.2792 93.7853 85.0633 93.6303 84.84C92.8865 83.7684 92.0615 82.6054 92.003 81.4381C92.9905 81.5002 93.8167 82.1139 94.5441 82.6482C95.5422 83.381 96.4672 84.2189 97.3064 85.1293C98.934 86.8954 100.395 89.1533 101.035 91.4873C101.402 92.8238 101.241 94.262 100.552 95.2952ZM74.5106 81.98L74.5103 81.9324C74.5133 80.5847 75.2979 77.5075 77.2374 77.5075C78.449 77.5075 79.1846 79.6018 79.312 81.7606L79.3164 81.8486C79.3726 83.1908 79.0044 86.1246 77.2374 86.1246C75.4516 86.1246 74.529 83.3459 74.5106 81.98ZM103.065 81.5573V81.5097C103.062 80.162 102.277 77.0848 100.338 77.0848C99.156 77.0848 98.4276 79.0757 98.2739 81.1761L98.2632 81.3379C98.1867 82.6348 98.531 85.7019 100.338 85.7019C102.123 85.7019 103.046 82.9232 103.065 81.5573ZM81.0423 72.8591C80.7853 72.8892 80.5296 72.9287 80.274 72.9693C79.5282 73.0882 78.7865 73.2308 78.0498 73.3971C76.6506 73.7131 75.2627 74.1121 73.9013 74.5629C72.6274 74.985 71.3732 75.462 70.1194 75.9389C70.0525 75.9644 69.9856 75.9898 69.9187 76.0153C69.476 76.1837 69.0348 76.3723 68.5922 76.5616C67.9186 76.8497 67.242 77.1398 66.5515 77.3583C68.3707 74.842 71.1739 72.9775 73.8712 71.6433C75.4102 70.8821 77.0428 70.2682 78.6852 69.7652L79.5998 69.4903C80.9466 69.0928 82.4191 68.7256 83.6842 69.5182C84.1845 69.8317 84.5038 70.3189 84.6044 70.8457C84.703 71.3623 84.5905 71.9162 84.2339 72.3785C83.9232 72.7812 83.5361 73.0105 83.124 73.0891C82.6692 73.1759 82.1873 73.0806 81.7485 72.8462C81.397 72.82 81.2933 72.8295 81.1893 72.841L81.0423 72.8591ZM101.302 73.1151C100.401 72.919 99.509 72.8403 98.5838 72.8686C98.1656 72.8811 97.761 72.9458 97.3575 73.0108C96.7308 73.1118 96.1065 73.2161 95.4314 73.0936C95.0791 73.0296 94.7791 72.8235 94.5474 72.5544C94.2765 72.2399 94.0973 71.8379 94.0398 71.4556C93.9804 71.0608 94.0395 70.7155 94.1855 70.4106C94.3581 70.0503 94.6487 69.7467 95 69.4808C96.0628 68.6758 97.8865 68.8694 99.141 69.0322C100.38 69.1934 101.613 69.5779 102.709 70.1886C103.79 70.7915 104.73 71.6035 105.463 72.5961C106.081 73.4327 106.373 74.3956 106.673 75.3761C105.259 74.1891 103.094 73.5042 101.302 73.1151Z" fill="#4F4F4F"/>
</g>
</g>
</g>
<defs>
<clipPath id="clip0_133_1788">
<rect width="150" height="150" fill="white"/>
</clipPath>
</defs>
</svg>
