<svg width="150" height="150" viewBox="0 0 150 150" fill="none" xmlns="http://www.w3.org/2000/svg">
<g clip-path="url(#clip0_133_1758)">
<mask id="mask0_133_1758" style="mask-type:alpha" maskUnits="userSpaceOnUse" x="0" y="0" width="150" height="150">
<path d="M75 150C116.421 150 150 116.421 150 75C150 33.5786 116.421 0 75 0C33.5786 0 0 33.5786 0 75C0 116.421 33.5786 150 75 150Z" fill="white"/>
</mask>
<g mask="url(#mask0_133_1758)">
<mask id="mask1_133_1758" style="mask-type:luminance" maskUnits="userSpaceOnUse" x="0" y="0" width="150" height="150">
<path d="M150 0H0V150H150V0Z" fill="white"/>
</mask>
<g mask="url(#mask1_133_1758)">
<path fill-rule="evenodd" clip-rule="evenodd" d="M88.9333 109.034C90.5303 108.812 92.2475 107.907 93.7728 108.643C94.4859 108.986 94.8243 110.162 94.3422 110.815C93.6059 111.813 92.8458 111.978 91.6506 112.074C90.7547 112.145 89.8538 112.151 88.9602 112.047L88.7328 112.02C87.1383 111.814 85.4809 111.368 84.2455 110.296C83.9928 110.077 84.1223 109.603 84.4466 109.535C85.9137 109.226 87.4483 109.241 88.9333 109.034ZM87.0538 105.356C87.0531 105.343 87.0728 105.343 87.0734 105.356C87.1121 106.269 87.3685 107.115 87.8426 107.896C87.8492 107.908 87.8321 107.917 87.8255 107.906C87.3512 107.125 87.0924 106.27 87.0538 105.356ZM92.0876 86.5119C93.683 87.482 96.1138 89.7441 94.3976 92.1491C92.3774 94.2697 89.4688 91.8383 88.0355 90.7387C86.7065 89.8865 85.2132 92.0783 86.4463 93.0734C96.8034 100.744 101.007 86.7656 92.8945 85.3713C92.0014 85.2177 91.6697 86.2118 92.0876 86.5119ZM100.253 75.6555C100.628 75.6555 100.986 75.7827 101.312 76.0181C101.633 76.2497 101.924 76.5878 102.166 77.0095C102.625 77.8075 102.911 78.9094 102.911 80.1277C102.911 81.346 102.625 82.4478 102.166 83.2458C101.924 83.6675 101.633 84.0056 101.312 84.2373C100.986 84.4726 100.628 84.5998 100.253 84.5998C99.878 84.5998 99.52 84.4726 99.194 84.2373C98.8727 84.0056 98.5819 83.6675 98.3398 83.2458C97.8816 82.4478 97.5951 81.346 97.5951 80.1277C97.5951 78.9094 97.8816 77.8075 98.3398 77.0095C98.5819 76.5878 98.8727 76.2497 99.194 76.0181C99.52 75.7827 99.878 75.6555 100.253 75.6555ZM82.9043 76.8982L83.0454 76.8714C83.8682 76.7217 84.284 76.7721 85.0005 77.3331C85.5391 77.7548 85.3848 78.5852 85.0005 79.0286C84.3312 79.8013 83.6771 79.6644 82.7602 79.6939L82.6958 79.6962C81.9317 79.7273 81.1669 79.7491 80.4021 79.7607C80.1929 79.7641 79.9836 79.7632 79.7744 79.7645C79.7966 81.7007 78.6807 83.1748 77.2111 84.2956C76.2612 85.0203 75.0598 84.1842 74.7209 83.2822C74.4405 82.5357 74.3803 81.6178 74.5257 80.8005C74.5795 80.4993 74.6918 80.1723 74.8634 79.8934L74.9117 79.8186L74.9038 79.7117C74.9019 79.6852 74.9038 79.6597 74.903 79.6332C73.5387 79.5503 72.1823 79.4134 70.8264 79.2415L70.3745 79.1829C69.2172 79.0296 67.5175 78.9804 66.581 78.2273C66.5514 78.2032 66.5619 78.1506 66.5932 78.1339C67.1081 77.8565 67.6304 77.8722 68.2062 77.8467L68.2888 77.8427C68.915 77.8103 69.5398 77.7834 70.1657 77.7619L70.7919 77.7423C72.3938 77.6964 73.9971 77.6187 75.5974 77.5335C75.8757 77.5187 76.1539 77.5011 76.4326 77.484C76.7239 77.3619 77.0336 77.2887 77.3395 77.2752C77.5931 77.2638 77.8369 77.2989 78.0661 77.3718C78.6506 77.3266 79.2348 77.2774 79.8185 77.2245L80.4021 77.1704C81.2256 77.092 82.0914 77.0577 82.9043 76.8982ZM93.0174 62.3868C94.7779 61.5213 96.9185 61.5002 98.7316 62.2165L98.8517 62.2651C100.683 63.0253 102.889 64.7813 102.412 66.9685C101.975 68.9704 98.8357 68.6311 98.6766 66.7389C97.6632 65.3343 95.3906 65.0261 93.962 65.9193C93.0956 66.4612 92.5009 67.3736 92.0944 68.2938C91.7479 69.0775 91.6826 70.0453 91.1504 70.728C91.1331 70.7501 91.0985 70.7542 91.0733 70.7482C89.4863 70.3809 89.4495 67.858 89.7202 66.6343C90.1133 64.8552 91.3752 63.1946 93.0174 62.3868Z" fill="#4F4F4F"/>
</g>
</g>
</g>
<defs>
<clipPath id="clip0_133_1758">
<rect width="150" height="150" fill="white"/>
</clipPath>
</defs>
</svg>
